<?xml version="1.0" encoding="utf-8"?>
<!-- Generator: Adobe Illustrator 24.2.0, SVG Export Plug-In . SVG Version: 6.00 Build 0)  -->
<svg version="1.1" id="Layer_1" xmlns="http://www.w3.org/2000/svg" xmlns:xlink="http://www.w3.org/1999/xlink" x="0px" y="0px"
	 viewBox="0 0 2998.2 1863.1" style="enable-background:new 0 0 2998.2 1863.1;" xml:space="preserve">
<style type="text/css">
	.st0{fill:#6E9DB7;}
	.st1{fill:#5586A1;}
	.st2{fill:#486778;}
	.st3{fill:#91C0DA;}
	.st4{fill:#B3B3B3;}
	.st5{fill:#FAFAFA;}
	.st6{fill:#19A0E3;}
	.st7{fill:#3E3E3E;}
	.st8{fill:#E0E1DC;}
	.st9{fill:#D1D3D4;}
	.st10{fill:#87898C;}
	.st11{fill:#E85123;}
	.st12{fill:#9EA0A1;}
	.st13{fill:#6D6E71;}
	.st14{fill:#E6E7E8;}
	.st15{fill:#153B4D;}
	.st16{fill:#2A5A71;}
	.st17{fill:#707175;}
	.st18{fill:#CCEEFF;}
	.st19{fill:#415B76;}
	.st20{fill:#18334F;}
	.st21{fill:#EA5A5A;}
	.st22{fill:#10374A;}
	.st23{fill:#DADADA;}
	.st24{fill:#CCCCCC;}
	.st25{fill:#839B3B;}
	.st26{fill:#9AC14E;}
	.st27{fill:#3AAA35;}
	.st28{fill:#487313;}
	.st29{fill:#5B9926;}
	.st30{fill:#0D821F;}
	.st31{fill:#6F8727;}
	.st32{fill:#86AD3A;}
	.st33{fill:#269621;}
	.st34{fill:#586C0B;}
	.st35{fill:#C6C6C6;}
	.st36{fill:#8C3B26;}
	.st37{fill:#B2B2B2;}
	.st38{fill:#FFFFFF;}
	.st39{fill:#F07855;}
	.st40{fill:#E3E7EA;}
	.st41{fill:#EDEDED;}
	.st42{fill:#675C87;}
	.st43{fill:#F3F4F6;}
	.st44{fill:#FF7468;}
	.st45{fill:#82852A;}
	.st46{fill:#FFE9A0;}
	.st47{fill:#B54958;}
	.st48{fill:#ED6073;}
	.st49{fill:#FCEA98;}
	.st50{fill:#658234;}
	.st51{opacity:0.2;fill:#FFFFFF;enable-background:new    ;}
	.st52{fill:#F7F7F7;}
	.st53{fill:#D7E2C0;}
	.st54{fill:#D9DADC;}
	.st55{fill:#E2D4A7;}
	.st56{fill:#323033;}
	.st57{fill:#723E32;}
	.st58{fill:#345B82;}
	.st59{fill:#C0C7E2;}
	.st60{fill:#F0BA32;}
	.st61{fill:#FEF08F;}
	.st62{fill:#E96F24;}
	.st63{fill:#FFE0B9;}
	.st64{fill:#F18022;}
	.st65{fill:#FE8826;}
	.st66{fill:#2F2FFA;}
	.st67{fill:#4141FA;}
	.st68{fill:#009245;}
	.st69{fill:#00A850;}
	.st70{fill:#5A8325;}
	.st71{fill:#658C3D;}
	.st72{fill:#74A731;}
	.st73{fill:#85BF38;}
	.st74{fill:#688E3B;}
	.st75{fill:#8AC73A;}
	.st76{fill:#80B836;}
	.st77{fill:#E05D31;}
	.st78{fill:#DE4C25;}
</style>
<g>
	<g id="Layer_2_1_">
		<g id="background">
			<polygon class="st0" points="2173.3,1343.3 825,1343.3 539.1,1418.8 539.1,0 2459.1,0 2459.1,1420.8 			"/>
			<polygon class="st1" points="2173.3,1343.3 2998.2,1561.2 2998.2,0 2173.3,0 			"/>
			<polygon class="st2" points="2173.3,1343.3 2998.2,1561.2 2998.2,1507.8 2173.3,1311 			"/>
			<polygon class="st1" points="825,1343.3 0,1561.2 0,0 825,0 			"/>
			<polygon class="st3" points="0,1561.2 539.1,1418.8 825,1343.3 2173.3,1343.3 2998.2,1561.2 			"/>
			<polygon class="st2" points="825,1343.3 0,1561.2 0,1507.8 825,1311 			"/>
			<rect x="825" y="1311" class="st2" width="1348.3" height="32.3"/>
			<path class="st4" d="M786.4,741L786.4,741v-2.4l0,0l0.1-26.4l-6.2-0.3l0,0v-3.2c0-0.4-0.3-0.8-0.7-0.8c-0.4,0-0.7,0.3-0.7,0.7
				c0,0,0,0,0,0v3.2l-6.1-0.3l0,0v-3.2c0-0.4-0.3-0.8-0.7-0.8c-0.4,0-0.7,0.3-0.8,0.7c0,0,0,0,0,0v3.2l-6.1-0.3l0,0V708
				c0-0.4-0.3-0.8-0.8-0.8c-0.4,0-0.7,0.3-0.8,0.7c0,0,0,0,0,0v3.3l-6.2-0.3v-3.3c0-0.4-0.3-0.8-0.8-0.8c-0.4,0-0.8,0.3-0.8,0.7
				c0,0,0,0,0,0v3.3l-6.3-0.3v-3.3c0-0.4-0.3-0.8-0.8-0.8c-0.4,0-0.8,0.3-0.8,0.7c0,0,0,0,0,0.1v3.3l-6.4-0.3v-3.3
				c0-0.4-0.4-0.8-0.8-0.8c-0.4,0-0.8,0.3-0.8,0.7c0,0,0,0,0,0v3.3l-6.5-0.3l0,0v-3.3c0-0.4-0.4-0.8-0.8-0.8c-0.4,0-0.8,0.3-0.8,0.7
				c0,0,0,0,0,0v3.3l-6.5-0.3l0,0v-3.4c0-0.4-0.4-0.8-0.8-0.8c-0.4,0-0.8,0.3-0.8,0.7c0,0,0,0,0,0v3.3l-6.6-0.3l0,0v-3.4
				c0-0.4-0.4-0.8-0.8-0.8c-0.4,0-0.8,0.3-0.8,0.7c0,0,0,0,0,0v3.4l-6.7-0.3v-3.4c0-0.4-0.4-0.8-0.8-0.8c-0.4,0-0.8,0.3-0.8,0.7
				c0,0,0,0,0,0v3.4l-6.8-0.3V705c0-0.5-0.4-0.8-0.8-0.8c-0.4,0-0.8,0.3-0.8,0.7c0,0,0,0,0,0v3.4l-6.9-0.3v-3.4
				c0-0.5-0.4-0.8-0.8-0.8c-0.4,0-0.8,0.3-0.9,0.7c0,0,0,0,0,0.1v3.5l-6.9-0.3v-3.5c0-0.5-0.4-0.8-0.9-0.8c-0.4,0-0.8,0.3-0.9,0.7
				c0,0,0,0,0,0.1v3.5l-7-0.3l0,0v-3.5c0-0.5-0.4-0.8-0.9-0.8c-0.4,0-0.8,0.3-0.9,0.7c0,0,0,0,0,0v3.5l0,0l-7.1-0.3l0,0v-3.5
				c0-0.5-0.4-0.8-0.9-0.8c-0.4,0-0.8,0.3-0.9,0.7c0,0,0,0,0,0v3.5l0,0l-7.2-0.3V703c0-0.5-0.4-0.9-0.9-0.9c-0.5,0-0.9,0.3-0.9,0.7
				c0,0,0,0,0,0v3.5l0,0l-7.3-0.3v-3.5c0-0.5-0.4-0.9-0.9-0.9c-0.5,0-0.9,0.3-0.9,0.7c0,0,0,0,0,0v3.5l0,0l-7.4-0.3v-3.6
				c0-0.5-0.4-0.9-0.9-0.9c-0.5,0-0.9,0.3-0.9,0.8c0,0,0,0,0,0v3.6l0,0l-7.5-0.3v-3.6c0-0.5-0.4-0.9-0.9-0.9c-0.5,0-0.9,0.3-0.9,0.8
				c0,0,0,0,0,0v3.6l-7.6-0.3l0,0v-3.7c-0.1-0.5-0.5-0.9-0.9-0.9c-0.5-0.1-0.9,0.3-0.9,0.8c0,0,0,0,0,0v3.6l0,0l-7.7-0.3l0,0v-3.7
				c0-0.5-0.4-0.9-1-0.9c-0.5-0.1-0.9,0.2-1,0.7c0,0,0,0.1,0,0.1v3.7l0,0l-8-0.3l-0.1,24.4v3.8v4.7l0,0v3.5v9v1.3v8.1v3.2v5.5
				c-0.4,100.7,0,14.2-0.4,106.6l93.2-6.6h0.1l56.1-4l0,0l8.1-0.6l0,0l29-2.1C786,860.9,786,857.1,786.4,741L786.4,741l-87.1-1.9
				L786.4,741z"/>
			<path class="st5" d="M782.8,737.5c-0.4,116.4-0.4,120.3-0.4,120.3l-29.3,2l0,0l-8.1,0.5l0,0l-56.5,3.8h-0.1l-93.8,6.4
				c0.3-92.8,0-6,0.4-107v-5.5v-3.2v-8.1v-1.4v-9v-3.5l0,0L782.8,737.5L782.8,737.5z"/>
			<polygon class="st6" points="782.9,708.7 782.8,735.1 782.8,737.5 595.1,732.9 595.1,732.9 595.1,730.1 595.1,728.2 595.1,724.3 
				595.2,699.8 603.4,700.2 604.3,700.3 605.3,700.3 613,700.7 614,700.7 614.9,700.8 622.5,701.1 623.5,701.2 624.4,701.2 
				632,701.6 632.9,701.6 633.8,701.7 641.2,702 642.2,702 643.1,702.1 650.4,702.4 651.3,702.5 652.2,702.5 659.5,702.9 
				660.3,702.9 661.2,703 668.4,703.3 669.3,703.3 670.2,703.4 677.2,703.7 678.1,703.7 679,703.8 685.9,704.1 686.8,704.2 
				687.6,704.2 694.5,704.5 695.4,704.6 696.2,704.6 703,704.9 703.9,705 704.7,705 711.4,705.3 712.3,705.3 713.1,705.4 
				719.7,705.7 720.6,705.7 721.4,705.8 727.9,706.1 728.7,706.1 729.5,706.2 736,706.5 736.8,706.5 737.6,706.5 744,706.8 
				744.8,706.9 745.6,706.9 751.9,707.2 752.7,707.2 753.5,707.3 759.8,707.6 760.5,707.6 761.3,707.7 767.5,707.9 768.2,708 
				769,708 775.1,708.3 775.8,708.3 776.6,708.4 			"/>
			<path class="st7" d="M605.9,705.4c0,0.8-0.7,1.4-1.5,1.3c0,0-0.1,0-0.1,0c-0.8,0-1.5-0.6-1.5-1.4c0-0.8,0.7-1.4,1.5-1.3
				c0,0,0.1,0,0.1,0C605.1,704,605.8,704.6,605.9,705.4z"/>
			<path class="st8" d="M605.3,696.7v8.9c0,0.5-0.4,0.8-0.9,0.8c0,0,0,0-0.1,0c-0.5,0-0.9-0.4-1-0.9v-8.9c0-0.5,0.4-0.8,0.9-0.8
				c0,0,0.1,0,0.1,0C604.8,695.8,605.2,696.2,605.3,696.7z"/>
			<path class="st8" d="M604.3,695.8v10.6c-0.5,0-0.9-0.4-1-0.9v-8.9C603.4,696.1,603.8,695.7,604.3,695.8
				C604.3,695.8,604.3,695.8,604.3,695.8z"/>
			<path class="st7" d="M615.5,705.8c0,0.8-0.7,1.3-1.5,1.3c0,0-0.1,0-0.1,0c-0.8,0-1.5-0.6-1.5-1.4c0.1-0.8,0.7-1.4,1.5-1.3
				c0,0,0,0,0.1,0C614.8,704.4,615.4,705,615.5,705.8z"/>
			<path class="st8" d="M614.9,697.1v8.9c0,0.5-0.4,0.8-0.9,0.8c0,0,0,0,0,0c-0.5,0-1-0.4-1-0.9V697c0-0.5,0.4-0.8,0.9-0.8
				c0,0,0.1,0,0.1,0C614.5,696.3,614.9,696.6,614.9,697.1z"/>
			<path class="st8" d="M614,696.2v10.5c-0.5,0-1-0.4-1-0.9V697C613,696.6,613.4,696.2,614,696.2C613.9,696.2,614,696.2,614,696.2z"
				/>
			<path class="st7" d="M625,706.3c-0.1,0.8-0.7,1.3-1.5,1.3c0,0,0,0-0.1,0c-0.8,0-1.5-0.6-1.5-1.4c0-0.8,0.7-1.3,1.4-1.3
				c0,0,0,0,0.1,0C624.3,704.8,624.9,705.5,625,706.3z"/>
			<path class="st8" d="M624.4,697.6v8.8c0,0.5-0.4,0.8-0.9,0.8c0,0,0,0,0,0c-0.5,0-0.9-0.4-0.9-0.9v-8.8c0-0.5,0.4-0.8,0.9-0.8
				c0,0,0.1,0,0.1,0C624,696.8,624.4,697.2,624.4,697.6z"/>
			<path class="st8" d="M623.5,696.7v10.5c-0.5,0-0.9-0.4-0.9-0.9v-8.8C622.6,697.1,623,696.7,623.5,696.7
				C623.5,696.7,623.5,696.7,623.5,696.7z"/>
			<path class="st7" d="M634.4,706.7c0,0.7-0.7,1.3-1.4,1.3c0,0-0.1,0-0.1,0c-0.8,0-1.5-0.6-1.5-1.4c0-0.7,0.7-1.3,1.4-1.3
				c0,0,0,0,0.1,0C633.7,705.3,634.3,705.9,634.4,706.7z"/>
			<path class="st8" d="M633.8,698.1v8.7c0,0.5-0.4,0.8-0.9,0.8c0,0,0,0,0,0c-0.5,0-0.9-0.4-0.9-0.9V698c0-0.5,0.4-0.8,0.9-0.8
				c0,0,0,0,0,0C633.4,697.2,633.8,697.6,633.8,698.1z"/>
			<path class="st8" d="M632.9,697.2v10.4c-0.5,0-0.9-0.4-0.9-0.9V698C632,697.5,632.4,697.2,632.9,697.2
				C632.9,697.2,632.9,697.2,632.9,697.2z"/>
			<path class="st7" d="M643.6,707.1c0,0.7-0.7,1.3-1.4,1.3c0,0,0,0,0,0c-0.8,0-1.4-0.6-1.5-1.4c0-0.7,0.7-1.3,1.4-1.3
				c0,0,0.1,0,0.1,0C642.9,705.7,643.6,706.3,643.6,707.1z"/>
			<path class="st8" d="M643.1,698.5v8.7c0,0.5-0.4,0.8-0.9,0.8c0,0,0,0,0,0c-0.5,0-0.9-0.4-0.9-0.9v-8.7c0-0.5,0.4-0.8,0.9-0.8
				c0,0,0,0,0,0C642.6,697.7,643.1,698,643.1,698.5z"/>
			<path class="st8" d="M642.2,697.7V708c-0.5,0-0.9-0.4-0.9-0.9v-8.7C641.3,698,641.7,697.6,642.2,697.7
				C642.1,697.7,642.2,697.7,642.2,697.7z"/>
			<path class="st7" d="M652.8,707.5c0,0.7-0.7,1.3-1.4,1.3c0,0,0,0-0.1,0c-0.8,0-1.4-0.6-1.5-1.4c0-0.7,0.7-1.3,1.4-1.3
				c0,0,0.1,0,0.1,0C652.1,706.1,652.7,706.7,652.8,707.5z"/>
			<path class="st8" d="M652.2,699v8.6c0,0.4-0.4,0.8-0.8,0.8c0,0,0,0-0.1,0c-0.5,0-0.9-0.4-0.9-0.8v-8.6c0-0.5,0.4-0.8,0.9-0.8
				c0,0,0,0,0,0C651.8,698.1,652.2,698.5,652.2,699z"/>
			<path class="st8" d="M651.3,698.1v10.3c-0.5,0-0.9-0.4-0.9-0.8v-8.6C650.5,698.4,650.8,698.1,651.3,698.1
				C651.3,698.1,651.3,698.1,651.3,698.1z"/>
			<path class="st7" d="M661.8,707.9c0,0.7-0.6,1.3-1.4,1.3c0,0-0.1,0-0.1,0c-0.8,0-1.4-0.6-1.5-1.4c0-0.7,0.7-1.3,1.4-1.3
				c0,0,0,0,0.1,0C661.1,706.5,661.7,707.1,661.8,707.9z"/>
			<path class="st8" d="M661.2,699.4v8.6c0,0.4-0.4,0.8-0.8,0.8c0,0,0,0,0,0c-0.5,0-0.9-0.4-0.9-0.8v-8.6c0-0.4,0.4-0.8,0.8-0.8
				c0,0,0,0,0.1,0C660.8,698.6,661.2,699,661.2,699.4z"/>
			<path class="st8" d="M660.4,698.6v10.2c-0.5,0-0.9-0.4-0.9-0.8v-8.6C659.5,698.9,659.9,698.6,660.4,698.6
				C660.3,698.6,660.4,698.6,660.4,698.6z"/>
			<path class="st7" d="M670.7,708.2c0,0.7-0.6,1.3-1.4,1.2c0,0-0.1,0-0.1,0c-0.8,0-1.4-0.6-1.4-1.4c0-0.7,0.6-1.3,1.4-1.2
				c0,0,0.1,0,0.1,0C670,706.9,670.6,707.5,670.7,708.2z"/>
			<path class="st8" d="M670.2,699.9v8.5c0,0.4-0.4,0.8-0.8,0.8c0,0,0,0,0,0c-0.5,0-0.9-0.4-0.9-0.8v-8.5c0-0.4,0.4-0.8,0.8-0.8
				c0,0,0,0,0,0C669.8,699,670.1,699.4,670.2,699.9z"/>
			<path class="st8" d="M669.3,699v10.1c-0.5,0-0.9-0.4-0.9-0.8v-8.5C668.4,699.3,668.8,699,669.3,699
				C669.3,699,669.3,699,669.3,699z"/>
			<path class="st7" d="M679.5,708.6c0,0.7-0.6,1.3-1.4,1.2c0,0,0,0-0.1,0c-0.8,0-1.4-0.6-1.4-1.4c0-0.7,0.6-1.3,1.4-1.2
				c0,0,0,0,0.1,0C678.8,707.3,679.4,707.9,679.5,708.6z"/>
			<path class="st8" d="M679,700.3v8.5c0,0.4-0.4,0.8-0.8,0.8c0,0,0,0,0,0c-0.5,0-0.8-0.4-0.9-0.8v-8.5c0-0.4,0.4-0.8,0.8-0.8
				c0,0,0,0,0,0C678.6,699.5,679,699.9,679,700.3z"/>
			<path class="st8" d="M678.1,699.5v10.1c-0.5,0-0.8-0.4-0.9-0.8v-8.5C677.3,699.8,677.6,699.4,678.1,699.5
				C678.1,699.5,678.1,699.5,678.1,699.5z"/>
			<path class="st7" d="M688.2,709c0,0.7-0.6,1.3-1.3,1.2c0,0-0.1,0-0.1,0c-0.7,0-1.4-0.6-1.4-1.3c0-0.7,0.6-1.3,1.3-1.2
				c0,0,0.1,0,0.1,0C687.5,707.7,688.1,708.3,688.2,709z"/>
			<path class="st8" d="M687.7,700.7v8.4c0,0.4-0.4,0.8-0.8,0.8c0,0,0,0,0,0c-0.5,0-0.8-0.4-0.8-0.8v-8.4c0-0.4,0.4-0.8,0.8-0.8
				c0,0,0,0,0,0C687.3,699.9,687.6,700.3,687.7,700.7z"/>
			<path class="st8" d="M686.8,699.9v10c-0.5,0-0.8-0.4-0.8-0.8v-8.4C686,700.2,686.4,699.9,686.8,699.9
				C686.8,699.9,686.8,699.9,686.8,699.9z"/>
			<path class="st7" d="M696.7,709.4c0,0.7-0.6,1.2-1.3,1.2c0,0,0,0-0.1,0c-0.7,0-1.3-0.6-1.4-1.3c0-0.7,0.6-1.3,1.4-1.2
				c0,0,0,0,0,0C696.1,708.1,696.7,708.6,696.7,709.4z"/>
			<path class="st8" d="M696.2,701.2v8.4c0,0.4-0.4,0.8-0.8,0.8c0,0,0,0-0.1,0c-0.5,0-0.8-0.4-0.8-0.8v-8.4c0-0.4,0.4-0.8,0.8-0.8
				c0,0,0,0,0,0C695.9,700.3,696.2,700.7,696.2,701.2z"/>
			<path class="st8" d="M695.4,700.3v10c-0.5,0-0.8-0.4-0.8-0.8v-8.4C694.6,700.6,694.9,700.3,695.4,700.3
				C695.4,700.3,695.4,700.3,695.4,700.3z"/>
			<path class="st7" d="M705.2,709.8c0,0.7-0.6,1.2-1.3,1.2c0,0-0.1,0-0.1,0c-0.7,0-1.3-0.6-1.4-1.3c0-0.7,0.6-1.2,1.3-1.2
				c0,0,0.1,0,0.1,0C704.6,708.4,705.2,709,705.2,709.8z"/>
			<path class="st8" d="M704.7,701.6v8.3c0,0.4-0.4,0.8-0.8,0.8c0,0,0,0,0,0c-0.5,0-0.8-0.4-0.8-0.8v-8.3c0-0.4,0.4-0.8,0.8-0.8
				c0,0,0,0,0,0C704.3,700.8,704.7,701.1,704.7,701.6z"/>
			<path class="st8" d="M703.9,700.8v9.9c-0.5,0-0.8-0.4-0.8-0.8v-8.3C703.1,701.1,703.5,700.7,703.9,700.8
				C703.9,700.8,703.9,700.8,703.9,700.8z"/>
			<path class="st7" d="M713.6,710.1c0,0.7-0.6,1.2-1.3,1.2c0,0,0,0-0.1,0c-0.7,0-1.3-0.6-1.3-1.3c0-0.7,0.6-1.2,1.3-1.2
				c0,0,0,0,0.1,0C713,708.8,713.6,709.4,713.6,710.1z"/>
			<path class="st8" d="M713.1,702v8.3c0,0.4-0.4,0.8-0.8,0.7c0,0,0,0,0,0c-0.4,0-0.8-0.4-0.8-0.8v-8.3c0-0.4,0.4-0.8,0.8-0.7
				c0,0,0,0,0,0C712.7,701.2,713.1,701.6,713.1,702z"/>
			<path class="st8" d="M712.3,701.2v9.8c-0.4,0-0.8-0.4-0.8-0.8v-8.3C711.5,701.5,711.8,701.2,712.3,701.2
				C712.3,701.2,712.3,701.2,712.3,701.2z"/>
			<path class="st7" d="M721.9,710.5c0,0.7-0.6,1.2-1.3,1.2c0,0,0,0-0.1,0c-0.7,0-1.3-0.6-1.3-1.3c0-0.7,0.6-1.2,1.3-1.2
				c0,0,0,0,0.1,0C721.3,709.2,721.8,709.8,721.9,710.5z"/>
			<path class="st8" d="M721.4,702.4v8.2c0,0.4-0.4,0.7-0.8,0.7c0,0,0,0,0,0c-0.4,0-0.8-0.4-0.8-0.8v-8.2c0-0.4,0.4-0.8,0.8-0.7
				c0,0,0,0,0,0C721,701.6,721.4,702,721.4,702.4z"/>
			<path class="st8" d="M720.6,701.6v9.8c-0.4,0-0.8-0.4-0.8-0.8v-8.2C719.8,701.9,720.1,701.6,720.6,701.6
				C720.5,701.6,720.6,701.6,720.6,701.6z"/>
			<path class="st7" d="M730,710.8c0,0.7-0.6,1.2-1.2,1.2c0,0,0,0-0.1,0c-0.7,0-1.3-0.6-1.3-1.3c0-0.7,0.6-1.2,1.2-1.2
				c0,0,0.1,0,0.1,0C729.4,709.5,730,710.1,730,710.8z"/>
			<path class="st8" d="M729.5,702.8v8.2c0,0.4-0.3,0.7-0.8,0.7c0,0,0,0,0,0c-0.4,0-0.8-0.4-0.8-0.8v-8.2c0-0.4,0.4-0.8,0.8-0.7
				c0,0,0,0,0,0C729.2,702,729.5,702.4,729.5,702.8z"/>
			<path class="st8" d="M728.8,702v9.7c-0.4,0-0.8-0.4-0.8-0.8v-8.2C728,702.3,728.3,702,728.8,702C728.7,702,728.7,702,728.8,702z"
				/>
			<path class="st7" d="M738.1,711.2c0,0.7-0.6,1.2-1.2,1.2c0,0,0,0-0.1,0c-0.7,0-1.3-0.6-1.3-1.3c0-0.7,0.6-1.2,1.2-1.2
				c0,0,0,0,0.1,0C737.5,709.9,738.1,710.5,738.1,711.2z"/>
			<path class="st8" d="M737.6,703.2v8.1c0,0.4-0.3,0.7-0.7,0.7c0,0,0,0,0,0c-0.4,0-0.8-0.4-0.8-0.8v-8.1c0-0.4,0.4-0.7,0.8-0.7
				c0,0,0,0,0,0C737.3,702.4,737.6,702.8,737.6,703.2z"/>
			<path class="st8" d="M736.8,702.4v9.7c-0.4,0-0.8-0.4-0.8-0.8v-8.1C736.1,702.7,736.4,702.4,736.8,702.4
				C736.8,702.4,736.8,702.4,736.8,702.4z"/>
			<path class="st7" d="M746.1,711.5c0,0.7-0.6,1.2-1.2,1.2c0,0,0,0-0.1,0c-0.7,0-1.3-0.6-1.3-1.3c0-0.7,0.6-1.2,1.2-1.2
				c0,0,0,0,0.1,0C745.5,710.3,746.1,710.8,746.1,711.5z"/>
			<path class="st8" d="M745.6,703.6v8.1c0,0.4-0.3,0.7-0.7,0.7c0,0,0,0,0,0c-0.4,0-0.8-0.4-0.8-0.8v-8.1c0-0.4,0.3-0.7,0.7-0.7
				c0,0,0,0,0,0C745.3,702.8,745.6,703.2,745.6,703.6z"/>
			<path class="st8" d="M744.8,702.8v9.6c-0.4,0-0.8-0.4-0.8-0.8v-8.1C744,703.1,744.4,702.8,744.8,702.8
				C744.8,702.8,744.8,702.8,744.8,702.8z"/>
			<path class="st7" d="M754,711.9c0,0.7-0.6,1.2-1.2,1.2c0,0,0,0-0.1,0c-0.7,0-1.2-0.6-1.3-1.3c0-0.7,0.5-1.2,1.2-1.2
				c0,0,0,0,0.1,0C753.4,710.6,754,711.2,754,711.9z"/>
			<path class="st8" d="M753.5,704v8c0,0.4-0.3,0.7-0.7,0.7c0,0,0,0,0,0c-0.4,0-0.8-0.4-0.8-0.8v-8c0-0.4,0.3-0.7,0.7-0.7
				c0,0,0,0,0.1,0C753.2,703.2,753.5,703.6,753.5,704z"/>
			<path class="st8" d="M752.7,703.2v9.5c-0.4,0-0.8-0.4-0.8-0.8v-8C751.9,703.6,752.3,703.2,752.7,703.2
				C752.7,703.2,752.7,703.2,752.7,703.2z"/>
			<path class="st7" d="M761.8,712.2c0,0.7-0.6,1.2-1.2,1.2c0,0,0,0-0.1,0c-0.7,0-1.2-0.6-1.2-1.3c0-0.6,0.5-1.2,1.2-1.2
				c0,0,0.1,0,0.1,0C761.2,711,761.7,711.5,761.8,712.2z"/>
			<path class="st8" d="M761.3,704.4v8c0,0.4-0.3,0.7-0.7,0.7c0,0,0,0-0.1,0c-0.4,0-0.8-0.4-0.8-0.8v-8c0-0.4,0.3-0.7,0.7-0.7
				c0,0,0,0,0,0C760.9,703.6,761.3,704,761.3,704.4z"/>
			<path class="st8" d="M760.5,703.6v9.5c-0.4,0-0.8-0.4-0.8-0.8v-8C759.8,703.9,760.1,703.6,760.5,703.6
				C760.5,703.6,760.5,703.6,760.5,703.6z"/>
			<path class="st7" d="M769.4,712.6c0,0.6-0.5,1.2-1.2,1.2c0,0,0,0-0.1,0c-0.7,0-1.2-0.6-1.2-1.3c0-0.7,0.5-1.2,1.2-1.2
				c0,0,0,0,0.1,0C768.9,711.3,769.4,711.9,769.4,712.6z"/>
			<path class="st8" d="M769,704.8v7.9c0,0.4-0.3,0.7-0.7,0.7c0,0,0,0-0.1,0c-0.4,0-0.8-0.4-0.8-0.8v-7.9c0-0.4,0.3-0.7,0.7-0.7
				c0,0,0,0,0.1,0C768.7,704,769,704.3,769,704.8z"/>
			<path class="st8" d="M768.2,704v9.4c-0.4,0-0.8-0.4-0.8-0.8v-7.9C767.5,704.3,767.8,704,768.2,704C768.2,704,768.2,704,768.2,704
				z"/>
			<path class="st7" d="M777,712.9c0,0.6-0.5,1.2-1.1,1.2c0,0,0,0-0.1,0c-0.7,0-1.2-0.6-1.2-1.3c0-0.6,0.5-1.2,1.2-1.2
				c0,0,0,0,0.1,0C776.5,711.7,777,712.2,777,712.9z"/>
			<path class="st8" d="M776.6,705.2v7.9c0,0.4-0.3,0.7-0.7,0.7c0,0,0,0,0,0c-0.4,0-0.7-0.4-0.8-0.8v-7.9c0-0.4,0.3-0.7,0.7-0.7
				c0,0,0,0,0.1,0C776.3,704.4,776.6,704.7,776.6,705.2z"/>
			<path class="st8" d="M775.9,704.4v9.4c-0.4,0-0.7-0.4-0.8-0.8v-7.9C775.1,704.7,775.4,704.4,775.9,704.4
				C775.8,704.4,775.8,704.4,775.9,704.4z"/>
			<polygon class="st9" points="658,777.3 641.3,777.4 641.3,762.2 658.1,762.3 			"/>
			<path class="st10" d="M650.1,765.9l-2.3,1l0.3,1.4l1.7-0.7l0,0v6.2h2v-7.8L650.1,765.9z"/>
			<polygon class="st9" points="681.3,777.2 665.1,777.3 665.2,762.3 681.3,762.4 			"/>
			<path class="st10" d="M673.2,765.9c-1,0-1.9,0.3-2.8,0.8l0.6,1.3c0.5-0.4,1.1-0.6,1.8-0.7c1,0,1.4,0.5,1.4,1.1
				c0,0.9-0.9,1.8-2.8,3.3l-1.1,0.9v1.1h5.9v-1.5h-3.2l0,0l0.8-0.6c1.2-1,2.2-2,2.2-3.3S675.1,765.9,673.2,765.9z"/>
			<polygon class="st9" points="703.8,777.1 688.2,777.2 688.2,762.4 703.9,762.5 			"/>
			<path class="st10" d="M696,765.9c-0.9,0-1.7,0.2-2.5,0.6l0.4,1.3c0.5-0.3,1.1-0.4,1.7-0.5c0.8,0,1.2,0.3,1.2,0.8
				c0,0.7-0.8,0.9-1.5,0.9h-0.7v1.3h0.8c0.8,0,1.6,0.3,1.6,1.1c0,0.6-0.5,1-1.5,1c-0.7,0-1.3-0.2-1.9-0.5l-0.4,1.3
				c0.7,0.4,1.6,0.6,2.4,0.5c2,0,3.3-1,3.3-2.3c0-1-0.8-1.8-1.7-1.8l0,0c0.8-0.2,1.5-0.9,1.5-1.8C698.7,766.7,697.7,765.9,696,765.9
				z"/>
			<polygon class="st9" points="725.6,777 710.5,777 710.5,762.6 725.7,762.6 			"/>
			<path class="st10" d="M720.3,766.1H718l-3,4.5v1.1h3.5v1.8h1.7v-1.8h1v-1.3h-0.9L720.3,766.1z M718.5,768.8v1.7h-1.8l0,0l1.1-1.6
				c0.3-0.5,0.5-0.9,0.7-1.4h0C718.6,767.9,718.5,768.3,718.5,768.8L718.5,768.8z"/>
			<polygon class="st9" points="746.8,776.8 732.1,776.9 732.1,762.7 746.8,762.8 			"/>
			<path class="st10" d="M741.9,767.5v-1.4h-4.2l-0.5,3.9c0.3,0,0.7-0.1,1-0.1c1.5,0,2.1,0.5,2.1,1.2s-0.8,1.1-1.5,1.1
				c-0.6,0-1.2-0.1-1.7-0.4l-0.3,1.3c0.7,0.3,1.4,0.4,2.1,0.4c2,0,3.3-1.2,3.3-2.6c0-0.7-0.3-1.4-0.9-1.8c-0.6-0.4-1.3-0.5-2-0.5
				c-0.2,0-0.3,0-0.5,0l0.2-1.1L741.9,767.5z"/>
			<polygon class="st9" points="767.2,776.7 753,776.8 753.1,762.8 767.3,762.8 			"/>
			<path class="st10" d="M761.5,767.4c0.2,0,0.4,0,0.7,0v-1.3c-0.2,0-0.5,0-0.7,0c-1,0-2.1,0.4-2.9,1.1c-0.9,0.8-1.4,2-1.3,3.2
				c-0.2,1.6,0.9,3,2.5,3.2c0.1,0,0.3,0,0.4,0c1.5,0,2.7-1.1,2.7-2.5c0,0,0-0.1,0-0.1c0.1-1.2-0.8-2.3-2-2.4c-0.1,0-0.2,0-0.2,0
				c-0.6,0-1.1,0.2-1.6,0.6l0,0C759.5,768.1,760.4,767.3,761.5,767.4z M760.2,769.7c0.6,0,1.1,0.5,1.1,1.1c0,0.1,0,0.1,0,0.2
				c0,0.7-0.4,1.3-1,1.3c-0.8,0-1.2-0.7-1.2-1.5c0-0.1,0-0.3,0.1-0.4C759.3,770,759.7,769.7,760.2,769.7z"/>
			<polygon class="st9" points="633.9,794.6 616.6,794.9 616.7,779.4 633.9,779.3 			"/>
			<path class="st11" d="M622.7,783.1h-0.5v1.5h0.1h1.2h2.8l0,0l-1.6,2.7l-0.7,1.2l-1.5,2.5h2.2l0.1-0.2l0.7-1.3l2.9-5.4V783
				L622.7,783.1z"/>
			<polygon class="st9" points="658,794.2 641.2,794.5 641.3,779.2 658,779.1 			"/>
			<path class="st10" d="M649.8,782.7c-0.3,0-0.7,0-1,0.1c-1.2,0.3-2.1,1.1-2.1,2.1c0,0.8,0.5,1.5,1.2,1.7l0,0
				c-0.9,0.3-1.5,1.1-1.6,2c0,0.1,0,0.2,0,0.4c0.1,0.4,0.3,0.8,0.7,1.1c0.7,0.5,1.6,0.8,2.5,0.7c0.5,0,1.1-0.1,1.6-0.2
				c1-0.2,1.7-1.1,1.8-2.2c0-0.9-0.7-1.7-1.6-1.9l0,0c0.7-0.3,1.2-1,1.2-1.7C652.6,783.7,651.8,782.7,649.8,782.7z M650.9,788.5
				c0,0.1,0,0.3-0.1,0.4c-0.2,0.4-0.6,0.6-1.1,0.6c-0.6,0.1-1.1-0.4-1.2-1c0,0,0-0.1,0-0.1c0-0.6,0.5-1.1,1.1-1.2
				c0.3,0.1,0.6,0.2,0.9,0.4C650.7,787.8,650.9,788.2,650.9,788.5L650.9,788.5z M650.7,784.9c0,0.5-0.4,0.9-0.8,1l0,0
				c-0.7-0.2-1.2-0.5-1.2-1c0-0.4,0.3-0.7,0.6-0.8c0.1,0,0.3-0.1,0.4-0.1C650.2,783.9,650.7,784.3,650.7,784.9
				C650.7,784.8,650.7,784.9,650.7,784.9z"/>
			<polygon class="st9" points="681.2,793.8 665.1,794 665.1,779.1 681.3,779 			"/>
			<path class="st10" d="M673.2,782.5c-1.7-0.1-3.1,1.2-3.2,2.8c0,0,0,0,0,0c0,1.3,1.1,2.4,2.4,2.4c0.1,0,0.1,0,0.2,0
				c0.6,0,1.2-0.2,1.7-0.6l0,0c-0.2,0.6-0.5,1.1-1.1,1.4c-0.5,0.3-1.1,0.5-1.7,0.5c-0.3,0-0.6,0-0.9,0v1.4c0.2,0,0.6,0,0.9,0
				c1.2,0,2.3-0.4,3.2-1.1c1-0.9,1.5-2.2,1.5-3.6c0.1-1.7-1.1-3.1-2.7-3.3C673.5,782.5,673.4,782.5,673.2,782.5z M674.4,785.4
				c0,0.2,0,0.3-0.1,0.5c-0.3,0.3-0.7,0.5-1.1,0.5c-0.6,0-1.1-0.4-1.2-1.1c0-0.1,0-0.1,0-0.2c-0.1-0.7,0.4-1.3,1.1-1.4
				c0,0,0.1,0,0.1,0C674.1,783.8,674.4,784.6,674.4,785.4L674.4,785.4z"/>
			<polygon class="st9" points="703.8,793.4 688.1,793.6 688.2,778.9 703.8,778.8 			"/>
			<path class="st10" d="M692,782.4l-2.2,1l0.3,1.3l1.6-0.7l0,0v6h1.8v-7.6L692,782.4z"/>
			<path class="st10" d="M699.2,782.2c-2.1,0-3.1,1.8-3.1,4s0.9,3.9,3,3.9s3.1-1.7,3.1-4C702.2,784,701.3,782.2,699.2,782.2z
				 M700.3,786.1c0,1.7-0.4,2.6-1.2,2.6s-1.2-0.8-1.2-2.5s0.5-2.6,1.2-2.6S700.3,784.5,700.3,786.1z"/>
			<polygon class="st9" points="725.6,793 710.4,793.3 710.5,778.8 725.6,778.7 			"/>
			<path class="st10" d="M715,782.2l-2.1,1l0.3,1.3l1.5-0.7l0,0v6h1.8v-7.5L715,782.2z"/>
			<path class="st10" d="M721.7,782.2l-2.1,0.9l0.3,1.3l1.5-0.7l0,0v5.9h1.8v-7.5L721.7,782.2z"/>
			<polygon class="st9" points="746.7,792.6 732,792.9 732.1,778.6 746.8,778.5 			"/>
			<path class="st10" d="M735.8,782.1l-2,0.9l0.3,1.3l1.5-0.7l0,0v5.8h1.7v-7.4L735.8,782.1z"/>
			<path class="st10" d="M742.3,781.9c-0.9,0-1.8,0.3-2.5,0.8l0.5,1.2c0.5-0.4,1-0.6,1.6-0.6c0.9,0,1.2,0.5,1.2,1.1
				c0,0.8-0.8,1.7-2.5,3.1l-1,0.9v1l5.4-0.1v-1.4h-2.8l0,0l0.7-0.6c1.1-1,2-2,2-3.2S744,781.9,742.3,781.9z"/>
			<polygon class="st9" points="767.2,792.3 753,792.5 753,778.5 767.2,778.4 			"/>
			<path class="st10" d="M756.6,781.8l-2,0.9l0.3,1.3l1.4-0.7l0,0v5.8h1.7v-7.2L756.6,781.8z"/>
			<path class="st10" d="M762.9,781.7c-0.8,0-1.6,0.2-2.3,0.6l0.3,1.2c0.5-0.3,1-0.4,1.5-0.4c0.7,0,1.1,0.3,1.1,0.7
				c0,0.6-0.7,0.8-1.3,0.8h-0.7v1.2h0.7c0.8,0,1.5,0.3,1.5,1c0,0.5-0.5,1-1.3,1c-0.6,0-1.2-0.2-1.7-0.4l-0.4,1.3
				c0.7,0.3,1.4,0.5,2.2,0.5c1.9,0,3-1,3-2.2c0-0.9-0.7-1.6-1.6-1.7l0,0c0.8-0.2,1.3-0.9,1.3-1.7
				C765.4,782.4,764.5,781.7,762.9,781.7z"/>
			<polygon class="st9" points="633.8,811.7 616.5,812.2 616.6,796.8 633.9,796.4 			"/>
			<path class="st11" d="M620.7,800.4l-2.4,1l0.3,1.4l1.7-0.8l0,0c0,5.7,0,4.5,0,6.3h2c0-2,0-0.4,0-8L620.7,800.4z"/>
			<path class="st11" d="M631.1,800.2l-2.5,0.1l-0.2,0.2l-0.9,1.3l-2.3,3.4v1.2l4-0.1v1.9l2-0.1v-1.9h1.1v-1.4h-1.1L631.1,800.2z
				 M629.1,804.9c-0.8,0-0.6,0-2,0l0,0c0.8-1,1.4-2.1,2-3.3l0,0C629.1,802.7,629.1,803,629.1,804.9L629.1,804.9z"/>
			<polygon class="st9" points="657.9,811 641.2,811.5 641.2,796.3 657.9,796 			"/>
			<path class="st10" d="M645.4,799.8l-2.3,1l0.3,1.4l1.7-0.8l0,0v6.2h2v-7.8H645.4z"/>
			<path class="st10" d="M652.7,801.2L652.7,801.2h1h1.9v-1.5l-2.8,0.1H652h-1.2l-0.6,4.1c0.4-0.1,0.8-0.1,1.2-0.1
				c0.4,0,0.8,0,1.2,0.1c0.8,0.2,1.2,0.6,1.2,1.1s-0.5,1-1.2,1.2c-0.2,0-0.4,0.1-0.5,0.1c-0.7,0-1.4-0.1-2-0.3l-0.4,1.4
				c0.8,0.3,1.6,0.4,2.4,0.4h0.4c0.7-0.1,1.4-0.3,2-0.6c0.6-0.4,1.1-1,1.2-1.7c0-0.2,0.1-0.4,0.1-0.5c0-0.8-0.3-1.5-1-1.9
				c-0.1-0.1-0.3-0.1-0.4-0.2c-0.5-0.2-0.9-0.3-1.4-0.3h-0.5c-0.2,0-0.4,0-0.6,0l0.2-1.2L652.7,801.2z"/>
			<polygon class="st9" points="703.7,809.7 688,810.1 688.1,795.4 703.8,795.1 			"/>
			<path class="st10" d="M691.9,798.9l-2.2,1l0.3,1.3l1.6-0.7l0,0c0,7,0,3.5,0,6h1.8c0-5.5,0,0.1,0-7.6L691.9,798.9z"/>
			<path class="st10" d="M701.2,798.6c-0.2,0-0.4,0-0.6,0c-1.1,0-2.2,0.5-3.1,1.2c-1.7,1.5-2.1,4.9-0.2,6.1l0,0
				c0.3,0.2,0.6,0.3,0.9,0.4h0.1c0.3,0.1,0.6,0.1,0.9,0.1c0.8,0,1.7-0.3,2.2-1c0.1-0.1,0.1-0.1,0.2-0.2c0.4-0.5,0.6-1,0.5-1.6
				c0-0.1,0-0.2,0-0.3s0,0,0,0l0,0c0-0.3-0.1-0.5-0.2-0.8c-0.1-0.3-0.4-0.6-0.6-0.8c-0.5-0.3-1-0.5-1.6-0.5c-0.6,0-1.3,0.2-1.7,0.6
				l0,0c0.2-0.9,1-1.7,2.7-1.9c0.2,0,0.4,0,0.7,0h0.1v-1.4L701.2,798.6z M700.2,803.7C700.2,803.7,700.2,803.7,700.2,803.7
				c0,0.5-0.2,0.9-0.5,1.2c-0.2,0.1-0.4,0.2-0.6,0.2c-0.3,0-0.7-0.1-0.9-0.3c-0.3-0.3-0.4-0.7-0.4-1.2c0-0.2,0-0.3,0.1-0.4
				c0.3-0.6,1-0.9,1.6-0.6C700,802.7,700.2,803.2,700.2,803.7z"/>
			<polygon class="st9" points="681.2,810.3 665,810.8 665,795.9 681.2,795.6 			"/>
			<path class="st10" d="M668.9,799.4l-2.2,1l0.3,1.3l1.6-0.7l0,0v4.7v1.4l1.9,0v-1.7v-6L668.9,799.4z"/>
			<path class="st10" d="M677.9,800.5c0.3,0,0.5,0,0.8,0v-1.4c-0.3,0-0.5,0-0.8,0c-1.2,0-2.3,0.5-3.2,1.2c-1,0.9-1.5,2.1-1.5,3.5
				c0,0.4,0,0.7,0.1,1.1c0.4,1.4,1.7,2.3,3.2,2.2c1.6,0,3-1.2,3.1-2.9v-0.1c0-1.3-1-2.4-2.3-2.4c-0.1,0-0.2,0-0.3,0
				c-0.7,0-1.3,0.2-1.8,0.7l0,0C675.4,801.5,676.2,800.6,677.9,800.5z M676.4,803c0.6,0,1.2,0.5,1.2,1.1c0,0.1,0,0.1,0,0.2l0,0
				c0.1,0.7-0.4,1.3-1.1,1.4c0,0,0,0-0.1,0c-0.7,0-1.2-0.5-1.3-1.1c0-0.1,0-0.3-0.1-0.4c0-0.2,0-0.3,0.1-0.5
				C675.4,803.3,675.9,803,676.4,803z"/>
			<polygon class="st9" points="725.5,809 710.4,809.5 710.4,795 725.6,794.7 			"/>
			<path class="st10" d="M714.7,798.4h-0.6l-2.1,1c0.2,1,0.1,0.6,0.3,1.3l1.5-0.7l0,0c0,1.1,0,0.1,0,5.9h1.8v-5.8v-1.7L714.7,798.4z
				"/>
			<path class="st10" d="M722.3,798.2H722l-3.6,0.1v1.4h1l2.6-0.1l0,0c-2.2,4.1-1.9,3.5-3.3,6.1c1.2,0,0.8,0,2,0
				c1.3-2.6,1.5-2.9,3.2-6.4v-1.1H722.3z"/>
			<polygon class="st9" points="746.7,808.4 732,808.9 732,794.6 746.7,794.3 			"/>
			<path class="st10" d="M735.6,798l-1.2,0.5l-0.9,0.4l0.3,1.3l1.3-0.6l0.2-0.1l0,0v0.4c0,2.9,0,1.6,0,5.5h1.7c0-3.5,0-2.4,0-4.9
				V798L735.6,798z"/>
			<path class="st10" d="M742.4,797.7c-1.5,0-2.7,0.9-2.7,2.1c0,0.7,0.5,1.3,1.1,1.6l0,0c-0.8,0.3-1.4,1-1.4,1.9c0,1,0.9,2,2.8,2
				c1.8,0,2.9-1,2.9-2.3c0-0.8-0.6-1.6-1.4-1.8l0,0C745.6,800.2,745.2,797.6,742.4,797.7z M742.3,804.1c-0.6,0-1-0.4-1.1-0.9
				c0,0,0,0,0-0.1c0-0.5,0.4-1,0.9-1.1C743.9,802.4,743.6,804.1,742.3,804.1L742.3,804.1z M742.5,800.7c-0.6-0.2-1.1-0.5-1.1-1
				c0-0.5,0.4-0.9,0.9-0.9c0,0,0,0,0.1,0C743.5,798.8,743.5,800.4,742.5,800.7L742.5,800.7z"/>
			<polygon class="st9" points="767.1,807.8 752.9,808.2 753,794.2 767.2,794 			"/>
			<path class="st10" d="M756.4,797.5l-2,0.9l0.3,1.3l1.4-0.7l0,0c0,5.8,0,5,0,5.8h1.7c0-0.9,0,0.3,0-7.2L756.4,797.5z"/>
			<path class="st10" d="M762.9,797.3c-1.5,0-2.7,1.2-2.8,2.7c0,0,0,0,0,0c0,1.2,0.9,2.2,2.1,2.2c0.1,0,0.2,0,0.2,0
				c0.5,0,1.1-0.2,1.5-0.5l0,0c-0.1,0.5-0.5,1-0.9,1.3c-0.4,0.3-0.9,0.5-1.5,0.5c-0.2,0-0.5,0-0.8,0v1.3c0.3,0,0.5,0,0.8,0
				c1,0,2-0.4,2.8-1c0,0,0,0,0.1,0c0.9-0.9,1.4-2.1,1.3-3.3C765.7,798.6,764.8,797.2,762.9,797.3z M763.9,800c0,0.1,0,0.3-0.1,0.4
				c-0.2,0.3-0.6,0.5-1,0.5c-0.6,0-1-0.4-1-1c0,0,0-0.1,0-0.1c0-0.8,0.4-1.3,1-1.3C763.7,798.5,763.9,799.2,763.9,800L763.9,800z"/>
			<polygon class="st9" points="633.8,828.9 616.5,829.6 616.5,814.1 633.8,813.6 			"/>
			<path class="st11" d="M618.1,818.5l0.6,1.3c1.5-1,3.4-1,3.4,0.4c0,1.2-1.5,2.3-4.2,4.5v1.1l6.4-0.2V824l-3.4,0.1l0,0
				c1.5-1.2,3.2-2.5,3.2-4.2C624.2,817,620.1,817,618.1,818.5z"/>
			<path class="st11" d="M628.5,817.3c-3.5,0.6-3.6,5.9-1.6,7.5c1.5,1.2,5.4,1.1,5.5-3.6C632.3,818.1,630.4,816.9,628.5,817.3z
				 M630.2,821.3c0,1.8-0.5,2.7-1.3,2.8c-1.3,0-1.2-1.9-1.3-2.6c0-1,0.2-2.7,1.3-2.8C629.8,818.7,630.2,819.6,630.2,821.3
				L630.2,821.3z"/>
			<polygon class="st9" points="657.8,827.9 641.1,828.6 641.2,813.3 657.9,812.8 			"/>
			<path class="st10" d="M646.5,816.8c-1,0-2,0.3-2.9,0.9l0.6,1.3c0.2-0.1,0.4-0.3,0.7-0.4c0.4-0.2,0.8-0.3,1.2-0.3
				c1,0,1.4,0.5,1.4,1.1s-0.5,1.2-1.3,2.1l-0.9,0.8c-0.2,0.2-0.4,0.3-0.6,0.5l-1.1,1v1.1l6.2-0.2c0-0.3,0-1.2,0-1.5l-3.3,0.1l0,0
				l0.6-0.5l0.2-0.1c0.3-0.2,0.5-0.5,0.8-0.7c0.9-0.7,1.4-1.7,1.5-2.8c0-0.2,0-0.3,0-0.5C649.3,817.5,648.2,816.7,646.5,816.8z"/>
			<path class="st10" d="M653.8,816.7l-2.3,1c0,0.1,0.3,1.3,0.3,1.4l1.7-0.8l0,0c0,1.8,0,5.8,0,6.2l2-0.1v-0.8c0,0,0-1.3,0-7
				L653.8,816.7z"/>
			<polygon class="st9" points="681.1,826.9 664.9,827.6 665,812.6 681.2,812.1 			"/>
			<path class="st10" d="M672,817.1c-0.6-0.8-1.6-1.3-2.6-1.1c-1,0-2,0.3-2.8,0.9l0.2,0.4l0.4,0.8c0.5-0.4,1.1-0.7,1.8-0.7
				c1,0,1.4,0.5,1.4,1.1c-0.1,0.5-0.3,1-0.7,1.4l-0.2,0.3l-0.3,0.4H669c-0.4,0.4-0.9,0.8-1.5,1.3l-0.2,0.2l-0.2,0.2l-0.6,0.5v1.2
				c6.2-0.2,5.4-0.2,6-0.2c0-0.1,0-1.3,0-1.5l-3.2,0.1l0,0l0.8-0.6c0.2-0.1,0.4-0.3,0.5-0.5c0.1-0.1,0.1-0.1,0.2-0.2
				c0.2-0.2,0.3-0.3,0.5-0.5l0.1-0.1c0.5-0.6,0.9-1.3,0.9-2.1C672.3,817.9,672.2,817.5,672,817.1z"/>
			<path class="st10" d="M673.8,816.7c0.4,1,0.3,0.7,0.5,1.3c0.2-0.1,0.3-0.2,0.5-0.3c0.4-0.2,0.8-0.4,1.3-0.4c1,0,1.4,0.5,1.4,1.1
				c0,0.1,0,0.1,0,0.2c-0.1,0.8-1,1.7-2.7,3.2l-0.1,0.1l-0.1,0.1l-0.7,0.6l-0.3,0.2v1.1l5.9-0.2V822l-3.1,0.1l0,0
				c0.7-0.5,2.6-2.1,2.8-2.9C680.7,816.1,676.5,814.8,673.8,816.7z"/>
			<polygon class="st9" points="703.6,826 688,826.6 688,811.9 703.7,811.5 			"/>
			<path class="st10" d="M694.2,815.6c-0.2-0.1-0.3-0.2-0.5-0.2c-0.4-0.1-0.9-0.2-1.3-0.2c-0.9,0-1.8,0.3-2.5,0.8l-0.2,0.1
				c0.1,0.2,0.5,1.1,0.5,1.3c0.5-0.4,1.1-0.6,1.8-0.7l0,0c0.8,0,1.3,0.4,1.3,1.1l0,0c0,1.1-1.4,2.2-3.7,4.2v1l5.8-0.2
				c0-0.8,0-0.5,0-1.5l-3.1,0.1l0,0c1.1-0.7,2-1.7,2.7-2.8c0.2-0.4,0.3-0.8,0.3-1.2c0-0.3,0-0.6-0.1-0.8
				C694.9,816.2,694.6,815.8,694.2,815.6z"/>
			<path class="st10" d="M696.7,815.6c0.3,0.9,0,0,0.4,1.3c1.2-0.7,2.9-0.8,2.9,0.2s-1.5,0.9-2.2,1c0,0,0,1.3,0,1.3h0.8
				c0.5,0,1,0.1,1.3,0.4c0.6,0.6,0.3,1.7-1.2,1.7c-0.6,0-1.3-0.1-1.9-0.4l-0.4,1.3c0.4,0.2,0.9,0.4,1.4,0.4c2,0.3,4.3-0.5,4.3-2.4
				c0-0.3-0.1-0.5-0.2-0.8c-0.3-0.5-0.7-0.8-1.2-0.9c-0.1,0-0.2-0.1-0.4-0.1l0,0c0.8-0.2,1.5-0.9,1.5-1.8l0,0
				C701.9,814.7,698.3,814.6,696.7,815.6z"/>
			<polygon class="st9" points="725.5,825.1 710.3,825.7 710.3,811.2 725.5,810.8 			"/>
			<path class="st10" d="M711.7,815.4l0.5,1.2c1.7-1.3,3.4-0.6,2.9,0.8c-0.4,1.1-2.3,2.6-3.5,3.8v1.1l5.6-0.2v-1.4l-3,0.1l0,0
				l0.1-0.1c1.6-1.3,3.1-2.7,2.7-4.5C716.3,814,713.1,814.3,711.7,815.4z"/>
			<path class="st10" d="M723.3,814.4l-2.2,0.1c-0.8,1.3-2.4,3.7-3,4.6c0,0.7,0,0.4,0,1.1l3.5-0.1c0,1.4,0,1,0,1.8l1.7-0.1V820h0.9
				c0-0.2,0-1.1,0-1.3h-0.9C723.3,815,723.3,816,723.3,814.4z M721.6,818.8L721.6,818.8l-1.8,0.1l0,0c0.7-1,1.3-2,1.8-3.1l0,0
				C721.6,816.3,721.6,817.5,721.6,818.8L721.6,818.8z M721.5,818.8L721.5,818.8L721.5,818.8L721.5,818.8z"/>
			<polygon class="st9" points="746.6,824.2 731.9,824.8 732,810.6 746.7,810.1 			"/>
			<path class="st10" d="M735.7,813.8c-0.3,0-0.6,0.1-0.9,0.2c-0.5,0.1-0.9,0.4-1.3,0.7l0.5,1.2c0.3-0.3,0.7-0.5,1.2-0.6
				c0.3-0.1,0.7-0.1,1,0c0.4,0.1,0.8,0.5,0.8,0.9c0.3,1-2.7,3.5-3.5,4.2v1l5.4-0.2c0-0.7,0-0.3,0-1.4l-2.9,0.1l0,0
				c0.5-0.4,1-0.8,1.4-1.3c0.7-0.6,1.2-1.6,1.3-2.5C738.7,814.6,737.6,813.6,735.7,813.8z"/>
			<path class="st10" d="M742,815.1l3-0.1v-1.4l-4.2,0.2c0,0.3-0.5,3.6-0.5,3.9c0.3-0.1,0.7-0.1,1-0.1c0.5,0,1.1,0,1.6,0.2
				c0.4,0.2,0.7,0.6,0.6,1.1c-0.2,1.2-2.1,1.2-3.2,0.7c-0.3,1-0.2,0.8-0.3,1.3c0.9,0.3,1.8,0.4,2.8,0.3c0.8-0.1,1.5-0.5,2-1.1
				c1.6-1.8-0.1-4.4-2.8-3.8C741.9,816.1,742,815.2,742,815.1z"/>
			<polygon class="st9" points="767.1,823.4 752.8,824 752.9,810 767.1,809.5 			"/>
			<path class="st10" d="M754.2,813.9c0.2,0.5,0.1,0.3,0.5,1.2c1.3-1,2.8-0.8,2.8,0.4s-1.4,2.2-3.3,4l-0.1,0.1v1
				c1.6,0,1.6-0.1,5.3-0.2V819l-2.8,0.1l0,0c1-0.9,2.7-2.2,2.7-3.8C759.2,812.6,755.8,812.6,754.2,813.9z"/>
			<path class="st10" d="M765.1,814.1v-1.3c-1.3,0-2.5,0.4-3.5,1.2l0,0c-2,1.9-1.8,6.4,1.6,6.3c1.3,0,2.4-0.9,2.7-2.1
				c0.3-1.2-0.5-2.5-1.7-2.8c-0.7-0.2-1.5,0-2.1,0.5l0,0C762.4,814.6,763.7,814.1,765.1,814.1z M764.1,818c-0.1,1.6-2.1,1.6-2.2-0.3
				c0-0.1,0-0.3,0.1-0.4c0.2-0.6,0.9-0.9,1.4-0.7S764.4,817.4,764.1,818L764.1,818L764.1,818z"/>
			<polygon class="st9" points="633.7,846 616.4,846.9 616.5,831.5 633.7,830.7 			"/>
			<path class="st11" d="M618.2,835.8l0.6,1.3c1.5-1.1,2.9-0.8,3.3-0.3c0.8,1.3-1.5,3-4,5.1v1.1l6.4-0.3v-1.5l-3.4,0.2l0,0
				c1.5-1.2,3.2-2.5,3.2-4.2C624.3,834.5,620.3,834.3,618.2,835.8z"/>
			<path class="st11" d="M625.8,834.8v1.5l4.1-0.2c0,0-3.7,6.6-3.7,6.6l2.2-0.1l3.7-7v-1.2L625.8,834.8z"/>
			<polygon class="st9" points="657.8,844.7 641,845.6 641.1,830.4 657.8,829.7 			"/>
			<path class="st10" d="M642.7,834.7c0.1,0.3,0.4,0.9,0.6,1.3c1.5-1,3.3-1,3.3,0.3c0,0.1,0,0.3-0.1,0.4c0,0.1-0.1,0.3-0.2,0.4
				c-0.7,1-1.6,1.9-2.6,2.7l-1.1,1v1.1l6.2-0.3v-1.5l-3.3,0.2l0,0c1.4-1.1,3.1-2.5,3.1-4.1l0,0C648.5,833.3,644.8,833.2,642.7,834.7
				z"/>
			<path class="st10" d="M655,833.7c-0.1-0.1-0.2-0.1-0.3-0.1c-0.5-0.2-1-0.2-1.5-0.2h-0.3c-3.1,0.3-3.6,3.1-1.5,4l0,0
				c-0.9,0.3-1.5,1.1-1.6,2c0,0.4,0.2,0.8,0.5,1.2c0.2,0.2,0.4,0.4,0.7,0.5c0.6,0.3,1.3,0.4,2,0.3c0.6,0,1.2-0.1,1.7-0.4
				c0.3-0.1,0.5-0.3,0.8-0.5c0.1-0.1,0.2-0.1,0.2-0.2l0.1-0.1l0.1-0.1c0.7-0.8,0.5-2.1-0.3-2.7c-0.2-0.2-0.5-0.3-0.8-0.4l0,0
				c0.3-0.1,0.6-0.3,0.8-0.6c0.3-0.3,0.5-0.8,0.5-1.2C656,834.6,655.6,834,655,833.7z M653.1,840.2c-0.5,0.1-1-0.3-1.2-0.8
				c-0.1-0.5,0.1-1,0.5-1.2c0.2-0.1,0.4-0.2,0.6-0.2c0.2,0,0.4,0.1,0.7,0.2c0.3,0.1,0.5,0.3,0.6,0.6
				C654.5,839.4,654.1,840.2,653.1,840.2L653.1,840.2z M654.1,835.6c-0.1,0.5-0.4,0.9-0.9,1c-1.9-0.4-1.3-1.9-0.2-2
				c0.3,0,0.5,0,0.7,0.2C654,834.9,654.2,835.2,654.1,835.6L654.1,835.6z"/>
			<polygon class="st9" points="681,843.5 664.9,844.4 664.9,829.4 681.1,828.7 			"/>
			<path class="st10" d="M671.9,833.9l-0.1-0.2c-0.1-0.2-0.2-0.3-0.4-0.4c-0.2-0.2-0.4-0.3-0.6-0.4c-0.5-0.2-1.1-0.3-1.6-0.2
				c-0.4,0-0.8,0.1-1.2,0.2c-0.6,0.1-1.1,0.4-1.6,0.7c0,0.1,0.5,1.2,0.6,1.3l0.5-0.3c0.4-0.2,0.9-0.4,1.3-0.4c0.1,0,0.3,0,0.4,0
				c0.4,0,0.7,0.2,0.9,0.6c0.1,0.2,0.1,0.3,0.1,0.5c0,0.8-0.7,1.6-2.2,2.9l-0.1,0.1l-0.1,0.1l-0.3,0.2l-1.1,1v1.1
				c0.1,0,3.3-0.2,3.4-0.2l0,0c0.3,0,2.3-0.1,2.6-0.1c0-0.1,0-1.3,0-1.5l-1.9,0.1l0,0l-1.2,0.1l0,0c1.5-1.2,3.4-2.7,3-4.5l0,0
				C672.1,834.3,672,834.1,671.9,833.9z"/>
			<path class="st10" d="M678.4,832.8l-0.1-0.1c-0.2-0.1-0.5-0.2-0.8-0.3c-0.1,0-0.2,0-0.4,0l0,0c-0.2,0-0.4,0-0.5,0
				c-0.5,0-1,0.1-1.4,0.3c-0.3,0.2-0.6,0.4-0.9,0.6c-0.1,0.1-0.1,0.1-0.2,0.2c-0.2,0.2-0.3,0.4-0.4,0.6c-0.1,0.1-0.1,0.3-0.2,0.4
				c0,0,0,0.1,0,0.1c0,0.1,0,0.2,0,0.3c0,0.1,0,0.2,0,0.3c0,0,0,0.1,0,0.1c0,2.1,2.7,2.9,4.3,1.6l0,0c-0.3,1.5-1.9,2.1-3.6,2.1v1.4
				c0.5,0,1.1,0,1.6-0.1l0,0c0.6-0.1,1.2-0.3,1.7-0.6c0.1-0.1,0.2-0.1,0.3-0.2c0.2-0.1,0.3-0.2,0.5-0.3c0.3-0.3,0.5-0.5,0.7-0.9
				l0.1-0.1c0.4-0.7,0.6-1.5,0.6-2.4c0-0.1,0-0.1,0-0.2l0,0c0-0.4,0-0.8-0.2-1.2C679.4,833.8,679,833.2,678.4,832.8z M677.7,835.2
				c0,0.2,0,0.3-0.1,0.5c-0.2,0.3-0.6,0.5-1,0.6h-0.1c-0.6,0.1-1.1-0.3-1.2-0.9c0-0.1,0-0.2,0-0.3c0-0.2,0-0.3,0.1-0.5
				c0.1-0.2,0.2-0.4,0.3-0.5c0.3-0.3,0.8-0.5,1.2-0.3c0.1,0,0.3,0.1,0.4,0.2c0.2,0.2,0.3,0.4,0.3,0.6
				C677.7,834.8,677.7,835,677.7,835.2z"/>
			<polygon class="st9" points="703.6,842.3 687.9,843.1 688,828.4 703.6,827.8 			"/>
			<path class="st10" d="M694.4,832.4c-0.7-0.8-2.2-0.9-3.3-0.6c-0.1,0-0.2,0-0.3,0.1l-0.2,0.1c-0.4,0.1-0.7,0.3-1,0.4
				c0.2,0.5,0.1,0.2,0.4,1.3c0.5-0.3,0.9-0.4,1.5-0.5c0.1,0,0.2,0,0.3,0c0.3,0,0.7,0.1,0.9,0.3c0.2,0.1,0.2,0.3,0.2,0.5
				c0,0.1-0.1,0.3-0.1,0.4c-0.4,0.3-0.8,0.5-1.3,0.5h-0.7c0,0.2,0,1.1,0,1.3h0.8c0.5-0.1,1.1,0.1,1.5,0.5c0.2,0.3,0.3,0.7,0.1,1
				c-0.3,0.5-0.8,0.7-1.4,0.7c-0.5,0-1-0.1-1.4-0.2c-0.2,0-0.3-0.1-0.5-0.2c0,0.1-0.3,1.1-0.4,1.3c0.8,0.3,1.6,0.5,2.4,0.4l0,0
				c3.8,0,4.4-3.9,1.6-4.2l0,0c0.2-0.1,0.4-0.2,0.6-0.3c0.5-0.3,0.8-0.9,0.9-1.5c0-0.2,0-0.4-0.1-0.5
				C694.7,832.8,694.6,832.6,694.4,832.4z"/>
			<path class="st10" d="M698,834.9L698,834.9l-0.9,2.3l0,0c-0.2,0.6-0.2,0.5-0.3,0.8c0.1,0.2,0.2,0.3,0.4,0.5c0.1-0.2,0.8-2,1-2.3
				s0-0.5,0-0.8l0,0c0-0.2,0-0.3,0-0.4l0,0c0,0,0-0.1,0-0.1L698,834.9z M700.9,831.7c-0.6-0.7-4.8-1.1-4.7,3.7l0,0
				c0,0.1,0,0.3,0,0.4l0,0c0,0.2,0,0.3,0,0.4s0,0,0,0c0.1,0.5,0.2,1,0.5,1.5c0,0.1,0,0.1,0.1,0.2c0.1,0.2,0.2,0.3,0.4,0.5
				c0.1,0.2,0.3,0.3,0.5,0.4c0.1,0.1,0.2,0.1,0.3,0.2c0.3,0.1,0.7,0.2,1,0.2h0.2c0.3,0,0.6,0,0.9-0.1c0.2,0,0.3-0.1,0.5-0.2l0.3-0.2
				l0.2-0.1c1-0.9,1.5-2.2,1.4-3.5l0,0C702.3,833.8,702,832.4,700.9,831.7z M700.4,835.8c0,0.5-0.1,0.9-0.3,1.3
				c-0.1,0.2-0.3,0.5-0.5,0.6c-0.1,0.1-0.2,0.1-0.3,0.1c-0.6,0-0.9-0.5-1-1.1c-0.1-0.5-0.1-0.9-0.1-1.4l0,0c0-0.2,0-0.3,0-0.4l0,0
				c0,0,0-0.1,0-0.1l0,0c0,0,0,0,0,0c0-0.2,0-0.4,0.1-0.6c0-0.5,0.3-1,0.7-1.3c0.3-0.2,0.7-0.1,0.9,0.2c0.1,0.1,0.1,0.1,0.2,0.2l0,0
				C700.4,834,700.5,834.9,700.4,835.8L700.4,835.8z M697.9,836.7l0.3,0.1c0-0.2-0.1-0.4-0.1-0.7L697.9,836.7z"/>
			<polygon class="st9" points="725.4,841.2 710.2,842 710.3,827.5 725.5,826.8 			"/>
			<path class="st10" d="M717,831.1c-0.2-0.2-0.5-0.3-0.7-0.3c-0.4-0.1-0.8-0.1-1.2-0.1c-0.2,0-0.4,0-0.6,0.1h-0.2l-0.5,0.1
				c-0.4,0.1-0.8,0.3-1.1,0.5l0.4,1.3c0.1-0.1,0.2-0.1,0.3-0.2c2.4-1.1,3.2,0.7,1.7,1.2c-0.2,0.1-0.4,0.1-0.6,0.1h-0.3h-0.5
				c0,0.2,0,1,0,1.2c0.7,0,2.3-0.2,2.3,1c0,0.1,0,0.1,0,0.2c-0.1,0.3-0.2,0.5-0.5,0.6c-0.2,0.1-0.5,0.2-0.8,0.2h-0.2
				c-0.2,0-0.5,0-0.7,0c-0.3,0-0.6-0.1-0.9-0.2c-0.1,0-0.2-0.1-0.2-0.1c-0.1,0.3-0.1,0.4-0.2,0.7l0,0l-0.2,0.7
				c0.1,0.1,0.2,0.1,0.3,0.2c0.1,0,0.2,0.1,0.3,0.1c0.2,0.1,0.5,0.1,0.7,0.2h0.1c0.3,0,0.6,0,0.9,0c0.3,0,0.5,0,0.8-0.1h0.1
				c0.3-0.1,0.6-0.2,0.8-0.3c0.4-0.1,0.7-0.4,1-0.7c0.2-0.2,0.3-0.4,0.4-0.6c0.1-0.2,0.2-0.5,0.2-0.8c0-0.5-0.2-0.9-0.5-1.2
				c-0.3-0.3-0.7-0.5-1.2-0.5l0,0c0.3-0.1,0.6-0.3,0.9-0.5l0.1-0.2c0.3-0.3,0.4-0.7,0.4-1.1c0,0,0,0,0-0.1c0-0.2-0.1-0.4-0.1-0.6
				C717.5,831.4,717.3,831.2,717,831.1z"/>
			<path class="st10" d="M721.8,830.4l-2.1,1c0.2,1,0.2,0.8,0.3,1.3l1.5-0.8l0,0c0,0.8,0,5.3,0,5.9l1.8-0.1c0-1.1,0-6.6,0-7.4
				L721.8,830.4z"/>
			<polygon class="st11" points="634,758 616.7,757.8 616.7,755.5 634,755.7 			"/>
			<path class="st11" d="M626,745.4c0.8,0,1.7,0.2,2.4,0.5l0.6-1.9c-1-0.4-2-0.6-3-0.6c-2.8,0-4.5,1.3-4.5,3.1
				c0,1.5,1.3,2.5,3.2,3.1c1.4,0.5,2,0.8,2,1.5c0,0.4-0.3,0.7-0.6,0.9c-0.4,0.2-0.8,0.2-1.2,0.2c-1,0-2-0.3-2.9-0.7l-0.6,2
				c1.1,0.4,2.2,0.7,3.3,0.7c1.1,0.1,2.2-0.2,3.2-0.7c0.9-0.5,1.5-1.4,1.5-2.5c0-1.5-1-2.4-3-3.1c-1.5-0.5-2.2-0.8-2.2-1.5
				S624.8,745.4,626,745.4z"/>
			<polygon class="st12" points="658.1,758.2 641.4,758 641.4,755.7 658.1,755.9 			"/>
			<path class="st13" d="M652.1,744.3l-1.2,3.4c-0.4,1.1-0.8,2.5-1.1,3.7h-0.1c-0.2-1.2-0.6-2.5-0.9-3.7l-1.1-3.4l-3.4-0.1
				l-0.8,10.3h2.4l0.2-3.9c0.1-1.3,0.1-2.9,0.2-4.2l0,0c0.3,1.3,0.7,2.8,1,4l1.2,4h2l1.4-4c0.4-1.2,0.9-2.6,1.3-3.9l0,0
				c0,1.5,0,3,0.1,4.2l0.2,3.9h2.5l-0.6-10.2L652.1,744.3z"/>
			<polygon class="st12" points="681.4,758.3 665.2,758.2 665.2,756 681.4,756.1 			"/>
			<path class="st13" d="M669.2,744.6v1.9h3v8.2h2.5v-8.2h3v-1.9L669.2,744.6z"/>
			<polygon class="st12" points="703.9,758.5 688.2,758.4 688.2,756.2 703.9,756.3 			"/>
			<path class="st13" d="M700.5,745.1l-0.9,4c-0.2,1.2-0.5,2.3-0.6,3.4l0,0c-0.2-1.1-0.3-2.2-0.5-3.3l-0.8-4.2l-2.6,0l-0.9,4
				c-0.3,1.2-0.5,2.4-0.7,3.5l0,0c-0.2-1-0.4-2.3-0.6-3.5l-0.8-4.1h-2.6l2.5,10h2.6l1-4.2c0.3-1,0.4-1.9,0.6-3l0,0
				c0.1,1.1,0.3,2.1,0.5,3.1l0.9,4.3h2.6l2.8-9.8L700.5,745.1z"/>
			<polygon class="st12" points="725.7,758.7 710.5,758.6 710.5,756.4 725.7,756.5 			"/>
			<path class="st13" d="M714.2,745.4v1.9h2.8v7.9h2.3v-7.9h2.8v-1.8L714.2,745.4z"/>
			<polygon class="st12" points="746.8,758.9 732.1,758.8 732.2,756.6 746.8,756.8 			"/>
			<path class="st13" d="M742.6,747.7v-1.8l-6.1-0.1v9.6h2.3v-3.9h3.6v-1.8l-3.6,0v-2.2L742.6,747.7z"/>
			<polygon class="st12" points="767.3,759 753.1,758.9 753.1,756.8 767.3,757 			"/>
			<path class="st13" d="M760.7,747.7c0.7,0,1.4,0.2,2,0.5l0.5-1.7c-0.8-0.3-1.6-0.5-2.5-0.5c-2.3,0-3.7,1.2-3.7,2.8
				c0,1.4,1,2.2,2.6,2.8c1.2,0.4,1.6,0.8,1.6,1.3s-0.5,1-1.5,1c-0.8,0-1.7-0.2-2.4-0.6l-0.5,1.8c0.9,0.4,1.8,0.6,2.7,0.6
				c2.7,0,3.9-1.3,3.9-2.9c0-1.3-0.8-2.2-2.5-2.8c-1.2-0.5-1.8-0.8-1.8-1.4S759.8,747.7,760.7,747.7z"/>
			<polygon class="st14" points="782.8,737.5 595.1,732.9 595.1,730.1 782.8,735.1 			"/>
			<g>
				<path class="st4" d="M2380.1,714.1c-10.1-14.1-24-25-40-31.6c-1.3-0.5-2.6-1.1-4-1.5c-13.4-4.9-27.6-6.9-41.8-5.8h-0.6
					c-0.9,0.1-1.8,0.2-2.8,0.3c-12.5,1.3-24.6,4.9-35.7,10.8c-1.1,0.6-2.3,1.2-3.4,1.9c-26.2,15.3-43.3,42.3-43.3,72.3
					c0,24.7,11.4,47.3,29.9,63.1c1.4,1.2,2.9,2.4,4.4,3.5c3.4,2.6,6.9,4.9,10.6,6.9c12.5,7,26.4,11.2,40.7,12.2
					c1.8,0.1,3.6,0.2,5.4,0.3c13.1,0.4,26.2-1.9,38.5-6.6l0.6-0.3c4.1-1.6,8.1-3.5,11.9-5.7c1.9-1,3.6-2.1,5.4-3.3
					c7.3-4.8,13.9-10.6,19.6-17.3c8.1-9.5,13.9-20.7,17-32.7c0.7-2.9,1.3-5.8,1.7-8.8c0.5-3.6,0.8-7.3,0.8-10.9
					C2395,744.2,2389.8,727.8,2380.1,714.1z"/>
				<polygon class="st4" points="2253.9,684 2253.6,683.3 2250.2,685.2 2250.6,685.9 				"/>
			</g>
			<path class="st15" d="M2372.9,808.7c-5.6,6.7-12.2,12.5-19.5,17.3c-1.8,1.2-3.6,2.3-5.4,3.3c-3.8,2.2-7.8,4.1-11.9,5.7l-0.6,0.2
				c-12.2,4.8-25.2,7.1-38.3,6.8c-1.8,0-3.6-0.1-5.4-0.2c-14.2-1-28.1-5.1-40.6-12.1c-3.7-2.1-7.2-4.4-10.6-6.9
				c-1.5-1.1-3-2.3-4.4-3.5c-18.4-15.7-29.8-38.2-29.8-62.8c0-30,17.1-57,43.1-72.3c1.1-0.7,2.2-1.3,3.4-1.9
				c11-5.9,23.1-9.6,35.6-10.9c0.9-0.1,1.8-0.2,2.7-0.3h0.6c14.1-1.1,28.3,0.8,41.6,5.7c1.3,0.5,2.6,1,3.9,1.5
				c16,6.5,29.8,17.4,39.8,31.4c9.8,13.6,15,29.9,15,46.7c0,6.6-0.8,13.2-2.5,19.6C2386.8,788,2381,799.2,2372.9,808.7z"/>
			<path class="st16" d="M2390.6,756.3c-0.1,50.4-46.3,87.9-98.8,84c-48-3.5-84-40.9-84-83.9s36.1-80.5,84.2-84
				C2344.5,668.5,2390.6,706,2390.6,756.3z"/>
			<path class="st17" d="M2379.9,756.4c-0.1,44.9-41.1,78.7-88.1,75.6c-43.4-2.8-76.1-36.5-76.1-75.4s32.9-72.7,76.2-75.6
				C2339,677.8,2379.9,711.4,2379.9,756.4z"/>
			<path class="st18" d="M2378.4,756.4c-0.1,44.2-40.4,77.4-86.6,74.4c-42.7-2.8-75-35.9-75-74.3s32.4-71.6,75.1-74.4
				C2338.2,679,2378.4,712.2,2378.4,756.4z"/>
			<path class="st19" d="M2288.9,774.1l6.4,0.1l-1.3-73.4c-1.4-1.6-2.4-1.2-3.5,0.6L2288.9,774.1z"/>
			<path class="st20" d="M2307.1,752.2l-50.1,25.6c-2.3-0.8-3.2-2-2.4-4.2l48.7-26.9L2307.1,752.2z"/>
			<path class="st19" d="M2296.4,756.4c0.2,2.5-1.7,4.7-4.1,4.9c-2.5,0.2-4.7-1.7-4.9-4.1c-0.2-2.5,1.7-4.7,4.1-4.9
				c0.1,0,0.2,0,0.3,0C2294.3,752.2,2296.3,754,2296.4,756.4z"/>
			<path class="st20" d="M2296.9,756.4c0-0.7-0.2-1.4-0.5-2.1c-0.4-0.7-0.9-1.3-1.6-1.7c-0.4-0.3-0.8-0.5-1.2-0.6
				c-0.2-0.1-0.5-0.1-0.7-0.2c-0.3-0.1-0.7-0.1-1.1-0.1c-0.4,0-0.8,0.1-1.2,0.2c-0.5,0.1-0.9,0.3-1.4,0.5c-0.8,0.5-1.5,1.2-2,2
				c-0.2,0.4-0.3,0.8-0.4,1.3c0,0.2-0.1,0.4-0.1,0.7c0,0.5,0.1,1.1,0.3,1.6c0.4,1,1.1,1.8,1.9,2.3c0.4,0.2,0.7,0.4,1.1,0.5
				c0.2,0.1,0.4,0.1,0.6,0.2c0.3,0.1,0.7,0.1,1,0.1c0.3,0,0.6,0,0.9-0.1c0.8-0.1,1.5-0.4,2.2-0.9c0.7-0.5,1.2-1.2,1.6-1.9
				c0.1-0.2,0.2-0.5,0.2-0.7l0,0C2296.8,757.1,2296.9,756.8,2296.9,756.4z M2295.4,758.2c-0.1,0.2-0.3,0.5-0.5,0.6
				c-0.4,0.4-1,0.8-1.5,1c-0.5,0.2-1,0.3-1.5,0.3h-0.3c-0.5,0-1-0.1-1.4-0.3c-0.4-0.2-0.7-0.4-1-0.6c-0.7-0.6-1.1-1.4-1.2-2.4
				c0-0.1,0-0.2,0-0.3c0-0.3,0-0.5,0.1-0.8c0-0.2,0.1-0.4,0.2-0.6c0.2-0.6,0.6-1.1,1.1-1.4c0.2-0.2,0.4-0.3,0.7-0.4
				c0.6-0.3,1.3-0.5,2-0.5h0.5c0.4,0,0.9,0.2,1.3,0.3c0.5,0.2,0.9,0.5,1.2,0.8c0.4,0.4,0.7,1,0.9,1.5c0.1,0.3,0.1,0.6,0.1,0.9
				c0,0.2,0,0.3,0,0.5C2295.9,757.4,2295.7,757.8,2295.4,758.2z"/>
			<polygon class="st21" points="2293.7,698.8 2290.2,699 2290.2,686 2293.7,685.7 			"/>
			<polygon class="st22" points="2263,707.1 2260.1,708.8 2253.5,698.2 2256.4,696.5 			"/>
			<polygon class="st22" points="2241.1,727.8 2239.5,730.5 2228.5,724.6 2230.1,721.9 			"/>
			<polygon class="st21" points="2232.7,755.2 2232.7,758.2 2220.2,758.2 2220.2,755.2 			"/>
			<polygon class="st22" points="2239.4,782.9 2241,785.6 2230,791.5 2228.4,788.8 			"/>
			<polygon class="st22" points="2260,804.5 2262.9,806.2 2256.2,816.8 2253.4,815.1 			"/>
			<polygon class="st21" points="2290.1,814.3 2293.6,814.5 2293.6,827.6 2290.1,827.3 			"/>
			<polygon class="st22" points="2322.3,808.8 2325.6,807.3 2333.1,819.3 2329.8,820.8 			"/>
			<polygon class="st22" points="2347.7,788.4 2349.6,785.5 2363.2,792.7 2361.3,795.7 			"/>
			<polygon class="st21" points="2358,758.3 2358,754.9 2374,754.9 2374,758.3 			"/>
			<polygon class="st22" points="2349.7,727.8 2347.8,724.8 2361.4,717.5 2363.3,720.5 			"/>
			<polygon class="st22" points="2325.7,706 2322.5,704.4 2330,692.4 2333.2,693.9 			"/>
			<polygon class="st23" points="2251.8,680 2248.5,681.9 2248.1,681.2 2251.4,679.4 			"/>
			<ellipse class="st24" cx="791" cy="1370.8" rx="62" ry="7.9"/>
			<path class="st25" d="M779.8,1229.4c9.8,5.8,11.5,11.6,9.2,16.6c-0.8,1.6-2.4,2.4-4.2,2.2c0.7,1.4,0.2,3.2-1.2,4
				c-5,3.4-12.1,3.8-21.9-2c-12-7.2-18.5-26.8-18.5-26.8S767.8,1222.3,779.8,1229.4z"/>
			<path class="st26" d="M787.8,1246.5c-0.7,0.8-1.8,1.2-2.8,1l-1.5-0.2l0.6,1.1c0.5,0.8,0.3,1.9-0.3,2.6c-0.2,0.2-0.4,0.4-0.7,0.6
				c-5.4,3.7-12.5,3-21-2c-10.3-6.1-16.5-21.8-17.9-25.6c4.9-0.1,24.8-0.1,35,6c8.5,5.1,11.5,10.4,8.9,15.8
				C788,1246.1,787.9,1246.3,787.8,1246.5z"/>
			<polygon class="st27" points="743.2,1223.4 784.7,1247.5 784.1,1248.5 			"/>
			<path class="st27" d="M780.7,1245.7c1.2-1.6,2.3-3.4,3.1-5.3c0.8-1.9,1.4-3.9,1.8-5.9c-0.2,2.1-0.8,4.1-1.5,6
				c-0.8,1.9-1.7,3.8-2.9,5.5L780.7,1245.7z"/>
			<path class="st27" d="M775.7,1242.6c1.1-2,2-4,2.7-6.2c0.6-2.2,1-4.4,1.1-6.7c0,2.3-0.3,4.6-0.8,6.8c-0.4,1.5-0.9,3-1.5,4.5
				c-0.5,1.2-0.9,1.9-0.9,1.9L775.7,1242.6z"/>
			<path class="st27" d="M770.9,1239.8l2.9-5.8c0.7-1.3,1.2-2.7,1.6-4.1c0.2-0.7,0.2-1.3,0.2-2c0,0.7,0,1.3-0.2,2
				c-0.3,1.5-0.8,2.9-1.4,4.2l-2.6,5.9L770.9,1239.8z"/>
			<path class="st27" d="M767.2,1237.7c0,0,0.4-3,0.9-6c0.2-1.4,0.4-2.7,0.4-4.1c0-0.6-0.1-1.3-0.3-1.9c0.2,0.6,0.3,1.2,0.3,1.8
				c0,1.4,0,2.8-0.2,4.2c-0.3,3-0.7,6-0.7,6L767.2,1237.7z"/>
			<path class="st27" d="M762.1,1234.8c0,0,0.4-2.5,0.5-5.1s0-5.1,0-5.1s0.2,2.6,0.2,5.1s-0.3,5.1-0.3,5.1L762.1,1234.8z"/>
			<path class="st27" d="M756.9,1231.6c0.2-1.2,0.3-2.5,0.3-3.7c0-1.2,0-2.5-0.1-3.7c0.1,1.2,0.2,2.5,0.2,3.7c0,1.2-0.1,2.5-0.2,3.7
				L756.9,1231.6z"/>
			<path class="st27" d="M752.5,1229c0.3-0.8,0.5-1.7,0.7-2.5c0.1-0.9,0.2-1.7,0.1-2.6c0.1,0.9,0.1,1.8,0,2.6
				c-0.1,0.9-0.3,1.8-0.6,2.6L752.5,1229z"/>
			<path class="st27" d="M781,1246.2c-1.7,1.5-3.6,2.9-5.6,4.1c-2,1.2-4.1,2.1-6.2,2.9c2.1-0.9,4.2-1.9,6.1-3.1
				c1.9-1.2,3.7-2.7,5.3-4.3L781,1246.2z"/>
			<path class="st27" d="M775.9,1243.2c-2.1,1.5-4.4,2.9-6.7,4c-2.4,1.1-4.8,2-7.4,2.7c2.5-0.7,4.9-1.7,7.2-2.9
				c2.3-1.2,4.5-2.6,6.5-4.2L775.9,1243.2z"/>
			<path class="st27" d="M771.1,1240.3l-6,4c-1.4,0.9-2.8,1.7-4.4,2.4c-0.7,0.3-1.4,0.5-2.2,0.7c0.7-0.2,1.4-0.5,2.1-0.8
				c1.5-0.7,2.9-1.6,4.2-2.6l5.9-4.2L771.1,1240.3z"/>
			<path class="st27" d="M767.3,1238.1l-6.6,2.4c-1.5,0.6-3.1,1.1-4.7,1.5c-0.7,0.2-1.5,0.3-2.2,0.3c0.7-0.1,1.5-0.2,2.2-0.4
				c1.6-0.4,3.1-1,4.6-1.6l6.6-2.6L767.3,1238.1z"/>
			<path class="st27" d="M762.3,1235c0,0-2.9,1-5.8,1.8s-5.9,1.4-5.9,1.4s3-0.7,5.9-1.6s5.7-2,5.7-2L762.3,1235z"/>
			<path class="st27" d="M757,1231.8c0,0-2.1,0.8-4.2,1.3s-4.3,1-4.3,1s2.2-0.5,4.3-1.1s4.2-1.4,4.2-1.4L757,1231.8z"/>
			<path class="st27" d="M752.7,1229.1c-0.9,0.5-1.9,0.9-2.8,1.2c-1,0.3-2,0.6-3,0.8c1-0.2,2-0.5,3-0.9c1-0.4,1.9-0.8,2.8-1.4
				L752.7,1229.1z"/>
			
				<rect x="787.2" y="1245.2" transform="matrix(0.5286 -0.8489 0.8489 0.5286 -689.8929 1258.0154)" class="st27" width="1.1" height="10"/>
			<path class="st25" d="M832.7,1231.6c-12.6,7.9-20.2,6.5-24.7,0.8c-1.3-1.8-1.4-4.3-0.1-6.1c-2.5,0-3.6-2-3.8-3.8
				c-1-7.8,2.8-16.4,15.3-24.2c15.5-9.7,42.1-5.5,42.1-5.5S848.2,1221.9,832.7,1231.6z"/>
			<path class="st26" d="M808.2,1230.7c-0.5-1.3-0.4-2.7,0.5-3.9l1-1.6h-1.7c-1.2,0.1-2.4-0.7-2.8-1.9c-0.1-0.4-0.2-0.7-0.3-1.1
				c-1.1-8.5,3.9-16.3,14.8-23.1c13.2-8.3,35-6.2,40.3-5.5c-2.8,5.7-14.6,28.8-27.8,37.1c-10.9,6.8-18.9,7.2-23.6,1
				C808.5,1231.4,808.3,1231,808.2,1230.7z"/>
			<polygon class="st27" points="861.5,1192.8 808.8,1226.6 808.1,1225.3 			"/>
			<path class="st27" d="M813.4,1223c1.2,2.4,2.6,4.7,4.3,6.8c1.2,1.4,2.4,2.8,3.8,4c1.1,1,2,1.6,2,1.6s-0.8-0.5-2-1.5
				c-1.4-1.2-2.8-2.4-4-3.8c-1.2-1.4-2.4-2.9-3.4-4.5c-0.8-1.3-1.3-2.2-1.3-2.2L813.4,1223z"/>
			<path class="st27" d="M819.9,1218.9c1.6,2.5,3.5,4.8,5.6,6.8c1.5,1.4,3.1,2.7,4.8,3.8c0.8,0.5,1.6,1,2.4,1.4c0,0-1-0.5-2.4-1.3
				c-1.7-1.1-3.4-2.3-4.9-3.6c-1.5-1.4-3-2.8-4.2-4.4c-1.1-1.3-1.7-2.2-1.7-2.2L819.9,1218.9z"/>
			<path class="st27" d="M826,1215.1c0,0,2.5,3.4,5,6.8c1.1,1.6,2.4,3,3.8,4.3c0.7,0.6,1.4,1.1,2.2,1.5c-0.8-0.4-1.6-0.8-2.2-1.4
				c-1.5-1.2-2.8-2.6-4-4.2l-5.3-6.5L826,1215.1z"/>
			<path class="st27" d="M830.7,1212l6.4,4.6c1.4,1.1,3,2.1,4.6,2.9c0.7,0.4,1.5,0.6,2.3,0.8c-0.8-0.1-1.6-0.4-2.4-0.7
				c-1.6-0.8-3.2-1.7-4.7-2.7l-6.6-4.3L830.7,1212z"/>
			<path class="st27" d="M837.1,1207.9c0,0,2.7,1.9,5.6,3.6s5.9,3.1,5.9,3.1s-3.1-1.3-6-2.8s-5.8-3.4-5.8-3.4L837.1,1207.9z"/>
			<path class="st27" d="M843.9,1203.7c1.3,0.9,2.7,1.8,4.1,2.6c1.4,0.8,2.9,1.5,4.3,2.1c-1.5-0.6-3-1.3-4.4-2
				c-1.4-0.7-2.8-1.6-4.2-2.4L843.9,1203.7z"/>
			<path class="st27" d="M849.4,1200.1c0.8,0.9,1.6,1.6,2.5,2.3c0.9,0.7,1.9,1.2,3,1.7c-1.1-0.4-2.1-0.9-3.1-1.5
				c-1-0.6-1.9-1.4-2.7-2.2L849.4,1200.1z"/>
			<path class="st27" d="M812.6,1223c0,0-0.3-1.1-0.6-2.7c-0.4-2-0.7-4.1-0.8-6.1c-0.2-3-0.1-6,0.3-8.9c-0.3,3-0.3,5.9,0,8.9
				c0.3,3,0.9,5.9,1.8,8.7L812.6,1223z"/>
			<path class="st27" d="M819.1,1218.9c0,0-0.2-1.2-0.4-3.2c-0.2-2.3-0.3-4.7-0.2-7c0.1-2.3,0.3-4.7,0.7-7c0.3-1.9,0.6-3.1,0.6-3.1
				s-0.2,1.3-0.5,3.2c-0.6,4.6-0.6,9.3,0.1,13.9c0.3,1.9,0.5,3.1,0.5,3.1L819.1,1218.9z"/>
			<path class="st27" d="M825.2,1215l-1-9.4c-0.3-2.2-0.3-4.3-0.2-6.5c0.1-1,0.2-2,0.5-2.9c-0.2,1-0.3,1.9-0.3,2.9
				c0,2.2,0.1,4.3,0.4,6.4l1.3,9.3L825.2,1215z"/>
			<path class="st27" d="M830.1,1212l1.1-9.1c0.2-2.1,0.5-4.2,1-6.2c0.2-0.9,0.5-1.8,0.9-2.7c-0.4,0.9-0.6,1.8-0.8,2.8
				c-0.4,2.1-0.7,4.2-0.8,6.3c-0.4,4.6-0.9,9.2-0.9,9.2L830.1,1212z"/>
			<path class="st27" d="M836.7,1208c0,0,0.5-3.9,1.3-7.8s1.8-7.7,1.8-7.7s-0.9,3.8-1.6,7.8s-1.1,7.8-1.1,7.8L836.7,1208z"/>
			<path class="st27" d="M843.5,1203.7c0,0,0.4-2.9,1-5.7s1.4-5.6,1.4-5.6s-0.8,2.8-1.2,5.6s-0.8,5.7-0.8,5.7L843.5,1203.7z"/>
			<path class="st27" d="M849.2,1200.4c0-1.3,0.1-2.7,0.2-4c0.2-1.3,0.5-2.6,0.9-3.9c-0.7,2.6-0.9,5.3-0.8,8L849.2,1200.4z"/>
			<polygon class="st27" points="798.9,1232.5 798.2,1231.3 809.3,1224.6 810.1,1225.8 			"/>
			<path class="st25" d="M774.7,1160.5c16.6,10.3,19.5,20.2,15.2,28.7c-1.4,2.6-4.3,4.1-7.2,3.7c1.5,3-0.2,5.4-2.3,6.8
				c-8.7,5.7-21,6.2-37.6-4.1c-20.4-12.7-30.9-46.6-30.9-46.6S754.2,1147.8,774.7,1160.5z"/>
			<path class="st26" d="M787.8,1190.1c-1.2,1.3-3,2-4.8,1.7l-2.5-0.3l1,2c0.8,1.4,0.5,3.2-0.6,4.4c-0.3,0.4-0.7,0.7-1.1,1
				c-9.4,6.2-21.5,4.8-36-4.2c-17.4-10.8-27.7-37.9-30-44.6c8.4,0,42.6,0.6,60,11.4c14.4,9,19.4,18.2,14.9,27.4
				C788.4,1189.3,788.1,1189.7,787.8,1190.1z"/>
			<polygon class="st27" points="712,1149 782.6,1191.7 781.5,1193.3 			"/>
			<path class="st27" d="M775.8,1188.4c0,0,0.8-1,1.9-2.7c1.4-2,2.6-4.1,3.6-6.3c1-2.2,1.8-4.5,2.5-6.8c0.5-1.9,0.7-3.2,0.7-3.2
				s-0.2,1.3-0.6,3.3c-0.5,2.4-1.3,4.7-2.2,7c-0.9,2.3-2,4.5-3.3,6.6c-1.1,1.7-1.8,2.8-1.8,2.8L775.8,1188.4z"/>
			<path class="st27" d="M767.2,1183.1c0,0,0.8-1.2,1.8-3.2c1.2-2.4,2.2-4.9,3-7.4c0.8-2.5,1.4-5.2,1.7-7.8c0.3-2.2,0.3-3.7,0.3-3.7
				s0,1.5-0.2,3.7c-0.2,2.7-0.7,5.3-1.4,7.9c-0.7,2.6-1.6,5.2-2.8,7.6c-0.9,2-1.7,3.3-1.7,3.3L767.2,1183.1z"/>
			<path class="st27" d="M759,1178l5.1-9.9c1.2-2.2,2.2-4.6,2.9-7c0.3-1.1,0.5-2.3,0.5-3.4c0,1.2-0.1,2.3-0.3,3.4
				c-0.6,2.5-1.5,4.9-2.6,7.2c-2.3,5-4.7,10.1-4.7,10.1L759,1178z"/>
			<path class="st27" d="M752.7,1174.3l1.7-10.2c0.5-2.3,0.7-4.7,0.8-7.1c0-1.1-0.1-2.2-0.4-3.2c0.3,1,0.5,2.1,0.5,3.2
				c0,2.4-0.1,4.8-0.5,7.1c-0.7,5.2-1.3,10.3-1.3,10.3L752.7,1174.3z"/>
			<path class="st27" d="M744,1169.1c0,0,0.7-4.3,1-8.7s0.2-8.8,0.2-8.8s0.3,4.4,0.2,8.8s-0.6,8.8-0.6,8.8L744,1169.1z"/>
			<path class="st27" d="M735.2,1163.4c0.3-2.1,0.6-4.2,0.7-6.3c0.1-2.1,0.1-4.3,0-6.4c0.2,2.1,0.3,4.3,0.2,6.4
				c0,2.1-0.2,4.3-0.5,6.4L735.2,1163.4z"/>
			<path class="st27" d="M727.7,1159c0.6-1.4,1-2.8,1.3-4.3c0.3-1.5,0.3-3,0.3-4.5c0.2,1.5,0.2,3,0,4.5c-0.2,1.5-0.5,3-1,4.4
				L727.7,1159z"/>
			<path class="st27" d="M776.2,1189.3c0,0-1.1,1-2.9,2.4c-2.2,1.6-4.4,3.1-6.8,4.5c-2.4,1.3-4.8,2.5-7.3,3.5
				c-2,0.8-3.5,1.3-3.5,1.3s1.4-0.5,3.4-1.4c2.5-1.1,4.8-2.4,7.1-3.8c2.3-1.4,4.5-3,6.5-4.7c1.7-1.4,2.7-2.4,2.7-2.4L776.2,1189.3z"
				/>
			<path class="st27" d="M767.5,1184c0,0-1.4,1-3.5,2.3c-5.3,3.2-10.9,5.8-16.8,7.6c-2.4,0.7-4,1.1-4,1.1s1.6-0.4,4-1.2
				c5.8-2,11.3-4.7,16.5-8.1c2.1-1.4,3.4-2.4,3.4-2.4L767.5,1184z"/>
			<path class="st27" d="M759.4,1179l-10.5,6.6c-2.4,1.6-4.9,2.9-7.6,4c-1.2,0.5-2.4,0.9-3.7,1.1c1.3-0.3,2.5-0.7,3.7-1.3
				c2.6-1.2,5-2.6,7.4-4.3l10.3-7L759.4,1179z"/>
			<path class="st27" d="M753,1174.9l-11.5,4c-2.6,1-5.3,1.8-8,2.4c-1.2,0.3-2.5,0.4-3.8,0.5c1.3-0.1,2.5-0.3,3.7-0.6
				c2.7-0.7,5.3-1.6,7.9-2.6l11.4-4.3L753,1174.9z"/>
			<path class="st27" d="M744.5,1169.5c0,0-5,1.6-10,2.9s-10.2,2.3-10.2,2.3s5.1-1.1,10.1-2.6s9.9-3.3,9.9-3.3L744.5,1169.5z"/>
			<path class="st27" d="M735.4,1163.8c0,0-3.6,1.2-7.3,2.1s-7.4,1.6-7.4,1.6s3.7-0.7,7.4-1.8s7.2-2.3,7.2-2.3L735.4,1163.8z"/>
			<path class="st27" d="M728.2,1159.1c-3.2,1.6-6.6,2.8-10.1,3.3c1.7-0.4,3.4-0.8,5.1-1.5c1.6-0.6,3.2-1.4,4.8-2.3L728.2,1159.1z"
				/>
			
				<rect x="786.7" y="1187.5" transform="matrix(0.5435 -0.8394 0.8394 0.5435 -644.4196 1207.233)" class="st27" width="1.9" height="17.2"/>
			<path class="st28" d="M837.1,1099.8c-6,25.7-17.4,33.6-30.1,31.8c-4-0.6-7.1-3.7-7.8-7.6c-3.1,3.2-7,2-9.6,0
				c-11.1-8.7-17-24.1-11-49.8c7.4-31.6,46.2-59.6,46.2-59.6S844.5,1068.2,837.1,1099.8z"/>
			<path class="st29" d="M805,1129.3c-2.3-1-3.9-3-4.3-5.4l-0.7-3.4l-2.1,2.1c-1.5,1.6-3.9,2.1-5.9,1.1c-0.6-0.3-1.2-0.6-1.7-1
				c-12-9.4-15.4-25.4-10.2-47.7c6.3-26.9,36.5-51.6,44-57.5c3.6,10.7,17.7,54.7,11.3,81.6c-5.2,22.3-14.8,32.6-28.6,30.8
				C806.3,1129.8,805.7,1129.6,805,1129.3z"/>
			<polygon class="st30" points="824.8,1014.9 800.7,1123.3 798.2,1122.7 			"/>
			<path class="st30" d="M802,1113.2c0,0,1.7,0.6,4.2,1.3c3.1,0.9,6.4,1.5,9.6,1.8c3.3,0.4,6.5,0.4,9.8,0.2c2.7-0.2,4.5-0.5,4.5-0.5
				s-1.8,0.4-4.4,0.7c-3.3,0.4-6.6,0.4-9.9,0.2c-3.3-0.2-6.6-0.7-9.8-1.4c-2.7-0.6-4.4-1.2-4.4-1.2L802,1113.2z"/>
			<path class="st30" d="M805.1,1099.9c0,0,1.9,0.4,4.8,0.9c3.6,0.5,7.2,0.8,10.8,0.7c3.6-0.1,7.2-0.4,10.8-1.1
				c2.9-0.6,4.8-1.2,4.8-1.2s-1.9,0.7-4.8,1.4c-3.5,0.8-7.1,1.4-10.8,1.6c-3.6,0.2-7.3,0.1-10.9-0.3c-3-0.3-4.9-0.7-4.9-0.7
				L805.1,1099.9z"/>
			<path class="st30" d="M808,1087.4l14.8,2.3c3.4,0.6,6.8,0.8,10.2,0.7c1.1-0.1,2.2-0.2,3.3-0.5c0.8-0.2,1.2-0.3,1.2-0.3
				s-0.4,0.2-1.2,0.4c-1.1,0.3-2.2,0.5-3.3,0.7c-3.4,0.3-6.9,0.2-10.3-0.2l-14.9-1.6L808,1087.4z"/>
			<path class="st30" d="M810.1,1077.7l13.8-2.3c3.2-0.4,6.3-1.1,9.3-2.1c1.4-0.5,2.7-1.1,3.9-1.9c0,0-0.3,0.3-1,0.7
				c-0.9,0.5-1.9,1-2.8,1.4c-3,1.1-6.1,1.9-9.3,2.4l-13.7,2.8L810.1,1077.7z"/>
			<path class="st30" d="M813,1064.4c0,0,5.8-1,11.6-2.5s11.3-3.5,11.3-3.5s-5.5,2.3-11.2,4s-11.5,3-11.5,3L813,1064.4z"/>
			<path class="st30" d="M816.4,1050.7c2.8-0.5,5.6-1.1,8.4-1.8c2.8-0.8,5.5-1.7,8.1-2.8c-2.6,1.2-5.3,2.2-8,3.1
				c-2.7,0.9-5.5,1.6-8.3,2.2L816.4,1050.7z"/>
			<path class="st30" d="M818.9,1039.2c2,0.1,4,0,6-0.3c2-0.3,4-0.8,5.9-1.6c-1.9,0.9-3.8,1.5-5.8,1.9c-2,0.4-4.1,0.6-6.1,0.6
				L818.9,1039.2z"/>
			<path class="st30" d="M801,1114.2c0,0-1.7-1-4.2-2.7c-3-2-5.9-4.3-8.7-6.7c-2.7-2.4-5.3-5.1-7.7-7.8c-1.9-2.3-3.1-3.9-3.1-3.9
				s1.2,1.6,3.3,3.7c2.5,2.7,5.1,5.2,7.9,7.5c2.8,2.3,5.7,4.4,8.8,6.3c2.5,1.5,4.3,2.4,4.3,2.4L801,1114.2z"/>
			<path class="st30" d="M804,1100.8c0,0-1.8-1.3-4.5-3.5c-3.2-2.7-6.3-5.5-9.1-8.6c-2.8-3-5.5-6.3-7.9-9.7c-2-2.8-3.2-4.7-3.2-4.7
				s1.3,1.9,3.3,4.6c2.5,3.3,5.3,6.4,8.2,9.3c2.9,2.9,6,5.6,9.3,8.2c2.7,2,4.6,3.3,4.6,3.3L804,1100.8z"/>
			<path class="st30" d="M807,1088.3l-13-10.6c-3-2.4-5.8-5-8.4-7.9c-0.8-1-1.6-2-2.3-3c-0.5-0.8-0.8-1.2-0.8-1.2s0.3,0.4,0.8,1.2
				c0.7,1,1.5,2,2.4,2.9c2.6,2.8,5.5,5.3,8.6,7.6l13.3,10.1L807,1088.3z"/>
			<path class="st30" d="M809.3,1078.3c0,0-5-6.5-10-13c-2.4-2.9-4.5-6-6.5-9.2c-0.9-1.5-1.6-3-2.2-4.6c0.7,1.6,1.4,3.1,2.4,4.5
				c2.1,3.1,4.3,6.2,6.8,9l10.4,12.7L809.3,1078.3z"/>
			<path class="st30" d="M812.6,1065.1c0,0-4.2-5.6-8.1-11.6s-7.3-12-7.3-12s3.7,6,7.7,11.8s8.4,11.2,8.4,11.2L812.6,1065.1z"/>
			<path class="st30" d="M815.9,1051.1c0,0-3.1-4.1-5.9-8.4s-5.2-8.8-5.2-8.8s2.5,4.4,5.4,8.6s6.1,8.2,6.1,8.2L815.9,1051.1z"/>
			<path class="st30" d="M818.9,1039.9c-1.7-1.7-3.3-3.5-4.8-5.4c-1.4-1.9-2.7-4-3.8-6.1c1.2,2.1,2.6,4,4.1,5.9
				c1.5,1.8,3.2,3.5,5,5.1L818.9,1039.9z"/>
			
				<rect x="785.7" y="1130.4" transform="matrix(0.246 -0.9693 0.9693 0.246 -495.7993 1626.0411)" class="st30" width="23.1" height="2.6"/>
			<path class="st31" d="M846.8,1118.9c-15.6,21.2-29.2,24-40.2,17.4c-3.4-2.1-5.1-6.2-4.2-10.1c-4.1,1.7-7.3-0.9-8.8-3.7
				c-6.8-12.3-6.1-28.9,9.5-50.1c19.2-26.1,65.9-36.6,65.9-36.6S866,1092.8,846.8,1118.9z"/>
			<path class="st32" d="M805.7,1133.5c-1.7-1.8-2.3-4.3-1.8-6.7l0.7-3.4l-2.7,1.1c-2,0.9-4.4,0.4-5.8-1.3c-0.5-0.5-0.9-1-1.2-1.6
				c-7.3-13.3-4.2-29.4,9.4-47.9c16.4-22.3,53.8-33.1,63-35.5c-0.8,11.2-5.2,57.2-21.6,79.5c-13.6,18.4-26.5,24.2-38.4,17
				C806.7,1134.3,806.2,1133.9,805.7,1133.5z"/>
			<polygon class="st33" points="868.9,1036 804.1,1126.2 802,1124.7 			"/>
			<path class="st33" d="M809.2,1117.4c0,0,1.3,1.2,3.4,2.9c2.5,2,5.3,3.9,8.1,5.5c2.9,1.6,5.8,2.9,8.9,4c2.5,0.9,4.3,1.3,4.3,1.3
				s-1.8-0.3-4.3-1.1c-3.2-1-6.2-2.2-9.2-3.7c-3-1.5-5.8-3.2-8.5-5.2c-2.2-1.6-3.6-2.8-3.6-2.8L809.2,1117.4z"/>
			<path class="st33" d="M817.3,1106.4c0,0,1.6,1.2,4.1,2.7c3.1,1.9,6.3,3.5,9.6,4.9c3.3,1.4,6.8,2.4,10.3,3.2
				c2.9,0.6,4.9,0.8,4.9,0.8s-2-0.1-4.9-0.6c-3.6-0.6-7.1-1.5-10.5-2.8c-3.4-1.2-6.8-2.8-9.9-4.5c-2.6-1.5-4.2-2.6-4.2-2.6
				L817.3,1106.4z"/>
			<path class="st33" d="M824.9,1096.1l12.7,7.9c2.9,1.9,5.9,3.4,9.1,4.6c1.1,0.4,2.2,0.7,3.3,0.8c0.8,0.1,1.3,0.2,1.3,0.2
				s-0.5,0-1.3-0.1c-1.1-0.1-2.2-0.4-3.3-0.7c-3.3-1.1-6.4-2.5-9.4-4.3l-13-7.3L824.9,1096.1z"/>
			<path class="st33" d="M830.6,1088l13.6,3.3c3.1,0.9,6.2,1.5,9.4,1.8c1.5,0.1,2.9,0,4.3-0.2c0,0-0.4,0.1-1.2,0.2
				c-1,0.2-2.1,0.2-3.2,0.2c-3.2-0.2-6.4-0.7-9.5-1.4l-13.7-2.8L830.6,1088z"/>
			<path class="st33" d="M838.5,1076.9c0,0,5.7,1.4,11.6,2.2s11.8,1.2,11.8,1.2s-5.9-0.1-11.8-0.7s-11.8-1.8-11.8-1.8L838.5,1076.9z
				"/>
			<path class="st33" d="M847.1,1065.6c2.8,0.7,5.6,1.2,8.4,1.6c2.8,0.4,5.7,0.6,8.6,0.7c-2.9,0-5.7-0.1-8.6-0.3
				c-2.9-0.3-5.7-0.7-8.5-1.3L847.1,1065.6z"/>
			<path class="st33" d="M853.9,1056c1.8,0.9,3.7,1.6,5.7,2.1c2,0.5,4,0.8,6,0.8c-2,0.1-4.1-0.1-6.1-0.5c-2-0.4-4-1-5.9-1.9
				L853.9,1056z"/>
			<path class="st33" d="M808,1118c0,0-1.2-1.6-2.8-4.1c-2-3.1-3.8-6.3-5.3-9.6c-1.6-3.3-2.9-6.7-4-10.2c-0.9-2.8-1.3-4.8-1.3-4.8
				s0.5,1.9,1.5,4.7c1.2,3.4,2.7,6.8,4.3,10c1.7,3.2,3.6,6.3,5.7,9.3c1.7,2.4,3,3.9,3,3.9L808,1118z"/>
			<path class="st33" d="M816,1106.9c0,0-1.2-1.9-2.8-5c-1.9-3.7-3.6-7.5-5-11.5c-1.4-3.9-2.5-7.9-3.4-12c-0.7-3.3-1.1-5.6-1.1-5.6
				s0.4,2.2,1.3,5.5c1,4,2.3,8,3.9,11.8c1.5,3.8,3.3,7.6,5.3,11.2c1.7,2.9,2.9,4.8,2.9,4.8L816,1106.9z"/>
			<path class="st33" d="M823.6,1096.5l-7.7-14.8c-1.8-3.4-3.4-6.9-4.6-10.6c-0.4-1.2-0.7-2.4-0.9-3.7c-0.2-0.9-0.2-1.4-0.2-1.4
				s0.1,0.5,0.3,1.4c0.3,1.2,0.6,2.4,1,3.6c1.3,3.6,3,7,4.9,10.3l8.3,14.5L823.6,1096.5z"/>
			<path class="st33" d="M829.7,1088.2c0,0-2-7.9-4.1-15.8c-1-3.6-1.8-7.3-2.4-11c-0.2-1.7-0.3-3.4-0.2-5.1c0,1.7,0.1,3.4,0.4,5.1
				c0.7,3.7,1.6,7.3,2.7,10.9l4.6,15.7L829.7,1088.2z"/>
			<path class="st33" d="M837.9,1077.4c0,0-1.7-6.9-2.9-13.8s-2-13.9-2-13.9s1,7,2.5,13.9s3.3,13.7,3.3,13.7L837.9,1077.4z"/>
			<path class="st33" d="M846.5,1065.8c0,0-1.3-5-2.1-10s-1.3-10.2-1.3-10.2s0.6,5.1,1.6,10.1s2.4,9.9,2.4,9.9L846.5,1065.8z"/>
			<path class="st33" d="M853.6,1056.7c-1.9-4.4-3-9.1-3.4-13.9c0.3,2.4,0.8,4.7,1.4,7c0.7,2.3,1.5,4.5,2.5,6.7L853.6,1056.7z"/>
			
				<rect x="786" y="1131.4" transform="matrix(0.6074 -0.7944 0.7944 0.6074 -586.6951 1078.3385)" class="st33" width="23.1" height="2.6"/>
			<rect x="790.5" y="1126.4" class="st34" width="8.7" height="147.7"/>
			<rect x="794.9" y="1126.4" class="st35" width="4.2" height="147.7"/>
			<path class="st31" d="M812.9,1089.2c4.8,25.9-2.4,37.7-14.8,41.3c-3.9,1.1-8-0.5-10.2-3.8c-1.6,4.2-5.6,4.7-8.8,3.9
				c-13.6-3.5-25.3-15.2-30.1-41.1c-5.9-31.9,18.3-73.1,18.3-73.1S807,1057.4,812.9,1089.2z"/>
			<path class="st32" d="M795.4,1129.2c-2.5,0-4.7-1.2-6.1-3.3l-2-2.8l-1.1,2.8c-0.7,2.1-2.7,3.4-4.9,3.3c-0.7,0-1.3-0.1-2-0.3
				c-14.8-3.8-24.3-17.1-28.5-39.6c-5.1-27.2,12.6-62,17.1-70.3c7.6,8.3,38.2,42.9,43.2,70.1c4.2,22.5-0.5,35.8-13.8,39.7
				C796.7,1129.1,796.1,1129.2,795.4,1129.2z"/>
			<polygon class="st33" points="767.5,1016.5 789,1125.4 786.5,1125.9 			"/>
			<path class="st33" d="M786.1,1115.7c0,0,1.8-0.1,4.4-0.5c3.2-0.5,6.4-1.2,9.5-2.2c3.1-1,6.2-2.2,9.1-3.8c2.4-1.2,3.8-2.2,3.8-2.2
				s-1.5,1-3.8,2.4c-2.9,1.7-5.9,3.1-9,4.2c-3.1,1.1-6.3,2-9.6,2.6c-2.7,0.5-4.5,0.7-4.5,0.7L786.1,1115.7z"/>
			<path class="st33" d="M783.6,1102.2c0,0,2-0.4,4.8-1.1c3.5-0.9,6.9-2.2,10.1-3.7c3.3-1.5,6.4-3.3,9.4-5.4c2.4-1.7,3.9-3,3.9-3
				s-1.4,1.4-3.8,3.2c-2.9,2.2-6,4.1-9.2,5.8c-3.2,1.7-6.6,3-10.1,4.2c-2.9,0.9-4.8,1.3-4.8,1.3L783.6,1102.2z"/>
			<path class="st33" d="M781.2,1089.6l14.5-3.9c3.3-0.8,6.5-2,9.6-3.5c1-0.5,2-1.1,2.8-1.8c0.7-0.5,1-0.8,1-0.8s-0.3,0.3-1,0.9
				c-0.9,0.7-1.8,1.4-2.8,1.9c-3,1.7-6.2,3-9.5,3.9l-14.3,4.5L781.2,1089.6z"/>
			<path class="st33" d="M779.2,1079.9l11.7-7.6c2.7-1.6,5.3-3.5,7.7-5.7c1.1-1,2-2.1,2.8-3.3c0,0-0.2,0.4-0.7,1
				c-0.6,0.9-1.3,1.7-2,2.4c-2.3,2.2-4.9,4.2-7.6,6l-11.4,8.1L779.2,1079.9z"/>
			<path class="st33" d="M776.5,1066.6c0,0,5-3.2,9.6-6.9s8.9-7.8,8.9-7.8s-4.1,4.3-8.6,8.2s-9.3,7.4-9.3,7.4L776.5,1066.6z"/>
			<path class="st33" d="M774.1,1052.7c2.4-1.6,4.7-3.2,6.9-5.1c2.2-1.8,4.3-3.8,6.3-5.8c-1.9,2.1-4,4.2-6.1,6.1
				c-2.2,1.9-4.4,3.7-6.8,5.3L774.1,1052.7z"/>
			<path class="st33" d="M771.8,1041.1c1.9-0.7,3.7-1.6,5.4-2.7c1.7-1.1,3.3-2.4,4.7-3.8c-1.4,1.5-2.9,2.9-4.5,4.1
				c-1.7,1.2-3.5,2.2-5.4,3L771.8,1041.1z"/>
			<path class="st33" d="M785.7,1117c0,0-2-0.2-5-0.7c-3.6-0.6-7.2-1.5-10.7-2.7c-3.5-1.1-6.9-2.5-10.2-4.1
				c-2.7-1.3-4.4-2.3-4.4-2.3s1.8,0.9,4.5,2.1c3.3,1.4,6.8,2.7,10.3,3.7c3.5,1,7,1.7,10.6,2.2c2.9,0.4,4.9,0.5,4.9,0.5L785.7,1117z"
				/>
			<path class="st33" d="M783,1103.5c0,0-2.2-0.4-5.5-1.4c-4-1.1-7.9-2.5-11.8-4.2c-3.8-1.7-7.5-3.5-11.1-5.7c-2.9-1.7-4.8-3-4.8-3
				s1.9,1.2,4.9,2.8c3.6,2,7.4,3.7,11.2,5.2c3.9,1.5,7.8,2.7,11.8,3.7c3.3,0.8,5.5,1.2,5.5,1.2L783,1103.5z"/>
			<path class="st33" d="M780.6,1090.8l-16.1-4.5c-3.7-1-7.4-2.3-10.8-3.9c-1.1-0.5-2.3-1.2-3.3-1.8c-0.8-0.5-1.2-0.8-1.2-0.8
				s0.4,0.3,1.2,0.8c1.1,0.6,2.2,1.2,3.4,1.7c3.5,1.5,7.2,2.6,10.9,3.5l16.3,3.9L780.6,1090.8z"/>
			<path class="st33" d="M778.8,1080.8l-14.4-7.8c-3.3-1.7-6.6-3.7-9.7-5.8c-1.4-1-2.7-2.1-3.9-3.3c1.2,1.2,2.6,2.3,4,3.2
				c3.1,2,6.4,3.9,9.8,5.5l14.6,7.4L778.8,1080.8z"/>
			<path class="st33" d="M776.5,1067.4c0,0-6.2-3.5-12-7.3S753,1052,753,1052s5.8,4,11.8,7.7s12.2,6.9,12.2,6.9L776.5,1067.4z"/>
			<path class="st33" d="M773.9,1053.2c0,0-4.5-2.5-8.8-5.3s-8.3-6-8.3-6s4.1,3,8.5,5.7s8.9,5,8.9,5L773.9,1053.2z"/>
			<path class="st33" d="M772.1,1041.7c-2.3-0.8-4.4-1.8-6.5-3c-2.1-1.2-4.1-2.5-5.9-4c1.9,1.4,4,2.7,6.1,3.7c2.1,1.1,4.3,2,6.6,2.7
				L772.1,1041.7z"/>
			
				<rect x="788" y="1123" transform="matrix(0.9863 -0.1647 0.1647 0.9863 -176.0806 145.4922)" class="st33" width="2.6" height="23.1"/>
			<path class="st25" d="M855.1,1149.2c-18.6,18.6-32.5,19.3-42.4,11.2c-3.1-2.6-4.1-6.9-2.6-10.6c-4.3,1-7-2-8.2-5
				c-4.8-13.2-1.7-29.4,16.9-48.1c22.9-22.9,70.7-26.3,70.7-26.3S878.1,1126.3,855.1,1149.2z"/>
			<path class="st26" d="M812.3,1157.5c-1.4-2-1.7-4.6-0.8-6.9l1.2-3.2l-2.9,0.7c-2.1,0.6-4.4-0.3-5.5-2.2c-0.4-0.6-0.7-1.2-0.9-1.8
				c-5.2-14.3,0.3-29.7,16.5-45.9c19.6-19.6,58.2-24.7,67.7-25.6c-2.5,11-13.8,55.8-33.4,75.3c-16.2,16.2-29.8,19.9-40.5,11.1
				C813.1,1158.5,812.7,1158,812.3,1157.5z"/>
			<polygon class="st27" points="889.4,1070.6 811.8,1150.1 809.9,1148.2 			"/>
			<path class="st27" d="M818.2,1142.1c0,0,1.1,1.4,2.9,3.4c2.2,2.4,4.6,4.6,7.2,6.6c2.6,2,5.3,3.8,8.2,5.3c2.4,1.3,4,1.9,4,1.9
				s-1.7-0.6-4.1-1.8c-3-1.4-5.8-3.1-8.5-5c-2.7-1.9-5.2-4.1-7.6-6.4c-1.9-1.9-3.1-3.3-3.1-3.3L818.2,1142.1z"/>
			<path class="st27" d="M827.8,1132.5c0,0,1.4,1.4,3.6,3.3c2.7,2.3,5.7,4.4,8.8,6.3c3.1,1.8,6.4,3.4,9.7,4.7c2.8,1,4.7,1.5,4.7,1.5
				s-1.9-0.4-4.8-1.3c-3.5-1.1-6.8-2.6-10-4.3c-3.2-1.7-6.3-3.8-9.1-6c-2.4-1.8-3.8-3.2-3.8-3.2L827.8,1132.5z"/>
			<path class="st27" d="M836.9,1123.4l11.4,9.7c2.5,2.3,5.3,4.3,8.3,6c1,0.5,2,1,3.1,1.3c0.8,0.2,1.2,0.4,1.2,0.4s-0.5-0.1-1.2-0.3
				c-1.1-0.3-2.2-0.7-3.2-1.2c-3.1-1.6-6-3.4-8.6-5.6l-11.8-9.2L836.9,1123.4z"/>
			<path class="st27" d="M843.8,1116.2l12.9,5.3c2.9,1.3,5.9,2.4,9,3.2c1.4,0.3,2.9,0.5,4.3,0.4c0,0-0.4,0-1.2,0
				c-1.1,0-2.1-0.1-3.2-0.3c-3.1-0.7-6.2-1.6-9.2-2.8l-13.1-4.9L843.8,1116.2z"/>
			<path class="st27" d="M853.3,1106.4c0,0,5.5,2.2,11.1,4s11.5,3,11.5,3s-5.9-0.9-11.6-2.5s-11.3-3.5-11.3-3.5L853.3,1106.4z"/>
			<path class="st27" d="M863.4,1096.6c2.6,1.1,5.3,2,8.1,2.8c2.8,0.8,5.5,1.4,8.4,1.9c-2.8-0.4-5.7-0.9-8.5-1.6
				c-2.8-0.7-5.5-1.6-8.2-2.6L863.4,1096.6z"/>
			<path class="st27" d="M871.5,1088.1c1.6,1.2,3.4,2.2,5.3,3c1.9,0.8,3.8,1.4,5.8,1.7c-2-0.2-4.1-0.7-6-1.4
				c-1.9-0.7-3.8-1.6-5.5-2.7L871.5,1088.1z"/>
			<path class="st27" d="M816.8,1142.5c0,0-1-1.7-2.2-4.5c-1.5-3.3-2.8-6.8-3.8-10.3c-1-3.5-1.8-7.1-2.4-10.7
				c-0.5-3-0.6-4.9-0.6-4.9s0.2,2,0.8,4.9c0.7,3.6,1.6,7.1,2.8,10.5c1.2,3.4,2.6,6.8,4.2,10c1.3,2.6,2.3,4.3,2.3,4.3L816.8,1142.5z"
				/>
			<path class="st27" d="M826.4,1132.7c0,0-0.9-2.1-2-5.3c-1.3-4-2.4-8-3.2-12.1c-0.8-4.1-1.3-8.2-1.6-12.4
				c-0.2-3.4-0.2-5.7-0.2-5.7s0.1,2.3,0.4,5.6c0.4,4.1,1.1,8.2,2,12.2c1,4,2.2,8,3.7,11.9c1.2,3.1,2.2,5.2,2.2,5.2L826.4,1132.7z"/>
			<path class="st27" d="M835.5,1123.6l-5.4-15.8c-1.3-3.6-2.3-7.4-2.9-11.2c-0.2-1.3-0.3-2.5-0.3-3.8c0-0.9,0-1.4,0-1.4
				s0,0.5,0.1,1.4c0.1,1.3,0.3,2.5,0.5,3.8c0.8,3.8,1.9,7.4,3.3,11l6,15.6L835.5,1123.6z"/>
			<path class="st27" d="M842.8,1116.3l-1.7-16.3c-0.5-3.7-0.7-7.5-0.7-11.2c0-1.7,0.2-3.4,0.5-5.1c-0.3,1.7-0.4,3.4-0.4,5.1
				c0.1,3.7,0.4,7.5,1,11.2c1.1,8.1,2.2,16.2,2.2,16.2L842.8,1116.3z"/>
			<path class="st27" d="M852.6,1106.9c0,0-0.6-7-0.8-14.1s0.1-14.1,0.1-14.1s-0.1,7,0.3,14.1s1.2,14,1.2,14L852.6,1106.9z"/>
			<path class="st27" d="M862.8,1096.7c0,0-0.5-5.1-0.6-10.2s0.2-10.2,0.2-10.2s-0.2,5.1,0.1,10.2s0.9,10.2,0.9,10.2L862.8,1096.7z"
				/>
			<path class="st27" d="M871.2,1088.7c-0.6-2.3-1-4.7-1.2-7.1c-0.2-2.4-0.2-4.8,0-7.2c-0.1,2.4,0.1,4.8,0.4,7.1
				c0.3,2.4,0.8,4.7,1.5,7L871.2,1088.7z"/>
			<path class="st27" d="M798.4,1162.9c-1.4,0-1.9-0.5-1.8-1.8l15.2-14.6l1.8,1.9L798.4,1162.9z"/>
			<path class="st25" d="M781.8,1103.2c18.2,19,18.6,32.9,10.2,42.6c-2.7,3-6.9,4-10.6,2.4c1,4.3-2.1,7-5.2,8
				c-13.3,4.6-29.5,1.1-47.7-18c-22.4-23.4-24.7-71.2-24.7-71.2S759.5,1079.8,781.8,1103.2z"/>
			<path class="st26" d="M789.1,1146.3c-2,1.4-4.6,1.6-6.9,0.6l-3.2-1.2l0.6,2.9c0.6,2.1-0.4,4.4-2.3,5.5c-0.6,0.4-1.2,0.7-1.8,0.9
				c-14.4,4.9-29.7-1-45.5-17.5c-19.1-20-23.4-58.8-24.1-68.2c10.9,2.8,55.4,15,74.5,35c15.8,16.5,19.2,30.3,10.2,40.8
				C790.1,1145.4,789.6,1145.9,789.1,1146.3z"/>
			<polygon class="st27" points="704,1067.2 781.7,1146.6 779.8,1148.4 			"/>
			<path class="st27" d="M773.9,1140c0,0,1.4-1.1,3.4-2.8c2.4-2.1,4.7-4.5,6.8-7c2.1-2.5,3.9-5.2,5.5-8.1c1.3-2.3,2-4,2-4
				s-0.7,1.7-1.9,4.1c-1.5,2.9-3.2,5.8-5.2,8.4c-2,2.6-4.2,5.1-6.5,7.4c-2,1.9-3.3,3-3.3,3L773.9,1140z"/>
			<path class="st27" d="M764.5,1130.1c0,0,1.4-1.4,3.4-3.6c2.4-2.7,4.6-5.6,6.5-8.6c1.9-3.1,3.6-6.3,4.9-9.6
				c1.1-2.8,1.7-4.7,1.7-4.7s-0.5,1.9-1.5,4.7c-1.2,3.4-2.7,6.7-4.5,9.9c-1.8,3.2-3.9,6.2-6.2,9c-1.9,2.3-3.3,3.7-3.3,3.7
				L764.5,1130.1z"/>
			<path class="st27" d="M755.5,1120.9l10-11.2c2.3-2.5,4.4-5.2,6.1-8.2c0.6-1,1-2,1.4-3.1c0.3-0.8,0.4-1.2,0.4-1.2
				s-0.1,0.5-0.3,1.2c-0.3,1.1-0.8,2.1-1.3,3.2c-1.6,3-3.6,5.9-5.8,8.5l-9.5,11.6L755.5,1120.9z"/>
			<path class="st27" d="M748.5,1113.9c0,0,2.8-6.4,5.6-12.8c1.4-2.9,2.5-5.9,3.4-9c0.4-1.4,0.5-2.9,0.5-4.3c0,0,0,0.4,0,1.2
				c0,1.1-0.2,2.1-0.4,3.2c-0.7,3.1-1.8,6.2-3.1,9.1c-2.6,6.5-5.2,13-5.2,13L748.5,1113.9z"/>
			<path class="st27" d="M739,1104.2c0,0,2.4-5.4,4.2-11.1s3.2-11.4,3.2-11.4s-1.1,5.8-2.8,11.5s-3.8,11.3-3.8,11.3L739,1104.2z"/>
			<path class="st27" d="M729.4,1093.8c1.1-2.6,2.1-5.3,3-8c0.9-2.7,1.6-5.5,2.1-8.3c-0.4,2.8-1,5.6-1.8,8.4
				c-0.8,2.8-1.7,5.5-2.8,8.2L729.4,1093.8z"/>
			<path class="st27" d="M721.1,1085.5c1.2-1.6,2.2-3.4,3.1-5.2c0.8-1.9,1.5-3.8,1.9-5.8c-0.3,2-0.8,4-1.6,5.9
				c-0.8,1.9-1.7,3.7-2.8,5.4L721.1,1085.5z"/>
			<path class="st27" d="M774.2,1141.4c0,0-1.8,0.9-4.5,2.1c-3.4,1.4-6.8,2.6-10.4,3.6c-3.5,0.9-7.1,1.7-10.7,2.1
				c-3,0.4-5,0.5-5,0.5s2-0.2,4.9-0.7c3.6-0.6,7.1-1.5,10.6-2.6c3.5-1.1,6.8-2.4,10.1-4c2.7-1.3,4.4-2.3,4.4-2.3L774.2,1141.4z"/>
			<path class="st27" d="M764.7,1131.6c0,0-2.1,0.8-5.4,1.9c-4,1.2-8,2.2-12.1,2.9c-4.1,0.7-8.2,1.1-12.4,1.3
				c-3.4,0.1-5.7,0.1-5.7,0.1s2.3,0,5.6-0.3c4.1-0.3,8.2-0.9,12.3-1.8c4-0.9,8-2,11.9-3.3c3.2-1.1,5.2-2,5.2-2L764.7,1131.6z"/>
			<path class="st27" d="M755.7,1122.2l-16,5.1c-3.6,1.2-7.4,2.1-11.2,2.7c-1.3,0.2-2.5,0.2-3.8,0.3c-0.9,0-1.4,0-1.4,0s0.5,0,1.4,0
				c1.3-0.1,2.5-0.2,3.8-0.4c3.8-0.7,7.4-1.7,11-3.1l15.8-5.8L755.7,1122.2z"/>
			<path class="st27" d="M748.7,1114.8l-16.3,1.3c-3.7,0.4-7.5,0.5-11.2,0.4c-1.7-0.1-3.4-0.3-5.1-0.7c1.7,0.3,3.4,0.5,5.1,0.5
				c3.7,0,7.5-0.3,11.2-0.8l16.3-1.8L748.7,1114.8z"/>
			<path class="st27" d="M739.4,1104.8c0,0-7,0.5-14.1,0.4s-14.1-0.4-14.1-0.4s7,0.2,14.1,0s14-0.9,14-0.9L739.4,1104.8z"/>
			<path class="st27" d="M729.5,1094.4c0,0-5.1,0.4-10.2,0.3s-10.2-0.5-10.2-0.5s5.1,0.3,10.2,0.2s10.2-0.7,10.2-0.7L729.5,1094.4z"
				/>
			<path class="st27" d="M721.7,1085.8c-4.7,1.1-9.5,1.4-14.3,0.9c2.4,0.1,4.8,0.1,7.1-0.2c2.4-0.3,4.7-0.7,7-1.3L721.7,1085.8z"/>
			<path class="st27" d="M791.8,1161.3l-13.7-14.8l1.9-1.7l13.7,14.8C793.7,1161.1,793.3,1161.6,791.8,1161.3z"/>
			<path class="st36" d="M854.9,1264.3c0,0.5,0,0.9-0.1,1.4l-0.1,1.2c-2.6,46.7-12.5,75.1-33.9,105.8h-51.6
				c-21.5-30.7-31.3-59.1-33.9-105.8c0-0.9-0.1-1.7-0.1-2.6H854.9z"/>
			<path class="st35" d="M854.9,1264.3c0,0.9-0.1,1.7-0.1,2.6H735.3c0-0.9-0.1-1.7-0.1-2.6H854.9z"/>
			<rect x="727.5" y="1257.7" class="st36" width="135.1" height="7.8"/>
			<path class="st37" d="M854.8,1265.7l-0.1,1.2c-2.6,46.7-12.5,75.1-33.9,105.8h-51.6C816.1,1354.7,838.4,1321.9,854.8,1265.7z"/>
			<path class="st4" d="M2532.6,1469.3c0,10.4-56.3,11.1-125.7,11.1s-125.8-0.7-125.8-11.1s56.3-11.1,125.8-11.1
				S2532.6,1458.9,2532.6,1469.3z"/>
			<path class="st38" d="M2342.1,1210.6c-1.9-0.6-3.3-3.8-3.2-7.6c0.1-3.4,1.4-6.3,3.2-6.8h107.2c-2.4,0-2.4,14.3,0,14.3H2342.1z"/>
			<path class="st39" d="M2338.9,1203c-0.1,3.7,1.3,7,3.2,7.6h109.3v1.8h-109.6c-6.9-1.5-6.6-16.8,0-18h109.6v1.8h-109.4
				C2340.4,1196.7,2339,1199.6,2338.9,1203z"/>
			<path class="st40" d="M2339,1204.5c0,0.3,0.1,0.5,0.1,0.8h108.5c0-0.3,0-0.5,0-0.8H2339z"/>
			<path class="st40" d="M2447.5,1203h-108.6c0,0.3,0,0.5,0,0.8h108.6C2447.5,1203.6,2447.5,1203.3,2447.5,1203z"/>
			<path class="st40" d="M2448.3,1209.6c-0.1-0.3-0.2-0.5-0.3-0.8h-107.8c0.2,0.3,0.4,0.6,0.6,0.8H2448.3z"/>
			<path class="st40" d="M2339.6,1207.4c0.1,0.3,0.2,0.5,0.3,0.8h108c-0.1-0.2-0.1-0.5-0.1-0.8H2339.6z"/>
			<path class="st40" d="M2339.2,1205.9c0,0.3,0.1,0.5,0.2,0.8h108.3c0-0.3-0.1-0.5-0.1-0.8H2339.2z"/>
			<path class="st40" d="M2340.7,1197.2c-0.2,0.3-0.4,0.5-0.6,0.8H2448c0.1-0.3,0.2-0.5,0.3-0.8H2340.7z"/>
			<path class="st40" d="M2339.8,1198.7c-0.1,0.3-0.2,0.5-0.3,0.8h108.2c0-0.3,0.1-0.6,0.1-0.8H2339.8z"/>
			<path class="st40" d="M2339,1201.6c0,0.3-0.1,0.5-0.1,0.8h108.5c0-0.3,0-0.5,0-0.8H2339z"/>
			<path class="st40" d="M2339.3,1200.1c-0.1,0.3-0.1,0.5-0.2,0.8h108.4c0-0.3,0.1-0.5,0.1-0.8H2339.3z"/>
			<path class="st41" d="M2397.8,1194.4v18h-56c-6.9-1.5-6.6-16.8,0-18H2397.8z"/>
			<path class="st38" d="M2345.6,1265c-4,0-5.8-4.4-5.8-8.4s1.8-8.5,5.8-8.5h95.9c-3.4,0-3.4,16.9,0,16.9L2345.6,1265z"/>
			<path class="st42" d="M2345.6,1265c-4,0-5.8-4.4-5.8-8.4s1.8-8.5,5.8-8.5h97.2v-1.5h-97.2c-9.5,0-9.5,19.9,0,19.9h97.2v-1.5
				H2345.6z"/>
			<path class="st43" d="M2340.4,1260.6c0.1,0.3,0.2,0.6,0.3,0.8h98.6c0-0.3-0.1-0.5-0.1-0.8H2340.4z"/>
			<path class="st43" d="M2340,1259.1c0.1,0.3,0.1,0.6,0.2,0.8h98.9c0-0.3-0.1-0.5-0.1-0.8H2340z"/>
			<path class="st43" d="M2440.5,1264.4c-0.2-0.2-0.3-0.5-0.5-0.8h-97.8c0.3,0.3,0.7,0.6,1.1,0.8H2440.5z"/>
			<path class="st43" d="M2341.1,1262.1c0.2,0.3,0.3,0.6,0.5,0.8h98.1c-0.1-0.3-0.1-0.5-0.2-0.8H2341.1z"/>
			<path class="st43" d="M2339.8,1257.6c0,0.3,0,0.5,0.1,0.8h99.1c0-0.3,0-0.5,0-0.8H2339.8z"/>
			<path class="st43" d="M2340.3,1253.1c-0.1,0.3-0.1,0.5-0.2,0.8h99c0-0.3,0.1-0.5,0.1-0.8H2340.3z"/>
			<path class="st43" d="M2439,1256.1h-99.1c0,0.2,0,0.3,0,0.5s0,0.2,0,0.3h99.1V1256.1z"/>
			<path class="st43" d="M2343.5,1248.6c-0.4,0.2-0.8,0.5-1.2,0.8h97.7c0.1-0.3,0.3-0.6,0.5-0.8H2343.5z"/>
			<path class="st43" d="M2341.7,1250.1c-0.2,0.3-0.4,0.5-0.6,0.8h98.4c0.1-0.3,0.1-0.6,0.2-0.8H2341.7z"/>
			<path class="st43" d="M2340.8,1251.6c-0.1,0.3-0.2,0.5-0.3,0.8h98.8c0-0.3,0.1-0.6,0.1-0.8H2340.8z"/>
			<path class="st43" d="M2340,1254.6c0,0.3-0.1,0.5-0.1,0.8h99.1c0-0.3,0-0.5,0-0.8H2340z"/>
			<path class="st38" d="M2437.7,1193.1h-87.3c-3.6,0-5.2-4-5.2-7.7c0-2,0.5-3.9,1.5-5.6c0.8-1.3,2.2-2.1,3.8-2.1h87.3
				c-0.7,0-1.3,0.8-1.6,2.1C2434.9,1184.1,2435.4,1193.1,2437.7,1193.1z"/>
			<path class="st24" d="M2437.7,1177.7c-0.7,0-1.3,0.8-1.6,2.1h-89.4c0.8-1.3,2.2-2.1,3.8-2.1H2437.7z"/>
			<path class="st43" d="M2345.8,1189.1c0.1,0.2,0.2,0.5,0.3,0.7h89.7l-0.1-0.7H2345.8z"/>
			<path class="st43" d="M2345.4,1187.7c0,0.2,0.1,0.5,0.2,0.7h90c0-0.2-0.1-0.5-0.1-0.7H2345.4z"/>
			<path class="st43" d="M2436.8,1192.5c-0.2-0.2-0.3-0.5-0.4-0.7h-89c0.3,0.3,0.6,0.5,1,0.7H2436.8z"/>
			<path class="st43" d="M2346.4,1190.4c0.1,0.3,0.3,0.5,0.5,0.7h89.3c-0.1-0.2-0.1-0.5-0.2-0.7H2346.4z"/>
			<path class="st43" d="M2345.3,1186.3c0,0.2,0,0.5,0.1,0.7h90.2c0-0.2,0-0.5,0-0.7H2345.3z"/>
			<path class="st43" d="M2345.6,1182.2c-0.1,0.2-0.1,0.5-0.2,0.7h90.1c0-0.2,0-0.5,0.1-0.7H2345.6z"/>
			<path class="st43" d="M2435.4,1184.9h-90.2c0,0.2,0,0.3,0,0.4s0,0.2,0,0.3h90.2V1184.9z"/>
			<path class="st43" d="M2348.6,1178.1c-0.4,0.2-0.8,0.4-1.1,0.7h88.9c0.1-0.3,0.3-0.5,0.5-0.7H2348.6z"/>
			<path class="st43" d="M2347,1179.5c-0.2,0.2-0.4,0.5-0.5,0.7h89.5c0.1-0.3,0.1-0.5,0.2-0.7H2347z"/>
			<path class="st43" d="M2346.1,1180.8c-0.1,0.2-0.2,0.5-0.3,0.7h89.9c0-0.3,0.1-0.5,0.1-0.7H2346.1z"/>
			<path class="st43" d="M2345.4,1183.6c0,0.2-0.1,0.5-0.1,0.7h90.2c0-0.2,0-0.5,0-0.7H2345.4z"/>
			<path class="st42" d="M2350.5,1192.5c-6.1,0-5.5-14.4,0-14.4h88.5v-1.8h-88.5c-8.6,0-8.6,18.1,0,18.1h88.5v-1.9H2350.5z"/>
			<polygon class="st24" points="2428.4,1190.9 2425.1,1188.3 2421.5,1190.9 2421.5,1180.1 2428.4,1180.1 			"/>
			<polygon class="st44" points="2428.1,1190.5 2424.8,1187.9 2421.2,1190.5 2421.2,1180.1 2428.1,1180.1 			"/>
			<rect x="2335.6" y="1212.4" class="st45" width="100.7" height="16.8"/>
			<rect x="2342.3" y="1212.4" class="st46" width="2.1" height="16.8"/>
			<rect x="2427.9" y="1212.4" class="st46" width="4" height="16.8"/>
			<rect x="2366" y="1214.9" class="st46" width="39.9" height="11.8"/>
			<path class="st38" d="M2444.3,1244.6h-52.7c-4.2,0-4.2-13.4,0-13.4h52.7C2442.1,1231.2,2442.1,1244.6,2444.3,1244.6z"/>
			<path class="st47" d="M2391.6,1244.6c-4.2,0-4.2-13.4,0-13.4h54.8v-2h-109.1c-6.7,0-6.7,17.4,0,17.4h109.1v-2L2391.6,1244.6z"/>
			<path class="st48" d="M2445.3,1244.6h-53.7c-4.2,0-4.2-13.4,0-13.4h54.8v-2H2391c-6.7,0-6.7,17.4,0,17.4h55.4v-2L2445.3,1244.6z"
				/>
			<path class="st43" d="M2443.4,1232.2c0.1-0.2,0.2-0.4,0.3-0.6h-53.3c-0.2,0.2-0.4,0.3-0.5,0.6H2443.4z"/>
			<path class="st43" d="M2443.1,1233.2c0-0.2,0.1-0.4,0.1-0.6h-53.6c-0.1,0.2-0.2,0.4-0.3,0.6H2443.1z"/>
			<path class="st43" d="M2442.9,1234.2c0-0.2,0.1-0.4,0.1-0.6h-53.9l-0.2,0.6H2442.9z"/>
			<path class="st43" d="M2443.4,1243.6h-53.5c0.2,0.2,0.3,0.4,0.5,0.6h53.3C2443.6,1244,2443.5,1243.8,2443.4,1243.6z"/>
			<path class="st43" d="M2442.6,1237.7h-54.2v0.5h54.2C2442.6,1238,2442.6,1237.8,2442.6,1237.7z"/>
			<path class="st43" d="M2442.8,1235.2c0-0.2,0-0.4,0.1-0.5h-54c0,0.2-0.1,0.4-0.1,0.5H2442.8z"/>
			<path class="st43" d="M2443.2,1243.2c0-0.2-0.1-0.3-0.1-0.6h-53.8c0.1,0.2,0.2,0.4,0.3,0.6H2443.2z"/>
			<path class="st43" d="M2442.7,1240.2c0-0.2,0-0.4,0-0.6h-54.1c0,0.2,0,0.4,0.1,0.6H2442.7z"/>
			<path class="st43" d="M2442.7,1236.2c0-0.2,0-0.4,0-0.5h-54.1c0,0.2-0.1,0.4-0.1,0.5H2442.7z"/>
			<path class="st43" d="M2443,1242.2c0-0.2-0.1-0.4-0.1-0.6H2389l0.2,0.6H2443z"/>
			<path class="st43" d="M2442.8,1241.2c0-0.2-0.1-0.4-0.1-0.6h-54.1c0,0.2,0.1,0.4,0.1,0.6H2442.8z"/>
			<path class="st43" d="M2442.6,1237.2c0-0.2,0-0.4,0-0.5h-54.1c0,0.2,0,0.4,0,0.5H2442.6z"/>
			<path class="st43" d="M2442.6,1239.2c0-0.2,0-0.4,0-0.5h-54.2c0,0.2,0,0.4,0,0.5H2442.6z"/>
			<g>
				<polygon class="st23" points="2404.6,1251.1 2400.4,1247.9 2395.9,1251.1 2395.9,1246.6 2404.6,1246.6 				"/>
			</g>
			<polygon class="st44" points="2404.3,1250.9 2400.1,1247.7 2395.6,1250.9 2395.6,1237.9 2404.3,1237.9 			"/>
			<path class="st47" d="M2339.5,1229.2h-2.2c-6.7,0-6.7,17.4,0,17.4h2.2C2332.9,1246.6,2332.9,1229.2,2339.5,1229.2z"/>
			<path class="st49" d="M2346.8,1229.2h-2.2c-6.7,0-6.7,17.4,0,17.4h2.2C2340.1,1246.6,2340.1,1229.2,2346.8,1229.2z"/>
			<path class="st49" d="M2362.5,1229.2h-2.2c-6.7,0-6.7,17.4,0,17.4h2.2C2355.9,1246.6,2355.9,1229.2,2362.5,1229.2z"/>
			<path class="st49" d="M2384,1229.2h-2.2c-6.7,0-6.7,17.4,0,17.4h2.2C2377.3,1246.6,2377.3,1229.2,2384,1229.2z"/>
			<rect x="2341.8" y="1212.4" class="st23" width="94.5" height="1.6"/>
			<path class="st50" d="M2399.1,816.1l-48.7,129c-0.6,1.6-2.4,2.4-4,1.8c0,0,0,0,0,0l-26.1-9.8c-0.1,0-0.3-0.1-0.4-0.2
				c-1.4-0.8-2-2.4-1.4-3.9l48.7-129c0.5-1.5,2.1-2.3,3.6-2c0.1,0,0.3,0.1,0.4,0.1l26.1,9.8C2398.9,812.6,2399.8,814.4,2399.1,816.1
				C2399.2,816.1,2399.1,816.1,2399.1,816.1z"/>
			<path class="st51" d="M2370.8,802.1l-50.9,134.8c-1.4-0.8-2-2.4-1.4-3.9l48.7-129C2367.7,802.6,2369.3,801.8,2370.8,802.1z"/>
			<path class="st9" d="M2397.7,812.2l-50.9,134.8c1.5,0.3,3.1-0.5,3.6-2l48.7-129C2399.7,814.6,2399.1,813,2397.7,812.2z"/>
			
				<rect x="2332.3" y="838" transform="matrix(0.3533 -0.9355 0.9355 0.3533 736.5355 2765.2083)" class="st52" width="72.1" height="23.7"/>
			
				<rect x="2375.2" y="807.9" transform="matrix(0.3531 -0.9356 0.9356 0.3531 772.1687 2756.2375)" class="st53" width="8.2" height="23.7"/>
			
				<rect x="2374.4" y="820.8" transform="matrix(0.3533 -0.9355 0.9355 0.3533 756.7982 2760.1599)" class="st54" width="0.9" height="23.7"/>
			
				<rect x="2371" y="829.7" transform="matrix(0.3533 -0.9355 0.9355 0.3533 746.2935 2762.7729)" class="st54" width="0.9" height="23.7"/>
			
				<rect x="2367.7" y="838.7" transform="matrix(0.3533 -0.9355 0.9355 0.3533 735.7716 2765.3936)" class="st54" width="0.9" height="23.7"/>
			
				<rect x="2360.3" y="834.1" transform="matrix(0.3489 -0.9371 0.9371 0.3489 744.2308 2763.1497)" class="st54" width="0.9" height="23.8"/>
			
				<rect x="2360.6" y="856.2" transform="matrix(0.3531 -0.9356 0.9356 0.3531 715.1219 2770.4246)" class="st54" width="0.9" height="23.7"/>
			<path class="st55" d="M2351.9,919.7c-1.8,4.9-7.3,7.3-12.2,5.5c-4.9-1.8-7.3-7.3-5.5-12.2s7.3-7.3,12.2-5.5c0,0,0,0,0,0
				C2351.2,909.4,2353.7,914.9,2351.9,919.7z"/>
			<path class="st56" d="M2350.3,919.2c-1.5,4-6,6.1-10.1,4.5s-6.1-6-4.5-10.1c1.5-4,6-6.1,10-4.5
				C2349.8,910.6,2351.8,915.1,2350.3,919.2C2350.3,919.2,2350.3,919.2,2350.3,919.2z"/>
			<rect x="2504.6" y="783.6" class="st57" width="16.8" height="683.3"/>
			<rect x="2292.4" y="783.6" class="st57" width="228.9" height="16.8"/>
			<rect x="2292.4" y="946.7" class="st57" width="228.9" height="13.3"/>
			<rect x="2292.4" y="1106.3" class="st57" width="228.9" height="13.3"/>
			<rect x="2292.4" y="1266.5" class="st57" width="228.9" height="13.3"/>
			<rect x="2292.4" y="1426.8" class="st57" width="228.9" height="13.3"/>
			<rect x="2292.4" y="783.6" class="st57" width="16.8" height="683.3"/>
			<path class="st58" d="M2433.4,805.6v137.9c0,1.7-1.4,3.1-3.1,3.2h-27.9c-1.7,0-3.1-1.4-3.1-3.1c0,0,0,0,0,0V805.6
				c0-1.7,1.4-3.1,3.1-3.2c0,0,0,0,0,0h27.9C2432,802.5,2433.4,803.9,2433.4,805.6z"/>
			<path class="st51" d="M2402,802.5v144.2c-1.6-0.2-2.7-1.5-2.7-3.1V805.6C2399.3,804,2400.4,802.7,2402,802.5z"/>
			<path class="st9" d="M2430.7,802.5v144.2c1.6-0.2,2.7-1.5,2.7-3.1V805.6C2433.4,804,2432.3,802.7,2430.7,802.5z"/>
			<rect x="2404.5" y="812" class="st52" width="23.7" height="72.1"/>
			<rect x="2404.5" y="812" class="st59" width="23.7" height="8.2"/>
			<rect x="2404.5" y="829.2" class="st54" width="23.7" height="0.9"/>
			<rect x="2404.5" y="838.7" class="st54" width="23.7" height="0.9"/>
			<rect x="2404.5" y="848.2" class="st54" width="23.7" height="0.9"/>
			<rect x="2404.5" y="857.8" class="st54" width="23.7" height="0.9"/>
			<rect x="2404.5" y="867.3" class="st54" width="23.7" height="0.9"/>
			<path class="st55" d="M2425.8,919.3c0,5.2-4.2,9.4-9.4,9.4s-9.4-4.2-9.4-9.4s4.2-9.4,9.4-9.4l0,0
				C2421.5,909.9,2425.8,914.1,2425.8,919.3z"/>
			<circle class="st56" cx="2416.3" cy="919.3" r="7.8"/>
			<path class="st60" d="M2467.6,805.6v137.9c0,1.7-1.4,3.2-3.1,3.2c0,0,0,0,0,0h-27.9c-0.1,0-0.3,0-0.4,0c-1.6-0.2-2.7-1.5-2.7-3.1
				v-138c0-1.6,1.2-2.9,2.7-3.1c0.1,0,0.3,0,0.4,0h27.9C2466.2,802.5,2467.6,803.9,2467.6,805.6z"/>
			<path class="st51" d="M2436.1,802.5v144.2c-1.6-0.2-2.7-1.5-2.7-3.1V805.6C2433.4,804,2434.6,802.7,2436.1,802.5z"/>
			<path class="st9" d="M2464.9,802.5v144.2c1.6-0.2,2.7-1.5,2.7-3.1V805.6C2467.6,804,2466.4,802.7,2464.9,802.5z"/>
			<rect x="2438.6" y="812" class="st52" width="23.7" height="72.1"/>
			<rect x="2438.6" y="812" class="st61" width="23.7" height="8.2"/>
			<rect x="2438.6" y="829.2" class="st54" width="23.7" height="0.9"/>
			<rect x="2438.6" y="838.7" class="st54" width="23.7" height="0.9"/>
			<rect x="2438.6" y="848.2" class="st54" width="23.7" height="0.9"/>
			<rect x="2438.6" y="857.8" class="st54" width="23.7" height="0.9"/>
			<rect x="2438.6" y="867.3" class="st54" width="23.7" height="0.9"/>
			<path class="st55" d="M2459.9,919.3c0,5.2-4.2,9.5-9.4,9.5c-5.2,0-9.5-4.2-9.5-9.4c0-5.2,4.2-9.5,9.4-9.5c0,0,0,0,0,0
				C2455.7,909.9,2459.9,914.1,2459.9,919.3z"/>
			<circle class="st56" cx="2450.5" cy="919.3" r="7.8"/>
			<path class="st62" d="M2501.7,805.6v137.9c0,1.7-1.4,3.1-3.1,3.2h-27.9c-1.7,0-3.1-1.4-3.1-3.1c0,0,0,0,0,0V805.6
				c0-1.7,1.4-3.1,3.1-3.2c0,0,0,0,0,0h27.9C2500.3,802.5,2501.7,803.9,2501.7,805.6z"/>
			<path class="st51" d="M2470.3,802.5v144.2c-1.6-0.2-2.7-1.5-2.7-3.1V805.6C2467.6,804,2468.7,802.7,2470.3,802.5z"/>
			<path class="st9" d="M2499,802.5v144.2c1.6-0.2,2.7-1.5,2.7-3.1V805.6C2501.7,804,2500.6,802.7,2499,802.5z"/>
			<rect x="2472.8" y="812" class="st52" width="23.7" height="72.1"/>
			<rect x="2472.8" y="812" class="st63" width="23.7" height="8.2"/>
			<rect x="2472.8" y="829.2" class="st54" width="23.7" height="0.9"/>
			<rect x="2472.8" y="838.7" class="st54" width="23.7" height="0.9"/>
			<rect x="2472.8" y="848.2" class="st54" width="23.7" height="0.9"/>
			<rect x="2472.8" y="857.8" class="st54" width="23.7" height="0.9"/>
			<rect x="2472.8" y="867.3" class="st54" width="23.7" height="0.9"/>
			<path class="st55" d="M2494.1,919.3c0,5.2-4.2,9.5-9.4,9.5c-5.2,0-9.5-4.2-9.5-9.4c0-5.2,4.2-9.5,9.4-9.5c0,0,0,0,0,0
				C2489.9,909.9,2494.1,914.1,2494.1,919.3z"/>
			<circle class="st56" cx="2484.7" cy="919.3" r="7.8"/>
			<rect x="2395.7" y="1385.4" class="st64" width="98.8" height="41.3"/>
			<rect x="2391.8" y="1370.4" class="st65" width="106.8" height="15.1"/>
			<rect x="2395.7" y="1385.4" class="st24" width="98.8" height="4.3"/>
			<rect x="2318.2" y="1385.4" class="st66" width="56.4" height="41.3"/>
			<rect x="2316" y="1370.4" class="st67" width="61" height="15.1"/>
			<rect x="2318.2" y="1385.4" class="st24" width="56.4" height="4.3"/>
			<rect x="2411" y="1336.2" class="st68" width="61.2" height="34.2"/>
			<rect x="2408.5" y="1323.8" class="st69" width="66.1" height="12.5"/>
			<rect x="2411" y="1336.2" class="st24" width="61.2" height="3.5"/>
			<path class="st70" d="M2416,1075c-0.7,0-1.2-5.2-2.4-13.6c-2.7-21.8-8.5-43-17.1-63.2c-3.3-7.8-5.5-12.6-4.9-12.9
				s3.9,3.8,8.1,11.4C2420.6,1034.4,2417.9,1075,2416,1075z"/>
			<path class="st70" d="M2413.5,1075.3c-1.5-0.3,2.6-22.4,3.1-49.9c0.7-27.5-2.4-49.8-0.9-50c0.7-0.1,2.3,5.3,3.7,14.4
				C2426.6,1034.4,2415.3,1075.7,2413.5,1075.3z"/>
			<path class="st71" d="M2457,1045.5c-4.8-1.5-10-2-15-1.2c-10.2,1.5-17.8,7.1-24.9,14c-0.4,0.3-3.1,3.2-3.5,2.9
				c-0.7-0.6,5.8-12.2,17.9-18.3c11.9-6,25.2-3.9,30.3-0.9c14.3,8.7,27.9,29.2,25.4,48.9c-0.1,0.6-0.7,4.5-1.3,4.5s-0.6-3.4-0.7-4.5
				c-0.8-9.6-3.1-18.4-9.2-27.5C2471.4,1056.5,2462.6,1047.4,2457,1045.5z"/>
			<path class="st72" d="M2460.8,1048.3c-17.3-1.1-26.9,4.6-40.4,15.3c-0.5,0.4-4.9,4.4-5.4,3.9s3.2-5.1,3.6-5.6
				c18.6-20,38.9-23.5,60.2-13.4c16.1,7.2,29.5,25.3,28.3,26.2c-0.3,0.2-1.4-0.8-3.5-2.6c-10-9.1-18.8-16.3-31.6-21
				C2468.5,1049.7,2464.7,1048.7,2460.8,1048.3z"/>
			<path class="st72" d="M2422,1057.9c-2,2.7-6.2,8.5-6.8,8.1c-0.8-0.5,10.5-27.8,33.3-36.5c7.2-2.5,14.9-3.5,22.5-2.9
				c26.8,1.6,44.9,27.2,43.9,28c-0.3,0.2-1.6-0.9-3.9-3c-21.7-18.7-32.6-20.4-46.2-20.1C2456.5,1032.2,2439.9,1033,2422,1057.9z"/>
			<path class="st72" d="M2416.8,1057.9c-0.6,0.9-5,8.5-5.8,8.2c-1-0.5,8.5-25.2,23.3-40.5c28.6-27.7,67.2,1.5,65.4,3.5
				c-0.2,0.3-1.6-0.6-4.2-1.9c-11.9-6.1-25.6-10.4-38.7-8C2438.1,1022.4,2427.6,1040.8,2416.8,1057.9z"/>
			<path class="st73" d="M2412.3,1068.5c-2.6-0.9,18.3-65.5,35.5-76.8c0.3-0.2,1.8-1,2-0.6s-0.8,1.4-1,1.8c-2.1,2.8-4,5.7-5.6,8.8
				C2431.4,1022.5,2414.4,1069.2,2412.3,1068.5z"/>
			<path class="st74" d="M2387.6,1045.1c10.6,2.3,22.4,20.1,21.2,21c-0.3,0.2-1.2-0.5-2.8-1.9c-3.8-3.5-16.2-16.4-22-14.1
				c-3.6,1.4-5.2,8.2-5.8,12.1c-0.8,6.7-0.9,13.5-0.2,20.2c0.6,6.2,2.1,17.6-1.1,9.2C2370,1073.3,2371.3,1041.5,2387.6,1045.1z"/>
			<path class="st72" d="M2407.8,1057.4c4.1,6.2,5,12,4.2,12.2c-0.4,0.1-1-0.9-2.1-2.8c-14.5-25-44.2-26.8-61.8-4.9
				c-0.7,0.8-3.1,4.1-2.5,1.4c1.5-7.2,11.2-18.5,26-21.2C2386.9,1039.5,2401,1046.8,2407.8,1057.4z"/>
			<path class="st74" d="M2416,1072.3c-0.4,0.1-1.2-1.5-2.6-4.4c-8-15-16.7-24.5-32.9-30.8c-11-4-23-4-34,0
				c-17.4,6-27.1,20.4-28.8,22.2c-1.2,1.3-1.5,1.1-0.9-0.5c6.6-16.6,28.9-32.1,52.1-29.5C2408.6,1034.3,2417.8,1071.8,2416,1072.3z"
				/>
			<path class="st75" d="M2391.5,1032.1c10.8,6.4,19.5,17.3,23.2,32.5c0.2,0.7,1.2,7.1-0.6,3.2c-1.1-2.4-3.4-9.6-8.9-17
				c-28-37.3-71.6-15.7-80.2,23.7c-0.6,3.2,0.1-1.1-1.3,7c-0.7,3.7-1.2-0.5-1.3-4.3C2322.8,1043,2360.2,1013.5,2391.5,1032.1z"/>
			<path class="st72" d="M2418.3,1064.4c0.2,6.2-0.4,6.6-2,0.3c-1.6-5.2-4.4-16.3-14.6-27.1c-6.8-7.3-15.6-12.4-25.2-14.7
				c-16.3-3.3-29.5,1.1-43.6,10.1c-2.5,1.6-3.9,2.6-4.2,2.3c-1.1-1.1,22.3-26.2,53.6-16.2
				C2404.3,1027.3,2416.5,1045.2,2418.3,1064.4z"/>
			<path class="st72" d="M2418.2,1072.1c-1.4,0.3-6.8-20.5-17.7-44.4c-10.7-24-22.8-41.8-21.6-42.6c0.6-0.4,4.3,3.6,9.4,10.7
				C2413.1,1030.8,2420.1,1071.6,2418.2,1072.1z"/>
			<path class="st72" d="M2423.6,1036.7c-4.3,21.5-4.5,39.7-5.6,39.7c-1,0.1-2.4-18.4,2-40.9c4.5-22.9,12.5-38,13.4-37.3
				S2427.7,1015.1,2423.6,1036.7z"/>
			<path class="st76" d="M2421.5,1070.6c-0.4,2.4-0.9,3.7-1.2,3.7s-0.5-1.4-0.7-3.8c-1.6-18.1-5.4-33-18.1-47.7
				c-8.7-9.5-15.6-13.8-26.9-19.5c-2.1-1.1-3.4-1.7-3.2-2.1c0.2-0.8,6.7,0.3,13.8,3.6C2414.1,1018.3,2425,1049.4,2421.5,1070.6z"/>
			<path class="st74" d="M2418.9,1061.8c-1.1,3-1.9,6-2.6,8.5c-1,3-1.2-0.5-1-3.7c3.3-35.1,47.2-58,76.4-26
				c3.8,4.2,6.6,9.2,8.2,14.6c2.4,10.1-9.4-25.8-41.8-24.8C2440,1031.4,2425.1,1044.5,2418.9,1061.8z"/>
			<path class="st77" d="M2446.1,1058.1v40.6c0,3-2.5,5.5-5.5,5.5h-55c-3,0-5.5-2.4-5.5-5.5c0,0,0,0,0,0v-40.6H2446.1z"/>
			<rect x="2385.8" y="1104.2" class="st78" width="54.6" height="2.1"/>
			<path class="st37" d="M2446.1,1058.1v40.6c0,3-2.5,5.5-5.5,5.5h-55c-1.1,0-2.1-0.3-3-0.9l0,0
				C2424.9,1098.1,2439.2,1088.6,2446.1,1058.1z"/>
			<rect y="1561.2" class="st3" width="2998.2" height="301.9"/>
		</g>
	</g>
</g>
</svg>
