<?xml version="1.0" standalone="no"?>
<!DOCTYPE svg PUBLIC "-//W3C//DTD SVG 20010904//EN"
 "http://www.w3.org/TR/2001/REC-SVG-20010904/DTD/svg10.dtd">
<svg version="1.0" xmlns="http://www.w3.org/2000/svg"
 width="168.000000pt" height="101.000000pt" viewBox="0 0 168.000000 101.000000"
 preserveAspectRatio="xMidYMid meet">

<g transform="translate(0.000000,101.000000) scale(0.100000,-0.100000)"
fill="#000000" stroke="none">
<path d="M166 980 c-15 -5 -37 -17 -47 -26 -25 -23 -25 -76 1 -99 26 -24 25
-51 -5 -100 -32 -53 -31 -67 9 -102 31 -28 40 -30 142 -36 60 -3 117 -8 127
-12 14 -6 17 -2 17 22 0 16 6 53 14 82 14 53 14 54 -16 95 -17 22 -44 63 -62
90 -17 27 -42 58 -56 68 -31 22 -85 30 -124 18z"/>
<path d="M766 979 c-107 -26 -217 -115 -273 -220 -27 -53 -28 -57 -28 -219 0
-156 1 -168 25 -215 20 -39 36 -56 76 -78 46 -24 55 -34 80 -94 25 -58 33 -68
72 -85 31 -14 66 -20 123 -20 101 0 147 21 172 77 36 79 43 90 77 112 108 69
122 102 124 307 1 140 1 142 -32 208 -79 161 -268 264 -416 227z m-15 -475
c37 -33 17 -150 -28 -169 -53 -21 -76 -23 -123 -9 -59 17 -80 44 -80 99 0 32
6 47 28 67 34 33 53 38 125 33 38 -2 65 -10 78 -21z m365 1 c33 -21 47 -61 37
-104 -20 -85 -159 -114 -222 -47 -27 29 -39 102 -22 134 6 12 26 26 44 31 43
14 133 6 163 -14z m-259 -163 c15 -10 43 -86 43 -118 0 -13 -6 -24 -12 -25 -7
0 -30 -1 -51 -3 -53 -4 -70 11 -62 56 8 44 40 98 57 98 7 0 18 -4 25 -8z"/>
<path d="M1415 978 c-38 -21 -67 -53 -105 -118 -21 -36 -47 -74 -59 -84 -14
-13 -18 -23 -12 -35 5 -9 15 -44 21 -79 11 -51 16 -62 29 -57 9 4 61 9 116 11
110 5 155 21 176 61 12 22 10 30 -14 73 -32 57 -33 74 -7 107 38 49 17 105
-48 123 -47 13 -72 12 -97 -2z"/>
<path d="M1244 362 c-4 -14 -38 -87 -51 -112 -2 -3 23 -24 54 -48 32 -23 69
-59 83 -79 46 -67 96 -113 124 -113 30 0 66 32 66 57 0 10 16 44 36 76 40 65
41 103 4 150 -16 20 -31 25 -95 31 -41 4 -94 14 -117 22 -89 33 -99 34 -104
16z"/>
<path d="M340 350 c-25 -10 -80 -22 -122 -25 -63 -6 -81 -12 -100 -32 -34 -37
-31 -95 10 -157 18 -28 32 -58 32 -68 0 -26 36 -58 66 -58 28 0 76 44 129 118
16 24 52 58 80 77 l51 35 -31 65 c-34 72 -40 75 -115 45z"/>
</g>
</svg>
