<svg xmlns="http://www.w3.org/2000/svg" xmlns:xlink="http://www.w3.org/1999/xlink" viewBox="0 0 167.93 170.94"><defs><style>.cls-1,.cls-8,.cls-9{fill:none;}.cls-2{isolation:isolate;}.cls-3{fill:#f0ba32;}.cls-4{fill:#ffd15f;}.cls-5{clip-path:url(#clip-path);}.cls-6{fill:#97751f;}.cls-7{fill:#f8f8f8;stroke:#ccc;stroke-linecap:round;stroke-linejoin:round;}.cls-7,.cls-9{stroke-width:0.56px;}.cls-8{stroke:#f55;stroke-width:2.25px;}.cls-8,.cls-9{stroke-miterlimit:10;}.cls-9{stroke:#92b3d4;}.cls-10{fill:#d6d6d6;mix-blend-mode:multiply;}.cls-11{fill:#a98323;}.cls-12{fill:#c99c29;}</style><clipPath id="clip-path"><polygon class="cls-1" points="83.97 147.87 0 70.19 167.93 70.19 83.97 147.87"/></clipPath></defs><g class="cls-2"><g id="Layer_2" data-name="Layer 2"><g id="envelopes"><rect class="cls-3" y="70.19" width="167.93" height="100.76"/><polygon class="cls-4" points="83.97 0 0 70.19 167.93 70.19 83.97 0"/><g class="cls-5"><polygon class="cls-6" points="83.97 147.87 0 70.19 167.93 70.19 83.97 147.87"/><rect class="cls-7" x="27.82" y="82.84" width="112.3" height="67.38"/><line class="cls-8" x1="27.82" y1="97.25" x2="140.11" y2="97.25"/><line class="cls-9" x1="27.82" y1="103.99" x2="140.11" y2="103.99"/><line class="cls-9" x1="27.82" y1="109.13" x2="140.11" y2="109.13"/><line class="cls-9" x1="27.82" y1="114.26" x2="140.11" y2="114.26"/><line class="cls-9" x1="27.82" y1="119.4" x2="140.11" y2="119.4"/><line class="cls-9" x1="27.82" y1="124.53" x2="140.11" y2="124.53"/><line class="cls-9" x1="27.82" y1="129.67" x2="140.11" y2="129.67"/><line class="cls-9" x1="27.82" y1="134.81" x2="140.11" y2="134.81"/><line class="cls-9" x1="27.82" y1="139.94" x2="140.11" y2="139.94"/><line class="cls-9" x1="27.82" y1="145.08" x2="140.11" y2="145.08"/><polygon class="cls-10" points="83.97 93.26 0 170.94 167.93 170.94 83.97 93.26"/></g><polygon class="cls-11" points="83.97 147.87 54.45 120.56 0 170.94 167.93 170.94 113.48 120.56 83.97 147.87"/><polygon class="cls-12" points="83.97 100.76 0 170.94 167.93 170.94 83.97 100.76"/></g></g></g></svg>