<svg xmlns="http://www.w3.org/2000/svg" viewBox="0 0 112.12 707.77"><defs><style>.cls-1{fill:#ffc501;}.cls-2{opacity:0.4;}.cls-3{fill:#fff;}.cls-4{fill:#fbdd1d;}.cls-5{fill:#1a2638;}.cls-6{fill:#333;}</style></defs><g id="Layer_2" data-name="Layer 2"><g id="light"><path class="cls-1" d="M109.8,703.8H2.32C2.32,665.41,38,644.23,38,644.23H74.15S109.8,667.53,109.8,703.8Z"/><g class="cls-2"><path class="cls-3" d="M52.62,644.23H48.2S17.93,665.41,17.93,703.8H39.11C39.11,665.41,52.62,644.23,52.62,644.23Z"/></g><rect class="cls-4" y="703.8" width="112.12" height="3.97" rx="1.42"/><path class="cls-4" d="M71,637.08H41.12A3.16,3.16,0,0,0,38,640.24v4H74.15v-4A3.16,3.16,0,0,0,71,637.08Z"/><g class="cls-2"><path class="cls-3" d="M53.11,637.08H50c-2.14,0-1.51,3.16-1.51,7.15h3.9C52.43,640.31,52.05,638.14,53.11,637.08Z"/></g><path class="cls-1" d="M65.94,637.08H46.17V616.81a5.06,5.06,0,0,1,5.06-5h9.66a5,5,0,0,1,5,5Z"/><g class="cls-2"><path class="cls-3" d="M57.23,611.76H54.79a5,5,0,0,0-5,5v20.27H53V616.81C53,614,54.44,611.76,57.23,611.76Z"/></g><rect class="cls-5" x="52.62" y="608.23" width="6.88" height="3.53"/><rect class="cls-6" x="54.38" width="3.35" height="608.23"/><g class="cls-2"><rect class="cls-3" x="17.76" y="703.8" width="21.27" height="3.97"/></g></g></g></svg>