<svg xmlns="http://www.w3.org/2000/svg" viewBox="0 0 93.01 82.69"><defs><style>.cls-1{fill:#8f6f1d;}.cls-2{fill:none;stroke:#333;stroke-miterlimit:10;stroke-width:4px;}.cls-3{fill:#a37f21;}.cls-4{fill:#c99c29;}.cls-5{fill:#ffd15f;}</style></defs><g id="Layer_2" data-name="Layer 2"><g id="envelopes"><polygon class="cls-1" points="80.44 80.69 26.36 80.69 3.56 43.34 57.64 43.34 80.44 80.69"/><polygon class="cls-2" points="80.44 80.69 26.36 80.69 3.56 43.34 57.64 43.34 80.44 80.69"/><line class="cls-2" x1="26.37" y1="80.69" x2="34.37" y2="62.02"/><line class="cls-2" x1="80.44" y1="80.69" x2="49.63" y2="62.02"/><polygon class="cls-3" points="83.44 66.91 29.36 66.91 6.56 29.56 60.64 29.56 83.44 66.91"/><polygon class="cls-2" points="83.44 66.91 29.36 66.91 6.56 29.56 60.64 29.56 83.44 66.91"/><line class="cls-2" x1="29.37" y1="66.91" x2="37.37" y2="48.24"/><line class="cls-2" x1="83.44" y1="66.91" x2="52.63" y2="48.24"/><polygon class="cls-4" points="86.44 53.13 32.37 53.13 9.56 15.78 63.64 15.78 86.44 53.13"/><polygon class="cls-2" points="86.44 53.13 32.37 53.13 9.56 15.78 63.64 15.78 86.44 53.13"/><line class="cls-2" x1="32.37" y1="53.13" x2="40.37" y2="34.46"/><line class="cls-2" x1="86.44" y1="53.13" x2="55.63" y2="34.46"/><polygon class="cls-5" points="89.44 39.35 35.37 39.35 12.56 2 66.64 2 89.44 39.35"/><polygon class="cls-2" points="89.44 39.35 35.37 39.35 12.56 2 66.64 2 89.44 39.35"/><polyline class="cls-2" points="12.56 2 55.48 28.02 66.64 2"/><line class="cls-2" x1="35.37" y1="39.35" x2="43.37" y2="20.67"/><line class="cls-2" x1="89.44" y1="39.35" x2="58.63" y2="20.67"/></g></g></svg>