<svg xmlns="http://www.w3.org/2000/svg" viewBox="0 0 64.82 66.52"><defs><style>.cls-1{fill:#ffd15f;}.cls-2{fill:#723e32;}.cls-3{fill:#fff;stroke:#c4c5c1;}.cls-3,.cls-4{stroke-miterlimit:10;stroke-width:4px;}.cls-4{fill:none;stroke:#333;}</style></defs><g id="Layer_2" data-name="Layer 2"><g id="envelopes"><polygon class="cls-1" points="62.82 64.52 2 64.52 2 28.03 32.41 53.45 62.82 28.03 62.82 64.52"/><polygon class="cls-2" points="32.41 53.45 2 28.03 32.41 2.61 62.82 28.03 32.41 53.45"/><polygon class="cls-3" points="50.9 37.9 32.41 53.45 13.92 37.99 13.92 30.45 50.9 30.45 50.9 37.9"/><polyline class="cls-4" points="2 28.03 32.41 53.45 62.82 28.03"/><polygon class="cls-4" points="2 28.03 32.41 2.61 62.82 28.03 62.82 64.52 2 64.52 2 28.03"/><line class="cls-4" x1="2" y1="64.52" x2="23.83" y2="46.27"/><line class="cls-4" x1="62.82" y1="64.52" x2="40.99" y2="46.27"/></g></g></svg>