<svg xmlns="http://www.w3.org/2000/svg" viewBox="0 0 93.01 82.69"><defs><style>.cls-1{fill:#8f6f1d;}.cls-2,.cls-3{fill:none;stroke-miterlimit:10;stroke-width:4px;}.cls-2{stroke:#333;}.cls-3{stroke:#231f20;}.cls-4{fill:#a37f21;}.cls-5{fill:#c99c29;}.cls-6{fill:#ffd15f;}.cls-7{fill:#de1f27;}</style></defs><g id="Layer_2" data-name="Layer 2"><g id="envelopes"><polygon class="cls-1" points="80.44 80.69 26.36 80.69 3.56 43.34 57.64 43.34 80.44 80.69"/><polygon class="cls-2" points="80.44 80.69 26.36 80.69 3.56 43.34 57.64 43.34 80.44 80.69"/><path class="cls-2" d="M3.56,43.35,25.11,56.41"/><path class="cls-3" d="M53.32,53.43l4.32-10.08"/><path class="cls-2" d="M26.37,80.69l6.05-14.11"/><path class="cls-2" d="M80.44,80.69,58.08,67.14"/><polygon class="cls-4" points="83.44 66.91 29.36 66.91 6.56 29.56 60.64 29.56 83.44 66.91"/><polygon class="cls-2" points="83.44 66.91 29.36 66.91 6.56 29.56 60.64 29.56 83.44 66.91"/><path class="cls-2" d="M6.56,29.56,28.11,42.63"/><path class="cls-3" d="M56.32,39.65l4.32-10.09"/><path class="cls-2" d="M29.37,66.91l5.9-13.78"/><path class="cls-2" d="M83.44,66.91,61.08,53.36"/><polygon class="cls-5" points="86.44 53.13 32.37 53.13 9.56 15.78 63.64 15.78 86.44 53.13"/><polygon class="cls-2" points="86.44 53.13 32.37 53.13 9.56 15.78 63.64 15.78 86.44 53.13"/><path class="cls-2" d="M9.56,15.78,31.11,28.84"/><path class="cls-3" d="M59.32,25.86l4.32-10.08"/><path class="cls-2" d="M32.37,53.13,38,40"/><path class="cls-2" d="M86.44,53.13,64.08,39.58"/><polygon class="cls-6" points="89.44 39.35 35.37 39.35 12.56 2 66.64 2 89.44 39.35"/><polygon class="cls-2" points="89.44 39.35 35.37 39.35 12.56 2 66.64 2 89.44 39.35"/><path class="cls-2" d="M12.56,2,34.11,15.06"/><path class="cls-2" d="M62.32,12.08,66.64,2"/><path class="cls-2" d="M35.37,39.35,40.22,28"/><path class="cls-2" d="M89.44,39.35,67.08,25.79"/><path class="cls-7" d="M55.33,22.19h0Zm-2.49-8.3c-.13-.15-.24-.28-.32-.39l1.58-.42.08,0s0,0,0-.06l.13,0a.24.24,0,0,0,0,.13l.09,0V13l.16,0h0l.29-.09,1.42-.42a.36.36,0,0,0,.12.08.17.17,0,0,0-.07-.1l.54-.17a.1.1,0,0,0,.06,0s0,0,0-.06h0l.24-.07,0,0h0s0,0,0,0l.33.42h0l0,0,1,1.24,0,0,.24.29s-.06,0,0,0h0s-.07,0-.07.08l-.13,0s0,0,0,0h0s0,0,0,0h0l-.12,0a1.63,1.63,0,0,0-.93.6c-.06,0,0,.08-.07.1s-.13,0-.1.12h0a.61.61,0,0,0,0,.12h0s-.06,0,0,.05h0l-.1.08s-.13,0-.14,0,.11,0,.24,0l0,.14h0a3.17,3.17,0,0,0-.07.57l0,.62.41.29h-.07s0,.06.09.1,0-.05,0-.06l1.58,1.12s-.08,0-.09,0a.13.13,0,0,0,.11.05l0,0c.42.3.85.59,1.29.89h0c.58.39,1.16.78,1.76,1.16,0,0,0,0,0,0l.12,0,.44.28c.84.54,1.14.69,1.45.6l.17,0c.39.51,1.31,1.67,1.72,2.17,0,0-.9.22-1.77.47l-1.2.36h0c-.05,0-.06,0-.05,0l-.12,0s-.06,0-.07,0h0l-.26.09c-2-1.46-3.74-2.7-5.55-3.93l-.29-.36s0,0,0,0h0l-.59-.73h.06a.14.14,0,0,0,.11,0s0,0,0-.09l-.09.06h0c-.05,0-.06,0,0,0h0l-.65-.83.15-1.41h0l0-.06s0-.05,0-.07l0-.21c.07-.56-.72-1.44-1.35-1.26l-.14,0h0a0,0,0,0,0,0,0l-.07,0-.32-.41h0a.17.17,0,0,0-.08-.11l0,0-.1-.13s.06,0,.07,0l-.12-.09.33-.1h0l0,0v0h0s0,0,0-.06a.6.6,0,0,0-.26-.14l-.07-.06h0s.08,0,.1,0l0-.07h0l.17-.14h-.21l-.05.07a.08.08,0,0,0,0,0h0l-.1,0h0s-.07,0-.09,0,0,0,0,.06l.05,0h0l.12.08h0c-.07.07,0,.18,0,.28s-.07,0-.1,0l-.06,0-.7-.87c.13,0,.11-.07.18-.07l.11,0s0-.07-.1-.1l-.16,0Zm.33.16s-.06,0-.07,0,.07,0,.09,0S53.18,14.06,53.17,14.05ZM54,15.31h0Zm-.1-.21s0,0,0,0h0s0,0,0,0S54,15.11,53.94,15.1Zm0-.12h0Zm0-.12s-.06,0-.06,0S53.91,14.88,53.92,14.86Zm.23.09L54,15h0l0,0h0a.35.35,0,0,0,.14.06S54.2,15,54.15,15Zm2.34,4.64h0Zm.4.43h0Zm-.3-.78h0c-.05,0-.09-.07-.14,0A.16.16,0,0,0,56.59,19.24Zm.39.46s0,0,0,0h0S57,19.7,57,19.7Zm-.36-1.27h0v0h0v0Zm1.4.83s0,0,0,0a0,0,0,0,1,0,0h0Zm-.16-.17h0Zm3,3.7h0S60.88,22.8,60.86,22.79Zm-.25-.35s0,.06,0,.1h0l0,0h.06c0,.08-.08.09-.12.14l.16.14h0s0,0,0,0v0h0a.61.61,0,0,0,0-.18s0-.09-.09-.1h0l0,0h0S60.69,22.52,60.61,22.44Zm-2.3-8.74,0,0s.06,0,.06,0Zm-.47-.53s0,0,0,0l.07,0h0v0h0S57.91,13.19,57.84,13.17Zm-.73-.79s.06,0,0-.05h0v0h0v0h0S57.09,12.34,57.11,12.38Zm.49.64c.07,0,.12,0,.09,0l-.08,0Zm.74,1s0,0,0,0,.09-.06,0-.13a.23.23,0,0,0-.2,0s.05,0,.07.08a.39.39,0,0,1,.08.1h0Zm-.87.85v0h0s0,0,0,0v0h0Zm-1-1.62,0,0v0Zm1.32,1.36s0,0,0,0h0Zm-.21-.42h0v0Zm0-.18s-.06,0,0,.05h-.16a2.44,2.44,0,0,1,0,.27l0,0c.09,0,.15,0,.16-.1s-.11-.06-.09-.12.08,0,.05-.1h0S57.52,14,57.5,14Zm-1.1-1h0s-.07,0-.09,0S56.37,13,56.4,13Zm.59.13s.06,0,.08,0-.06,0-.08,0h0Zm.32.31h0a0,0,0,0,0,0,0S57.28,13.46,57.31,13.47Zm.19.1h0c-.1,0-.1,0-.12,0l.12,0h0Zm.56.63,0,0h0l0,0Zm-.64-.87c0-.07,0-.07-.1-.12l.1.12h-.05s0,0-.08-.06,0,.05.08.06h0l0,0v0h0Zm.8.85h0s0,0,0,0v0h0ZM58.07,14l0,0h0a.17.17,0,0,0,.1.08l0,0S58.14,14,58.07,14Zm.38.26s0,0,0-.05S58.41,14.21,58.45,14.22Zm-.82-1h0v0s0,0,0,0Zm-.37-.35h0l0,0h0s.06,0,.08,0S57.29,12.9,57.26,12.91Zm-.71-.26s.05,0,.05,0h-.05Zm.1.35c.24.08.34,0,.51,0,0-.09-.13-.14-.16-.2s.11,0,.09-.09l-.13,0a.44.44,0,0,1-.53.16C56.46,12.92,56.58,13,56.65,13Zm-.58-.33s.07,0,.07,0-.06-.06-.09,0S56,12.65,56.07,12.67ZM56,13c.06-.15.3-.06.36-.18l0-.07h0c0-.07,0-.07-.07-.11s0,.08.07.11h0l-.12.06H56v-.09a.08.08,0,0,0-.08-.07C55.87,12.71,55.88,12.73,56,13Zm.31.18v0h0S56.29,13.14,56.26,13.14ZM55.94,13h0Zm.88,1.24s0,0,0,0S56.82,14.24,56.82,14.26Zm-1-1s0,0,0,0h0s.08,0,.09,0,0-.06,0-.08h0c-.08-.05-.13-.05-.16,0l.1.07h0S55.8,13.25,55.82,13.29Zm.76,1.33v0h0l.12,0s0,.07.1.08l.06-.08h0a.07.07,0,0,1,.06-.1l.1,0v-.09a.12.12,0,0,1,.13,0,0,0,0,0,0,0,.06h0s0,0,0-.05l.08,0a.29.29,0,0,0-.08-.14,1.36,1.36,0,0,0-.36.09l-.07.14-.12,0a.05.05,0,0,0,0,.07h0Zm-.41-.34h0Zm.8,1.09h.11s0,0,0,0h0A.07.07,0,0,0,57,15.37ZM55,12.91s0,0,0,0h0Zm.89,1.26s.05,0,.05,0l-.07,0S55.88,14.16,55.91,14.17Zm1,1.3h0s0,0,0,0Zm-1.26-1.54s0,0,0,0S55.63,13.92,55.67,13.93Zm-.57-.56s0,0,0,0h0Zm1.17,1.52v0h0l.09,0h0l0,0h0s0-.09-.08-.12,0,0,0,.06,0,.06,0,.09h0Zm-.6-.72h0v0ZM54,14.58h0v0l.06,0a.17.17,0,0,0-.06-.15.19.19,0,0,0,0,.18Zm-.11-.1,0-.06h0v0h0l0,0S53.89,14.5,53.93,14.48Zm.9,1-.08,0s-.06.06,0,.11.09,0,.1,0Zm-.47-.63a.07.07,0,0,0,0,.09s.11.08.15,0Zm0-.1-.16-.11c0,.07.06.09.09.11S54.34,14.77,54.34,14.73Zm.26.34s0,0,0,0l0,0h0S54.59,15.06,54.6,15.07Zm.41.42,0,.09h0s0,0,0,0v0h0S55.07,15.54,55,15.49Zm-.23-.35s-.09,0-.09,0,0,.06.09.07h0Zm1.8,2s0,.07,0,.11a.09.09,0,0,0,.11,0S56.67,17.14,56.58,17.1Zm-2.37-2.92h0ZM56.64,17a.08.08,0,0,0,0,0v0l0,0Zm.62.79h0Zm1.48,1.93a.38.38,0,0,0,.13.09l.06-.06s0-.08,0-.12.07-.06,0-.12h0l-.15.09,0,.07ZM55.16,15h0v0h0Zm.48.64h0Zm3,3.89h0l0,0S58.67,19.48,58.68,19.51Zm-1.81-2.46,0-.05h0v0h0v0l0,0h0l0,.05h0s0,0,0,0v0h0s.09,0,.09-.07l-.13,0Zm3.43,3.81s0,0,0,0,0-.05,0-.07S60.25,20.83,60.3,20.86Zm-.16-.24v0h0s0,0,0,0Zm-.54-.77s-.05,0-.05,0S59.6,19.87,59.6,19.85Zm.65.83s0,0,0,0h0Zm-.73-1h0s0,0,0,0h0S59.49,19.71,59.52,19.71Zm-.15-.23a.27.27,0,0,0-.21.07.23.23,0,0,1,.19.09h0l-.1,0-.08.16a.14.14,0,0,0,.11.05s0-.08.07-.13a.11.11,0,0,0,0-.11h0A.12.12,0,0,0,59.37,19.48Zm.4.8v0l0,0S59.8,20.3,59.77,20.28Zm.2.35Zm-.31-.26h.05S59.66,20.35,59.66,20.37Zm-.07-.1h0ZM59.3,20l.08.13c0-.07,0-.07-.08-.13h0l0,0v0h0Zm.37.51h0ZM57.4,17.29h0ZM58.75,19a.12.12,0,0,0,0,.12s.06,0,.07,0a.15.15,0,0,0,0-.07S58.78,19,58.75,19Zm-1.52-1.55c.07,0,.11,0,.17,0h0s.11,0,.09-.07S57.29,17.39,57.23,17.46Zm.33.24v0h.05l0,0h0l.08,0-.11-.08h0l-.06,0,.09.08h0Zm-.45-.89h0s0-.05-.05,0h.07ZM56.44,16c-.07,0-.13,0-.17,0s0,.08.11.1Zm.27.47h0v0Zm-.1-.12h0s0-.05-.08-.06,0,0,.08.06h0Zm0,.39a.1.1,0,0,0,.07.05c.09,0,.17,0,.17-.09h0s0,0,0,0h-.06s0-.09-.14-.11l.1.12h0C56.81,16.73,56.67,16.64,56.64,16.73Zm1.87,2.34h0Zm-2.88-3.61v0h0s0,0,0,0v0h0ZM57,17.24h0S57,17.24,57,17.24Zm2,2.63v0Zm.12.31c.06,0,.14,0,.16,0a.14.14,0,0,0-.09-.08C59.08,20.15,59.08,20.15,59.11,20.18Zm1.2,1.31-.07,0h0v0h0s0,.06,0,.09S60.33,21.52,60.31,21.49Zm.14,0a.13.13,0,0,0,.07-.09C60.39,21.39,60.38,21.4,60.45,21.48Zm-.15-.38v0Zm1,1.2c-.05,0-.06,0-.05.05h0s0,0,0,0h0s0,0,0,0h0S61.32,22.34,61.31,22.3Zm-1.18-1.56-.05,0-.06.06h0l.07.11c0,.06-.09.06-.08.12s-.08,0,0,.13h.09l.21.12h0s-.06,0,0,.05.05,0,0-.05h0s.07,0,0-.06l-.13-.07C60.12,21,60.29,20.91,60.13,20.74Zm.38.46h0Zm.94,1c-.05,0-.05,0,0,.08S61.5,22.23,61.45,22.19Zm-.88-1.11,0,0,0,0,0,0Zm1.55,1.35a.37.37,0,0,0-.16-.1.13.13,0,0,0-.11.08l.06,0c0-.05.11,0,.18,0S62.12,22.45,62.12,22.43ZM59.63,19.6h0Zm-.06-.16s0,0-.06,0S59.57,19.46,59.57,19.44Zm.5.66h0s0,0,0,0h0S60,20,60,20,60,20.1,60.07,20.1Zm.55.69h0s0,0,0,0h0Zm.5.43h0v0Zm-.62-.92h0Zm.71.83h0s0,0,0,0S61.21,21.14,61.21,21.13Zm1.94,2.2h0l0,0h0v0h0l0,0h.06S63.15,23.37,63.15,23.33Zm-.37-.41h0S62.75,22.92,62.78,22.92ZM61.7,21.39h0l-.06-.06c-.1,0-.19-.06-.26,0l.25.08.07,0h0Zm-.59-.5h0s0,0,0-.05h0v0h0s0,0,0,.05h0v0S61.12,20.91,61.11,20.89Zm.85.8h0Zm-.84-1.13s-.06,0-.06,0S61.12,20.58,61.12,20.56Zm1,.92h0v0Zm1.27,1.38s-.06,0-.06,0h0S63.37,22.88,63.36,22.86Zm-.17-.21s-.07,0-.08,0,0,.05.08.08h.1A.15.15,0,0,0,63.19,22.65Zm-1.28-1.53h0v0h0v0Zm-.35-.44,0,0s0,0,0,0,0,0,0,0Zm2,2.06s0,.05,0,.08h0s-.11,0-.09.07l.08,0a.08.08,0,0,0,0-.1h0S63.62,22.78,63.56,22.74ZM62,21s0,0,0,0h0v0Zm1.41,1.43s-.08,0-.09,0,.06,0,.09.07h0s0,0,0,.05h0l-.08,0c.09,0,.09,0,.08,0h0s0,0,0-.05h0S63.45,22.46,63.41,22.41Zm-.6-.54v0h0A.05.05,0,0,0,62.81,21.87Zm.07-.1v0h0v0Zm-.08-.42v0h0Zm.12-.48v0h0v0Zm-.35,0c.07,0,.1.1.17.09s.06,0,0-.09S62.64,20.79,62.57,20.85Zm-.31-.13h0v0h0S62.24,20.7,62.26,20.72Zm-.52-.64s0,0,0,0S61.7,20.07,61.74,20.08Zm.11.21h0Zm.25.46s.06,0,.06,0S62.11,20.73,62.1,20.75Zm.19.28s-.11,0-.11.06,0,.05.09.07.09,0,.11-.05-.06-.06-.09-.08.07,0,.05-.05S62.28,21,62.29,21Zm-1-1.18h0v0h0S61.26,19.84,61.28,19.85Zm.5.74,0,0s0,0,0,0Zm-.32-.26s.06,0,.06,0S61.46,20.3,61.46,20.33Zm-.58-.74v0l0,0s0,0,0,0S60.87,19.6,60.88,19.59Zm.93,1.23h0v0h0Zm2.31,2.91h0s0,0,0,.05S64.15,23.75,64.12,23.73Zm-1.94-2.41,0,0s.05,0,.05,0Zm-1.46-1.8h0S60.71,19.56,60.72,19.52Zm-.37-.2a.06.06,0,0,0,.08,0c0-.07,0-.15-.07-.23a.15.15,0,0,0-.15,0l.13.09S60.3,19.27,60.35,19.32Zm.44.6s.05,0,.05,0S60.79,19.9,60.79,19.92Zm.47.62a.06.06,0,0,0,.07,0c.06,0,0-.09,0-.11h0s.07,0,.09,0-.06,0-.09,0h0a.1.1,0,0,0-.1,0S61.21,20.48,61.26,20.54Zm2.41,3h0s0,0,0,0h0s0,0-.08,0S63.63,23.58,63.67,23.58Zm-.24-.19s0,0,0,.05S63.46,23.4,63.43,23.39Zm-2.85-3.58a.09.09,0,0,0-.09,0C60.52,19.85,60.55,19.85,60.58,19.81Zm.1.27s.06,0,0,0,0,0,0,0S60.67,20.06,60.68,20.08Zm0,.13q.08,0,.09,0C60.69,20.16,60.65,20.16,60.66,20.21Zm-.33-.4s.06,0,.06,0l-.08,0S60.31,19.8,60.33,19.81Zm-.1,0c-.17.07-.18.08-.2.18.14-.05.31,0,.41-.05s0,0,0-.06H60.3S60.27,19.84,60.23,19.83Zm-.69-.53v0s0,0,0,0h0s.12,0,.15,0a.23.23,0,0,0-.14-.07s0,.06,0,.1h0Zm-.17,0,0-.08c-.06,0-.1,0-.11,0S59.31,19.23,59.37,19.26Zm2.27,2.94a.1.1,0,0,0,0,.11C61.75,22.29,61.74,22.28,61.64,22.2ZM59,18.89h0Zm1.56,2h0c-.07,0-.16,0-.2.08a.27.27,0,0,0,.15,0s.08,0,0-.11h0s0,0,0,0v0Zm-1.85-2.2h.05s0,0,0,0h0l0,0h0S58.67,18.64,58.66,18.68ZM57,16.53l0,0h0v-.06h0v0h0l0,0h0l0,0h0l0,0h0s0,0,0,.09S57,16.57,57,16.53Zm.2.14s-.07,0-.08,0S57.19,16.72,57.19,16.67Zm-1.28-1.61a.09.09,0,0,0,0,.1h0l-.09,0h0c.08,0,.08,0,.09,0h0S56,15.13,55.91,15.06Zm-1-1,0,0h0v0S55,14.08,55,14.06Zm1.31,1.21a.08.08,0,0,0,.08,0,.08.08,0,0,0,0,0S56.26,15.24,56.26,15.27Zm.18.37h0s0,0,0,0h0Zm-.13-.12v0h0v0h0Zm-.67-.83c-.09,0-.14,0-.18,0s.06.05.08.08h0v0h0Zm-.43-.5s-.05,0-.05,0S55.21,14.21,55.21,14.19Zm-.88-.83v0c.1,0,.08.09.11.14h0v0h.19a.09.09,0,0,0,0-.09s0,0,0-.08S54.41,13.37,54.33,13.36Zm-.1.1v0h0v0h0l0,0h0l.19-.05h0a.22.22,0,0,0-.19,0v.08h0v0h0l0,0h0S54.17,13.43,54.23,13.46Zm.26.31h0s0,0,0,0v0h0Zm.81,1.08-.07-.07-.06.05h0a.09.09,0,0,0-.12,0s0,0,0,0l.06,0h.07l.05,0v0h0l.1,0h0l0,.05h0l-.09.13c.08,0,.13,0,.13-.06l0-.07h0l0,0h0l0,0h0l0,0h0a.05.05,0,0,0,.06-.06s-.08,0-.06.06H55.3Zm-1.06-1.16h0Zm.27.28s0-.05,0-.06S54.47,14,54.51,14ZM54,13.59c.09,0,.1-.08.16-.1s0,0,0-.05,0-.08-.17-.15C54.08,13.45,53.93,13.47,54,13.59Zm-.18-.19,0,0h0s.07.05.09,0,0,0,0-.05l0,0h0Zm.25.41s0,0,0-.05h0V13.7h0v0h0v.07h0S54,13.77,54,13.81Zm1,1.32v0h0l0,0h0l0,0h0l0,0h0v0h0v0h0s0,0,0,.06h0Zm.29.42a.27.27,0,0,0,.1.08c0-.05,0-.13,0-.19s0,0,0,0S55.34,15.41,55.32,15.55Zm-1.38-1.62,0,0h0s0-.09-.09-.12Zm2.77,3.57c.07,0,.07,0,0-.1S56.7,17.44,56.71,17.5Zm-3.24-4.06v0h0S53.44,13.44,53.47,13.44Zm1,1.31s0,0,0-.05S54.45,14.74,54.48,14.75ZM53.73,14l.05-.08c-.07,0-.1,0-.11,0S53.69,14,53.73,14Zm-.58-.63h0Zm.07.22s.05,0,.05,0S53.22,13.59,53.22,13.61Zm.09.34q-.09,0-.09,0l.12,0s-.05,0,0,0v0S53.36,14,53.31,14Zm-.5-.45h.11l0,0v0h0v0h-.05S52.84,13.45,52.81,13.5Zm2.36,1.33h0a.07.07,0,0,0,0,.06h.05l0-.05Zm-.68-1.39h.09S54.51,13.39,54.49,13.44Zm8.58,9.84h0Zm-3-2.21h0v.06h0S60.09,21.1,60.07,21.07Zm-2.43,3h0l.08,0h0l0-.05h0Zm0,0h0l-.08,0h0l0,.05h.05Zm.85-.36s0-.05,0-.08S58.46,23.66,58.48,23.69Zm-1.25.6ZM39,19.12a2.22,2.22,0,0,1,1.81-2.66A5.2,5.2,0,0,0,42,18.85l.22.3a.06.06,0,0,0,0,0h0c.41.55.88,1.18,1.45,1.91h0c.37.47.77,1,1.22,1.55.27.35.53.66.77.94l-.08.07,0,.06.17.12s.11,0,.15,0c1.42,1.64,2.15,2.06,2.83,2h0s0,0,0,0h0a1.78,1.78,0,0,0,.39-.07c.07.11.15.21.22.31h0a.05.05,0,0,0,.06.06l.08.12s-.07,0-.06.05a.13.13,0,0,0,.09,0l0,.05v.05l.06.05a2.54,2.54,0,0,1,.21.39h-.08l0,0v0h0s-.08,0-.1.05a.14.14,0,0,0,.1,0l0,0h0c.11,0,.12,0,.1-.05.34.76.22,1.31-.82,1.61a2.34,2.34,0,0,1-.71.09v0c.06,0,.06,0,0-.08a.08.08,0,0,0,0,.08s-.05,0,0,0l-.39,0h0a3.73,3.73,0,0,1-.44-.08h0s-.05,0-.06,0a5.84,5.84,0,0,1-1.2-.49h.08l.11-.1c.07,0,.11,0,.16.06a.2.2,0,0,1,.14,0s0,0,0-.07-.16,0-.25-.06h0c-.07-.06,0-.1,0-.16H46.3v-.08a.11.11,0,0,0-.14,0s.09.07.07.14-.2.08-.34.1h0l-.08-.13h-.19q-.37-.24-.78-.54a.08.08,0,0,0,0-.1h0l0,0h0s0,0,0,0H44.9a.13.13,0,0,0-.08,0h0l0,.05h0s-.08,0,0,.08l-.31-.24v0l-.09-.09s0,0,0-.09l-.06,0,0,.05-.38-.33a0,0,0,0,0,0-.06h0A24,24,0,0,1,41.4,23.6l0-.06s.1.05.13,0l-.08-.07h0v0h0s-.06,0,0,.05l-.15-.2s0,0,0-.05v0l-.09-.12h.05l-.06-.1c0-.07.08-.06.07-.12l-.07-.06h0l.11-.12-.12-.12s-.09-.06-.14,0,.09.18.15.27h0A.15.15,0,0,0,41,23c-.17-.22-.32-.44-.47-.65l.07,0h0l.05.09c.1,0,.15,0,.22-.05h0l0,0h0c.14,0,.14,0,.18-.09s-.14,0-.21.05h0c-.08-.08-.08-.08-.17-.07h0a.12.12,0,0,0-.09,0h0c0-.06,0-.08.07-.1a.48.48,0,0,0,.18.08.14.14,0,0,0,0-.11c.07,0,0-.11,0-.19h0v0h0l0,0h0a.2.2,0,0,0-.15.11h0c-.08-.07-.12,0-.17,0s0,.13,0,.14l-.08,0A8.2,8.2,0,0,1,39,19.16s0,0,0-.05h0s.06,0,0,0,0,0,0,0h0Zm.84,2s-.05,0-.08,0a0,0,0,0,0,0,.05S39.85,21.16,39.85,21.13Zm9.29,5.11s0,0,0-.09S49.06,26.18,49.14,26.24Zm.08.26h0Zm-9.74-6v0h0Zm.55.69s0,0,0,0h0l.13,0h0s.08,0,.09,0a.08.08,0,0,0-.09,0h0c0-.06,0-.12-.12-.18v.16h0s-.05,0,0,0Zm-.11-.32,0,0h0S39.9,20.89,39.92,20.89Zm.33.2Zm-.13-.21,0,0h0s0,0,0,0A0,0,0,0,0,40.12,20.88Zm0,.09v0h0Zm.27.36s-.1,0,0,.11.1,0,.16,0,0,.07.12.11h0c0-.1,0-.17.08-.21a.07.07,0,0,0,0-.05h0a.19.19,0,0,0,0-.14.1.1,0,0,0-.06-.07l-.26.12c.05.06.13.1.05.13ZM40,20.56h0Zm.28.23a.08.08,0,0,0,.08.06h0c.1,0,.1,0,.14,0l-.14,0h0S40.28,20.79,40.23,20.79Zm.29.21s.06,0,.06,0S40.52,21,40.52,21Zm-.07.08h0Zm.21.6-.14-.05v0h0s0,.07,0,.11h0v.07h0v-.07h0C40.6,21.74,40.66,21.74,40.66,21.68Zm.34.58,0-.09h0l.1.11s0,0,0-.07a.19.19,0,0,0-.12,0h0l0-.05h0L41.2,22h0l0,.05h0l0,0h.06s0,.06.09.06,0,0,0-.07h-.08l0,0h0s.09,0,.09-.08l-.13,0h0s-.1-.05-.12-.09,0-.06,0-.05.12,0,.2,0l0-.12-.09,0c-.07,0-.07.1-.18,0L41,21.73h0v0h0c-.06,0-.13,0-.18,0h0c0,.09.08.17.11.24l0,.15h0s0,0,0,.06h0S40.93,22.22,41,22.26Zm.75-.17h0l0,0s0,0,0,0Zm.26.4c.05,0,.08,0,.1,0S42,22.46,42,22.49Zm.83,1.08,0,0c.07,0,.11,0,.08-.09S42.81,23.48,42.84,23.57Zm.32.36h0s.07,0,.09,0-.06,0-.09,0h0Zm-.08-.16s0,0,0,0h0s0,0,0,0Zm1.07,1.42h0Zm.06.16,0,0h.07s0,0,0,0,0,0,0,0h0Zm1.09,1.38,0,0s0,0,0,0l0,0Zm-.6-.85-.09,0C44.63,25.9,44.66,25.92,44.7,25.88Zm.46.62h0s0,0,0-.06h0v0h0v0h0s0,0,0,.06h0a0,0,0,0,1,0,0v0S45.17,26.52,45.16,26.5Zm-2.22-2.76s0,0,0,0S42.9,23.73,42.94,23.74Zm-.28-.35s0,0,0,.06S42.7,23.41,42.66,23.39Zm1.13,1.46v0Zm-.37-.45h0l0,.06C43.44,24.46,43.45,24.44,43.42,24.4Zm.09.57c.05,0,.06,0,0-.07S43.46,24.93,43.51,25ZM42.3,23.44h0Zm1,1s-.07-.07-.11,0S43.21,24.51,43.26,24.48Zm0,.14s0,0,0,0l0,0h0Zm-1.46-1.9a.13.13,0,0,0-.08,0s0,0,0,.06S41.84,22.75,41.83,22.72Zm1.79,2.33h0s.08.05.1,0,0-.06,0-.07l-.05,0,0,0ZM42.43,23.4s0,0,0,0a.08.08,0,0,0,0,0Zm1.42,1.8c.06.05.1.09.15.09S44,25.19,43.85,25.2Zm-2-2.68h0v0h0s0,0,0,0h0S41.83,22.54,41.82,22.52Zm.77,1.36h0v0h0v0Zm-.28-.32v0h-.08a.47.47,0,0,0,0-.1s0-.06,0-.11l-.08.14h0c.07.08.07.08.17.07S42.3,23.6,42.31,23.56Zm1,1.44s0,0,0,0S43.35,25,43.35,25Zm-.14,0a.09.09,0,0,0,.07.09S43.27,25,43.21,25Zm-2-2.56s-.05,0-.06,0S41.24,22.45,41.24,22.42Zm.14.25h0Zm0-.11v0Zm.37.31s-.06,0-.06,0S41.77,22.9,41.78,22.87Zm.4,1h0v0h0Zm.77,1v0h0v0ZM41.1,22.6v-.06s-.08,0-.09,0S41,22.56,41.1,22.6Zm2.11,3s0,0,0,.05S43.25,25.59,43.21,25.58ZM41.35,23.2h0v0h0s0,0,0,.06h0v0h0v0h0S41.36,23.23,41.35,23.2Zm2.11,2.61h0Zm-1.74-2.4h-.08a.11.11,0,0,0-.11-.06v0a.11.11,0,0,0,.12,0l.06,0S41.75,23.45,41.72,23.41ZM41.39,23s0,0,0,.07S41.45,23,41.39,23Zm1.67,2.1c.08,0,.08,0,.08,0S43.07,25.05,43.06,25.08Zm.79.92s0,0,0,.05S43.88,26,43.85,26Zm-.27-.44h0s0,0,0,.05h0Zm-2-2.71a.14.14,0,0,0-.15-.05l0,.05C41.52,22.91,41.52,22.91,41.54,22.85Zm3.13,3.88c-.07,0-.1,0-.11,0S44.67,26.79,44.67,26.73Zm-.79-1.05v0h0l0,0h0l0,0v0h0S43.93,25.7,43.88,25.68Zm0-.08a.38.38,0,0,0,.16,0h0v.11c.06,0,.12,0,.14-.06a.19.19,0,0,1,.13-.07h0l0,0h0a.62.62,0,0,0-.19-.12l-.06,0s0,.1,0,.12h0c-.15-.08-.15-.08-.23,0A.13.13,0,0,0,43.84,25.6Zm.94.61s0,0,0,0,0,0,0,0ZM44.45,26s.06,0,.06,0S44.45,25.92,44.45,26Zm-.07.2s-.05,0-.05,0S44.38,26.18,44.38,26.15Zm.52.55h0s0,0,0,0v0h0s-.07,0,0,.05S44.92,26.73,44.9,26.7Zm.54.65a0,0,0,0,0,0,.06s.06,0,.06,0A.07.07,0,0,0,45.44,27.35Zm0-.5-.25,0s-.1.07,0,.16.15,0,.21,0l.05-.06a.75.75,0,0,0,.22.19C45.56,27,45.61,27,45.48,26.85Zm-.15-.25h0l0,0S45.33,26.63,45.33,26.6Zm.67.79h0s0,0,0,0v0s0,0,0,0h0Zm-2-2.52a.06.06,0,0,0,0,0s0,0,0,0Zm1.56,1.9,0,.12h.07S45.66,26.79,45.57,26.77Zm0-.12h0s0,0,0,0h0Zm-.1-.07,0,0v0Zm-.37-.68h0Zm.55.65h0c.09,0,.09,0,.07,0s0,0-.07,0Zm.36.38h0s0,0,0,0h0s0,.06.08.06S46,26.94,46,26.93Zm-.39-.59c-.08,0-.08.05-.09.1a.11.11,0,0,0,.1,0S45.63,26.38,45.59,26.34Zm-.11-.15h0Zm-.22-.29s0,0-.06,0l.08.07h0s-.06,0-.05.06a.07.07,0,0,0,.09,0s0-.06,0-.1h0S45.3,25.93,45.26,25.9ZM45,25.55a.09.09,0,0,0-.1,0c-.1,0-.1,0-.09,0s-.15,0-.16.08.11,0,.2,0l0-.07.09,0S45,25.59,45,25.55ZM42,22.15h0s0,0,0,0S42,22.18,42,22.15Zm2.53,3.21h0Zm.31-.1c-.1,0-.12,0-.12,0h0v0h0Zm1.44,1.81h0s0,.05,0,0h-.08Zm-.87-1.17,0,0h0a0,0,0,0,1,0,0S45.39,25.93,45.38,25.9Zm1.36,1.67,0,.09C46.81,27.62,46.81,27.62,46.74,27.57Zm-.64-.83s-.05,0-.05,0S46.1,26.77,46.1,26.74Zm-1.44-1.81,0,0h0l0,0h0v0h0l-.1.05s-.09-.06-.14,0,0,.14,0,.2.13.13.21.17a.2.2,0,0,1,.05-.09s.09,0,.1-.08,0-.08-.05-.12h0Zm-1-.73v0Zm-.51-.74h0s0-.05-.07-.06S43.12,23.45,43.15,23.46Zm1.12,1.29a.13.13,0,0,0,.14,0,.06.06,0,0,0,0-.06C44.29,24.71,44.29,24.71,44.27,24.75ZM43.76,24h0v0h0S43.73,24,43.76,24Zm-1.25-1.75h0v0h0v0Zm-.08-.12s-.08,0-.09,0S42.43,22.17,42.43,22.13ZM43,23a0,0,0,0,0,0,0h0s0,0,0,0S43,23,43,23Zm4.7,5.5s0,0,0,0h0Zm-.67-1.2s0,0,0,0,0,0,0,0a0,0,0,0,0,0,0Zm.31.15s-.08,0-.09,0S47.37,27.5,47.37,27.45Zm-.09-.36-.05,0a.46.46,0,0,1-.3,0,.19.19,0,0,0-.24,0,.26.26,0,0,0-.26-.1h0l0,0v0h0v.07l.25.1h0c0-.05,0-.06.06-.07a.18.18,0,0,0,.1.07h.05s0,0,0,0l.43.05S47.31,27.12,47.28,27.09Zm-2.57-2.24s.12-.08,0-.19l-.12.06h0S44.62,24.81,44.71,24.85Zm-1.9-2.39h0ZM44,23.9h0a0,0,0,0,0,0,0s0,0,0,0Zm1.24,1.64h0Zm.67.91s0,0,0-.05,0-.09-.11-.12S45.83,26.38,45.92,26.45Zm-.67-1.18,0,.05h0s0,0,0,.07,0,0,0-.07h.1a.1.1,0,0,0,0-.11l-.12.06Zm1.08,1.49c.13,0,.15,0,.11,0S46.34,26.72,46.33,26.76Zm-1.66-2.48v0h0Zm.52.37s-.07,0-.08,0S45.19,24.69,45.19,24.65Zm.5.7h0Zm.59.83,0,.05h0s-.05,0,0,0v0h0s0-.05,0-.1S46.27,26.15,46.28,26.18Zm.31.05h0S46.58,26.26,46.59,26.23Zm.49.64,0,0v0Zm-1.3-1.73c.06,0,.09,0,.08,0S45.79,25.1,45.78,25.14Zm-.46-.64v0l0,0v0Zm1.79,2.25s0,0,0,0S47.12,26.73,47.11,26.75Zm.29.23v0h0s-.08,0-.09,0a.15.15,0,0,0,.12.08s0-.06,0-.09h0Zm-.09-.15h0v0h0S47.28,26.83,47.31,26.83Zm1.23,1.55v0h0c0-.09,0-.09-.06-.14h0a.2.2,0,0,0,.08.13h0Zm.15.07s-.06,0,0,.05h0v0h0S48.72,28.5,48.69,28.45Zm-3.26-4.11s0,0,0,.05S45.47,24.35,45.43,24.34ZM45.12,24c.07,0,.07,0,0-.07S45.09,24,45.12,24Zm-.07-.16a.2.2,0,0,0-.19-.06.29.29,0,0,0,.12.13A.12.12,0,0,0,45.05,23.86Zm3.16,3.9s0,0,0,0S48.25,27.77,48.21,27.76Zm-.73-1h0l0,0Zm-1.85-2.34h0a0,0,0,0,0,0,0s0,0,0,0Zm.73.86s0,0,0,0S46.4,25.29,46.36,25.28Zm2.38,2.9,0,0s0,0,0,0,0,0,0,0Zm-2.83-3.55h0Zm.2.21s0,0,0,0-.07,0-.08,0Zm.07.07s0,0,0,0S46.18,24.88,46.18,24.91Zm.09.11h0Zm1.94,2.39s0,0,0,0h0s0,0,0,0S48.21,27.42,48.21,27.41Zm.47.58,0,.07s0,0,0,0S48.73,28,48.68,28Zm-1-1.4h0Zm1,1.13s0,0,0,0,0,0-.08,0a0,0,0,0,0,0,0A.08.08,0,0,0,48.61,27.72Zm.16.12s-.06,0-.06,0a.09.09,0,0,0,.08,0S48.8,27.86,48.77,27.84Zm-.33-.42,0-.09c0,.05,0,.05,0,.09Zm-1.32-1.63h0ZM47,25.56h-.07a.18.18,0,0,0-.1-.07s0,0,0,.07a.14.14,0,0,0,.11,0l0,0S47,25.6,47,25.56Zm-.31-.25s0,0,0,0v.06S46.68,25.33,46.68,25.31Zm.1-.09c-.08-.15-.08-.15-.21-.17Zm1.1,1.38s0,0,0-.05S47.84,26.58,47.88,26.6Zm-.55-.69s.05,0,0-.07S47.26,25.87,47.33,25.91Zm.9,1.19s.08,0,.09,0S48.23,27.06,48.23,27.1Zm.21.12h0Zm.1.13s0,0,0,0h0v0Zm.39.43h0s-.07,0-.09,0,.06,0,.09,0h0ZM48.42,27h0V27h0v0h0s-.07,0-.09,0,.06,0,.09,0h0l0,0h0V27Zm.7.72h0l0,0h0ZM49,27.61v0h0Zm-.21-.29h0v0s0,0,0,0Zm.44.51a.07.07,0,0,0-.08,0,0,0,0,0,0,0,0S49.21,27.87,49.21,27.83Zm.24,0s0,0,0,.06S49.48,27.84,49.45,27.82Zm-.71-.95h0s-.05-.09-.13-.1a.17.17,0,0,0,.13.1h0ZM49.62,28h0Zm-1.25-1.64a.31.31,0,0,0-.21-.06C48.31,26.34,48.31,26.34,48.37,26.32Zm1.07,1.33h0v0Zm-.65-1s-.08,0-.07.05,0,0,0,.05v0S48.8,26.72,48.79,26.68Zm.58.31h0l-.12-.08h0s0,0,0,0,0-.05-.06,0l0,.07h0c0,.07,0,.08.07.09h.08Zm.28.18h0Zm-.8-.63v0h0s0,0,0-.06h0l.06,0,0-.14s.07,0,.06-.06l-.07-.1s0,0,0,0,0,.07,0,.1l-.11,0,.17.22h0s0,0,0,.06h0Zm-.37-.36h0l0,0Zm.63.77v0h0Zm0,.1s0,0,0,0a0,0,0,0,0,0,0h0A0,0,0,0,0,49.15,27.05Zm-.62-.77-.1,0C48.45,26.31,48.48,26.32,48.53,26.28Zm.14.27s0,0,0-.06S48.63,26.53,48.67,26.55ZM48,26c0,.05,0,.08,0,.12s.06,0,.09,0,.11,0,.09-.05l0-.05h0v0h0s-.09-.05-.11-.1a.23.23,0,0,0-.08-.12s-.06-.05-.09,0,0,.08,0,.12V26a.05.05,0,0,0,0,0Zm.18.38c0,.07.06.12.11.17h0l-.21,0a.28.28,0,0,0,.13.21c.05,0-.06-.09,0-.11l.12,0a.06.06,0,0,0,.09,0h0s0,0,0,0h-.07l0-.17h0c.07,0,.15,0,.17-.1s0,0,0,0,0,.07-.12.06Zm-.94-.82h0Zm.66.53s0,0,0,0S47.86,26.14,47.86,26.11Zm-.77-.86c.07,0,.12.06.14,0S47.14,25.21,47.09,25.25ZM48,26.49h0Zm-.66-.82h0v0h0v0ZM47,25.23a.15.15,0,0,0-.09.13s0,.08.08.13.09,0,.1,0L47,25.4l.07-.07A.15.15,0,0,0,47,25.23Zm-1-1c.12,0,.12,0,.15-.1s-.08-.07-.12-.06A.15.15,0,0,0,45.92,24.22Zm-1.13-1.68c-.1,0-.14,0-.16.05S44.77,22.6,44.79,22.54Zm-1.7-2h0Zm.25.1c-.05,0-.09,0-.09,0a.08.08,0,0,0,.09.05A.06.06,0,0,0,43.34,20.67ZM42,19.13c.06,0,.08,0,.09,0S42,19.08,42,19.13Zm.36.62c.06,0,.11,0,.1,0s-.08,0-.11,0Zm.45.64s.06,0,.06,0S42.83,20.37,42.82,20.39Zm2,2.62s0,0,0,0h0S44.84,23,44.87,23Zm.3.5.06,0h0l0,0h0v0h0l0,0h0s.07,0,.1,0,0-.09-.1-.12-.06,0,0,.05h-.05s0-.06-.08-.06S45.16,23.5,45.17,23.51Zm.45.5h0v0h0s0,0,0-.07S45.6,24,45.62,24Zm.27.42v0c0,.05.09.06.13,0s0-.05,0-.1Zm-4.35-5.35h0Zm4.07,5.07,0,0h0s0,0,0,.05h-.05s-.07,0-.09,0,0,0,0,.06l0-.05h0c0,.05.07.12.16.17l0-.11-.09-.07h0s0,0,0-.05h0s0,0,0,0h0s0-.05-.08-.05,0,.05.08.05h0Zm-2.32-2.74s-.06,0-.06,0S43.29,21.44,43.29,21.41ZM44.52,23h0Zm.58.8a.27.27,0,0,0,.18.07C45.19,23.74,45.16,23.73,45.1,23.78Zm-3.45-4.45-.07.1.07,0c.07,0,.06,0,.08-.1Zm-1.58-1.81s0,0,0,0l-.08,0S40,17.51,40.07,17.52Zm6.35,8c0-.07-.05-.12-.13-.15A.29.29,0,0,0,46.42,25.51ZM40.5,18.19h0Zm.35.61c.07,0,.1,0,.08,0S40.86,18.76,40.85,18.8Zm.68.73h0v0s0,0,0,0h0v0Zm1.55,2.31c.05,0,.05.06.08.1l.32,0c0-.07,0-.13-.07-.17a.25.25,0,0,0-.16,0S43.1,21.77,43.08,21.84ZM44.9,24.2a.07.07,0,0,0,.08.06l0,.11h0l-.12,0,.11,0s.06.06.1,0L45,24.38h0l.3-.08s0,0,0-.06-.2,0-.3,0l0,.05S45,24.2,44.9,24.2Zm-4.79-6v0l0,0v0S40.1,18.17,40.11,18.16Zm.22.37h0Zm2.3,3.19s0,0,.06,0S42.63,21.69,42.63,21.72Zm.39.59h.14c.09-.07.1-.15,0-.29-.07,0-.06.1-.06.15S43,22.21,43,22.31Zm2,2.58h0l-.15.09C45.05,25,45.05,25,45.06,24.89Zm-.3-.36c-.07,0-.13,0-.15,0S44.74,24.59,44.76,24.53Zm-.17-.13c-.05,0-.05,0-.08,0a.11.11,0,0,0,.08,0S44.61,24.43,44.59,24.4Zm-2.5-2.74h0s0,.07.09.07l.09-.06h0l0,.08c.05,0,.07,0,.06,0a.09.09,0,0,0-.09-.06h0C42.18,21.61,42.15,21.66,42.09,21.66Zm-2.37-2.95h0Zm1.46,1.85s0,0,0-.06S41.11,20.51,41.18,20.56ZM42.31,22a.21.21,0,0,0-.18,0l0,.13h0v0h0v0h0a.11.11,0,0,0,.09-.05s0,0,.06-.05h0a.47.47,0,0,0,.22.05h0a.34.34,0,0,0,.19,0s0-.05,0-.09l-.15,0h0a.23.23,0,0,0-.16-.1l-.06.05Zm-1.44-1.49a.07.07,0,0,0,.09,0l0,0h0s0,0,.05,0H41C40.94,20.48,40.89,20.48,40.87,20.53Zm.6.86h0Zm.31.43a.15.15,0,0,0-.06.13h0v0h.13s.1-.05.06-.13S41.8,21.8,41.78,21.82ZM39.1,18.75v0h0v0Zm2.1,2.79-.14-.06h0l.11.14h0l-.14,0h0s-.06,0-.09,0h0s0,0,0,0,.06,0,.08,0h0a.18.18,0,0,0,.1.07s0,0,0-.05h0l.19-.05a.23.23,0,0,0,.17.11l0-.05h0s0,0,0,0h-.05a.24.24,0,0,0-.22-.06.16.16,0,0,0-.09-.07Zm-.62-.72h0v0h0S40.55,20.82,40.58,20.82Zm-.21-.17a.06.06,0,0,0,0,.07h0v0h0a.43.43,0,0,1,.16,0s0,0,0,0A.25.25,0,0,0,40.37,20.65Zm-.51-.52h0a.59.59,0,0,0-.2.07c-.06,0-.17,0-.21.05l0,0c0,.06.06,0,.09,0l.12,0,.12,0v-.07c0-.05.14,0,.11-.11h0s.11,0,.12-.06S39.85,20.06,39.86,20.13Zm17.35,4.29Zm-1.8-1.89h.05l-.07-.09h0l-.05,0h0l.08.1Zm4,1,0,0,0,0ZM54,14.75h0l-.05,0v0h0Zm-.23-.36h0l-.08,0h0l.08,0Zm5.06-.13,0,0h0l0-.06s0,0,0,0Zm-1.47,1.15h0s0,0,0,.05,0,0,0-.05h0Zm-5.57-1.7.95,1.22H52.6s0,.07,0,.12a.38.38,0,0,0,.16,0l.53.66,0,.07s0,.07,0,.1l-.07,0a0,0,0,0,0,0,.06h0c-.44.12-.34.5.13,1.14l.39.51s0,0,0,.08a.1.1,0,0,0,.09,0l.5.64-.05,0s0,.06,0,.08l.06,0,1.67,2.1s0,0,0,.06h.06l1.28,1.58c.48.54,1,.9,1.31.81l.17-.05.45.58s0,0-.08,0-.13,0-.14,0l0,.06h.19l0-.05.06.05c.41.53.9,1.13,1.17,1.46,0,0-1.5.39-2.33.63s-2.3.7-2.3.7c-.39-.51-1.31-1.67-1.72-2.17l.14,0c.54-.16.36-.58,0-1.12,0,0,0,0,0,0h0v0c-.23-.32-1.26-1.63-2.24-2.86a0,0,0,0,0,.06,0,.07.07,0,0,0-.08,0c-.79-1-1.53-1.9-1.77-2.18-.54-.62-1-.91-1.51-.75l-.11,0c-.39-.5-1.29-1.63-1.7-2.13l2.39-.65C50.28,14.18,51.77,13.71,51.77,13.71ZM48.38,16h0ZM56,26.23s-.05,0-.05,0S56,26.26,56,26.23Zm.06-.44c-.07,0-.11,0-.12.05s-.05,0,0,.07S56.09,25.89,56.08,25.79Zm.24.3h0ZM56,25.65v0h0s-.06,0,0,0,.06,0,0,0h0Zm.34.19a.09.09,0,0,0-.08,0s0,.05,0,.06Zm0-.25h0l0,0h0s0,.05.07.05A.06.06,0,0,0,56.31,25.59Zm-.73-1s0,0-.06,0S55.57,24.58,55.58,24.56Zm-.77-1.1,0,0h0s0,0,0,0Zm4.62.29h0a0,0,0,0,0,0,0S59.44,23.72,59.43,23.75Zm-.38-.49c.06,0,.11.08.14,0S59.07,23.2,59.05,23.26Zm-.42-.17,0,0L58.57,23A.08.08,0,0,0,58.63,23.09ZM51.83,15s0,0,0,0,0,0,0,0S51.82,14.94,51.83,15Zm.3.41v0h0s.07,0,0-.05-.06,0,0,.05h0Zm-.16.06s0,0,0,0l-.05,0s0,0,0,0Zm.63.85c.08-.05.09-.05,0-.13S52.57,16.21,52.6,16.27Zm.25.27h0a0,0,0,0,0,0,0S52.87,16.53,52.85,16.54Zm-.18-.15h0Zm-1-1.08h.05s0-.05,0-.06S51.71,15.28,51.72,15.31Zm2.61,3.23s0,0,0,0,0,0,0,0a.43.43,0,0,1,0,0S54.33,18.51,54.33,18.54ZM53.79,18c.08.08.08.12.17.15v-.08ZM55.33,20h0s0,0,.05.08L55.33,20h0v0Zm-.23-.26s-.06,0-.06,0S55.1,19.73,55.1,19.7Zm.52.78h0c-.13-.05-.13-.05-.18.05Zm.78,1.24v0Zm1.35,1.58s0,.09.08.13l.06-.13s0-.05,0-.06l-.1.06h0s0-.06-.06-.09,0,.05.06.09Zm-2.34-3.16,0,.08h-.09a.06.06,0,0,0,0,.09.18.18,0,0,0,.19-.08ZM52.7,16.76h0Zm.66.84h0Zm-2.42-3h0s.06,0,0,0-.06,0,0,0h0Zm1.82,2.44v0h.05l.07.09h0v0h0v0h0c0-.06,0-.06-.07-.09h0l0,0v0h0Zm2.12,3.09c-.05.09-.12.14-.07.25s.1-.1.16-.13l.2-.08.07-.16C55.09,20,55,20.15,54.88,20.14Zm.44.28h0v0Zm2.36,3s-.06,0,0,.09S57.76,23.48,57.68,23.4Zm0,.33h0v0Zm-2.65-3.34h0v0ZM57,23.23h0a.49.49,0,0,0,.21.18C57.1,23.32,57.08,23.24,57,23.23Zm-1.59-2.14h0l0,0h0a.19.19,0,0,0-.13-.06l-.09.06h0l0,0h0C55.27,21.15,55.34,21.15,55.39,21.09Zm1.76,2.8h0c.05,0,.09.06.1,0a.09.09,0,0,0-.1,0h0c-.06-.05,0-.1,0-.15s-.12,0-.07.14A.14.14,0,0,0,57.15,23.89Zm.06.13h0ZM56.41,23a.1.1,0,0,0-.09-.06s0,0,0,.07h.07c.13,0,.13,0,.13-.05l-.06,0s0,.05-.07.07ZM54.9,21h0Zm1.35,1.72h0ZM54.8,20.81h0Zm1.58,2v0h0Zm.23.34c0,.09,0,.09.13.1S56.7,23.18,56.61,23.15Zm0,.15h0Zm.47.32h0c.06,0,.13,0,.2,0a1.68,1.68,0,0,0-.27-.34s0,.09,0,.14a.61.61,0,0,1,.07.17h0s-.06,0,0,.05S57.06,23.65,57.05,23.62Zm-1.67-2.29v.09C55.46,21.43,55.46,21.41,55.38,21.33Zm1.41,1.78s0,0,0,0h0ZM55.1,20.9c-.08,0-.09,0-.05.08S55.11,21,55.1,20.9Zm-2.27-3.39,0,0h0s0,0,0,0A0,0,0,0,0,52.83,17.51Zm-1-1.24a0,0,0,0,0,0,0h0S51.77,16.27,51.8,16.27Zm.81,1.13s0,0,0,0S52.61,17.38,52.61,17.4Zm.12.16h0Zm0,.18s0,0,0,0S52.67,17.73,52.7,17.74Zm1.85,2.48c.07,0,.12,0,.14,0a.2.2,0,0,0-.12-.1ZM50.24,15s.06,0,.06,0S50.24,14.92,50.24,15ZM51,16.07a.06.06,0,0,1,0,0h0S51,16.08,51,16.07Zm3.34,4.21h0Zm-4.06-5.07h0l0,0h0S50.22,15.21,50.24,15.21Zm2.46,3.26s.07,0,.08,0S52.69,18.42,52.7,18.47Zm1.63,2.21a.17.17,0,0,0,.14,0c.11,0,.13-.15.26-.17h0c.07.07.07.07.16.06h0c.09,0,.09,0,.07,0s0,0-.07,0h0a.31.31,0,0,0-.16-.06h0c0-.06,0-.11,0-.19s-.16.16-.22.25Zm2.8,3.37A.14.14,0,0,0,57,24s0,0,0,.06S57.12,24.09,57.13,24.05Zm0,.1s0,0,0,0,0,0,0,0S57.16,24.15,57.13,24.15Zm-.78-1h0Zm-1.46-1.79h0s0-.05-.08-.06S54.85,21.34,54.89,21.35Zm-.25-.19h0ZM56,23h0v0Zm-.43-.5v0s0,0,0,0l0,0Zm-.43-.54s-.05,0-.05,0h0S55.12,21.92,55.13,21.92Zm1.27,1.44a.09.09,0,0,0-.1,0C56.32,23.37,56.35,23.39,56.4,23.36ZM51,16.62h0l0,0Zm-.1-.11h0ZM54,20.58l0,0h.06a.14.14,0,0,0,.13.05l0,0a.22.22,0,0,0-.11,0h0l0,0h0Zm.8,1.12h0s0,0,0,0S54.84,21.67,54.84,21.7Zm-4.22-5.1v0h0l0,0v0S50.56,16.58,50.62,16.6Zm2.05,2.59s0,0,0,0S52.67,19.17,52.67,19.19Zm-2.42-2.68s.08,0,.08,0S50.25,16.48,50.25,16.51Zm2,2.48v0h0Zm1.22,1.63c.1,0,.13,0,.12,0h0Zm.25.24h0ZM49.9,16.44h0s0,0,0,0S49.88,16.43,49.9,16.44Zm5.26,6.68h0l0-.06C55.12,23,55.12,23,55.16,23.12Zm.16.07s0,0,0,0,0,0,0,0Zm.2.49.08,0s0,0,0-.06S55.52,23.65,55.52,23.68Zm-.36-.38h0Zm-1.79-2.25v0h0Zm0-.1s0,0,0-.07-.07.05,0,.1h0c0,.07,0,.07.09.12L53.24,21h0S53.3,21,53.32,21Zm-3.5-4.43h0v0h0Zm1.68,2.17s0,0,0-.06S51.46,18.68,51.5,18.69Zm1.23,1.55v0h0s0,0,0,0Zm0,.22,0,.05h0s-.06,0,0,0,.05,0,0,0h0s.1,0,.13,0,0,0,0-.07-.1,0-.15,0h0l0,0s-.05,0,0,0h.07Zm0,.37s0,0,0,0,0,0,0,0h0Zm-1.87-2.34s0,0,0,0S50.93,18.52,50.93,18.49Zm3.28,4.15s.07,0,0-.1S54.19,22.58,54.21,22.64Zm2.56,3.13s0,0,0,0,0,0,0,0,0,0,0,0l0,0A0,0,0,0,0,56.77,25.77Zm-.27-.3h0s0,0,0,0v0h0v0ZM56.14,25s-.06,0-.06,0a0,0,0,0,0,0,0s.05,0,.07,0S56.15,25,56.14,25Zm-.91-1.2h0s0,0,0,0Zm.44.53h0Zm-.76-1h0s0-.06-.08-.06,0,.05.08.06h0Zm-2.52-3.17h0Zm.7.83h0l0,0h0S53.07,21,53.09,21Zm2.28,2.78h0v0h0v0h0Zm-.16-.28h-.08s-.06,0-.08,0,.06,0,.08,0h0l0,.05h0v0h0S55.24,23.49,55.21,23.45Zm.43.35s-.06.06,0,.1S55.7,23.9,55.64,23.8Zm1.63,2.07h0Zm0-.08h0c-.09,0-.09,0-.12,0a.15.15,0,0,0,.12,0h0Zm-.17-.3s0,0,0,0S57.14,25.52,57.14,25.49Zm-1.46-1.92s-.06,0-.06,0h.06ZM53.6,20.72c-.13,0-.25,0-.29,0l.08.06C53.46,20.79,53.57,20.81,53.6,20.72Zm1.58,2.08h0l0,0S55.18,22.78,55.18,22.8Zm.11.22.15,0s0,0,0,0,0-.06,0-.09h0v0h-.13A.06.06,0,0,0,55.29,23Zm.65.56h0s0,.05,0,0h-.06c-.1,0-.1,0-.11,0S55.91,23.59,55.94,23.58Zm.66.86h0v0Zm-.72-1a.31.31,0,0,0-.2-.08C55.81,23.48,55.81,23.48,55.88,23.45Zm-.31-.35h0S55.6,23.1,55.57,23.1Zm1.55,2.15c0-.14,0-.22-.1-.31s-.1,0-.13,0A1.33,1.33,0,0,0,57.12,25.25Zm.56.44h-.06s-.08-.09-.14-.05a.2.2,0,0,0,.14.05h0S57.67,25.73,57.68,25.69Zm-.2-.23s0,0,0,.05S57.51,25.47,57.48,25.46Zm-1.31-1.79s-.05,0-.05,0S56.17,23.69,56.17,23.67Zm-.78-1c-.08,0-.07,0-.07.1s.06.06.1,0S55.47,22.73,55.39,22.67Zm-.1-.23,0,.1h.09l0,0s0,0,0,0h0c0-.06,0-.06-.07-.09h0l0-.1h0s0-.07,0-.11h0v0h0s-.06,0,0,.06l.07.05h0c-.07,0-.07,0,0,.12h0l-.06-.06s-.07,0-.06.08a.22.22,0,0,0,.12,0Zm.86.78s0,0,0,0h0a.13.13,0,0,0-.11-.07v.05c.07,0,.09,0,.12,0h0Zm-.4-.15.08,0s0-.05,0-.08S55.75,23,55.75,23.07ZM57.32,25s0,0,0,.05S57.35,25,57.32,25Zm-1.18-1.64s-.1,0-.12,0l0,0C56.19,23.4,56.19,23.4,56.14,23.32Zm.18.26a.12.12,0,0,0,.08,0l.15,0h0s0,.05.08.05,0-.05-.08-.05h0a.23.23,0,0,0-.1-.07C56.4,23.53,56.34,23.54,56.32,23.58Zm1.1,1.35h0v0Zm-.77-1.07s.07,0,.09,0-.06,0-.09,0h0l-.07,0h0l.07,0Zm.32.29c-.07,0-.07,0,0,.08S57,24.19,57,24.15Zm.44.51v0h-.08l0,0h0l0,0h0v0h0v0Zm.86.82,0,0v0Zm.17,0v0h0s-.07,0-.07,0l.05.05s0-.05,0-.1h0Zm-1-1.41c-.11,0-.11.05-.12.11a.1.1,0,0,0,.08,0h0l0,0h0c-.07,0-.12.06-.23,0h0s-.06.07,0,.13h0l.14,0c.06,0,.16-.07.11-.18h0l0,0h-.06c0-.05,0-.06.06-.09S57.47,24.11,57.46,24.08Zm.2.18h0Zm-.3-.47s-.07-.05-.1,0,0,.06.06.07S57.36,23.82,57.36,23.79Zm.42.48v0h0s0,0,0,0v0h0S57.83,24.3,57.78,24.27Zm-.06-.18h0s.07,0,0-.06h-.08s0-.06,0-.09-.1,0-.13,0l0,.06h0s0,0,0,.05h0a.18.18,0,0,0,.09.08S57.73,24.12,57.72,24.09Zm.36.4v0h0l0,0-.06,0s-.08-.05-.09,0a.08.08,0,0,0,.09,0l0,0h0v0Zm.31.31,0,0a0,0,0,0,0,0,0s0,0,0,0Zm-.88-1.17s0,.06,0,.09h0s-.13,0-.14,0l.08.05h0s0,0,0,0v0h0s.08,0,.06-.07h0S57.58,23.66,57.51,23.63Zm-.51-.7v0a.14.14,0,0,0-.11.12.28.28,0,0,0,.23,0h0L57,23S57.06,23,57,22.93Zm.61.65h0s0-.06-.08-.06S57.57,23.57,57.61,23.58Zm.87.68-.13.08s-.11,0-.11.05a.13.13,0,0,0,.12.05C58.39,24.39,58.47,24.38,58.48,24.26Zm.05,0s0,0,0,.05S58.56,24.26,58.53,24.25Zm-.41-.67s.08,0,0-.08-.09,0-.15,0-.14,0-.15.06-.12,0-.1.06l.11.14h0a.17.17,0,0,0,0,.17l.09,0,.11-.1s.06,0,.09,0l0-.09c-.09,0-.14,0-.23,0h0l.3-.09Zm.54.34.11,0C58.74,23.88,58.71,23.87,58.66,23.92Zm-.37-.49.13,0h0a.13.13,0,0,0,.13,0h0a.06.06,0,0,1,0,.07l-.19.06s0,0,0,0l0,.05a.24.24,0,0,0-.06.08s0,0,0,.05l.15-.07,0,.09c.17,0,.17,0,.25,0s-.09,0-.14,0,0,0,.06,0a.65.65,0,0,0,0-.14c0-.05,0-.08,0-.14s-.06,0-.09,0l0,.05h0a.13.13,0,0,0-.13,0h0C58.35,23.37,58.31,23.37,58.29,23.43Zm-1.92-2.38h0a.14.14,0,0,0-.11.08c.07,0,.13,0,.11-.08h0s.06,0,0-.05S56.36,21,56.37,21.05ZM53.63,17.4c-.08,0-.11,0-.1.07h0v0h.1S53.66,17.44,53.63,17.4ZM53.3,17s0,0,0,0l0,0s0,0,0,0S53.31,17,53.3,17Zm-1.74-2.23,0,0h0s0,.07.11.07S51.66,14.79,51.56,14.75Zm1.35,1.55h0v0Zm-.21-.36s0,.05,0,.07h0s0,0,0,.07,0,0,.06,0L52.73,16h0S52.75,16,52.7,15.94Zm-.23-.36s0,0,0,0h0Zm-.1-.34h0s0,0,0,0S52.37,15.25,52.37,15.24Zm.4.13c-.06,0-.08,0-.1,0s0,0,.11,0S52.78,15.38,52.77,15.37Zm.15-.11h0s0,0,0,0S52.92,15.24,52.92,15.26Zm-7.09,8.52,0,0h0Zm-.09,3.95.07,0,0,0ZM60,21l0,0h0S60.06,21,60,21Zm-6.15-6.6h0Zm3.27-2.09h0ZM56.83,17Zm-.25-2.4ZM58,14Zm-2.1-.78h0v-.06h0S55.9,13.2,55.91,13.23Zm-2.3,1.63h0l0,0v0ZM44.69,25.31Zm-.08-.4h0s0,.05,0,.05h0l0-.05ZM46,27.4Zm-.11.39h0l0,0v0h0ZM45.46,27s0,0,0,0Zm.35-10.45h0v0Zm-5.07,4.82s-.06,0-.08,0S40.72,21.33,40.74,21.32Zm3.75,3.78s0,0,0-.1S44.4,25,44.49,25.1ZM48.43,27h0ZM48.15,26h0l0,0h0l0,0Zm-2.83-2.44h0v0l0,0h0l0,0Zm1.31,3.6ZM47.4,27Zm-1,0h0C46.44,27,46.45,27,46.43,27Zm3.3-.11h0l0,0s0,0,0-.06Zm-4.46-9.73Zm-.34.27a.11.11,0,0,0-.08,0A.13.13,0,0,0,44.93,17.41Zm.3-.45h0a.2.2,0,0,0-.12-.08h0S45.17,17,45.23,17Zm-.24.48s0,0,0,0h-.07Zm3.54,2.83h0S48.54,20.23,48.53,20.27ZM47,20.44h0Zm-6.3,1.63s0,0,0,.08h.09l-.12-.08h0Zm-.13.28.05,0h0l0,0h0s0,0,0,.06h0Zm2.37-3.62c-1-1.31-1.35-2.26.14-2.69A2.93,2.93,0,0,1,44.32,16h0l0,0s0,0,0,0a4.48,4.48,0,0,1,1.37.45h0c0,.05,0,.1-.05.16l0,0,.09.05,0-.16h0l0,0v0a9.91,9.91,0,0,1,1.42.94s0,0,0,0l.09,0c.22.17.44.36.66.56h0a.14.14,0,0,0,.1.05,24.83,24.83,0,0,1,2.59,2.83,15.16,15.16,0,0,1,1.69,2.52s0,0,0,0h0l0,0a.08.08,0,0,0,0,0A4.4,4.4,0,0,1,53,26.43h0v0l-.09.1h0s0,0-.05,0h.05s0,0,.06.05a2,2,0,0,1-.67.93h0s0,0,0,0h0a2.68,2.68,0,0,1-.77.41v0c-.07,0-.14-.08-.21-.06v0l.12.09-.18,0a5,5,0,0,0-1.16-2.37c-.69-1-1.53-2.07-2.81-3.69l-.45-.55s.05,0,0-.05-.08,0-.1,0c-.45-.54-.83-1-1.18-1.34,0,0,.13,0,.1-.05a.65.65,0,0,0-.32-.18h0s.08,0,0-.08l-.1-.07h-.08s-.06-.07-.11-.09C44.12,18.67,43.53,18.55,42.92,18.73Zm8.15,8.45s-.06,0-.06,0S51.07,27.21,51.07,27.18Zm-1.32-2h0Zm-5.4-6.64-.08,0s0,0,0,0S44.35,18.6,44.35,18.57Zm.21.12h0Zm.81.77h0c.09,0,.13,0,.19,0l0-.07h0v0h0c-.07,0-.18-.05-.19,0l0,.07h0s-.1,0-.08.06S45.38,19.51,45.37,19.46Zm-.79-.91h0v0h0v0Zm.21.21v0h0ZM44.71,18s0,0,0,0v0s0,.05,0,.08-.08,0-.05.07l.08.08.11-.17Zm3.45,2.92s0,0,0,.08,0,0,.07,0l-.09-.07h0s.06,0,0-.05-.06,0,0,.05h0Zm-2.64-3.35v0h0Zm2.78,3.56a.21.21,0,0,0-.24,0,.62.62,0,0,0,.18.18C48.27,21.29,48.35,21.26,48.3,21.15ZM50,23.58s.05,0,.05,0S50,23.55,50,23.58Zm-2.86-3.72h0v0h-.08s0,0,0,0h0l0,0h0s0,.05,0,.08S47.14,19.89,47.12,19.86Zm-.44-.58s-.06,0,0,.09a.13.13,0,0,0,.14,0S46.77,19.3,46.68,19.28ZM47.93,21s0-.06,0-.09h0a0,0,0,0,0,0,0h0v0h0S47.86,21,47.93,21Zm-1.76-2.54a.16.16,0,0,0-.13,0c0,.07,0,.16,0,.2s0,0,0,0h.12C46.1,18.57,46.23,18.55,46.17,18.45ZM45.81,18s0,0,0,0,0,0,0,0l0,0S45.82,18,45.81,18Zm-.23-.28c-.07,0-.08,0-.07.17h0s0,.05,0,.08,0,0,0-.08h0C45.58,17.88,45.61,17.82,45.58,17.73Zm-.16-.15v.05c-.07,0-.19,0-.27,0a.15.15,0,0,0-.07,0v.13c-.11.09-.12.25-.17.39l.12.15h0s-.07,0-.05.06l.13.08s.08,0,.09,0l-.17-.1h0v-.16l.08,0a.57.57,0,0,0,.13-.36h0l0,0h0v-.05s.13,0,.17,0a.09.09,0,0,0,0-.1Zm.84,1.5h0s0,0,0-.07,0,.05,0,.07h0a.55.55,0,0,1-.22,0c0-.06.09-.07,0-.15a.22.22,0,0,0-.16,0c0,.05,0,.1,0,.17a.21.21,0,0,0,.18.12l.19-.12S46.26,19.09,46.26,19.08Zm.5.67s0,.07.1.1S46.83,19.77,46.76,19.75Zm3.46,5.07h0v0Zm-3.37-4.2h0v0h0s-.05,0,0,0h0v0h0S46.87,20.65,46.85,20.62Zm2.91,3.7s-.06,0-.07,0a.12.12,0,0,0,.09,0S49.77,24.32,49.76,24.32ZM46.23,20a.09.09,0,0,0-.11,0L46,20l.1,0C46.18,20.07,46.21,20.07,46.23,20Zm2.59,3.27h0Zm-1.73-2h0a0,0,0,0,0,0,0S47.09,21.25,47.09,21.28Zm-.8-1,0,0,0,0v0ZM49,23.61l0,0v0Zm-2.59-3.28h0s0,0,0,0ZM46,19.79h0l0,0S46,19.82,46,19.79Zm.13-.15,0,.06c.06,0,.07,0,.07,0Zm-.22-.29h0s0,0,0,0h0Zm.29.54.05,0,0,0a.1.1,0,0,0,0,0S46.14,19.87,46.16,19.89Zm4.25,5.19h0Zm-3.83-4.8v.06s0,0,.05,0S46.64,20.3,46.58,20.28Zm3.53,4.35v0a.1.1,0,0,1,0,0S50.07,24.62,50.11,24.63Zm-1.73-2.2h0v0h0S48.35,22.42,48.38,22.43Zm-1.57-2h0a0,0,0,0,0,0,0h0S46.84,20.44,46.81,20.44Zm3.07,3.83s.06,0,.06,0l0,0S49.87,24.25,49.88,24.27ZM48,21.85h0Zm-1.48-2h0v0h-.05s0-.06-.08-.05,0,0,0,.06h.08l0,0h0l-.11,0a.05.05,0,0,0,0,.07h0s0,0,0,0v0h0C46.53,20,46.54,20,46.55,19.9Zm-1-1.16h0s0,0,0,0v0h0s.07,0,0,0S45.51,18.71,45.52,18.74Zm-.14-.23,0-.07h0v0h0l0,0S45.34,18.52,45.38,18.51Zm.31.54c.06,0,0-.11,0-.17h0s.06,0,.06-.06-.07-.05-.1,0,0,.06,0,.09h0l-.06,0C45.64,19,45.61,19,45.69,19.05Zm-.44-.78,0,0s-.06,0-.06,0ZM47,20.42l0,0h0l0,0s.05,0,0,0H47Zm-1.35-1.9a.12.12,0,0,0-.08-.1s0,0,0,.07Zm.55.38h0Zm1,1.28s.06,0,.06,0h0S47.15,20.15,47.16,20.18ZM44.42,17.4l-.07.09C44.5,17.48,44.5,17.48,44.42,17.4Zm-.23-.22s-.06,0-.06,0S44.18,17.2,44.19,17.18Zm.1.2s0,0,0-.05S44.25,17.37,44.29,17.38Zm1.14,1.79s0,0,0-.06a.2.2,0,0,0,0-.07C45.37,19.08,45.37,19.08,45.43,19.17Zm.3.36s-.07,0,0,0,.06,0,0,0h0s.05,0,0,0v0Zm-.07.23s0,0-.07,0a.16.16,0,0,0,.1,0S45.69,19.78,45.66,19.76Zm.14.26s.05,0,.05,0S45.8,20,45.8,20Zm.21.19c.05,0,.05,0,0-.05h.08l0,0h0s-.06,0,0,0h0S46,20.17,46,20.21Zm-.1-.27h0Zm-.1.26s0,0,0,0,0,0,0,0S45.82,20.19,45.81,20.2Zm.1.11v0h0S45.88,20.3,45.91,20.31Zm.3.23h.13s.06,0,0-.1l-.06,0-.07,0-.08,0-.15.07h0l0,0h0l.08.1C46.17,20.6,46.17,20.55,46.21,20.54Zm3.7,4.76v0h0s0,0,0,0Zm.22.22h0s0,0,0,0Zm-3.18-4a0,0,0,0,0,0,0s0,0,0,0h0S46.93,21.52,47,21.51Zm1.84,2.29h0ZM51,26.53s-.05,0-.05,0S51,26.55,51,26.53Zm-4.59-5.81h0s.07,0,.06-.07h0s0,0,0,0,0-.05,0,0l0,.06h0s-.07,0-.06.07h0c0,.06,0,.06.08.13A.2.2,0,0,0,46.44,20.72Zm3.33,4h0v0h0v0ZM47.23,21.6s0,0,0,0S47.23,21.62,47.23,21.6Zm3.86,4.72H51l0,0h.05S51.11,26.35,51.09,26.32ZM49.19,24h0l0,0h0Zm-.07-.19s-.08,0-.08,0S49.11,23.8,49.12,23.77Zm1.46,1.85h0l0,0h0S50.6,25.62,50.58,25.62Zm-.28-.38s0,0,0,0S50.33,25.25,50.3,25.24ZM50,24.76s-.08,0-.1,0S50,24.81,50,24.76Zm1.67,1.88h0s0,0,0,0,0,0,0,0Zm.14,0h0Zm-.39-.49h0Zm-.4-.46h0s0-.06-.08-.05,0,0,0,.06h.08l.11.14h0s-.09,0-.12,0l-.11.05h0a.19.19,0,0,0,.19.06c.06,0,.09-.06,0-.13h0C51.18,25.76,51.18,25.76,51.06,25.71ZM46.8,20.27h0s0,0,0,0a.09.09,0,0,0-.07,0,0,0,0,0,0,0,0S46.77,20.26,46.8,20.27Zm1,1.18h0ZM47.5,21s0,0-.06,0S47.5,21.07,47.5,21Zm1,1.27h0Zm1.8,2.27h.07l0,0h0S50.31,24.54,50.3,24.58Zm.58.73h0Zm.38.38s0,0,0,0,0,0,0,0a.12.12,0,0,0-.12,0A.14.14,0,0,0,51.26,25.69ZM48.6,22.28a.06.06,0,0,0,0-.07s0,0,0,0S48.55,22.27,48.6,22.28ZM52,26.6s0,0,0,0h0Zm-1.67-2.1,0,0v0Zm-.95-1.19h0Zm1.51,1.81s0,.05,0,.07h0v0h0S51,25.15,50.93,25.12Zm-4-5s-.07,0-.06,0a.23.23,0,0,1,.15.1c0,.05,0,.07,0,.05s0,0,0,0S47,20.19,47,20.15Zm5.38,6.66h0Zm-1.83-2.3h0Zm-2.4-3.16s0,0-.06-.05-.06,0,0,.08S48.1,21.39,48.1,21.35Zm2.18,2.72h0s0,0,0-.09l0,.09h0s-.06,0,0,0S50.29,24.1,50.28,24.07Zm.49.56h0s0,0,.05,0H50.8s0-.06,0-.09-.06,0-.06,0A.13.13,0,0,0,50.77,24.63Zm1,1.2h0Zm.76.78-.05,0s0,0,0,.06,0,0,0,.08h.07C52.5,26.68,52.58,26.67,52.53,26.61Zm-2.18-2.69v0Zm.84.93h0l0,0ZM50,23.33c-.06,0-.1,0-.11,0S50,23.38,50,23.33Zm-.59-.76a.17.17,0,0,0,.13.05s0-.05-.06-.05Zm3.17,3.74v0h0s-.08,0-.06.08h0v0h0s.07,0,.06-.08h0S52.63,26.33,52.57,26.31ZM48,20.57h0v0h0v.06h0l0,0,0,0v0h0S48,20.59,48,20.57Zm-1.76-2.15.07.09h0v0h0c0-.06,0-.06-.07-.09h0l0,0Zm1.9,1.82s.06,0,.09,0h0s0,.05.05,0h-.05S48.19,20.21,48.17,20.24Zm-.17-.3h0s0,0,0,0h0Zm-2-2.49a.23.23,0,0,1-.22.21h0l0,0a.23.23,0,0,0,.19,0l.19-.05A.42.42,0,0,0,46,17.45Zm.29.45h0Zm.24.6h.05s0,0,0,0h-.06Zm-.2-.29h0s0,0,0,0S46.25,18.21,46.28,18.21Zm.15.13h0Zm1.89,2.46h0Zm.22.29h0Zm-2-2.48h0ZM46,18.12h0s0,.05.05,0Zm6.58,8h0s-.07,0,0,0h0s0,.05,0,.08,0-.05,0-.08h0l0,0h0S52.61,26.16,52.62,26.13Zm-4.37-5.62h-.08s0,0,0,0h0l0,0h0s0,0,0,.05h0s0,0,0,0v0h0s0,0,0-.05h0S48.27,20.55,48.25,20.51Zm-.85-1.14h0Zm5.48,6.87h0Zm-6.35-8h0v0Zm6.1,7.47v0h0s-.06,0,0,.05.05,0,0-.05h0Zm-4-5.13h0c-.09,0-.09,0-.09,0h0v0h0l.09,0h0Zm-1.93-2.45h0s-.07,0-.09,0h.1S46.67,18.17,46.68,18.14Zm-.4-.42s0,0,0,0a.06.06,0,0,0,0,0Zm.06-.15h0Zm.07.1h0Zm1.4,1.86,0,0h0l.05,0s.09.05.1,0A.09.09,0,0,0,47.81,19.53Zm.47.56h0Zm4.3,5.17c-.06,0-.07,0-.08.07S52.63,25.33,52.58,25.26Zm-.32-.47c-.09-.09-.18,0-.26-.09l0-.07c-.05,0-.08,0-.09,0s.07.09.13.15h.27S52.25,24.8,52.26,24.79Zm-3.59-4.58-.06,0c-.1,0-.15,0-.22.06s.12.12.18.18l.07,0c0-.05,0-.1-.06-.15S48.69,20.27,48.67,20.21Zm-.35-.27,0,0h0S48.34,19.94,48.32,19.94Zm.11.12s0,0,0,0V20C48.44,20,48.43,20,48.43,20.06Zm2.35,2.8h0Zm-4-5h0s0,0,0,0S46.77,17.82,46.8,17.82Zm2.26,2.72s0,0,0,.07h0v0h0S49.11,20.57,49.06,20.54ZM48.7,20c-.07,0-.06,0-.05.09S48.73,20.08,48.7,20Zm.57.7v0h0S49.22,20.7,49.27,20.72Zm2,2.44v.05s.06,0,.06,0S51.27,23.15,51.24,23.16Zm1.13,1.36c-.1,0-.1,0,0,.09Zm-2.5-3.28a.1.1,0,0,0-.08,0h0s0,0,0,0h0s0,.09.07.13A.07.07,0,0,0,49.87,21.24Zm-.64-.7s0,0,0,0l0,0s0,0,0,0Zm3.1,3.74h0Zm-3.72-4.69,0,0,0,0h0l0,0h0c0-.05,0-.1-.1-.14s0,0,0,.06a.13.13,0,0,1,0,.06l-.09,0h0s-.06,0-.08,0,.05,0,.08,0h0l.06.06.17-.06h0l0,0h0c-.08,0-.09.06-.07.14h0l-.08,0c.08,0,.08,0,.08,0h.11c.08,0,.11,0,.1-.1l-.14-.05h0v-.06h0Zm.26.27s0,0,0-.05S48.84,19.85,48.87,19.86Zm.55.66h.15l.06-.17c-.12,0-.1.07-.18.07l-.06,0h0s0,0,0-.06h0s.07,0,.05-.05-.06,0-.05.05h0a0,0,0,0,0,0,.06h0s0,.07,0,.11h0s0,0,0,0Zm-.73-1.21h0Zm-.06-.18h0s0-.05,0,0h.07Zm1.81,2.46Zm-.57-1h-.19l-.08.11A.54.54,0,0,0,49.87,20.6Zm2.58,3.48v0h0s-.12,0-.09.1l.06,0s0-.07,0-.12h0ZM52,23.3H51.9l0,0h.05S52,23.34,52,23.3Zm.25.17h0s0-.06-.08-.06,0,.05.08.06h0Zm-3.41-4.32h0ZM48.64,19h0Zm3.43,4h0Zm-1.41-1.92-.07,0s0,.05,0,.06S50.68,21.11,50.66,21.06ZM48.84,19h0L49,19h0l0,0-.09,0Zm-.52-.51h0s0,.05,0,0h-.07Zm1.51,1.94c.18,0,.18,0,.21-.08a.26.26,0,0,0-.2,0S49.8,20.38,49.83,20.41Zm-1.47-1.79,0,0s0,0,0,0S48.36,18.6,48.36,18.62Zm-.6-.61a0,0,0,0,0,0,0s0,0,0-.05,0,0,0,0Zm.19.19h0Zm.11.26v0h0a.06.06,0,0,0,0-.09h0s0,.06,0,.09h0Zm-.51-.56s0,0,0,0S47.51,17.89,47.55,17.9Zm.79,1c.1,0,.19,0,.23-.08A.24.24,0,0,0,48.34,18.94Zm-.14-.07s.07,0,0-.08S48.15,18.82,48.2,18.87ZM47.15,17.7c.09,0,.08,0,.07-.07S47.14,17.65,47.15,17.7Zm.49.63s0,0,0,0l0,0h0Zm.76,1h0s-.1,0-.06.07h0l-.14,0h0a.11.11,0,0,0-.07,0h0a.11.11,0,0,0,.07,0h0l0,0h0s-.07,0,0,.06h.07l0-.05h0s.12,0,.1-.09h0s.07,0,.06-.07h0v0Zm-.21-.09,0,.09s.1,0,.1-.06a.16.16,0,0,0-.09-.1l0,0Zm-.35-.46h0v0h0l0,0s0-.05-.06,0l0,.06h0Zm-.56-.65h.09S47.31,18.06,47.28,18.1Zm-1.14-1.37s0,0,0,0S46.14,16.7,46.14,16.73Zm.11.29c.07,0,.09,0,0-.09S46.25,16.94,46.25,17Zm-.13-.16h0v0ZM47,18s0,0,0,.08S47,18,47,18h0l.14.05c0-.06,0-.09,0-.15l0,0A.11.11,0,0,0,47,18Zm-.74-.81a.06.06,0,0,0,.08,0s0-.06-.06-.08S46.21,17.13,46.24,17.16Zm.17.27h.05l.07,0c-.05,0-.07,0-.09,0Zm1.67,2.15s-.11,0-.1.07l.05,0s.08,0,0-.1,0-.06,0-.09S48.06,19.55,48.08,19.58Zm-.41-.4h0Zm-1.38-1.83s0,0,0,0S46.29,17.38,46.29,17.35Zm-.44-.5h0l0,0h0Zm-.39-.39c.08,0,.07-.06,0-.12a.16.16,0,0,0-.09,0h0C45.45,16.36,45.4,16.4,45.46,16.46Zm.28.26h0Zm.17.25h0Zm-.34-.24-.1-.13h0s.06,0,.06,0h-.05s0,0,0,.05h0S45.47,16.68,45.57,16.73Zm-.48-.42s.06,0,.06,0,0,0,0,0S45.09,16.29,45.09,16.31Zm.2.29h0s0,0,0-.07-.05,0-.07,0,0,.05,0,.08l0,0h0Zm0,.19a.27.27,0,0,0,.23.06.14.14,0,0,0-.11-.11A.12.12,0,0,0,45.3,16.79Zm-.22-.12s.06,0,.06,0S45.09,16.65,45.08,16.67Zm-1-.54,0-.11h0s-.07,0-.1,0S44,16.08,44.07,16.13Zm.1.15h.06l.07,0h0l.09,0c.06,0,.13,0,.12-.11l-.06-.06c0-.05.08,0,0-.08h-.18s0,.08,0,.12l-.06.1h0s0,0-.07,0h0s0-.06-.08-.06S44.15,16.27,44.17,16.28Zm.71,1.33.06,0,.12,0a.26.26,0,0,1,.12-.19h.13l0-.07c0-.06.15,0,.18-.06s0,0,.07,0,.17.12.15.2h-.09l.06.06c.06,0,.12,0,.16,0s0-.13-.13-.19,0-.08-.05-.12l.14,0,0-.13h.06l.08,0h0a.11.11,0,0,0,.12,0h0c0,.08-.13.05-.12.13a.18.18,0,0,0,.12.12l0-.1c0-.05.11,0,.12,0s0-.11-.05-.16l0,.05h0a.13.13,0,0,0-.12,0h0l0,0h0v0h-.06l0,0v0h0l-.16,0a.05.05,0,0,0,0,.07h-.09l-.15-.12-.07,0h0l0-.13h0c0-.05,0-.1-.07-.16h0s-.09,0,0,.08h0l-.17,0s0,.07,0,.13l.26.06h0l0,.05c-.1,0-.1.07-.11.13H45c-.07,0,0-.09-.1-.11s0,.05,0,.08-.07,0,0,.05l.07.09-.06,0C44.86,17.48,44.82,17.54,44.88,17.61Zm-.42-.49h0s0-.05-.07-.05S44.43,17.11,44.46,17.12Zm.1.31,0,0,0,0v-.05h0S44.56,17.4,44.56,17.43Zm-.68-.58s.08,0,.12,0h0s0,0,0,0h0C43.91,16.8,43.91,16.8,43.88,16.85Zm-.15.15a.21.21,0,0,0,.21,0,.25.25,0,0,0-.2,0S43.69,17,43.73,17Zm.08.19h0s-.06,0-.05.06a.21.21,0,0,0,.15,0c.05,0,.12,0,.12-.06s-.13,0-.22,0h0v0ZM43.6,17s0,0,.06,0v0S43.6,17,43.6,17Zm.51.77a.12.12,0,0,0,.12,0h0l0,0h0c-.05,0-.11,0-.1.07s.12,0,.1-.07h0v0h-.05s0-.06,0-.08h.09l.1-.08h0l0,0h0c-.06-.05-.11,0-.16,0s-.14-.07-.2,0,.07.07.06.11S44,17.76,44.11,17.81Zm-.51-.53h0v0Zm-.2-.18h.05S43.41,17.07,43.4,17.1Zm.28.36a.2.2,0,0,0,.16.07v-.06C43.77,17.45,43.7,17.4,43.68,17.46Zm0,.15s0,0,0,0h0Zm0,.14v0h0S43.69,17.75,43.72,17.75Zm.27.48c.1.06.2,0,.3.1s0,.08.06.11l.16-.07h0l0,0v0h0l.06,0-.07-.16s-.1,0-.13-.08,0,0,0,0h0a.07.07,0,0,0,.1,0h-.11a.23.23,0,0,0-.19,0l.06.13v0c-.1,0-.13-.09-.2-.14l-.08,0v.1H44A.1.1,0,0,0,44,18.23Zm.27.55h0Zm-1.9-2.32a0,0,0,0,0,0,0h0v0S42.34,16.44,42.36,16.46ZM40.6,22.33h0c.06,0,.06,0,0,0h0Zm3.91-4.09c-.1,0-.1,0-.17.05s.12,0,.17.08h0l0,0h0S44.56,18.28,44.51,18.24Zm0-1.11h0Zm-.08.5h0Zm13,7h0ZM34,19.65l0,.05h0l0,0h0l0,0Zm0,0Zm0,1.38h0Zm1.83-6.8v0l.05,0,0,0h0ZM65.34,27.56h0s.06,0,0,0h0ZM44,31.5l-.06.06.12.06c.06,0,.08,0,.07-.05H44v0h0S44,31.48,44,31.5ZM32.36,16.73h.1C32.41,16.69,32.38,16.68,32.36,16.73ZM53,30.77Zm-.1.63Zm-.22-.06h0s0,0,0,.06h.05l0,0Zm-9.46.06Zm6.2-.21ZM47,32.28h0l0,0h0l-.09,0Zm0,.36s0,0,.08,0A.07.07,0,0,0,47.08,32.64ZM31.69,17.55s0,0,0,.07S31.71,17.57,31.69,17.55Zm.16.49h0l0,0C31.83,18,31.84,18,31.85,18Zm.08-.52s0-.06,0-.09-.07,0,0,.07S31.91,17.53,31.93,17.52Zm-.19.43v0s0,0,0,0Zm1.75.89s-.05,0,0,.08.07.06.09,0h0Zm-2.31-1.57h0l.05.17,0-.16Zm1,.4s.06,0,.08,0S32.21,17.65,32.19,17.67ZM43.54,31.84h0l0,0h0l0-.05Zm-.3-.5-.05.06.12.09s.08,0,.1,0l0-.07h0S43.28,31.37,43.24,31.34ZM43,31.27H43l.05,0Zm.56.52v0S43.62,31.81,43.58,31.79Zm14.61-3.68h0s0,0,0,.06h0S58.2,28.14,58.19,28.11ZM32,18.85l.29-.08h0l0-.05h0c-.11,0-.12,0-.11-.14h0l0,0-.2,0v.1a.22.22,0,0,1,.11.17ZM43.31,31.5ZM31.67,17.37h0l0,0h0S31.73,17.38,31.67,17.37Zm31.71-2.66h0v0h0l0,0ZM36.34,16l.11,0h0s0,0,0-.05h0V15.8c-.07-.05-.11,0-.16,0h0a.13.13,0,0,1,0,.06s0,0,0,.06h0ZM50.87,30h0s0,0,0,0ZM33.23,18.43h0s-.07-.08-.13-.08h0a0,0,0,0,1,0,.06h0A.15.15,0,0,0,33.23,18.43Zm.1.87h0l0,0h0v0Zm.63.12h0a.24.24,0,0,0-.19-.05l-.09.06h0a.44.44,0,0,0-.17-.06h0l-.06-.13s.08,0,.11,0,0,0,0,0h0v0h0c-.08,0-.12-.07-.19-.12a1.14,1.14,0,0,1,.26,0Zm-.16-.16h0Zm14.6-6.78s0-.06,0-.09h-.06A.71.71,0,0,0,48.4,12.48Zm-15,6.27h0ZM33.05,18h0Zm.21.53s-.08,0-.1,0,.06.11.13.09A.13.13,0,0,0,33.26,18.54ZM63.6,14.62s0,0,0,0l-.11,0C63.55,14.61,63.58,14.62,63.6,14.62Zm.15,0Zm-24.29.08s0,0,0,.09h.06ZM36,15.58h0l0,0Zm29.44-.28Zm-.09,0h0l0-.05h0v.05ZM33.15,18.27l0,0h0s0,0,0,.07h0A.16.16,0,0,1,33.15,18.27Zm38.66,7.12h0Zm-2-3.33h0ZM59.59,9h0s-.05,0-.08,0h0l.08,0Zm4.94,6ZM35.35,15Zm-.72-.4Zm14.43-3.49h0Zm14.4,15.72Zm-25-12.62h0S38.48,14.25,38.48,14.21Zm-1.56,1c-.07,0-.11,0-.16,0C36.87,15.27,36.87,15.27,36.92,15.22Zm-3.69,3.21,0,.11h0l-.06-.1Zm.46-3.15h0s0,0,0,0h0l0,0Zm-2.22.05A1.52,1.52,0,0,1,32,15v0h0v0h0l.14,0h0l1.2-.35h0l.21-.06h0l.05.06h0v0h0v0h0l0,0h0l0,0h0v-.09l1-.29h0c.08,0,.14,0,.15-.06h0l.11,0,0,.05a2.54,2.54,0,0,0,.39,0,.65.65,0,0,0-.11-.12l0,0,.11,0h0s0,0,0,0h0l.25-.07c.08.2.08.2,0,.32a.41.41,0,0,0-.17-.07h0s-.05.07,0,.13.15,0,.19.11,0,.08,0,.12h0v0h.05c.11.06.16,0,.2,0s-.14,0-.2,0h0l0,0h0s0-.07,0-.11l.05-.05.07.06s0,0,0,0v0l0-.05s.06,0,.11,0h0s-.05,0,0,0v0h0s0-.1-.07-.16.09,0,.09,0a.11.11,0,0,0-.12,0h0L35.77,14s0,0,0-.1h0l13.42-3.86h0L49.6,10h0l6.82-2a4.39,4.39,0,0,1,3.22.8l0,0,.1,0a9,9,0,0,1,2.19,2L64,13.49l0,0a.12.12,0,0,0,.08.09.11.11,0,0,0,0,0l4.71,5.92,0,0,.08,0,.91,1.14h-.05l0,0h0l0,0L70,21c-.06,0-.07,0,0,.07s0,0,0,0l.83,1A4.36,4.36,0,0,1,72,25.24s0,0,0,0h0a1.45,1.45,0,0,1-.21.51h0s0,0,0,0h0a1.4,1.4,0,0,1-.78.54l-.86.25c-.08-.05-.09-.05-.09,0l-.35.1v0c-.1,0-.19,0-.22.11l-2.34.67s0,0,0,0v0L66,27.8s-.06,0-.09,0l-.05.05-.13,0h0c0-.07.12-.1.1-.2h.06c.07,0,.08,0,.08,0h0s0,0,0,0,0,0,0,0l0,.06h0l-.08,0h0l-.08-.08s0,.06,0,.09h0a.27.27,0,0,1-.27,0h0l.12-.05c0-.12,0-.12-.07-.23s-.06.08,0,.13,0,.09,0,.15h0l-.17-.07h0l0,0v0h0c0,.1,0,.1.11.15h0l.07.2s-.14,0-.21,0l0,0-.79.23c-.09-.06-.13,0-.14,0l0,0-2.08.6c-.06,0-.11-.06-.16-.07h0a.2.2,0,0,0-.12-.08h0s0-.06,0-.08,0,0,0,.08h0a.21.21,0,0,0,.12.08h0a.47.47,0,0,0,.05.1h0l-5.31,1.53,0,0s0,0,0,0h0l-3.11.89a.09.09,0,0,0-.07,0h0s-.07-.05-.09,0,.06,0,.09,0h0l0,0-4.16,1.2h0s0,0,0-.07,0,0,0,.07h0l-2.83.81a3.16,3.16,0,0,1-1.75-.11h0a.39.39,0,0,1,0-.19.14.14,0,0,0-.11,0c-.08,0-.08.06-.13.08l0,0s0,0,0,0h.07a.09.09,0,0,1,0,.07,7.34,7.34,0,0,1-1.85-1s0,0,0,0l.12,0c.11-.06,0-.19,0-.28l.08,0h0s0,.07.06.09,0,0,.1-.05l.11,0c0-.06-.12-.14,0-.18l.15.06.08.09h0v0h0s.05.09.14.11l-.1-.12h0s.09,0,.11-.05l-.06-.24a.15.15,0,0,0-.15,0s0,.11-.06.13l-.07-.15s.1,0,.11-.06.14,0,.14-.07l0-.08s.06-.05,0-.1l-.12,0h0c0,.08-.07.07-.11.09h0l0-.09h-.1a.3.3,0,0,0,0-.08.15.15,0,0,1-.06-.11h0v0h0v0h0c-.08,0-.09.09-.12.15l-.05,0v0h0l0,0,.11.13,0,.07c0,.05.07.07.05.09H43c0,.06.07.07.1.11s0,.05,0,.06h0l-.08,0c-.1,0-.17,0-.17.13s-.06.11-.08.17h0a8.73,8.73,0,0,1-1.57-1.53l-3.32-4.17h0l.1,0h0a.25.25,0,0,0-.14-.06v0l-.61-.76v0h0v0l-1-1.27v0l.09,0s.08,0,0-.05a.47.47,0,0,0-.17,0l-1.3-1.64c.07,0,.06,0,0-.09s-.08,0-.08,0l-.81-1h.12V21.4s.1,0,.11,0,0-.08,0-.14-.11-.09-.19-.08.07.09.07.13l-.16.14-1-1.26s0,0,0-.08l-.07,0-.58-.74-.05-.06h0s.08,0,.05-.07h0s-.07,0-.05.07h0l-.13-.17h0a0,0,0,0,0,0,0l0,0h0a2.17,2.17,0,0,1-.15-.22h0c.08.06.17,0,.25.1s0,.07.06.09l0-.07.08,0s0,.06.1,0,0,0,0-.06h-.08a.28.28,0,0,0-.07-.16h0s0,0,0-.05h0s0-.06,0,0l.13.09a.29.29,0,0,0-.09-.17l-.12,0-.08,0h0a.06.06,0,0,0,0-.08l0-.15a.15.15,0,0,1,.12,0v.07c.09,0,.13,0,.1-.12a.68.68,0,0,0-.27,0s0,.06,0,.09-.12.06-.22,0-.16,0-.19.07c-.1-.17-.19-.35-.27-.51,0,0,0,0,0,0h0c-.05-.11-.09-.21-.13-.32a.13.13,0,0,0,0-.06l-.08-.05v0l.1,0a.15.15,0,0,1,.12,0h0l-.06,0a.17.17,0,0,0,0,.07.13.13,0,0,0,.08.1l.2,0c-.14.05-.21.12-.15.25a.63.63,0,0,0,.21.05v.12l.13,0h0a.1.1,0,0,0,.09.06l0-.07s0-.07,0-.11.11,0,.05-.09-.05,0-.1,0-.1-.06-.17-.05h-.08s0,0,0-.07a.8.8,0,0,1,.23,0c0-.1.09-.13.18-.15h0v.17a.36.36,0,0,1,0,.11l.15.1c-.06-.14.07-.16.05-.26s0-.11,0-.19,0,.08-.06.08h-.11c0-.07.09-.08,0-.16a.18.18,0,0,0-.18,0s-.09-.06-.11-.09a.16.16,0,0,1,0-.12.27.27,0,0,0-.12-.28l-.05,0c-.05,0-.07,0,0,.09l.09,0c0,.1-.06.12-.08.2s.06.08.07.13h0v0l.05,0h0s0,.1,0,.12-.13,0-.2,0l-.06-.07h0s0,0,0,0a1,1,0,0,1-.15-.21l-.06,0-.05.11h0a2.92,2.92,0,0,1-.11-1s0,0,0,0h0a1.37,1.37,0,0,1,.42-.91h0Zm0,2h0Zm.06.87s0,0,0,0l0,0a0,0,0,0,1,0,0A0,0,0,0,0,31.53,18.15Zm.43.13a.43.43,0,0,0-.17-.13c0,.06-.16.05-.09.19C31.76,18.28,31.9,18.33,32,18.28Zm.11-.16h0Zm.37,1.29s0,0,0-.05S32.4,19.4,32.44,19.41Zm.73.86h0s0,0,0,0,0,0,0,0Zm5,6.35h0s0,0,0,0,0,0,0,0ZM44,32.19v0h0s0,0,0,.06h0s0,0,0,0v0h0s0,0,0-.06h0Zm20-18.76h0l0,0ZM31.54,15.8h0c.05,0,.12,0,.15,0s0,0,0-.08l.11,0s0,0,0-.08a.21.21,0,0,0-.15,0l0,.14s-.08,0-.1,0a.08.08,0,0,0,0,.09h0v0ZM32.41,17c.07,0,0-.07,0-.09a.25.25,0,0,1,.16.1s0,0,0,0v0l0-.16-.13,0,0-.08s0-.09,0-.13-.06,0-.11,0-.11,0-.14,0C32.33,16.74,32.27,16.87,32.41,17Zm.33.07s.06.05.09,0S32.76,17,32.74,17Zm0,.16h0Zm.12.29,0,0a.07.07,0,0,0-.09,0S32.83,17.48,32.88,17.49Zm-.09-.15s0,0,0,0-.06,0-.06,0Zm-.22-.14s.06,0,.06,0h0Zm.19.31h0Zm0,.17s0,0,0,0,0,0,0-.06S32.77,17.65,32.78,17.68Zm.08.1s0,0,0,0S32.86,17.76,32.86,17.78Zm.08.1h0l0,0S32.94,17.85,32.94,17.88Zm-1-1.05s.06,0,.05,0l0,0S32,16.8,32,16.83Zm.33.4s0,0,0-.07S32.24,17.17,32.31,17.23Zm-.58-.63h0s0,0,0,0Zm.66,1h0a.06.06,0,0,0,0,0h0s0,0,0-.06h0s.08,0,.1,0l0-.07h0s-.07,0,0,.08h0s0,0,0,.06h0S32.37,17.52,32.39,17.56Zm.28.22h0Zm-1.22-.9a.13.13,0,0,0-.12,0h0s.05.06.12.06Zm.19-.13.06-.08-.27-.13h0c0-.06.07-.08,0-.16s-.07.06-.06.12a.17.17,0,0,0,0,.05h.08l0,.07c-.07.07-.07.07-.07.16l0,0Zm.33.5h0Zm-.19-.3s0,0,0,0S31.78,16.92,31.78,17Zm.12.12h0l0,0h0Zm.52,1.5s0,0,0,0S32.42,18.55,32.42,18.57Zm1.93,2.54h0s.11,0,.1-.06-.09-.05-.13,0S34.33,21.08,34.35,21.11Zm3.75,4.48a.08.08,0,0,0,.08,0s0-.06,0-.09h0v0h0S38.07,25.53,38.1,25.59Zm-3.16-4.07s0,0,0-.05S34.91,21.51,34.94,21.52Zm2.46,3.15h0Zm-3.94-5h0Zm2.95,3.79s0,0,0,0,.06,0,.06,0A.1.1,0,0,0,36.41,23.51Zm-3.28-4.12s0,0,0,.05S33.16,19.4,33.13,19.39Zm.54.75s0,0,0,0S33.67,20.12,33.67,20.14Zm.14.26s0,0,0-.07S33.75,20.35,33.81,20.4Zm-1.25-1.51s0,0-.05-.05S32.52,18.88,32.56,18.89Zm1.91,2.4c-.06,0-.11-.07-.14,0S34.44,21.35,34.47,21.29Zm2.34,3s0,0,0,0h0v0Zm-.1.4a.45.45,0,0,0,.32,0,.22.22,0,0,0-.19-.06Zm0-.26h0l.05,0s0,0,0,0h-.08s-.07,0-.08,0S36.65,24.42,36.68,24.42ZM36.56,24h0s0,.05,0,.07Zm-3.75-4.67h0s0,0,0,0v0h0Zm.27.36v0l0,0S33.12,19.72,33.08,19.7Zm.11.18v0h0v0Zm.42.57s.06,0,.06,0S33.62,20.43,33.61,20.45Zm.18.16s0,0,0,0h0s0,0,0,0S33.78,20.59,33.79,20.61Zm-1.34-1.38h0s0,0,0,0h0Zm.08.11s.08,0,.07-.06.13-.05.2-.09-.12,0-.19,0h0s0,0,0,0v0h0s0,0,0,0h0l0,.11S32.53,19.29,32.53,19.34Zm.22.13v0Zm0,.17v.08C32.87,19.73,32.88,19.71,32.79,19.64Zm.58.61h0l0,0s0,0,0,0h-.08s-.07,0-.09,0S33.34,20.26,33.37,20.25Zm.36.42s0,0,0,0S33.76,20.68,33.73,20.67Zm.32.36h0s.09,0,0-.09,0,.05,0,.09h0v0Zm1,1.34h0v0h0v0Zm-.08.24s.06,0,.06-.05A.33.33,0,0,0,35,22.4s0,0,0,.05l.07.16h0s0,0,0,0v0Zm1.36,1.78.05-.06h.18s0,0,0-.06h0c-.1,0-.27,0-.33.06S36.31,24.38,36.37,24.39Zm.16.1h0Zm3,3.76Zm-1.25-1.59,0,0s0,0,0,0,0,0,0,0ZM38,26.13c0-.05,0-.06-.08-.06h0a.22.22,0,0,0-.16-.06s-.05,0,0,.09a.38.38,0,0,0,.16,0h0S37.91,26.12,38,26.13ZM40.29,29h0Zm-2.58-3.23h0s-.06,0-.08,0,.06,0,.08,0h0Zm3.44,4.15s0,0-.06,0v0l0,0Zm-3.51-4.35h0s0,0,0,0h0Zm.24.15h-.05v0l.05,0S37.88,25.74,37.88,25.72Zm-.32-.62c-.09,0-.09,0-.07.11h0s-.11,0-.16,0,0,0,0,0a.19.19,0,0,0,.12,0s.08,0,.1,0l0-.07h0C37.56,25.2,37.59,25.17,37.56,25.1Zm.38.56c.06,0,.08,0,.07-.08s-.07-.06-.1-.14C37.82,25.56,37.82,25.56,37.94,25.66Zm3.83,4.74s-.05.06,0,.11S41.83,30.45,41.77,30.4Zm-3.3-4.28s-.09,0-.14,0S38.37,26.15,38.47,26.12Zm4.45,5.58,0,0v0ZM38.41,26l-.09-.07h0a.36.36,0,0,1,.21,0s0,0,0-.05a.5.5,0,0,0-.27,0l0,.07h0s0,.05,0,.1A.1.1,0,0,0,38.41,26Zm-4.28-5.58h0Zm-.53-.68v0h0Zm2.9,3.57v0h0S36.47,23.25,36.5,23.26Zm3.12,4.16h0v0Zm-.73-1h0Zm0-.12.08-.05s.08,0,.06-.06-.33-.08-.46,0,0,.11.09.16Zm-1.25-1.8h0ZM40.32,28V28a.17.17,0,0,0,.11,0s.08,0,.05-.12S40.35,27.94,40.32,28Zm1.88,2.36h0Zm-.78-1.07c-.08,0-.14,0-.15.05s0,.06.07.08S41.4,29.35,41.42,29.27Zm-.15-.21s.09,0,0-.1a.08.08,0,0,0,0,.1h0s0,0,0,0v0h0Zm.75.84c0,.12,0,.12.08.16S42.11,30,42,29.9Zm-8-10v0h0a0,0,0,0,0,0,0S34.05,19.86,34.07,19.86ZM34,19.65h0s-.06,0-.06.05a.12.12,0,0,0,.1,0h0l0,0v0h0v0h0a.14.14,0,0,0-.08-.07s0,.06,0,.09Zm4.4,5.56h0Zm-1.53-1.84h0Zm5.67,7.05a.13.13,0,0,0,0,.11h.05A.12.12,0,0,0,42.55,30.42ZM39.81,27v0l0,0s0,0,0,0S39.81,27,39.81,27Zm1.76,2h0s0,0,0,0Zm-.5-.58h0Zm-.44-.59h0Zm3.06,3.57s0,0,.05,0,0,0,0,0S43.7,31.4,43.69,31.41Zm.12.31c.1.06.08,0,.17,0a.37.37,0,0,0,.18,0l.19.09s0-.07,0-.13l-.17-.13-.1.06h0l0,0h0s0-.05,0-.08-.13,0-.15.06l0,.07h0C43.89,31.65,43.75,31.64,43.81,31.72Zm.65.1h0s0,0,0,0v0h0v0Zm-.2.32,0,0h0Zm-.12-.35L44,31.74,44,32a.2.2,0,0,0,.14.06A.3.3,0,0,0,44.14,31.79Zm.81.82h0Zm-.18-.37s-.05,0-.05,0S44.77,32.27,44.77,32.24Zm0-.45h0l0,0h0a.08.08,0,0,1,0,.07.07.07,0,0,0,0,.05h-.05s-.09-.06-.14-.05V32l-.11.05,0,.21.1,0s0-.09,0-.13a.27.27,0,0,0,.08-.07l0-.12h0l.05,0v0h0s.09,0,.1-.06A.08.08,0,0,0,44.8,31.79Zm-.3-.18s0,0,0,0-.06,0-.07,0Zm.54.07s0,0,0,0S45,31.71,45,31.68Zm1,1h0v0Zm0-.14H46s0,0,0,0,.06,0,.08,0S46.08,32.56,46.07,32.53Zm0-.14h0s-.06,0,0,0h0v0h0a.17.17,0,0,0,.08.06S46.09,32.4,46.05,32.39Zm-.56-.84-.07.05h0s-.07,0-.09,0,.06,0,.09,0h0s0,.06-.06.08-.12-.06-.15,0,0,.05.08.07h.16C45.51,31.7,45.58,31.66,45.49,31.55Zm1,1s-.08.05,0,.1S46.55,32.68,46.48,32.58Zm.17-.26v-.06l-.2-.11h0s.07,0,.06-.07h0s.05,0,0,0v0h0s-.07,0-.06.07h-.1l-.16.17.21,0c.06,0,.05-.08.11-.07S46.61,32.34,46.65,32.32Zm.67.64c-.09,0-.16,0-.2,0S47.25,33,47.32,33Zm-.14-.39c-.07,0-.13,0-.11.06s0,.06,0,.11l.09,0h.09C47.28,32.7,47.28,32.64,47.18,32.57Zm0-.35c-.07,0-.1,0-.14,0h0s0,0,0,0h0l0,0h0c-.08,0-.16,0-.11.14a.19.19,0,0,0,.14.07l.1-.1,0-.08h0S47.16,32.27,47.14,32.22Zm-.52-.28v0l0,0v0S46.61,32,46.62,31.94Zm.14,0c.06,0,.09,0,.1,0S46.77,31.87,46.76,31.91Zm-.13-.18s0,0,.06,0,0,0,0,0l0,0S46.62,31.73,46.63,31.73Zm.48,0h0s0,0,0,0h0Zm.32,0v0h0s-.07,0,0,.07l0,0s0,0,0-.09h0Zm.84.94a.1.1,0,0,1-.05,0s0,0,0,0a.05.05,0,0,0,0,0Zm.09,0s0,0,0,.05S48.39,32.73,48.36,32.72ZM48,32.15v.06c.05,0,.07,0,.07,0S48,32.18,48,32.15Zm.43.37s-.05,0-.05,0,.05,0,.06,0Zm0-.19c-.12,0-.18,0-.17.12S48.4,32.4,48.42,32.33Zm-.22-.41s-.06,0-.06,0S48.19,32,48.2,31.92ZM48,31.5h0Zm.74.17h0v0a0,0,0,0,0,0,0Zm-.42-.8s0,0,0,.05S48.34,30.88,48.31,30.87Zm.63.71h0v0Zm.88.79s-.08,0-.08,0a.1.1,0,0,0,.07,0S49.85,32.41,49.82,32.37ZM49.57,32s0,0,0,.06S49.6,32,49.57,32Zm-.76-1v-.09C48.73,31,48.73,31,48.81,31Zm.46.51h0ZM49,31.15v0h0s0,0,0,0S48.94,31.16,49,31.15Zm1.17,1.17-.14-.1s-.06,0-.12.07C50.11,32.37,50.12,32.37,50.13,32.32Zm-1-1.2s-.05,0-.05,0S49.1,31.14,49.1,31.12Zm.61.6h0l0,0Zm-.08-.56-.21,0h0l0,0v0h0v0h0v0h.05a.22.22,0,0,0,.21.05S49.66,31.2,49.63,31.16ZM49.26,31v0Zm-.16-.43.07.09h0s-.06,0,0,0h0v0h0c0-.06,0-.06-.07-.09h0Zm.1-.06h0Zm.43.19v0h0s0,0,0,0Zm1.24,1.24-.08,0v0s0,0,.05,0S50.88,32,50.87,31.92Zm.34-.06h0l.14,0-.21-.11a1.46,1.46,0,0,0-.47,0l-.1.12.31-.07a2.9,2.9,0,0,0,.34.07h0s0,0,0,0,0,.05,0,0l0-.07h0Zm-.52-.78h0Zm.57.43s0,0,0,.06S51.29,31.53,51.26,31.51Zm-.51-.63h0Zm.23.29h0Zm.49.47s0,0,0,.05S51.51,31.65,51.47,31.64Zm-.1-.21h0l0,0S51.37,31.46,51.37,31.43Zm.24.16h0s0,0,0,0h0Zm-.17-.35s-.08,0-.14,0-.08.05-.1.12S51.4,31.3,51.44,31.24Zm-.26-.35,0,0v0Zm.6.66h0v0Zm-1-1.29h0ZM52,31.55h0Zm-.33-.4v0h0s0,0,0,.09,0,0,0,0l0,0h0S51.73,31.17,51.67,31.15Zm.45,0a0,0,0,0,0,0,0s0,0,0,0,0,0,0,0Zm0-.23h0c-.07,0-.11-.08-.17-.1s0,0,0,.09l-.1,0h0c0,.07-.07.06-.06.11l.08.06c0,.05,0,.07,0,.05s0,0,0,0,.07-.07.14-.07a.69.69,0,0,0,.15-.07l0-.06h0Zm-.77-.4h0v0Zm.29.18-.06.05c.06.05.11.06.15,0s0-.14-.07-.21h0s0,0,0,0,0,0-.06,0l.05.07h-.11v.06S51.59,30.67,51.61,30.72Zm0-.43h0s0,0,0,0S51.58,30.31,51.59,30.29Zm.82,1h0l0,0S52.41,31.28,52.41,31.25Zm-.75-.88s0,0,0,.06l.11.06h0c0,.07,0,.07.1.13l-.1-.13h0C51.77,30.43,51.77,30.43,51.66,30.37Zm1.07.92v0h0l-.09,0h0c-.07,0-.11,0-.09,0a.08.08,0,0,0,.09.06h0l0,0v0h0s.08,0,0-.07h0Zm-1.16-1.18h0Zm.06.09,0,0s0,0,0,0S51.63,30.18,51.63,30.2Zm.56.36s-.07,0,0,.05.11.07.15,0l-.1-.07h0v0Zm.25.27h0v0h0S52.42,30.82,52.44,30.83Zm.41.57v0h0s0,0,0,.08l0-.08Zm-.14-.3s-.05,0-.06,0S52.71,31.13,52.71,31.1Zm-.69-1h0l0,0h0s-.08,0-.1,0,0,0,0,.06Zm1.19,1.3h0Zm-.11-.27h0a.37.37,0,0,0-.21,0,.06.06,0,0,0,.07,0l.14,0h0Zm-.87-.88s0,0,0,0S52.23,30.3,52.23,30.28Zm.2.18s0,0,0-.05S52.4,30.45,52.43,30.46Zm.66.53v.06C53.15,31.06,53.16,31,53.09,31Zm-1-1.19h0Zm0-.17s0,0,0,0l.08,0S52.17,29.64,52.13,29.63Zm.46.65c.06.06.1.07.14,0v0C52.65,30.25,52.61,30.24,52.59,30.28ZM52.32,30s0,.07.09.09S52.39,30,52.32,30Zm.53.73.09.07h0v0h0c0-.05,0-.09-.07-.13S52.84,30.66,52.85,30.69Zm.23.11c0,.05-.08.05,0,.11S53.14,30.9,53.08,30.8Zm-.16-.24h0Zm.58.46a.16.16,0,0,0-.15,0v.05C53.44,31.11,53.51,31.1,53.5,31Zm-.24-.19s.05,0,0,0l-.08,0S53.22,30.82,53.26,30.83ZM54,30s0,0,0,.05S54,30,54,30Zm0-.15h0a.15.15,0,0,0,.06-.11c-.06,0-.09,0-.1.05l0,.06h0v0Zm.52.53s-.05,0-.05,0S54.53,30.36,54.53,30.33Zm.51.51h0s0,0,0,0H55Zm-.09-.2s-.05,0-.06,0S55,30.67,55,30.64Zm-.23-.3s0,0,0,0h0S54.71,30.35,54.72,30.34Zm-.14-.26h-.06a.11.11,0,0,0-.08,0h0l0,0h0s.06,0,0,0,0,0,0,0h0s-.07,0-.06,0,.07,0,.1,0h0s.05,0,.08,0h0S54.57,30.12,54.58,30.08Zm.17.18h0ZM54.9,30a.3.3,0,0,0-.16-.05l-.06.06h0s0-.06-.08-.05,0,.05.08.05h0s0,.08.06.12,0,0,.14,0l0,.05h0s0,.07,0,.11h0v0h0s.06,0,.06,0l-.09-.07h0C55,30.08,54.93,30,54.9,30Zm-.62-.68h0Zm0-.18h0s0-.05-.05,0h.05S54.25,29.12,54.26,29.09Zm.79.92s0,0,0,.07.07.05.1,0A.23.23,0,0,0,55.05,30Zm0-.11h0s0,0,0,0S55,29.92,55,29.9Zm-.58-.83.06,0h0l0,0h0v0h0s.06,0,0-.05h-.08c-.06,0-.11-.07-.17-.06v0A.17.17,0,0,0,54.43,29.07Zm.5.44h0Zm.61,1h0Zm.17-.43h-.07s-.07,0-.08,0-.13,0-.2.05h0s-.08,0-.09,0,0,0,0,.05l0-.05h0l.15.14c0-.06.1,0,.12-.07v-.09h0l0,0S55.75,30.08,55.71,30Zm-.87-.82h0Zm0-.1h0Zm.69.3v0l0,0h0l-.05,0s-.06,0,0,0h.07l0,0h0v0s0,0,0,0h0Zm.06.13,0,0v0Zm-.16-.31c-.2,0-.2,0-.29.17l.08,0A2.12,2.12,0,0,0,55.4,29.24Zm1,1.16s-.05,0-.05,0S56.42,30.42,56.42,30.4Zm-.55-.76c-.08.05-.2.06-.25.15l0,.07h0s0,.07,0,.1a.21.21,0,0,0,.08,0,.1.1,0,0,0,.09,0h0s.08,0,.09,0l-.09,0h0a.12.12,0,0,0-.08,0l-.08-.09c0-.08.19-.06.25-.13S55.93,29.67,55.87,29.64Zm.16,0H56v0a.21.21,0,0,0,.13.05S56.08,29.63,56,29.6Zm-.44-.53v.05s.07.06.1,0A.12.12,0,0,0,55.59,29.07Zm.66.59h0a0,0,0,0,0,0,0S56.25,29.69,56.25,29.66Zm.35.15a.14.14,0,0,0-.11-.06l-.07,0h0c-.09,0-.09,0-.07,0l.07,0h0s.06.06.1.07S56.59,29.84,56.6,29.81Zm.2.24h0Zm.2-.15a.22.22,0,0,0-.29,0,.13.13,0,0,0,.12,0h.08S57,30,57,29.9Zm.15,0,0,0v0s0,0,0,0S57.15,29.89,57.15,29.87ZM57,29.58h0s0,0,0,0h0Zm.77.41c-.07.09-.07.09,0,.14Zm-.18-.35s-.09,0-.1.05S57.55,29.7,57.55,29.64Zm.35.32h0Zm-.3-.41s0,0,0,0h0s0,0,0,0S57.61,29.57,57.6,29.55Zm-.83-1.11,0,0v0Zm1,1.13,0,0s0,0,0,0Zm.27-.08h0Zm.13,0h0a0,0,0,0,1,0,0s0,0,0,0A0,0,0,0,0,58.19,29.48ZM58,28.94h0v0h0Zm.65.52c-.05,0-.05,0,0,0h0v0h0S58.64,29.49,58.63,29.46Zm-.46-.53h0v0Zm0-.18h0s0,0,0,0h0Zm-.08-.16h0Zm.72.58h0Zm.33.33h0v0Zm.24.18h0s0,0,0,0A0,0,0,0,0,59.34,29.68Zm-.52-.7V29s.07,0,.07,0S58.88,29,58.82,29Zm-.48-.71,0,.09C58.41,28.33,58.41,28.33,58.34,28.27Zm0-.11a.2.2,0,0,0-.14-.05h0s-.07,0-.08,0-.08.06-.07.12h0c-.08,0-.18,0-.24,0l0,0h0l-.1,0h0l0,0h0v0h0v0l0,0h0a.11.11,0,0,0,.13,0c.06.05.12,0,.18.06s.11.09.17.07a.06.06,0,0,0,0-.08L58,28.22h0l.14,0h0C58.26,28.22,58.31,28.23,58.33,28.16Zm-.44-.11h0l0,0Zm1.47,1.26h0Zm-.44-.61-.07.09s0,.08.1.09l0-.06s.09,0,.09,0S59,28.71,58.92,28.7Zm0-.1s0-.05-.05-.07l0,0-.07,0,.07,0S58.93,28.63,59,28.6Zm.37.37,0,0,0,0s0,0,0,0Zm-.77-1.14,0,0a0,0,0,0,1,0,0l0,0S58.56,27.86,58.55,27.83Zm.4.46h0s0,0,0,0h0Zm-.26-.35h0v0Zm.43.42.11.05C59.19,28.33,59.16,28.32,59.12,28.36Zm-.3-.44s0,0,0,0-.06,0-.06,0Zm0-.1s0,0,0,0l-.05,0a.25.25,0,0,0-.2.06Zm.46.44c.06,0,.08,0,.1-.09s0-.05,0-.07a.12.12,0,0,0-.06.16h0s-.06,0,0,.05.06,0,0-.05h0Zm-.12-.46h0v0Zm.68.76h0Zm-.14-.29a.52.52,0,0,0-.23.08.13.13,0,0,0,.09.07.22.22,0,0,0,.15,0S59.82,28.33,59.75,28.27ZM59.59,28h0v0h0s0,.06,0,.1.07,0,.1,0-.05-.08-.08-.12h0v0Zm.18.07h0v0h0s-.05,0,0,0v0h0Zm-.18-.29h0a.16.16,0,0,0-.13,0h0l0,0v0h0v0h.05a.13.13,0,0,0,.13,0h0s0,.06.07.06S59.62,27.78,59.59,27.77Zm-.07-.13h0v0ZM61.12,29l0,0s0,0,0,.05S61.13,29,61.12,29Zm-1-1.34h0v0h0s-.06,0-.08,0,.05,0,.08,0h0l0,0h0v0ZM61.2,29l0,.07h0s0,0,0,0v0h0l0,0S61.24,29,61.2,29Zm.16-.11c-.06,0-.08,0-.09,0S61.36,28.9,61.36,28.86Zm0-.2a.08.08,0,0,0-.1-.05s0,.05,0,.08S61.39,28.7,61.4,28.66Zm-1.07-1.25h0s0,0,0,0S60.33,27.43,60.33,27.41Zm1.49,1.26s0,0,0,.06.07,0,.06,0Zm-.26-.83s-.05,0-.05,0S61.56,27.86,61.56,27.84Zm.53.45h0s0,0,0,0S62.09,28.3,62.09,28.29Zm.2-.13s-.06,0-.08,0,0,0,0,0S62.3,28.21,62.29,28.16Zm0-.22s-.05,0-.05,0S62.24,28,62.24,27.94Zm.12-.22s0,0,0,.05S62.39,27.74,62.36,27.72ZM62,27.25s-.09.05,0,.13A.1.1,0,0,0,62,27.25Zm.8.82c-.05,0-.05,0,0,.05h0v0h0v0h0S62.83,28.11,62.81,28.07Zm-.05-.21v0h0a0,0,0,0,0,0,.05h0v0h0a0,0,0,0,0,0-.05h0ZM62,27h0Zm.71.37h-.08a.09.09,0,0,1-.09,0c0-.05.06-.07,0-.16s-.11,0-.17-.05,0,.08-.11.08,0-.11-.12-.13,0,.17.14.25.08-.07.16,0-.1,0-.06.1l.08.06h0s-.06,0,0,.05h.07s0,0,0,0h0l0,0h0a.51.51,0,0,1,.24,0S62.76,27.39,62.73,27.36Zm-.37-.47a.09.09,0,0,0-.1,0h0l0-.05h0l0,0h0s0-.05-.07-.05a.06.06,0,0,0,.07.05h0l.08,0h0s0,.06,0,.1S62.36,27,62.36,26.89Zm.84.8c-.09,0-.09,0-.09,0h0v0h0l.09,0s0,.1.15.12C63.3,27.75,63.28,27.7,63.2,27.69Zm-.58-.83s-.08,0-.09,0,0,.07,0,.13.12,0,.13-.08A.18.18,0,0,0,62.62,26.86Zm.77.88v0h0S63.33,27.72,63.39,27.74Zm-.75-1h0Zm1.1,1.33h-.07l0,0h0S63.73,28.14,63.74,28.1Zm0-.39v0h0s-.06,0,0,.05.05,0,0-.05h0Zm.17.07v0Zm-.07-.11h0Zm.44.12s0,0,0,.05S64.28,27.8,64.25,27.79Zm-.78-.95h0v0h0c0,.11,0,.12.15.22s0-.06,0-.11A.38.38,0,0,0,63.47,26.84Zm.41.33a.1.1,0,0,0-.1,0C63.8,27.19,63.84,27.2,63.88,27.17Zm.39.18h0Zm.72.71s0,0,0,0h0s0,0,0,0A0,0,0,0,0,65,28.06Zm-.2-1.16,0,.06a.18.18,0,0,0,.15.05C64.91,26.94,64.85,26.93,64.79,26.9Zm.7.28a.11.11,0,0,0-.08,0s0,0,0,0S65.49,27.21,65.49,27.18Zm.05-.21a.06.06,0,0,0,0,.09.23.23,0,0,0,.14,0S65.63,27,65.54,27Zm.64.62s-.05,0-.05,0S66.17,27.62,66.18,27.59Zm.15-.17h0v0h0s-.08,0-.09,0a.1.1,0,0,0,.14.06l0-.07h0S66.35,27.46,66.33,27.42Zm-.24-.2,0-.15-.17,0h0c0,.09,0,.09-.08.14l.08.08c0-.06.14,0,.2,0h0s.07,0,.09,0a.1.1,0,0,0-.09,0ZM66,27s0,0,0-.06,0,0,0,0S66,27,66,27Zm.37.23a.12.12,0,0,0-.09,0h0l0,.16C66.38,27.31,66.4,27.28,66.37,27.21Zm.13,0h0ZM66.44,27s0,0,0,.06,0,0,.06,0S66.47,27,66.44,27Zm-.52-.75h0s0,0,0,0h0S65.92,26.29,65.92,26.28Zm.45.35h0Zm.9.7h0Zm-.09-.2h0v0s0,0,0,0Zm0-.19h0Zm1.77-.08h0v0Zm.21-.18s0,0-.06,0S69.13,26.71,69.13,26.68Zm-.86-1.31h0Zm.15,0s-.06,0-.06,0a.11.11,0,0,0,.08,0S68.43,25.34,68.42,25.33Zm.29.11s.06-.06,0-.12.12,0,.12-.08.11,0,.12-.09-.16,0-.15.07-.11,0-.09.1l-.1,0h0s-.07,0-.1,0a.19.19,0,0,0,.1,0h0l.08.09h0s0,0,0,.06h-.07l0,0h0l0,0v0h0s0,0,0-.06h0Zm1-.07c-.1-.09-.13,0-.2,0l-.09,0a.46.46,0,0,1-.28,0s0,0,0,0,.16.08.24.11a.75.75,0,0,0,.34,0S69.68,25.38,69.69,25.37Zm.54.69h0ZM69,25.5s.13,0,.16,0-.07-.11-.13-.16l0,.07c-.09,0-.16,0-.17.07s0,0,0,0S68.94,25.5,69,25.5Zm.42.49h0s0,0,0,0h0A0,0,0,0,0,69.4,26Zm.67.37-.11,0,0-.08h0v0h0s-.08,0-.09,0l0,.09c0,.09-.12,0-.2,0v.06c.08.08.15,0,.24.06s-.14,0-.12.12h0v0h0l.12,0a.19.19,0,0,0,.1-.17s.08.06.12,0S70.12,26.39,70.07,26.36Zm.25,0s-.06,0,0,0l0,0,0,0S70.33,26.41,70.32,26.4Zm.07-.17a.22.22,0,0,0-.17,0s0,.06.06.09S70.39,26.29,70.39,26.23Zm-.8-1.06s-.06,0,0,0S69.59,25.19,69.59,25.17Zm.48.56h0l0,0h0S70.09,25.73,70.07,25.73ZM69.51,25h0l0,0h0Zm.53.6h0v0h0S70,25.65,70,25.64Zm.64.54a.09.09,0,0,0-.07,0s0,0,0,0a.07.07,0,0,0,.08,0S70.69,26.18,70.68,26.18ZM69.85,25l-.07.12,0,0h.1A.16.16,0,0,0,69.85,25Zm-.23-.11h0l0,0h0S69.6,24.88,69.62,24.87Zm.43.31h0s0,0,0-.07,0,.05,0,.07h0v0Zm.89,1s-.07-.07-.11,0A.09.09,0,0,0,70.94,26.16Zm-.79-1.33s0,.05,0,.07h0s-.07,0-.07.05.08,0,.07-.05h0S70.2,24.86,70.15,24.83Zm.24-.07v0Zm-.15-.2h0Zm1.33,1.37h0s0,0,0,0,0,0,0,0ZM70.43,24.5h0v0Zm0-.08h0Zm1.06,1.2a.16.16,0,0,0,.15.09A.16.16,0,0,0,71.54,25.62Zm-1-1.25,0,0h0s0,0,0,0S70.54,24.36,70.56,24.37Zm1.28,1,0,0h0s0-.06-.09-.05,0,0,0,.06h.1ZM71.51,25s0,0,0,.06h0S71.55,25,71.51,25Zm-2.18-2.81h0ZM69,21.65c-.08,0-.08,0-.08,0S69,21.68,69,21.65Zm1.06,1.27v0h0s0,0,0,0v0h0ZM65,16.45c-.14-.09-.14-.09-.18,0Zm-.7-.91h0Zm.34.44h0Zm-.81-1h0Zm1,1.37s.07,0,0-.11S64.76,16.25,64.81,16.32Zm-1-1.24h0Zm3.75,4.58s0,0,0,0S67.58,19.69,67.58,19.66ZM71.9,25h0s0,0,0,0h.08Zm-1-1.27s0,0,0,0,0,0,0,0h0ZM69.82,22v0h0s0,0,0,.05h0s0,0,0,0h0Zm0-.14h0l0,0h0v0h0v0h0S69.83,21.91,69.84,21.9Zm-1.07-1.39h0s-.07,0-.09,0,.06,0,.09,0h0Zm0-.16h0v0h0l0,0h0l0,0h0l0,0v0h0Zm-.24-.24s0,0,0,0S68.53,20.14,68.53,20.11Zm.71.75h0s0,0,0,0h0Zm-.72-.94-.09,0,0,.1h0c-.08,0-.15,0-.23,0s-.08,0-.06-.08.15,0,.13,0a.35.35,0,0,0-.21-.07c0,.09,0,.09.08.3l.12,0c0,.06-.18,0-.14.15l.09.07h0s0,.07,0,.11h0l0,0s0,.05.06,0l0-.07h.05s0,0,0,0h0l-.07-.1h0a.23.23,0,0,1,.16,0,.21.21,0,0,0,.15,0h0l-.06-.12s-.11-.07-.1-.13,0-.07.07-.09h0a.13.13,0,0,0,.08,0S68.54,20,68.52,19.92Zm-1.08-.55h0Zm-2.7-3.52s0,0,0-.06,0,0,0,.06S64.73,15.88,64.74,15.85ZM67.6,19.5v0Zm.13.19a.08.08,0,0,0,.08,0,.06.06,0,0,0-.06-.05S67.7,19.66,67.73,19.69Zm-2.82-3.86s0,0,0,0l-.09,0C64.82,15.84,64.82,15.84,64.91,15.83Zm.69.9v.06s.07,0,.06,0S65.63,16.74,65.6,16.73Zm-1-1.25,0,0v0Zm3,3.84s0,.05.06.06,0,0,0-.07.11,0,.09-.06-.09-.05-.12,0,0,.06,0,.09S67.55,19.29,67.54,19.32Zm.34-.23c.08.05.12,0,.19,0h0s0,0,0,0v0h0s0-.09,0-.16S67.84,19,67.88,19.09Zm-2.07-2.71h0Zm.07-.21c-.07,0-.09,0-.1,0S65.88,16.23,65.88,16.17Zm1.89,2.4h0s0,0,0,0,0,0,0,0Zm.46.75s-.08,0,0,.08.11,0,.12,0l-.08-.06h0v0Zm.07.3h0s-.08,0-.1,0a.33.33,0,0,0,.1,0h0Zm-2.5-2.87.07-.16C65.71,16.64,65.7,16.65,65.8,16.75Zm-.2-.36a0,0,0,0,0,0,0h0s0,0,0,0S65.56,16.39,65.6,16.39Zm.1.08h0Zm-.57-.8h0v0ZM66.07,17h0Zm1.71,2.16c.08,0,.08,0,0-.06S67.77,19.15,67.78,19.18Zm.21.18s.05,0,.05,0S68,19.33,68,19.36Zm-2.4-3.19,0,0s0,0,0,0,0,0,0,0ZM64.66,15h0l-.07,0h0a.09.09,0,0,0,.07,0h0S64.65,15,64.66,15Zm.3.56h0l0,0v0h0v0H65c.09,0,.09,0,.11,0A.18.18,0,0,0,65,15.57Zm-.65-.79s-.06,0-.09,0,0,.08.1.09S64.36,14.82,64.31,14.78Zm.07.26s.05,0,.05,0S64.38,15,64.38,15Zm.54.68,0,0h0l0,0Zm2.92,3.69a.1.1,0,0,0,.09.06h0a.08.08,0,0,1,0,0c-.06,0-.06.09-.06.15s0,0,0,0l.07,0v-.16s.07,0,.08-.06a.14.14,0,0,0-.14,0h0S67.89,19.4,67.84,19.41Zm1,.67h0s0,0,0,0h0S68.82,20.09,68.82,20.08Zm.56.5c-.06,0-.09,0-.09,0s.1.05.13,0S69.42,20.6,69.38,20.58Zm-.65-.88h0v0h0s0,0,0,0h0s0-.07-.09-.08-.09,0-.14.08h0a.1.1,0,0,0,.12,0l.11,0h0l0,0v0h0v-.06h0Zm-2.59-3.25h0Zm-.68-.87h0l0,0h-.12a.15.15,0,0,0,0,.07s-.11,0-.06.06l0,0C65.4,15.73,65.4,15.62,65.46,15.58ZM70,21.26h0v0h0ZM69.84,21s0,.07,0,.12h0S69.9,21,69.84,21Zm-1-1.36a0,0,0,0,0,0,0h0s0,0,0,0S68.84,19.66,68.82,19.64Zm-1.76-2.22s-.07,0-.07,0a.1.1,0,0,0,.08,0S67.07,17.42,67.06,17.42ZM66,16.15c.05,0,.06,0,0-.07S65.94,16.12,66,16.15Zm-.63-.88a.13.13,0,0,0-.1-.07l-.08.1s-.1,0-.11,0l.11.11c.06,0,.09-.09.17-.09s.08,0,.05,0h0l0,0h0l0,0h0v0h0Zm-2.87-3.42h0S62.49,11.82,62.49,11.85ZM64,13.74s0,0,0,0h0v0ZM63,12.55v0h0s0,0,0,0A0,0,0,0,0,63,12.55Zm1,1.35h0Zm-1.41-1.7h0Zm2.4,3.06s0,0,0,.05v0l.23-.14s0,0,0,0l-.09,0c-.07,0-.18,0-.2.13Zm-1.12-1.38v0h0s0,.09,0,.15h0a.5.5,0,0,0-.08-.14h0v0Zm-1-1.11,0,0-.05,0s0,0,0,0Zm-2.3-2.83c.08,0,.1,0,.09,0S60.57,9.89,60.56,9.94Zm0,.15c.09,0,.09,0,.08,0h0v0h0ZM59.55,9c.05,0,.06,0,0-.06h0l0,0h0s-.06-.1-.13-.12,0,0,0,0l0,.07h0C59.5,9,59.52,9,59.55,9Zm2.11,2.47h0s0,0,0,0l0,0S61.66,11.52,61.66,11.51Zm.28.38s0,0,0,0S62,11.9,61.94,11.89Zm-2.23-2.8h0Zm.07.1h0Zm.78,1.05h0Zm-.07-.1h0l0,0S60.49,10.17,60.49,10.14Zm-.16.1s.05,0,.05,0S60.33,10.22,60.33,10.24ZM60,9.94v0h0v0Zm.78,1,0,0h0s0,0,0,0S60.77,11,60.78,11Zm.9,1.19-.16,0c0,.06.06.13,0,.18s.05,0,.06,0a.41.41,0,0,1,.35,0,.58.58,0,0,0,.23,0s0,0,0-.05h.16v-.06l-.08,0-.11.07h0l0,0h0c-.07,0-.17,0-.26,0l-.12,0Zm1.12.67h0v0Zm1,1.34h0v0Zm0,.1s0,0,0,0h0v0Zm-.2,0v-.06C63.55,14.23,63.55,14.25,63.62,14.3ZM63,14.05h0Zm-1.58-2h0l0,0h0s0,0,0,0h0v0ZM58.47,8.36h0Zm.28.35s0,0,0-.05A.05.05,0,0,0,58.75,8.71Zm-.07.19a0,0,0,0,0,0,0h0s0,0,0,0Zm.13.39h0s0,0,0,0ZM57,8.55h0Zm-.36-.38h0ZM55.38,9.69h0s0,0,0,0h0a0,0,0,0,0,0-.05h0s0,0,0,.05h0S55.36,9.65,55.38,9.69Zm-1-1.06a.12.12,0,0,0,.08,0s0,0,0-.05S54.42,8.6,54.42,8.63Zm-1.06.56,0,0s0,0,0-.05Zm.51.76v0h0s.06,0,0-.06-.08,0,0,.06h0S53.82,9.92,53.87,10Zm.17.13Zm.22.27v0h0Zm-.18,0c.06,0,.06,0,.05-.05h0v0l0,0h0l0,0h0S54.07,10.26,54.08,10.3Zm-.18-.08s.06,0,.06,0S53.9,10.2,53.9,10.22Zm-.31-.34h0v0h0v0h0Zm.25.72h0Zm-.16-.17h0l0,0h0s0,0-.07,0A.06.06,0,0,0,53.68,10.43Zm.15.37v0a.1.1,0,0,0,0,0S53.79,10.78,53.83,10.8Zm-.21,0c.08,0,.08,0,.1-.06l-.06,0A.07.07,0,0,0,53.62,10.85Zm-.24-.23h0ZM53,10.47s.06,0,.06,0S53,10.45,53,10.47Zm.2.56c.05,0,.07,0,.05,0h0s.06,0,0,0,0,0,0,0h0A0,0,0,0,0,53.23,11Zm-.31.13h0Zm-.8.18h0ZM51.75,11h0v0Zm-1.83-.9s0,0,0,0,0,0-.06,0S49.91,10.05,49.92,10.06Zm.13.6v0Zm-.48-.58h0Zm.37,1s0-.07-.07-.1S49.88,11,49.94,11.06Zm-.76-.84s0,0,0,0h-.05S49.15,10.22,49.18,10.22ZM50,11.29s.07.05.1,0L50,11.19h0A.08.08,0,0,0,50,11.29Zm-.74-.89h0v0h0v0h0Zm.25.42h0s0,0,0,0S49.52,10.79,49.51,10.82Zm-.12-.08h0v0h0Zm.49.76s0,0,0,0h0v-.06h0v.06h0v0Zm-.4-.43h0s0,0,0,0Zm0,.32s0,0,0,0S49.43,11.36,49.43,11.39ZM49,11.11h.07l-.05,0S49,11.08,49,11.11Zm.32.49h0s0,0,0,0Zm.06.17s.05,0,.06,0S49.38,11.74,49.37,11.77Zm0,.11h0Zm-.18-.07h0v0Zm0,.11v0h.07l0,0h0l0,0h0s0,0,0,0v0Zm-.58-.53h0ZM49,12c0-.06,0-.09-.06-.13S48.94,11.94,49,12Zm-.5-.35s0,0,.06,0v0S48.52,11.63,48.52,11.65Zm.24.31h.08s0,.06.09,0a.11.11,0,0,0-.09-.07C48.74,11.91,48.73,11.91,48.76,12Zm-.12.15s0,0,.08,0,0-.05,0-.08h0S48.63,12.07,48.64,12.11Zm-.14,0v0h0s0,0,0,0v0h0S48.45,12.13,48.5,12.15Zm-1.28-.32a.34.34,0,0,0,.3,0,.05.05,0,0,0,0-.08.08.08,0,0,0-.09,0s0,0-.06,0-.06,0-.08,0Zm-.26.6.18.07h0v0h0a.56.56,0,0,0,.13-.28.4.4,0,0,0,.25-.13l0-.05h0v0h0a1.21,1.21,0,0,1-.34.07l0,.07-.06,0s.05.12,0,.16S47,12.37,47,12.43Zm-.47,0h0l0,0h0S46.47,12.43,46.49,12.43Zm0,.1h0Zm0,.12h0Zm0,.1.06,0,.06,0-.07,0Zm.18.15h0l0,0s0,0,0,0ZM45.87,12h0Zm.51.7s0,0,0,0S46.38,12.66,46.38,12.69Zm.27.28h0v0Zm-.29,0h0s0,0,0,0h-.07ZM46,12.69c.05,0,.05,0,0,0h0v0h0S46,12.66,46,12.69Zm0,.24v0h0s.09,0,.08-.07-.09,0-.08.07h0Zm.13,0s.05,0,.06,0S46.06,12.94,46.05,13Zm-.33-.27v0Zm-.52-.5h0Zm0,.22h0Zm.16.27h0Zm0,.23v0l0,0S45.38,12.9,45.42,12.91Zm-.88-.36s0,0,0-.06S44.47,12.51,44.54,12.55Zm-.44-.12v0h0s0,0,0-.05,0,0,0,.05h0Zm.16.52c.13.07.21,0,.32,0l.05-.07h0a1.38,1.38,0,0,0-.27-.08C44.35,12.9,44.19,12.84,44.26,13Zm.32.38.08-.09.15-.09-.2,0-.1.12S44.5,13.3,44.58,13.33Zm0,.15h0l0,0Zm-.8-.89V12.5C43.75,12.55,43.75,12.55,43.82,12.59Zm.26.37,0,0v0l0,0S44.07,12.94,44.08,13Zm0,.18-.07.1c.09,0,.17.06.24,0v0h0v0h0a.28.28,0,0,1-.17-.07h0v0Zm.31.3h0Zm-.1.09s.06,0,.06,0S44.3,13.5,44.3,13.53Zm-.41-.3h0v0Zm0,.15.14.1c0-.05.13,0,.15-.05A.46.46,0,0,0,43.85,13.38Zm-.5-.21h0s-.06,0,0,.05h0s0,0,0,0h0s0,0,0,0Zm-.77-.64h0a.21.21,0,0,0,.2,0s0-.08-.08-.12l-.12.08h0Zm.78.88s0,.07,0,.09,0,0,0,0l-.07-.05h0v0Zm-.55-.06c.06,0,.09,0,.1,0S42.82,13.32,42.81,13.35ZM42.42,13s0,0,0,0,0,0,0,0A.06.06,0,0,0,42.42,13Zm0,.09h0Zm-.2,0h0v0h0Zm0,.25h0v0Zm.1.59s0,0,0,0S42.27,13.85,42.27,13.87Zm-.51-.58a0,0,0,0,0,0,0s0,0,0,0h0Zm-.12.16s.06,0,.06,0l0,0S41.63,13.43,41.64,13.45Zm-.8-.86h0s0,0,0,0Zm.6.95h0l-.13,0v.16a.11.11,0,0,0,.09,0c.05,0,.05-.08,0-.14h0v0Zm.41.63h0Zm-1-1.28s0,0,0,0h0S40.86,12.88,40.89,12.89Zm0,.23.15,0C40.86,13,40.84,13,40.89,13.12Zm.55,1s.05,0,.06,0S41.44,14.08,41.44,14.11Zm-.38-.19h0l0,0h0Zm-.09.3a1.14,1.14,0,0,1,.28,0h0a.25.25,0,0,0-.27,0S40.9,14.16,41,14.22Zm-.84-.89h0v0h0Zm-.12.24s0,0,0-.06S40,13.55,40,13.57Zm.38.68s.07,0,.07,0S40.39,14.21,40.39,14.25Zm-.66.12.17.12.13,0,0-.15.09.08h0c0,.07,0,.07.09.12l-.09-.12h0a.07.07,0,0,0,0-.1l-.08-.06h0l.09,0h0a.35.35,0,0,1-.09-.07c0-.08-.09-.09-.15-.1h0s-.08,0-.09,0a.09.09,0,0,0,.09,0h0l.15.2h0l-.14,0-.06.11A.18.18,0,0,0,39.73,14.37ZM39,13.55c.08-.05.08-.05,0-.12A.09.09,0,0,0,39,13.55Zm-.37-.29s0,0,.07,0,0,0,0,0,0,0-.07,0S38.62,13.25,38.63,13.26Zm-.06.11v0s-.06,0-.06,0A0,0,0,0,0,38.57,13.37Zm0,.12a.65.65,0,0,0,.21,0h0l0,0h0s-.06,0-.06.07.07.07.13,0,0-.08-.07-.12h0v0h-.06C38.67,13.41,38.67,13.41,38.6,13.49Zm1.09,1.19c.09.07.12.06.15,0A.26.26,0,0,0,39.69,14.68ZM39.07,14V14s-.06,0,0,0A0,0,0,0,0,39.07,14Zm.06.1h0Zm0,.26-.16,0c.1.09.1.15.06.2s-.1,0-.12,0v.07a.68.68,0,0,0,.29,0s0,0,0,0a.06.06,0,0,0,0,0l-.08-.16c.06,0,.12,0,.16,0a.24.24,0,0,0,0-.13C39.2,14.28,39.22,14.36,39.17,14.37Zm-.53-.59s0,0,0,0h0s0,0,0,0v0h0S38.63,13.74,38.64,13.78Zm-.21-.09h0s0,0,0,0A.06.06,0,0,0,38.43,13.69Zm-.25-.24,0,0v0l0,0A0,0,0,0,0,38.18,13.45Zm.18.38.24.1h.06c.08,0,.08,0,.09,0h0v0h0l-.09,0h0l-.08-.11a.41.41,0,0,0-.21,0Zm.1.11h0v0Zm-.18.49h0l.09,0h0s0,.06.11.08h.06l.07,0,0-.08s0,0,.08,0a.18.18,0,0,0,.24-.1h0a.11.11,0,0,0,.1,0s0,0,0-.07,0,0-.07,0h0l-.26-.14,0,0,0,0c0-.06.06-.05.1-.08h0c.14.05.16,0,.13-.07l-.13.07h0s0-.06-.06-.09a.18.18,0,0,0-.17.07s.06.1,0,.14h0s-.06,0,0,0h0s0,.06,0,.1l.09.08h-.11l-.06.08h0l-.09,0Zm-.11-.1h0l0,0Zm-.06.43,0,0a.09.09,0,0,0,.1,0c0-.08.14-.07.27,0l-.12-.15c0,.06-.14,0-.21,0Zm.4.07h0Zm-.22.15s.11,0,.05-.11S38.27,14.92,38.29,15Zm-.22,0s.07,0,.1,0S38.13,14.92,38.07,15Zm-.21.2s.06-.05,0-.12h0c.08,0,.12.09.19.11s.07,0,.07,0L38,15s0-.09-.09-.11-.08.05-.06.11h0s-.1,0-.11.05A.09.09,0,0,0,37.86,15.16Zm.32.06v0Zm-.08,0h0a0,0,0,0,0,0,0v0Zm-1.55-1.19s.06,0,.06,0S36.55,14,36.55,14.07Zm.27.34s0,0,.06,0S36.83,14.39,36.82,14.41Zm0,.24s0,.06,0,.11l.06,0h0s0,0,.07.06,0,0-.07-.06h0A.18.18,0,0,0,36.82,14.65Zm.66.9h0Zm-1.21-1.41v-.08h0v0l0,0h0l0,.05h0v.08Zm.34.59v0h.09s0-.06,0-.09,0-.06,0-.11l-.12-.08a.19.19,0,0,1,0,.2l.08.07h0S36.55,14.7,36.61,14.73Zm-.06.17a.13.13,0,0,0,.11,0s.07-.07,0-.15S36.55,14.83,36.55,14.9ZM36,14.1h0v0h0s0,0,0,0a0,0,0,0,0,0,0l0,.07h0Zm.16.38s.05,0,.06,0h-.06Zm.25.31s0,0,0-.06-.1,0-.09,0S36.39,14.78,36.41,14.79Zm.29.39,0,.07h0c0,.06.07.13.17.13h0s.07,0,.09,0-.06,0-.09,0h0s0,0,0-.05.12,0,.14-.1L37,15.13h0v0h0l0,0h0c-.05,0-.13,0-.19,0S36.7,15.14,36.7,15.18Zm.4.18s0,0,0,0v0S37.1,15.33,37.1,15.36Zm-.16.18h0v0h0s0,0,0,0v0h0Zm-.36-.43L36.51,15c0,.09-.09.13-.1.2l-.07,0a.4.4,0,0,0,.07.18.22.22,0,0,0,.14,0,.66.66,0,0,1,0-.14C36.55,15.2,36.62,15.18,36.58,15.11Zm-.39-.45s0,0,0-.07S36.12,14.6,36.19,14.66Zm.14.29c.06,0,0-.12,0-.19l-.1,0c.06.06.09.08.08.12S36.25,14.92,36.33,15Zm-.76-.33.08.05c0-.06,0-.08-.07-.09h0S35.55,14.61,35.57,14.62Zm-.45-.19s0,0,0-.07S35.05,14.37,35.12,14.43Zm.06.09h0v0Zm-.34-.14a.29.29,0,0,0,.14,0,.11.11,0,0,0-.07-.12s0,0-.07,0Zm.15.2h0Zm-.4,0,0,0h0v0h0l.09,0h0a.11.11,0,0,0,.1.06c0-.06,0-.08,0-.13l0,0c-.08,0-.07.06-.11.09h0l-.07-.08-.06.06h0Zm.37.61h0s0,0,0,0v0h0l.05,0v0h0s0-.07,0-.12a.47.47,0,0,0-.06-.09h0l.09,0h0l.09.07a.21.21,0,0,0,.05.25l0-.11.08,0s0,.09.09.11,0-.09.07-.1,0,.1.14.12l.07,0,.18,0h0c0-.06,0-.07.09-.08s0,0,0-.08h0l.08,0h0l0,0h0s-.1,0-.08.06.1,0,.08-.06h0l.07,0a.13.13,0,0,0-.11,0h0a.11.11,0,0,0-.08,0h0l0,0v0h0a.42.42,0,0,1-.22,0c0-.08.12-.08.18-.12l0-.07s.1,0,.1,0a.34.34,0,0,1-.08-.14h0s.06,0,0-.05,0,0,0,.05h0a.42.42,0,0,0-.26.06c-.06,0-.12-.07-.18,0s0,0,0,0l.06.08.12.05c-.06,0-.07.11-.16.12s-.16-.09-.22,0,0-.08,0-.12a.15.15,0,0,0,0-.15h-.09s0-.05,0,0h.06a.13.13,0,0,1,0,.13l-.12,0h0l0-.05h0s.07,0,0-.05h0s0,0,0,0h0c-.1,0-.11,0,0,.08h0a.23.23,0,0,0,.06.21H35l0,0Zm1.51.37h0Zm-.2-.21h0s-.1,0-.09.06.11,0,.09-.06h0v0Zm-.06.35c.07,0,.1,0,.07-.08S36.17,15.6,36.21,15.67Zm-.16-.31s-.06,0-.06,0S36.05,15.39,36.05,15.36Zm0,.21s0,0,0-.08a.85.85,0,0,0-.24-.09h0l0,0h0l0,0h0l.07.11c0,.07-.06.09,0,.15l.08.06a.25.25,0,0,0,0,.17L36,16v-.18L36,15.73s0,0,0,0,0-.1,0-.11h0l0,0v0h0Zm-.85-.22s0,0,0,.07,0-.05,0-.07S35.21,15.33,35.2,15.35Zm-.73-.68s.06,0,.06,0S34.48,14.64,34.47,14.67Zm.08.33s0,0,0,0l0,0s0,0,0,0Zm.32.46c.05,0,.09.09.16.09s0-.05,0-.09.09-.07.09-.15l0,0c-.08,0,0,.07-.12.05l-.05,0,0,0h0v0h0l0,.06C34.87,15.38,34.88,15.42,34.87,15.46Zm.19.25a.13.13,0,0,0,.14,0h0a.1.1,0,0,0,.12,0h0v.1a.18.18,0,0,0,.14,0l0-.06h0a.19.19,0,0,0,.24,0,.25.25,0,0,0-.14-.11c0,.05,0,.11-.1.13h0c0-.06,0-.13-.09-.18s0,.09-.08.11h0a.14.14,0,0,0-.12,0h0l0,0h.08l.2-.15s0,0,0,0l.16-.06s0,0,0-.09-.13,0-.18,0h0a0,0,0,0,0,0,0h0a.05.05,0,0,0,0,0h0v.1l-.13.05s-.13,0-.15,0l0,.11H35Zm.5-.21s0,0,0,.05S35.59,15.52,35.56,15.5Zm.07.43h0s-.06,0,0,.05,0,0,0-.05h0v0Zm-.19,0h0v0h0s-.07.07,0,.14,0-.08,0-.14h0v0Zm-.08.23s0,0,0,0h0l-1.9.55a.74.74,0,0,0-.51.89v0h0s0,0,0,.05h0A1.22,1.22,0,0,0,33,18,.05.05,0,0,0,33,18l0,.12a.66.66,0,0,1-.21-.15h0s.06,0,0-.05,0,0,0,.05h0a.15.15,0,0,0-.11.08L32.51,18h0s.06,0,.06,0-.12-.07-.14,0l.08.06h0l-.33.09c.13,0,.14.12.2.17a.4.4,0,0,0,.15,0c0-.05.09-.08.08-.15s0-.06.07-.07,0,.11,0,.2l.11,0,.06-.09c.06,0,.09.11.16.1h0l0,.05h0s0,0,0,.06h0l-.05.06a.25.25,0,0,0-.19-.09.11.11,0,0,0,0,.05c0,.06,0,.13,0,.2s.14.05.19,0,0-.09,0-.14l.09,0,.08.09c0,.08-.17.07-.13.2l0,.06h0s0,0,0,0v0h0a.33.33,0,0,0,.16-.15s0,0,.05,0a.31.31,0,0,1,.07.17l-.09.08,0,.14-.07.09h0c-.05,0-.07-.12-.16-.13h0a.09.09,0,0,0-.08,0h0L32.87,19h0v0h0c0,.06,0,.06.08.09h0l0,.05h0v0h0c-.07,0-.09.07-.06.14s.07,0,.1,0a.15.15,0,0,0,0-.16h0v0h0a.3.3,0,0,0,.16.13h0l.13.08h0l0,0h.06c.05,0,.1,0,.13,0h0c.07.07.07.07.17.06h0c.09.08.16,0,.24,0l0-.06h0L37,23.28a.17.17,0,0,0-.12,0h0a.18.18,0,0,0,.1.07h.07l1.58,2h-.06a.11.11,0,0,0-.06.1.27.27,0,0,0,.18,0l1.55,2s0,0,0,.07-.06,0,0,.11a.08.08,0,0,0,.08-.05l2.13,2.68a4.59,4.59,0,0,0,1.4,1.16h0s-.07,0-.09,0,0,0,0,.06l0-.05h0l.08,0h0a1.94,1.94,0,0,0,1.28.22l3.63-1h0L50.85,30h0A.11.11,0,0,0,51,30s0,0,0-.06L59,27.61a.08.08,0,0,0,0,.07h0v0h0s.1,0,.11-.06,0,0,0,0l1.48-.43s0,0,0,0,.07,0,.08-.06l1.23-.35h0s-.06,0-.06.05a.18.18,0,0,0,.09,0s0-.06,0-.09h0s0,0,0,0l5.7-1.63h0l.18-.05h0s0,.05.06.08l.19.06v.08h0l.19-.09a.1.1,0,0,0,0-.11l-.08-.06h0v0h0v0h0a1.71,1.71,0,0,0-.32,0l1.71-.49c.62-.18.68-.91.2-1.74h0v0h0v0h0c-.08-.14-.18-.27-.28-.41l-3.66-4.6h0L63.5,14.85l.06,0s0-.1.06-.11l.11.05,0-.1a.24.24,0,0,0,.15.09.35.35,0,0,1,.14.06,0,0,0,0,0,0,.06h0v0h0s0,0,0,0,.09-.09.07-.17l-.09,0,.09-.08a.31.31,0,0,0-.11-.25c-.05.07,0,.18-.18.15s-.09-.07-.13,0,.09.07.07.11l-.18-.05s0-.09-.08-.12l-.12.2c0,.06.06.12,0,.16h0s0,0-.08,0l0,0-.71-.89h0l0,0,0-.05h0L61.23,12h0s0-.05,0-.08a.1.1,0,0,0-.05,0l-.61-.76a3.26,3.26,0,0,0-.51-.54h0s0,0,0,0h-.07a2.73,2.73,0,0,0-2.23-.86L53.46,11h0l-1.89.54h0l0,0-3,.88a.16.16,0,0,0-.1-.08h0l0-.05h0s.12,0,.1-.07l-.09,0s0,.07,0,.11h0a0,0,0,0,0,0,.06h0c-.07,0-.09.08-.13.12v0l-2,.57h0l-.12,0a.1.1,0,0,0,0,0l0,0a.06.06,0,0,0,0,.08l-.45.13,0,0c-.05.07-.21,0-.27.09h0l-3.5,1h0a.13.13,0,0,0-.1,0s-.09,0-.09,0h.09l0,0-1.65.48v0c-.06,0-.09,0-.09,0l-.11,0,0,0h0l0,0s0,0-.06,0l0,.06h0s-.06,0-.06.06l-.28.08c0-.08.14-.13.08-.25a.14.14,0,0,0-.13-.08l-.09,0c0,.07-.06.18-.17.2l-.1,0,0,.08,0,0a2.59,2.59,0,0,0,.37.11l-1.55.45h0s-.07,0-.06,0h0l-1.37.4,0,0h0s0,0,0,0l.12,0v-.06s.11,0,.14-.05l-.09,0c0-.05,0-.07,0-.13s-.06,0-.07,0-.05,0-.09,0a.56.56,0,0,0-.24.17h0l-.15.06s0,0,0,.08.1,0,.15,0h0l0,0-.42.12,0,0h0v0h0l-.05.06-.38.11h0S35.37,16.18,35.36,16.2Zm4.73,11.06h0Zm-.4-.6s0,0-.06,0S39.69,26.69,39.69,26.66Zm-1.57-2s0,0,0,0S38.12,24.73,38.12,24.7Zm-5.47-6.2s0,0,0,0,0,0,0,0h0S32.67,18.53,32.65,18.5Zm.11.18s0,0,0,0l0,0h0Zm-.17-.31h0Zm-.66-2.66h0Zm1.71,1a.31.31,0,0,0-.16-.1.25.25,0,0,0-.18.06C33.43,16.67,33.56,16.73,33.64,16.67Zm0-.11h0s0,0,0,0h-.06s0,0,0,0Zm.46-.21s0,0,0-.07-.12-.07-.13,0A.27.27,0,0,0,34.09,16.35ZM34,15.67h0Zm.21-.22v0h0l.05,0v0h0s.07,0,.05-.05-.11,0-.13,0h0Zm.26.43c0,.17,0,.17.05.19a.11.11,0,0,0,.08-.12C34.49,15.86,34.48,15.85,34.44,15.88Zm.3.43h0s-.1,0-.09.06.1,0,.09-.06h0v0Zm-.18-.06v0h0s0,0,0,0S34.58,16.24,34.56,16.25Zm-.07-.08s-.05,0-.06,0S34.48,16.2,34.49,16.17Zm.57-.33s0,0,0,0l-.07,0S35,15.83,35.06,15.84Zm-.94-1.19a.06.06,0,0,0,0-.08H34C34,14.65,34.07,14.66,34.12,14.65Zm.44.73v.08a.23.23,0,0,0-.1-.07s0,0,0,.07a.12.12,0,0,0,.1,0c.09.07.13,0,.14,0S34.61,15.38,34.56,15.38ZM34,14.76s.06,0,.06,0S34,14.73,34,14.76Zm.31.42h0c.05,0,.06,0,.05,0h0l0-.09c-.06-.05-.07-.11-.16-.14l-.05.06a.43.43,0,0,1,0,.07.64.64,0,0,1,0,.07S34.2,15.19,34.26,15.18Zm.57.76s0-.07,0-.1a.42.42,0,0,1,0-.12s0-.05-.05-.06-.08.07-.07.13A.19.19,0,0,0,34.83,15.94Zm-1.38-1.08c.06,0,.08,0,.12,0h0c.1.05.15,0,.23,0a.06.06,0,0,0,0-.08c-.1,0-.15,0-.23.05h0C33.46,14.8,33.46,14.8,33.45,14.86Zm-.28-.11h0v0Zm.22.42h.07v-.1h0l.06,0c0-.06-.08-.07-.11-.1a.94.94,0,0,0-.09-.12c-.05,0,0,.07,0,.11h0v0h0a.14.14,0,0,1,.09.05l.07.08h0C33.4,15.08,33.36,15.1,33.39,15.17Zm.07.12s-.09,0-.09.07.1,0,.13,0l0-.07h0l.09,0h0c0,.05.09,0,.13,0h0l0,.09h.13v.1h0l-.05,0h0s0,0,0,0h0l0,0h0v0h0v0h0v-.06h0c.07,0,.1.08.16.1h.11c-.14-.06-.08-.09-.08-.13L34,15.37v-.11c-.08,0-.06,0-.13,0l-.1-.11h0s.07,0,.06-.08h0l.09,0h0l.09,0h0a.11.11,0,0,0,.1.06v0c-.06,0-.09,0-.11,0h0l-.08,0h0l0-.09c-.08,0-.16-.06-.18,0l0,.07h0s0,.07,0,.11h0s-.08,0-.05.08h0l-.09,0h0c-.08,0-.08,0-.09,0Zm-.24-.2s0,0,0,0S33.21,15.12,33.22,15.09ZM33.1,15v0h0s.06,0,0,0-.05,0,0,0h0S33.05,15,33.1,15Zm.59.81h-.15V16h0v0l0,0h0s.08,0,.09.08h0s-.07,0-.06,0l.12.09h0s0,.07.05.09,0,0,0-.05h0v0h0v-.06a3.12,3.12,0,0,0,.44,0c0-.06,0-.1-.08-.14h0l-.05.05c-.07,0-.12,0-.18-.05h0l0,0-.06,0,0-.09s.12-.05.09-.13S33.75,15.79,33.69,15.82ZM33,15.34a.24.24,0,0,0,.14,0v0a.13.13,0,0,0-.11-.05S33,15.29,33,15.34Zm.05.28c.08,0,.08,0,.07-.07a.08.08,0,0,0-.1-.07S33.07,15.56,33.09,15.62Zm.18.33c0-.07.1-.07.16-.09l0-.1s-.06,0-.08,0,0,0-.08,0h-.09C33.21,15.86,33.18,15.91,33.27,16Zm-.64-.69h0Zm.42.54h0Zm-.2-.18h0Zm0,.22c.05,0,.07,0,.08,0S32.9,15.81,32.9,15.84Zm-.57-.6h0s0,.05.08.06,0-.05-.08-.06h0Zm.41.65a.83.83,0,0,1,0,.38h0c0,.08,0,.08.1.12l-.1-.12h0l.24-.06h0l0,.05s-.11,0-.1.06a.21.21,0,0,0,.14,0c0,.08-.12.05-.12.12s.12,0,.19,0l.05.11h.08s0-.11,0-.16.16.08.23.06l.11-.08-.1-.05,0-.07L33.43,16l0,0c-.08,0,0,.11,0,.15l-.11.09a.88.88,0,0,0-.28,0h0l-.08-.06s0,0,0-.09,0-.21-.17-.32S32.72,15.83,32.74,15.89Zm-.18,0c-.07,0-.1-.08-.16-.08v.06C32.45,15.9,32.5,15.93,32.56,15.89Zm-.62-.54s.06,0,0,0h0s.06,0,.05,0-.06,0-.05,0h0S31.92,15.3,31.94,15.35Zm.31.39v0h0s.07,0,.1-.09h0a.14.14,0,0,0,.13.05s0-.08-.07-.12h0v0h0l-.06.07h0c-.06,0-.1,0-.11,0a.28.28,0,0,0,0,.09h0S32.2,15.72,32.25,15.74Zm.8,1.1h0v0h0s-.1,0-.09.06A.09.09,0,0,0,33,17a.08.08,0,0,0,0-.1h0v0Zm-.16-.15h0Zm-.24-.25s0,0,0,0,0,0,0,0Zm-.52-.61h0Zm.15.25h0Zm-.63-.62.06,0a.06.06,0,0,0,0-.09C31.66,15.41,31.66,15.41,31.65,15.46Zm2.12-.38h0l-.09,0h0Zm-2,3.51ZM65.42,27.7ZM33.09,16.28l-.05,0,0,0Zm1.13-.79h0l0,0h0a.08.08,0,0,0-.08,0h0l0,0Zm-.53.76h0l.08,0h0l0,0h0l-.05,0Zm1.49-2.15-.09,0h.06ZM33.82,16a.52.52,0,0,0-.28,0h0l0,0h0a.35.35,0,0,1,.18,0,.34.34,0,0,0,.1,0h0Zm-2,2.46s0,.05,0,.1l.18-.05A.28.28,0,0,0,31.84,18.43Zm0,.15,0,0,0,0Zm2.38-3.44,0,0h.05ZM32,18.48l0,0v0Z"/></g></g></svg>