<svg xmlns="http://www.w3.org/2000/svg" viewBox="0 0 286.57 217.67"><defs><style>.cls-1{isolation:isolate;}.cls-2{fill:#b3b3b3;}.cls-2,.cls-6{mix-blend-mode:multiply;}.cls-3{fill:#f0ba32;}.cls-4{fill:#723e32;}.cls-5{fill:#c99c29;}.cls-6{fill:#d6d6d6;}.cls-7{fill:#ffd15f;}</style></defs><g class="cls-1"><g id="Layer_2" data-name="Layer 2"><g id="envelopes"><path class="cls-2" d="M20.12,194.66v1.5L80,217.67c68.39,0,134.4-2.8,167.93-5.25v-1.5Z"/><path class="cls-3" d="M248,210.92,80,211.67l-60.24-17c64.32.4,124.08,0,167.93-3C197.86,196,223.11,203.51,248,210.92Z"/><polygon class="cls-4" points="80.03 211.67 19.79 194.66 19.79 196.16 80.03 214.67 247.96 212.42 247.96 210.92 80.03 211.67"/><polygon class="cls-5" points="122.03 199.59 80.03 211.67 247.96 210.92 122.03 199.59"/><path class="cls-6" d="M150.2,207.19,19.79,194.66c62.75.51,120.9,0,167.93-3A167.78,167.78,0,0,1,150.2,207.19Z"/><path class="cls-7" d="M145.72,206c-34.59-4.16-78.5-7.83-125.93-11.33,30.33-1.47,59.78-.94,87.72-1.08,28.52-.14,55.39-1.19,80.21-1.92C172.71,196.27,158.35,203.34,145.72,206Z"/><path class="cls-2" d="M36.7,186l0,1.5L97.2,207.4c68.37-1.8,134.28-6.35,167.74-9.68l0-1.5Z"/><path class="cls-3" d="M264.9,196.22,97,201.41,36.37,186c64.32-1.31,124-3.26,167.79-7.44C214.42,182.65,239.86,189.47,264.9,196.22Z"/><polygon class="cls-4" points="97.04 201.41 36.37 186 36.41 187.5 97.12 204.41 264.94 197.72 264.9 196.22 97.04 201.41"/><polygon class="cls-5" points="138.71 188.23 97.04 201.41 264.9 196.22 138.71 188.23"/><path class="cls-6" d="M167.07,195.08,36.37,186c62.74-1.15,120.86-3.2,167.79-7.44A168.14,168.14,0,0,1,167.07,195.08Z"/><path class="cls-7" d="M162.56,194c-34.69-3.24-78.68-5.75-126.19-8,30.28-2.27,59.73-2.53,87.66-3.4,28.51-.89,55.35-2.66,80.13-4C189.28,183.56,175.12,191,162.56,194Z"/><path class="cls-2" d="M42.94,171.66l0,1.5,59.38,22.94c68.37,1.65,134.43.44,168-1.2l0-1.5Z"/><path class="cls-3" d="M270.33,193.4l-167.9-3.29L42.61,171.66c64.3,1.94,124,3,168,1.05C220.6,177.3,245.66,185.4,270.33,193.4Z"/><polygon class="cls-4" points="102.43 190.11 42.61 171.66 42.57 173.16 102.35 193.1 270.29 194.9 270.33 193.4 102.43 190.11"/><polygon class="cls-5" points="144.71 179.05 102.43 190.11 270.33 193.4 144.71 179.05"/><path class="cls-6" d="M172.68,187.33,42.61,171.66c62.72,2,120.86,2.91,168,1.05A168.87,168.87,0,0,1,172.68,187.33Z"/><path class="cls-7" d="M168.23,186c-34.48-5-78.28-9.72-125.62-14.35,30.36-.74,59.78.49,87.72,1,28.52.55,55.41.14,80.23,0C195.45,177,180.93,183.67,168.23,186Z"/><path class="cls-2" d="M20,168.52l0,1.5,60.43,20c68.37-1.72,134.29-6.18,167.75-9.47l0-1.5Z"/><path class="cls-3" d="M248.13,179,80.27,184,19.62,168.53c64.32-1.23,124-3.1,167.8-7.22C197.67,165.41,223.1,172.26,248.13,179Z"/><polygon class="cls-4" points="80.27 184.01 19.62 168.53 19.66 170.03 80.35 187.01 248.17 180.54 248.13 179.04 80.27 184.01"/><polygon class="cls-5" points="121.96 170.89 80.27 184.01 248.13 179.04 121.96 170.89"/><path class="cls-6" d="M150.31,177.78,19.62,168.53c62.74-1.07,120.86-3,167.8-7.22A168.32,168.32,0,0,1,150.31,177.78Z"/><path class="cls-7" d="M145.79,176.68c-34.68-3.28-78.66-5.85-126.17-8.15,30.29-2.23,59.74-2.45,87.67-3.29,28.51-.85,55.34-2.58,80.13-3.93C172.54,166.29,158.36,173.72,145.79,176.68Z"/><path class="cls-2" d="M42.67,153.49V155l59.91,21.5c68.39,0,134.4-2.8,167.93-5.25v-1.5Z"/><path class="cls-3" d="M270.51,169.74l-167.93.75-60.24-17c64.32.39,124.07,0,167.93-3C220.41,154.84,245.66,162.33,270.51,169.74Z"/><polygon class="cls-4" points="102.58 170.49 42.34 153.49 42.34 154.99 102.58 173.49 270.51 171.24 270.51 169.74 102.58 170.49"/><polygon class="cls-5" points="144.58 158.42 102.58 170.49 270.51 169.74 144.58 158.42"/><path class="cls-6" d="M172.75,166,42.34,153.49c62.74.51,120.89,0,167.93-3A168.74,168.74,0,0,1,172.75,166Z"/><path class="cls-7" d="M168.27,164.81c-34.59-4.16-78.5-7.83-125.93-11.32,30.33-1.48,59.77-1,87.72-1.09,28.52-.14,55.39-1.19,80.21-1.91C195.26,155.09,180.9,162.16,168.27,164.81Z"/><path class="cls-2" d="M17,140.48V142l59.92,21.51c68.38,0,134.39-2.81,167.93-5.25v-1.5Z"/><path class="cls-3" d="M244.84,156.74l-167.93.75-60.25-17c64.33.4,124.08,0,167.93-3C194.74,141.84,220,149.33,244.84,156.74Z"/><polygon class="cls-4" points="76.91 157.49 16.66 140.48 16.66 141.98 76.91 160.49 244.84 158.24 244.84 156.74 76.91 157.49"/><polygon class="cls-5" points="118.91 145.41 76.91 157.49 244.84 156.74 118.91 145.41"/><path class="cls-6" d="M147.08,153,16.66,140.48c62.75.51,120.9,0,167.93-3A167.86,167.86,0,0,1,147.08,153Z"/><path class="cls-7" d="M142.59,151.8C108,147.65,64.09,144,16.66,140.48c30.33-1.47,59.78-.94,87.72-1.08,28.53-.14,55.4-1.19,80.21-1.92C169.59,142.09,155.23,149.16,142.59,151.8Z"/><path class="cls-2" d="M249.81,130.48V132l-59.92,21.51c-68.38,0-134.39-2.81-167.93-5.25v-1.5Z"/><path class="cls-3" d="M22,146.74l167.93.75,60.25-17c-64.33.39-124.08,0-167.93-3C72.06,131.84,46.82,139.33,22,146.74Z"/><polygon class="cls-4" points="189.89 147.49 250.14 130.48 250.14 131.98 189.89 150.49 21.96 148.24 21.96 146.74 189.89 147.49"/><polygon class="cls-5" points="147.89 135.41 189.89 147.49 21.96 146.74 147.89 135.41"/><path class="cls-6" d="M119.72,143l130.42-12.53c-62.75.51-120.9,0-167.93-3A168.34,168.34,0,0,0,119.72,143Z"/><path class="cls-7" d="M124.21,141.8c34.59-4.15,78.49-7.82,125.93-11.32-30.33-1.47-59.78-.95-87.72-1.08-28.53-.14-55.4-1.19-80.21-1.92C97.21,132.09,111.57,139.16,124.21,141.8Z"/><path class="cls-2" d="M31.13,112l-.06,1.5,59.06,23.76c68.33,2.59,134.4,2.29,168,1.12l.06-1.5Z"/><path class="cls-3" d="M258.19,136.86,90.35,131.24,30.8,112c64.26,2.83,124,4.72,167.92,3.37C208.69,120.07,233.64,128.51,258.19,136.86Z"/><polygon class="cls-4" points="90.35 131.24 30.8 111.97 30.74 113.47 90.24 134.24 258.13 138.36 258.19 136.86 90.35 131.24"/><polygon class="cls-5" points="132.78 120.77 90.35 131.24 258.19 136.86 132.78 120.77"/><path class="cls-6" d="M160.64,129.43,30.8,112c62.68,2.89,120.81,4.58,167.92,3.37A168.61,168.61,0,0,1,160.64,129.43Z"/><path class="cls-7" d="M156.21,128.06C121.8,122.6,78.06,117.26,30.8,112c30.36-.32,59.77,1.32,87.69,2.24,28.51,1,55.41.91,80.23,1.13C183.55,119.37,168.93,125.89,156.21,128.06Z"/><path class="cls-2" d="M.33,107.79l.07,1.5,60.82,18.77c68.32-3.09,134.14-8.87,167.52-12.84l-.06-1.49Z"/><path class="cls-3" d="M228.68,113.73,61,122.07,0,107.8c64.28-2.51,124-5.58,167.62-10.58C178,101.11,203.51,107.45,228.68,113.73Z"/><polygon class="cls-4" points="60.95 122.06 0 107.8 0.07 109.3 61.09 125.06 228.74 115.22 228.68 113.73 60.95 122.06"/><polygon class="cls-5" points="102.36 108.11 60.95 122.06 228.68 113.73 102.36 108.11"/><path class="cls-6" d="M130.85,114.43,0,107.8c62.71-2.32,120.77-5.47,167.62-10.58A168.79,168.79,0,0,1,130.85,114.43Z"/><path class="cls-7" d="M126.31,113.42C91.57,110.84,47.54,109.15,0,107.8c30.23-2.84,59.67-3.65,87.58-5,28.49-1.43,55.29-3.7,80-5.54C152.84,102.5,138.82,110.21,126.31,113.42Z"/><path class="cls-2" d="M249.81,92.7v1.5l-59.92,21.5c-68.38,0-134.39-2.8-167.93-5.25V109Z"/><path class="cls-3" d="M22,109l167.93.75,60.25-17c-64.33.39-124.08,0-167.93-3C72.06,94.05,46.82,101.54,22,109Z"/><polygon class="cls-4" points="189.89 109.7 250.14 92.7 250.14 94.2 189.89 112.7 21.96 110.45 21.96 108.95 189.89 109.7"/><polygon class="cls-5" points="147.89 97.63 189.89 109.7 21.96 108.95 147.89 97.63"/><path class="cls-6" d="M119.72,105.23,250.14,92.7c-62.75.51-120.9,0-167.93-3A168.83,168.83,0,0,0,119.72,105.23Z"/><path class="cls-7" d="M124.21,104C158.8,99.87,202.7,96.2,250.14,92.7c-30.33-1.47-59.78-1-87.72-1.08-28.53-.14-55.4-1.2-80.21-1.92C97.21,94.31,111.57,101.38,124.21,104Z"/><path class="cls-2" d="M261.4,80v1.5L201.48,103c-68.39,0-134.4-2.8-167.93-5.25v-1.5Z"/><path class="cls-3" d="M33.55,96.26,201.48,97l60.25-17c-64.33.39-124.08,0-167.93-3C83.65,81.36,58.4,88.85,33.55,96.26Z"/><polygon class="cls-4" points="201.48 97.01 261.73 80.01 261.73 81.51 201.48 100.01 33.55 97.76 33.55 96.26 201.48 97.01"/><polygon class="cls-5" points="159.48 84.94 201.48 97.01 33.55 96.26 159.48 84.94"/><path class="cls-6" d="M131.31,92.54,261.73,80c-62.75.51-120.9,0-167.93-3A168.4,168.4,0,0,0,131.31,92.54Z"/><path class="cls-7" d="M135.8,91.33C170.38,87.17,214.29,83.5,261.73,80c-30.34-1.48-59.78-1-87.72-1.09-28.53-.14-55.4-1.19-80.21-1.91C108.8,81.61,123.16,88.68,135.8,91.33Z"/><path class="cls-2" d="M240.18,56.65l.11,1.5-58.2,25.78c-68.21,4.95-134.25,6.93-167.87,6.91l-.11-1.49Z"/><path class="cls-3" d="M14.11,89.35,181.66,77.94l58.85-21.31c-64.12,5-123.75,9-167.7,9.16C63,70.86,38.37,80.16,14.11,89.35Z"/><polygon class="cls-4" points="181.66 77.94 240.51 56.63 240.62 58.12 181.88 80.94 14.22 90.84 14.11 89.35 181.66 77.94"/><polygon class="cls-5" points="138.89 68.94 181.66 77.94 14.11 89.35 138.89 68.94"/><path class="cls-6" d="M111.35,78.56,240.51,56.63c-62.54,5-120.58,8.74-167.7,9.16A168.4,168.4,0,0,0,111.35,78.56Z"/><path class="cls-7" d="M115.73,77c34.2-6.64,77.73-13.49,124.78-20.4-30.35.72-59.69,3.38-87.56,5.26-28.46,1.93-55.34,2.82-80.14,3.9C88.11,69.29,102.94,75.31,115.73,77Z"/><path class="cls-2" d="M58.25,58.42l0,1.5,60.62,19.43c68.35-2.36,134.23-7.43,167.65-11l-.05-1.5Z"/><path class="cls-3" d="M286.52,66.81l-167.8,6.54L57.92,58.43c64.3-1.82,124-4.25,167.73-8.78C235.94,53.65,261.43,60.27,286.52,66.81Z"/><polygon class="cls-4" points="118.72 73.35 57.92 58.44 57.97 59.93 118.82 76.35 286.57 68.31 286.52 66.81 118.72 73.35"/><polygon class="cls-5" points="160.28 59.84 118.72 73.35 286.52 66.81 160.28 59.84"/><path class="cls-6" d="M188.69,66.46l-130.77-8c62.73-1.65,120.83-4.17,167.73-8.78A168.44,168.44,0,0,1,188.69,66.46Z"/><path class="cls-7" d="M184.17,65.41c-34.71-3-78.72-5.12-126.25-7,30.27-2.51,59.71-3,87.63-4.1,28.51-1.12,55.32-3.1,80.1-4.68C210.81,54.77,196.7,62.33,184.17,65.41Z"/><path class="cls-2" d="M22.33,42.88v1.5L82.25,65.89c68.38,0,134.4-2.81,167.93-5.25v-1.5Z"/><path class="cls-3" d="M250.18,59.14l-167.93.75L22,42.88c64.33.4,124.08,0,167.93-3C200.08,44.24,225.32,51.73,250.18,59.14Z"/><polygon class="cls-4" points="82.25 59.89 22 42.88 22 44.38 82.25 62.89 250.18 60.64 250.18 59.14 82.25 59.89"/><polygon class="cls-5" points="124.25 47.81 82.25 59.89 250.18 59.14 124.25 47.81"/><path class="cls-6" d="M152.42,55.41,22,42.88c62.75.51,120.9,0,167.93-3A168.34,168.34,0,0,1,152.42,55.41Z"/><path class="cls-7" d="M147.93,54.2C113.35,50.05,69.44,46.38,22,42.88c30.33-1.47,59.78-.94,87.72-1.08,28.53-.14,55.4-1.19,80.21-1.92C174.93,44.49,160.57,51.56,147.93,54.2Z"/><path class="cls-2" d="M21.76,28.06v1.5l59.91,21.5c68.39,0,134.4-2.8,167.93-5.25v-1.5Z"/><path class="cls-3" d="M249.6,44.31l-167.93.75-60.24-17c64.32.39,124.08,0,167.93-3C199.5,29.41,224.75,36.9,249.6,44.31Z"/><polygon class="cls-4" points="81.67 45.06 21.43 28.06 21.43 29.56 81.67 48.06 249.6 45.81 249.6 44.31 81.67 45.06"/><polygon class="cls-5" points="123.67 32.99 81.67 45.06 249.6 44.31 123.67 32.99"/><path class="cls-6" d="M151.84,40.59,21.43,28.06c62.75.51,120.9,0,167.93-3A168.74,168.74,0,0,1,151.84,40.59Z"/><path class="cls-7" d="M147.36,39.38c-34.59-4.16-78.5-7.83-125.93-11.32,30.33-1.48,59.78-.95,87.72-1.09,28.52-.14,55.39-1.19,80.21-1.91C174.35,29.66,160,36.73,147.36,39.38Z"/><path class="cls-2" d="M44.84,9.46,44.77,11,103.63,35.2c68.31,3.16,134.38,3.41,168,2.51l.07-1.49Z"/><path class="cls-3" d="M271.69,36.22l-167.78-7L44.51,9.44c64.24,3.36,124,5.75,167.89,4.76C222.33,19,247.21,27.67,271.69,36.22Z"/><polygon class="cls-4" points="103.91 29.21 44.51 9.44 44.44 10.94 103.77 32.2 271.62 37.71 271.69 36.22 103.91 29.21"/><polygon class="cls-5" points="146.42 19.09 103.91 29.21 271.69 36.22 146.42 19.09"/><path class="cls-6" d="M174.21,28,44.51,9.44C107.17,12.85,165.28,15,212.4,14.2A168.27,168.27,0,0,1,174.21,28Z"/><path class="cls-7" d="M169.78,26.57c-34.35-5.75-78-11.45-125.27-17.13,30.37-.07,59.76,1.81,87.68,3,28.5,1.18,55.39,1.37,80.21,1.79C197.2,18.11,182.53,24.51,169.78,26.57Z"/><path class="cls-2" d="M4.91,3V4.5L64.82,26c68.39,0,134.4-2.8,167.93-5.25v-1.5Z"/><path class="cls-3" d="M232.75,19.25,64.82,20,4.58,3c64.32.39,124.08,0,167.93-3C182.65,4.35,207.9,11.84,232.75,19.25Z"/><polygon class="cls-4" points="64.82 20 4.58 3 4.58 4.5 64.82 23 232.75 20.75 232.75 19.25 64.82 20"/><polygon class="cls-5" points="106.82 7.93 64.82 20 232.75 19.25 106.82 7.93"/><path class="cls-6" d="M135,15.53,4.58,3c62.75.51,120.9,0,167.93-3A168.74,168.74,0,0,1,135,15.53Z"/><path class="cls-7" d="M130.51,14.32C95.92,10.17,52,6.49,4.58,3c30.33-1.47,59.78-1,87.72-1.08C120.82,1.78,147.69.72,172.51,0,157.5,4.61,143.14,11.68,130.51,14.32Z"/></g></g></g></svg>