<svg xmlns="http://www.w3.org/2000/svg" viewBox="0 0 228.17 26"><defs><style>.cls-1{isolation:isolate;}.cls-2{fill:#b3b3b3;}.cls-2,.cls-6{mix-blend-mode:multiply;}.cls-3{fill:#f0ba32;}.cls-4{fill:#723e32;}.cls-5{fill:#c99c29;}.cls-6{fill:#d6d6d6;}.cls-7{fill:#ffd15f;}.cls-8{fill:#ffe094;}.cls-9{fill:#ffedbf;}</style></defs><g class="cls-1"><g id="Layer_2" data-name="Layer 2"><g id="envelopes"><path class="cls-2" d="M.33,3V4.5L60.24,26c68.39,0,134.4-2.8,167.93-5.25v-1.5Z"/><path class="cls-3" d="M228.17,19.25,60.24,20,0,3c64.33.39,124.08,0,167.93-3C178.08,4.35,203.32,11.84,228.17,19.25Z"/><polygon class="cls-4" points="60.24 20 0 3 0 4.5 60.24 23 228.18 20.75 228.18 19.25 60.24 20"/><polygon class="cls-5" points="102.25 7.93 60.24 20 228.18 19.25 102.25 7.93"/><path class="cls-6" d="M130.41,15.53,0,3c62.75.51,120.9,0,167.93-3A168.74,168.74,0,0,1,130.41,15.53Z"/><path class="cls-7" d="M125.93,14.32C91.34,10.17,47.43,6.49,0,3c30.33-1.47,59.78-1,87.72-1.08,28.52-.14,55.4-1.2,80.21-1.92C152.92,4.61,138.57,11.68,125.93,14.32Z"/><path class="cls-8" d="M167.69,2.55l10.66,3.38C181.91,7,185.45,8.09,189,9.12s7.13,2.1,10.68,3.22,7.12,2.25,10.62,3.62c-3.73-.46-7.41-1.13-11.06-1.92s-7.28-1.72-10.88-2.76S181.24,9,177.76,7.58A65.7,65.7,0,0,1,167.69,2.55Z"/><path class="cls-9" d="M125.27,11.15c2.42-1.08,4.87-2,7.34-2.79S137.56,6.78,140,6s5-1.44,7.48-2.1,5-1.32,7.61-1.85a45.85,45.85,0,0,1-7,3.51,78.32,78.32,0,0,1-7.41,2.59c-2.51.72-5,1.38-7.61,1.87A59.38,59.38,0,0,1,125.27,11.15Z"/></g></g></g></svg>