<svg xmlns="http://www.w3.org/2000/svg" viewBox="0 0 228.17 26"><defs><style>.cls-1{isolation:isolate;}.cls-2{fill:#b3b3b3;}.cls-2,.cls-6{mix-blend-mode:multiply;}.cls-3{fill:#f0ba32;}.cls-4{fill:#723e32;}.cls-5{fill:#c99c29;}.cls-6{fill:#d6d6d6;}.cls-7{fill:#ffd15f;}.cls-8{fill:#ffe094;}.cls-9{fill:#ffedbf;}.cls-10{fill:#de1f27;}</style></defs><g class="cls-1"><g id="Layer_2" data-name="Layer 2"><g id="envelopes"><path class="cls-2" d="M.33,3V4.5L60.24,26c68.39,0,134.4-2.8,167.93-5.25v-1.5Z"/><path class="cls-3" d="M228.17,19.25,60.24,20,0,3c64.33.39,124.08,0,167.93-3C178.08,4.35,203.32,11.84,228.17,19.25Z"/><polygon class="cls-4" points="60.24 20 0 3 0 4.5 60.24 23 228.18 20.75 228.18 19.25 60.24 20"/><polygon class="cls-5" points="102.25 7.93 60.24 20 228.18 19.25 102.25 7.93"/><path class="cls-6" d="M130.41,15.53,0,3c62.75.51,120.9,0,167.93-3A168.74,168.74,0,0,1,130.41,15.53Z"/><path class="cls-7" d="M125.93,14.32C91.34,10.17,47.43,6.49,0,3c30.33-1.47,59.78-1,87.72-1.08,28.52-.14,55.4-1.2,80.21-1.92C152.92,4.61,138.57,11.68,125.93,14.32Z"/><path class="cls-8" d="M167.69,2.55l10.66,3.38C181.91,7,185.45,8.09,189,9.12s7.13,2.1,10.68,3.22,7.12,2.25,10.62,3.62c-3.73-.46-7.41-1.13-11.06-1.92s-7.28-1.72-10.88-2.76S181.24,9,177.76,7.58A65.7,65.7,0,0,1,167.69,2.55Z"/><path class="cls-9" d="M125.27,11.15c2.42-1.08,4.87-2,7.34-2.79S137.56,6.78,140,6s5-1.44,7.48-2.1,5-1.32,7.61-1.85a45.85,45.85,0,0,1-7,3.51,78.32,78.32,0,0,1-7.41,2.59c-2.51.72-5,1.38-7.61,1.87A59.38,59.38,0,0,1,125.27,11.15Z"/><path class="cls-10" d="M126.13,11.07h0Zm-.69-4.85-.5-.21,4-.48h.16l.05,0,.35,0s0,0,0,.07h.17l.09-.12.42,0h0l.72-.09,3.59-.47a.88.88,0,0,0,.23,0s0,0-.1,0L136,4.62l.11,0c.06,0,.08,0,.07,0h0l.6-.08h0s0,0,.06,0l.5.21h0c.48.21,1.07.45,1.54.64l0,0,.37.15c-.08,0-.13,0-.11,0h0a.41.41,0,0,0-.2,0l-.33,0h0c-.07,0-.11,0-.11,0h.08l-.29,0a13.21,13.21,0,0,0-2.53.51c-.17,0-.14,0-.25.07s-.3,0-.29.09h.09l-.18.08h0c-.1,0-.15,0-.13,0h0l-.28.06c-.09,0-.31,0-.36.05a2.09,2.09,0,0,0,.57,0l-.16.09h0a3.81,3.81,0,0,0-.5.37l-.46.39.78.13h-.15s0,0,.13,0l.08,0,3,.48c-.08,0-.17,0-.21,0h.22l.08,0,2.46.38h0l3.37.48-.08,0h.27l.85.12a10.66,10.66,0,0,0,3,.17l.43,0c.59.27,2,.86,2.69,1.12l-4.44.54-3,.4h0c-.1,0-.14,0-.14,0l-.29,0a.38.38,0,0,0-.19,0h0l-.68.09c-3.77-.63-7-1.17-10.54-1.69l-.44-.18,0,0h0l-.9-.37h.37c.1,0,.1,0,0-.05l-.25.05h0c-.09,0-.12,0-.11,0h0l-1-.43,1.24-.91h0l.09,0s.07,0,0,0l.18-.14c.51-.36-.78-.8-2.36-.6l-.36,0h0c-.07,0-.09,0-.1,0l-.18,0-.48-.21h0s0-.05-.14-.06h-.07l-.16-.07c.06,0,.14,0,.18,0l-.22,0,.84-.11h.1l0,0h0s.07,0,0,0a2.47,2.47,0,0,0-.52,0l-.12,0h0a1.64,1.64,0,0,0,.23,0l0,0h0l.48-.11-.48,0-.15,0s0,0,0,0h0l-.24,0h0a.49.49,0,0,0-.21,0s0,0,.05,0l.16,0h0l.24,0h0c-.22,0-.07.11-.15.17a.91.91,0,0,0-.27,0h-.13l-1.09-.45a2.81,2.81,0,0,0,.47-.07h.23s0,0-.19,0l-.39,0Zm.68,0a.39.39,0,0,0-.16,0,.3.3,0,0,0,.19,0S126.15,6.27,126.12,6.27Zm1.26.67h0Zm-.1-.12s-.06,0,0,0h0Zm0-.07h0Zm.12-.08c-.07,0-.12,0-.13,0S127.35,6.69,127.37,6.67Zm.48,0-.27,0h0l.29,0S128,6.71,127.85,6.69Zm2.61,2.58h0Zm.68.22h0ZM130.91,9h0a.64.64,0,0,0-.31,0A.8.8,0,0,0,130.91,9Zm.64.23c-.07,0-.12,0-.14,0h.12Zm-.07-.74Zm2.76.33s0,0,.06,0l0,0h-.1ZM134,8.77h0Zm4.72,1.9h0S138.72,10.68,138.69,10.67Zm-.38-.18c-.12,0-.1,0-.1.06h0l0,0h.11c0,.06-.24.07-.35.11l.29.06h0s-.11,0,0,0v0h0a1.5,1.5,0,0,0,.22-.11s0-.06-.16-.06h0l-.05,0h0C138.31,10.54,138.45,10.52,138.31,10.49Zm0-5.16-.08,0c.07,0,.12,0,.13,0Zm-.77-.26c-.06,0-.11,0-.08,0l.14,0h0C137.7,5.09,137.74,5.07,137.58,5.07Zm-1.22-.4c.11,0,.13,0,.12,0h0S136.34,4.65,136.36,4.67Zm.75.34c.16,0,.27,0,.25,0h-.19Zm1.11.51s.05,0,0,0,.23,0,.19-.08a1.54,1.54,0,0,0-.43,0s.08,0,.11,0l.13,0h0S138.22,5.52,138.22,5.52Zm-2.55.66h0s-.12,0,0,0v0h0S135.68,6.18,135.67,6.18Zm-1.44-.87h0Zm2.24.67a.19.19,0,0,0-.12,0h.12Zm-.23-.24h0Zm0-.11c-.11,0-.15,0-.14,0h0l-.37,0c-.05.06-.11.11-.15.17s0,0,.05,0a.86.86,0,0,0,.42-.08c.05,0-.21,0-.13-.07s.21,0,.18-.07h0C136.19,5.66,136.29,5.66,136.27,5.63Zm-2-.45h0a.37.37,0,0,0-.18,0A.54.54,0,0,0,134.29,5.18Zm1.3,0a.31.31,0,0,0,.19,0,1.15,1.15,0,0,0-.19,0h0Zm.56.15h0s0,0-.08,0S136.08,5.33,136.15,5.33Zm.39,0h-.06c-.22,0-.22,0-.32,0l.32,0h.06Zm.91.31h0Zm-1-.45c0-.05,0-.05-.15-.07l.15.07h0l-.1,0h0a.22.22,0,0,0-.14,0s.06,0,.14,0h.11v0h0Zm1.35.41h0s-.12,0,0,0v0h0Zm-.21-.11-.16,0h0a.48.48,0,0,0,.18,0h.1S137.75,5.54,137.63,5.53Zm.71.11s0,0-.06,0S138.27,5.64,138.34,5.64ZM137,5.15h0c.05,0,.08,0,.06,0ZM136.38,5h0a.41.41,0,0,0,.19,0A.6.6,0,0,0,136.38,5Zm-1.5-.06a.2.2,0,0,0,.12,0h-.12Zm0,.2A10.7,10.7,0,0,0,136.12,5s-.23-.07-.26-.1.28,0,.28-.07h-.29a3.89,3.89,0,0,1-1.34.17C134.5,5.1,134.77,5.11,134.9,5.12ZM133.76,5a.26.26,0,0,0,.18,0,.38.38,0,0,0-.19,0S133.7,5,133.76,5Zm-.47.2c.23-.11.73-.08,1-.16l-.06,0h0c.06,0,.06,0-.1-.06s0,.05.1.06h0l-.3,0-.33,0h-.07l.05-.06s0,0-.13,0S133.26,5.07,133.29,5.2Zm.61.07h0S134,5.27,133.9,5.27Zm-.67,0h0Zm1.29.66a.17.17,0,0,0,.12,0A.17.17,0,0,0,134.52,5.89Zm-1.74-.46c.11,0,.13,0,.13,0h0l.12,0h0a.37.37,0,0,0,.21,0s0,0-.09,0h-.06a.71.71,0,0,0-.37,0l.19,0h0C132.85,5.4,132.76,5.4,132.78,5.43Zm1,.72h0l.29,0c.06,0,0,0,.18,0l.19,0h0s.09-.06.22-.08h.19l.06,0a1.06,1.06,0,0,1,.31,0c-.05,0-.07,0-.05,0h0c.06,0,.08,0,.07,0l.19,0s0-.06-.08-.08c-.34,0-.61.07-.91.11l-.25.09-.29,0c-.08,0-.11,0-.12,0h0ZM133,6h0Zm1.19.58.23,0h0s.05,0,.09,0h-.11A.38.38,0,0,0,134.19,6.57Zm-3-1.27s.06,0,.06,0h-.06Zm1.3.66c.07,0,.12,0,.14,0h-.15C132.37,6,132.38,6,132.45,6Zm1.57.68h0s0,0,.09,0Zm-2-.79s0,0-.06,0S132,5.84,132,5.85Zm-1-.28c.07,0,.12,0,.13,0h-.13Zm1.78.79h0l.23,0h0c-.05,0,.1-.06-.11-.07,0,0-.07,0-.08,0s0,0,0,0h0Zm-1-.36h0Zm-4,.48h0l0,0,.15,0s.06-.06,0-.09-.11.08-.11.12Zm-.21-.05-.06,0h0l0,0S127.54,6.45,127.63,6.43Zm1.49.49H129c-.08,0-.18,0-.06.07a.78.78,0,0,0,.24,0Zm-.7-.33c-.13,0-.18,0-.18.07a.74.74,0,0,0,.33,0Zm0-.06-.31,0,.13.06A.21.21,0,0,0,128.44,6.53Zm.39.18s.07,0,0,0h-.07Zm.69.21.06,0h0s-.12,0,0,0V7h0S129.65,6.94,129.52,6.92Zm-.31-.19a.6.6,0,0,0-.23,0s.07,0,.17,0h0Zm3,1c-.11,0-.11,0,0,.07a.69.69,0,0,0,.25,0C132.36,7.75,132.38,7.72,132.22,7.7Zm-3.76-1.49h0Zm4,1.43-.08,0h0l.08,0S132.42,7.64,132.42,7.64Zm.94.41h0Zm2.27,1a1.18,1.18,0,0,0,.25,0l.18-.05,0-.07s.21-.05.13-.08h-.06l-.41.07,0,0Zm-5.44-2.47h0Zm.73.33h0Zm4.69,2h.06l.08,0C135.68,8.9,135.63,8.9,135.61,8.92Zm-2.7-1.29,0,0h0v0l0,0h0l0,0h.1l.06,0h0s-.1,0,0,0v0h0c.07,0,.22,0,.25-.06l-.31,0h0Zm5.65,1.91a.4.4,0,0,0,.11,0c.06,0,0,0-.07,0S138.49,9.53,138.56,9.54Zm-.22-.13h-.07l0,0Zm-.78-.4a.23.23,0,0,0-.13,0A.23.23,0,0,0,137.56,9Zm1,.43h0Zm-1.11-.51h0S137.39,8.93,137.45,8.93Zm-.21-.12a2.16,2.16,0,0,0-.51.07,1.17,1.17,0,0,1,.38,0h0l-.24,0-.3.11a.79.79,0,0,0,.23,0L137,9c.06,0,.09-.05.07-.07h0C137.21,8.88,137.3,8.85,137.24,8.81Zm.45.44s0,0,0,0h.08S137.76,9.26,137.69,9.25Zm.25.19Zm-.56-.12h.13A.23.23,0,0,0,137.38,9.32Zm-.11-.05h0Zm-.52-.11.12.07c.12-.05.12-.05-.12-.07h0Zm.56.27h0ZM134,7.71h0Zm2.08.89c-.08,0-.14.05-.13.08h.16s0,0,.06-.05S136.17,8.6,136.09,8.6Zm-2.58-.76a1.6,1.6,0,0,1,.38,0h0c.08,0,.25,0,.24-.06A2.29,2.29,0,0,0,133.51,7.84Zm.62.1,0,0h.09l-.05,0h0l.2,0-.2,0h0l-.16,0,.16,0h0Zm-.5-.49h-.06a.11.11,0,0,0-.11,0h.17ZM132.57,7c-.18,0-.3,0-.41,0s0,0,.19,0Zm.35.25h0Zm-.19-.06h0a.37.37,0,0,0-.14,0s.06,0,.14,0h0Zm-.15.24s.07,0,.14,0,.39,0,.43-.07h.14a.14.14,0,0,0,.11,0h-.13a.35.35,0,0,0-.26,0l.15.06h0A3.1,3.1,0,0,0,132.58,7.46Zm2.91,1.21h0ZM131,6.81h0s-.12,0,0,0v0h0Zm2.09.92s0,0,0,0h0S133,7.74,133.08,7.73Zm3,1.37v0l0,0h0Zm.09.18a1.46,1.46,0,0,0,.39,0,.34.34,0,0,0-.18,0C136.16,9.27,136.16,9.27,136.22,9.28Zm2,.66-.13,0h0c-.07,0-.09.05,0,.05S138.24,10,138.21,9.94Zm.33,0a.7.7,0,0,0,.23-.07C138.44,9.86,138.43,9.87,138.54,9.91Zm-.11-.22h0Zm1.6.61c-.11,0-.13,0-.12,0h0s0,0,0,0h0C140,10.33,140.05,10.33,140,10.3Zm-1.79-.81h-.1l-.18,0h0l.1.06s-.24.05-.25.09-.23,0-.18.08l.21,0h0l.42,0h0c-.06,0-.15,0-.13,0s.13,0,.13,0h0c.06,0,.16,0,.15,0l-.27,0C138.07,9.64,138.52,9.57,138.24,9.49Zm.6.24h0Zm1.6.49c-.14,0-.15,0,0,0S140.53,10.23,140.44,10.22Zm-1.37-.58h0l-.1,0H139Zm2.79.63a1.13,1.13,0,0,0-.32,0,1,1,0,0,0-.31.07h.13a1.12,1.12,0,0,1,.41,0Zm-4.07-1.43h0Zm0-.09c-.08,0-.12,0-.14,0A.18.18,0,0,0,137.75,8.75Zm.74.35h0a.14.14,0,0,0,.11,0h-.13a.3.3,0,0,0-.15,0S138.41,9.1,138.49,9.1Zm.86.35h0s-.05,0-.09,0h.1Zm.91.21h0Zm-.88-.49h0Zm1.16.42h-.11s0,0,.07,0Zm3.17,1.1h-.11l-.06,0h0l0,0h.12S143.67,10.72,143.71,10.69Zm-.62-.2h0C143,10.49,143,10.49,143.09,10.49Zm-1.57-.81h-.05l-.11,0a2.88,2.88,0,0,0-.59,0l.53,0,.17,0h.05Zm-1.08-.23h0c.05,0,.07,0,.05,0h0c-.05,0-.06,0-.05,0h0l0,0S140.46,9.46,140.44,9.45Zm1.5.38h0Zm-1.27-.59a.31.31,0,0,0-.15,0C140.6,9.26,140.65,9.26,140.67,9.24Zm1.7.44h0Zm2.1.69a.24.24,0,0,0-.13,0h0C144.44,10.39,144.49,10.38,144.47,10.37Zm-.25-.11a1.06,1.06,0,0,0-.22,0s.09,0,.15,0h.23S144.34,10.27,144.22,10.26Zm-2.06-.78h0v0l0,0Zm-.54-.23h-.09s0,0,.05,0Zm3.41,1s0,0,0,.05h0c-.09,0-.25,0-.25.06H145c.08,0,.09,0,.08-.07h0C145.11,10.29,145.14,10.28,145,10.26Zm-2.56-.88c.06,0,.07,0,.05,0h-.05Zm2.41.7a.67.67,0,0,0-.23,0s.11,0,.16,0h0c-.05,0-.07,0-.05,0h0l-.21,0c.18,0,.2,0,.21,0h0c.05,0,.07,0,.05,0h0C144.89,10.13,145,10.11,144.88,10.08Zm-1.06-.26s0,0,0,0h-.08S143.79,9.83,143.82,9.82Zm.21-.07h0Zm.07-.25h0Zm.58-.32h0Zm-.8,0a1.16,1.16,0,0,0,.34,0c.07,0,.16,0,.17-.06A1.29,1.29,0,0,0,143.88,9.22Zm-.65,0h.06l0,0h-.07S143.19,9.17,143.23,9.18Zm-.81-.33s0,0-.06,0S142.34,8.85,142.42,8.85Zm.12.12h0Zm.31.25c.07,0,.12,0,.14,0A.25.25,0,0,0,142.85,9.22Zm.26.15c-.11,0-.25,0-.29.06s.05,0,.17,0a.9.9,0,0,0,.28,0s-.09,0-.15,0,.15,0,.13,0S143.11,9.35,143.11,9.37Zm-1.64-.59h0C141.45,8.76,141.44,8.77,141.47,8.78Zm.72.39-.08,0c.07,0,.11,0,.13,0Zm-.58-.12a.18.18,0,0,0,.14,0C141.67,9,141.63,9,141.61,9.05Zm-.89-.39s0,0,0,0h0Zm1.41.65h0Zm3.59,1.5h0s0,0,.08,0S145.79,10.81,145.72,10.81Zm-3.05-1.24-.08,0c.07,0,.12,0,.14,0Zm-2.29-.93h-.11S140.33,8.67,140.38,8.64Zm-.74-.07a.4.4,0,0,0,.19,0c.12-.05,0-.09,0-.14a1.11,1.11,0,0,0-.36.05l.25,0S139.54,8.55,139.64,8.57Zm.64.32c.07,0,.11,0,.13,0S140.31,8.87,140.28,8.89Zm.72.32a.42.42,0,0,0,.16,0c.14,0,0-.06.13-.08h0a.34.34,0,0,0,.2,0,1.34,1.34,0,0,0-.2,0h-.22S140.93,9.18,141,9.21Zm3.75,1.57h0a.11.11,0,0,0,.1,0h-.12a.26.26,0,0,0-.15,0S144.66,10.78,144.75,10.78Zm-.44-.09s0,0,.05,0S144.38,10.69,144.31,10.69Zm-4.43-1.84a.43.43,0,0,0-.2,0S139.77,8.88,139.88,8.85Zm.06.15c.07,0,.12,0,.13,0h0C140,9,139.93,9,139.94,9Zm-.12.09a.53.53,0,0,0,.23,0C139.9,9.05,139.82,9.06,139.82,9.09Zm-.53-.21a.25.25,0,0,0,.16,0h-.18S139.25,8.87,139.29,8.88Zm-.25,0c-.44.07-.47.07-.57.14.35-.05.71,0,1-.09,0,0,.05,0,0,0l-.28,0S139.13,8.9,139,8.91Zm-1.27-.24,0,0s0,0,0,0h0a2,2,0,0,0,.35,0l-.27,0c-.09,0-.1,0-.08.06h0Zm-.39,0,.13-.05h-.24C137.2,8.64,137.26,8.66,137.38,8.67Zm3.5,1.52c-.06,0-.08.05,0,.07C141.07,10.24,141.07,10.23,140.88,10.19ZM136.64,8.5h0Zm2.41,1h0a3.85,3.85,0,0,0-.52.07h.32c.06,0,.22,0,.2-.07h0s.1,0,0,0v0Zm-3-1.12h.09S136.13,8.38,136.09,8.4Zm-2.58-1.11,0,0h0l0,0h0v0h-.13l.05,0h0c-.09,0-.13,0-.08.06S133.52,7.31,133.51,7.29Zm.38.06a.51.51,0,0,0-.21,0C133.86,7.38,133.86,7.38,133.89,7.35Zm-2-.83c-.07,0-.11,0-.08.06h0l-.22,0h0c.17,0,.17,0,.22,0h0C131.92,6.57,132.05,6.55,131.91,6.52ZM130.28,6h-.08s0,0,0,0S130.28,6,130.28,6Zm2.3.58a.51.51,0,0,0,.18,0s0,0,0,0A.24.24,0,0,0,132.58,6.6Zm.2.21h-.09a.05.05,0,0,0,0,0h.13Zm-.24-.06h0Zm-1-.42a1,1,0,0,0-.41,0s.09,0,.13,0h0Zm-.67-.26a.27.27,0,0,0-.14,0A.28.28,0,0,0,130.82,6.07Zm-1.55-.4-.06,0c.24,0,.14,0,.18.08h0l.44,0s0,0,0-.06.06,0,0,0S129.45,5.67,129.27,5.67Zm-.31.08v0h0l0,0h-.11l-.05,0h0l.47-.06h0a1.57,1.57,0,0,0-.43,0l0,0h0l0,0h.11l.06,0h0S128.84,5.74,129,5.75Zm.42.16h0s.12,0,0,0v0h0Zm1.22.56-.11,0-.18,0h0a.66.66,0,0,0-.28,0c-.05,0-.08,0-.05,0l.1,0,.17,0h.1l0,0h0l.23,0h0l.06,0h0l-.28.09a1,1,0,0,0,.33,0l-.05,0h0l.11,0h0l-.05,0h0a.39.39,0,0,0,.18,0c-.12,0-.2,0-.18,0h-.13Zm-1.77-.57h0Zm.47.13s0,0-.06,0S129.23,6,129.3,6Zm-1-.16a2.57,2.57,0,0,0,.41-.09s0,0,0,0-.08,0-.31-.07C128.61,5.76,128.25,5.8,128.27,5.87Zm-.33-.09H128a.36.36,0,0,0,.21,0s0,0-.08,0l-.13,0h-.06Zm.35.21c.11,0,.12,0,.12,0h0l.06,0h0l-.07,0h0S128.28,6,128.29,6Zm1.51.69h.13l-.05,0h0c-.06,0-.08,0-.06,0h0Zm.43.23a.48.48,0,0,0,.18,0c.15,0,.07-.08.17-.12l-.05,0A.41.41,0,0,0,130.23,6.91ZM128,6.09h.16s0,0-.13-.07Zm4.28,1.85c.19,0,.19,0,.16-.07S132.28,7.9,132.27,7.94Zm-5.08-2.1h-.06S127.14,5.85,127.19,5.84Zm1.57.69s0,0-.07,0S128.68,6.52,128.76,6.53Zm-1.32-.36.18-.06a.85.85,0,0,0-.28,0S127.36,6.17,127.44,6.17Zm-1-.31h0Zm0,.13c.07,0,.12,0,.14,0A.19.19,0,0,0,126.5,6Zm0,.19c-.11,0-.2,0-.22,0l.24,0s-.12,0,0,0l0,0C126.61,6.21,126.61,6.19,126.51,6.18ZM125.63,6l.23,0H126l0,0h-.13A.47.47,0,0,0,125.63,6Zm4.67.51h0c-.05,0-.07,0-.06,0h.13l-.06,0Zm-.72-.78.23,0A.47.47,0,0,0,129.58,5.7Zm14,5h0Zm-5.66-1h0l0,0h0S137.92,9.72,137.89,9.71Zm-7.51,2.2h.18l-.06,0h-.12Zm0,0h-.18l.06,0h0l.12,0Zm2.19-.34c.06,0,.08,0,0-.05S132.55,11.55,132.56,11.57Zm-3.27.55h0Zm-39.36-.71c.38-.83,2.44-1.48,5.88-1.92-.27.4.15.78,1.27,1.34l.32.16a0,0,0,0,0,0,0h0c.6.28,1.32.61,2.19,1h0l1.89.8,1.22.49-.22,0-.1,0,.32,0c.08,0,.24,0,.35,0a11.8,11.8,0,0,0,5.34.87h0s.07,0,.06,0h0c.31,0,.62,0,.94-.1l.33.17h-.06s0,0,.11,0l.11.06c-.08,0-.18,0-.18,0l.22,0,0,0,0,0,.12,0a1.44,1.44,0,0,1,.25.21l-.17,0h-.1l0,0h0a.8.8,0,0,0-.26.05.39.39,0,0,0,.2,0l.12,0h0c.25,0,.27,0,.25,0,.35.42-.28.79-2.88,1.12-.56.07-1.14.12-1.74.16v0c.16,0,.16,0,.07-.05s-.09,0-.08.05-.12,0,0,0c-.29,0-.59,0-.89,0h-1a.38.38,0,0,0-.15,0c-.81,0-1.65-.06-2.49-.14h.18l.33-.07a1.64,1.64,0,0,1,.33,0,2.62,2.62,0,0,1,.35,0c.09,0,.12,0,.08,0a3.49,3.49,0,0,1-.56,0h0c-.13,0,.06-.06,0-.1h-.16l.06-.05a1,1,0,0,0-.35,0s.16,0,.07.08a4.79,4.79,0,0,1-.84.11h0l-.1-.08-.45,0q-.74-.11-1.47-.24c.08,0,.1,0,.08-.06h0l.11,0h0s0,0,.09,0h-.28l.06,0h0c-.08,0-.21,0-.12.06L98,15.49l0,0-.15,0s.12,0,0,0h-.13l-.12,0L97,15.25s0,0-.06,0h-.06a29.41,29.41,0,0,1-4.11-1.34l-.07,0a.94.94,0,0,0,.29,0l-.14,0h0c-.06,0-.15,0-.15,0l-.24-.1,0,0h0l-.13-.06h.1l-.07-.05s.22,0,.24-.09l-.14,0h0l.34-.08-.22-.06a.64.64,0,0,0-.31,0c.16,0,.1.1.19.14h0a1,1,0,0,0-.34.07c-.25-.12-.48-.23-.68-.35h.17l.06,0c.22,0,.36,0,.54-.06h0l.06,0h0a2.47,2.47,0,0,0,.48-.08,4,4,0,0,0-.54.06h0a.67.67,0,0,0-.36,0h0a.32.32,0,0,0-.17,0h0s.11-.06.23-.08a3.48,3.48,0,0,0,.36,0c.08,0,.08-.05.08-.07.17,0,.18-.08.17-.12h0l0,0H92.4l0,0h0A1.64,1.64,0,0,0,92,13h0a1.32,1.32,0,0,0-.41,0,1.12,1.12,0,0,1-.18.1h-.19c-1.12-.64-1.53-1.22-1.32-1.73.07,0,.09,0,.09,0h0c.06,0,.15,0,.12,0s-.13,0-.12,0h-.09Zm.73,1.14h-.18s0,0,0,0A.34.34,0,0,0,90.66,12.55Zm18.52,1.91s.09,0,0-.05S109,14.43,109.18,14.46Zm0,.16h0Zm-19-2.4,0,0h0Zm.85.36,0,0h.31a.33.33,0,0,0,.22,0,.77.77,0,0,0-.22,0h0s.09-.08-.15-.1l-.14.1h0s-.14,0-.13,0Zm0-.19h0S90.91,12.39,91,12.39Zm.64.08Zm-.17-.11h-.1s0,0,.06,0Zm0,.05h0Zm.41.19c-.06,0-.25,0-.17.08s.25,0,.37,0,0,0,.21.06h0c0-.06.09-.11.31-.14,0,0,0,0,.06,0h0a.3.3,0,0,0,.19-.09s0,0-.09,0l-.68.11c.09,0,.24,0,0,.07Zm-.62-.42h0Zm.51.11s.06,0,.16,0h0a.57.57,0,0,0,.33,0l-.33,0h0A.26.26,0,0,0,91.74,12.29Zm.55.09c.08,0,.13,0,.15,0S92.31,12.36,92.29,12.38Zm-.21.06h0Zm.11.35h-.28v0h0c-.1,0-.07,0,0,.06h0l-.06,0h0l.05,0h0A.84.84,0,0,0,92.19,12.79Zm.44.31-.06,0h.12l.17.06c.11,0,.14,0,.09,0a1.09,1.09,0,0,0-.26,0h0l-.06,0h0l.59-.08h0l.06,0h0l-.06,0h.13a.3.3,0,0,0,.17,0s.07,0,0,0l-.17,0h0l0,0h0c.08,0,.22,0,.25-.06l-.31,0h0a1,1,0,0,1-.22,0s0,0,.1,0a2.36,2.36,0,0,1,.46,0l.16-.08h-.17a1.89,1.89,0,0,1-.46.05l-.11,0h0c-.14,0-.29,0-.42,0h0c0,.05.08.09.12.13l0,.09h0c-.06,0-.08,0-.06,0h0S92.49,13.08,92.63,13.1Zm1.86-.21h-.14s0,0,.06,0Zm.35.22a.4.4,0,0,0,.24,0A.41.41,0,0,0,94.84,13.11Zm1.28.55h.06c.17,0,.27,0,.24-.06C96.23,13.61,96.1,13.62,96.12,13.66Zm.53.19h.06a.5.5,0,0,0,.21,0,.72.72,0,0,0-.21,0h-.06Zm-.09-.09h0l0,0Zm1.62.74h0Zm0,.09h.06l.17,0s0,0,0,0h-.18Zm1.69.71a.06.06,0,0,0,0,0s.06,0,.06,0l-.08,0Zm-.87-.45h-.2S98.93,14.88,99.05,14.85Zm.69.33h0c.05,0,.07,0,.05,0h0s-.07,0-.05,0h0s0,0,0,0S99.76,15.19,99.74,15.18Zm-3.49-1.42s0,0-.06,0S96.17,13.76,96.25,13.76Zm-.43-.18s0,0,.06,0S95.89,13.58,95.82,13.58Zm1.72.75v0l0,0h0ZM97,14.11h-.06l-.13.05C97,14.14,97,14.13,97,14.11Zm-.15.34c.14,0,.16,0,0,0S96.73,14.43,96.82,14.45Zm-1.89-.79h0Zm1.63.52a.46.46,0,0,0-.26,0A.71.71,0,0,0,96.56,14.18Zm0,.08c-.05,0-.07,0-.05,0h.05Zm-2.25-1a.31.31,0,0,0-.17,0s0,0,0,0S94.29,13.29,94.29,13.28ZM97,14.48h.1a.54.54,0,0,0,.22,0c.06,0,0,0-.09,0l-.13,0Zm-1.76-.86s0,0-.06,0v0Zm2.2.93a1.05,1.05,0,0,0,.31,0S97.73,14.53,97.47,14.55Zm-3.08-1.4h0l0,0h0S94.41,13.16,94.39,13.15Zm1,.75h0v0l0,0Zm-.45-.17h0l-.18,0-.06-.05s.11,0,0-.07l-.26.1h0c.12,0,.12,0,.36,0A.27.27,0,0,0,94.9,13.73Zm1.53.76a.21.21,0,0,0,.13,0A.23.23,0,0,0,96.43,14.49Zm-.31,0s0,0,.1.05S96.24,14.51,96.12,14.5Zm-3-1.33a.28.28,0,0,0-.14,0A.25.25,0,0,0,93.1,13.17Zm.16.14h0Zm.15-.08h0Zm.67.14a.28.28,0,0,0-.15,0A.21.21,0,0,0,94.08,13.37Zm.33.56h0Zm1.19.52h0ZM92.66,13.3l.06,0h-.2S92.51,13.29,92.66,13.3Zm3.1,1.57c-.05,0,0,0,.06,0S95.84,14.87,95.76,14.87Zm-2.89-1.23h0s-.07,0-.05,0h0C92.87,13.67,92.88,13.66,92.87,13.64ZM96.19,15h0Zm-2.58-1.26h-.18a.54.54,0,0,0-.23,0l0,0a.75.75,0,0,0,.26,0h.11S93.65,13.74,93.61,13.72Zm-.52-.22c-.07,0-.11,0,0,0S93.21,13.52,93.09,13.5Zm2.62,1.08c.17,0,.17,0,.2,0A.46.46,0,0,0,95.71,14.58Zm1.27.47s0,0,0,0S97,15.05,97,15.05Zm-.36-.24h-.06s0,0,0,0h.06ZM93.53,13.4a.77.77,0,0,0-.32,0l-.06,0C93.44,13.44,93.44,13.44,93.53,13.4Zm4.92,2a.57.57,0,0,0-.27,0C98.32,15.43,98.42,15.43,98.45,15.39Zm-1.2-.55v0h0v0h0S97.35,14.85,97.25,14.84Zm0,0c.15,0,.27,0,.39,0h0l-.06.07a1.89,1.89,0,0,0,.36-.06,2.3,2.3,0,0,1,.36-.07h0a1.84,1.84,0,0,0-.38,0l-.15,0c-.11,0,0,.05-.13.08h0a1.25,1.25,0,0,0-.52,0S97.14,14.8,97.21,14.8Zm1.82.25s0,0,0,0,.08,0,.08,0Zm-.61-.12c.08,0,.13,0,.15,0S98.44,14.91,98.42,14.93Zm-.28.14a.23.23,0,0,0-.13,0A.23.23,0,0,0,98.14,15.07Zm.87.27h0s.11,0,0,0v0h0c-.06,0-.16,0-.12,0S99,15.36,99,15.34Zm.86.33c-.05,0-.07,0,0,0s.14,0,.14,0S99.94,15.67,99.87,15.67Zm.39-.31-.59,0c-.13,0-.27.06-.17.1s.34,0,.5,0l.16-.05a1.27,1.27,0,0,0,.38.1C100.34,15.46,100.51,15.4,100.26,15.36Zm-.19-.14h-.13C100,15.24,100.06,15.24,100.07,15.22Zm1.08.4h-.05s0,0,0,0,.05,0,0,0h0Zm-3.08-1.3s0,0,0,0-.08,0-.07,0Zm2.46,1,0,.07.17,0S100.73,15.29,100.53,15.29Zm0-.07h-.06s0,0,0,0h0Zm-.2,0h0Zm-.44-.37h0Zm.88.33h0c.18,0,.18,0,.18,0a.53.53,0,0,0-.18,0h0Zm.62.18h0s0,0-.09,0h.12a.16.16,0,0,0,.14,0S101.47,15.33,101.39,15.33Zm-.55-.31a.43.43,0,0,0-.27.07.75.75,0,0,0,.23,0C100.87,15.06,100.9,15,100.84,15Zm-.16-.08h0Zm-.34-.15a.25.25,0,0,0-.15,0l.15,0h0c-.07,0-.15,0-.16,0a.36.36,0,0,0,.19,0c.06,0,0,0,0-.05h0C100.4,14.82,100.42,14.8,100.34,14.79ZM100,14.6a.75.75,0,0,0-.22,0c-.21,0-.21,0-.25,0a2.47,2.47,0,0,0-.4.07,1.37,1.37,0,0,0,.47,0l-.06,0,.24,0A.33.33,0,0,0,100,14.6Zm-5-1.7h-.14C94.9,12.92,95,12.92,95,12.9Zm3.92,1.66h0Zm.8-.11c-.22,0-.29,0-.31.05h0Zm2.25.94H102s0,0,.09,0h-.15Zm-1.32-.62h-.06S100.63,14.79,100.62,14.77Zm2.15.86-.1.06C102.9,15.65,102.9,15.65,102.77,15.63Zm-1-.43c-.07,0-.12,0-.13,0S101.76,15.22,101.78,15.2Zm-2.25-.94h-.1l-.06,0h0v0h0l-.28,0a1.28,1.28,0,0,0-.29,0c-.17,0-.06.08-.1.12.19,0,.22.06.37.08l.18-.06c.08,0,.24,0,.28-.07s0,0,0-.06h0Zm-1.87-.32h0Zm-.73-.39h0a.24.24,0,0,0-.14,0S96.85,13.55,96.93,13.55Zm1.81.66H99s0,0,0,0S98.8,14.18,98.74,14.21Zm-.74-.4h0C97.92,13.8,97.93,13.81,98,13.81Zm-1.83-.93h0l0,0h0v0Zm-.12-.06c-.11,0-.19,0-.21,0S96,12.85,96.05,12.82Zm.86.47h0C96.83,13.28,96.84,13.29,96.91,13.29Zm7.6,2.78c-.08,0-.12,0-.14,0h.11A0,0,0,0,0,104.51,16.07Zm-.82-.66h-.06c-.06,0,0,0,0,0h0Zm.61.06a.48.48,0,0,0-.21,0Q104.26,15.52,104.3,15.47Zm0-.22h-.11a3.75,3.75,0,0,1-.68,0,2.07,2.07,0,0,0-.58.06,1.18,1.18,0,0,0-.55,0h-.1l0,0h0l-.05,0,.53,0h0s.09,0,.18-.06a.31.31,0,0,0,.18,0h.11l.09,0,1,0C104.34,15.29,104.37,15.27,104.33,15.25Zm-4.63-1c.16,0,.32-.07.23-.13l-.31.06h0S99.51,14.2,99.7,14.21Zm-3-1.23h0Zm1.92.73h0s-.06,0,0,0Zm1.87.85h0Zm1,.48c.11,0,.13,0,.14,0s0-.06-.2-.06C101.47,15,101.38,15,101.53,15Zm-.82-.64.06,0h0s-.07,0,0,0,0,0,0,0H101s.08,0,0-.07l-.3.06h0Zm1.6.78c.27,0,.31,0,.29,0A1.06,1.06,0,0,0,102.31,15.18ZM100,13.85h0Zm1,.16a.48.48,0,0,0-.21,0Q100.92,14.06,101,14Zm.74.37h0Zm.86.44,0,0h0s-.12,0,0,0v0h0c.06,0,.12,0,.08-.06S102.54,14.8,102.55,14.82Zm.69,0h-.09A.09.09,0,0,0,103.24,14.81Zm.75.34h0Zm-2-.91c.12,0,.19,0,.21,0A.41.41,0,0,0,102,14.24Zm-.68-.34h0Zm2.8,1.16a.23.23,0,0,0,.13,0A.23.23,0,0,0,104.14,15.06Zm.53.11h0a1.38,1.38,0,0,0-.22,0,.5.5,0,0,0,.25,0c.06,0,0,0,0-.05h0Zm-.11-.08h0C104.48,15.08,104.49,15.09,104.56,15.09Zm1.9.79h0c.08-.06.08-.06,0-.08h-.05s0,0,.09.07h0Zm.32,0c-.12,0-.14,0-.12,0h0C106.72,15.94,106.81,15.94,106.78,15.91Zm-5.07-2.12s0,0,.06,0S101.79,13.79,101.71,13.79Zm-.55-.16c.17,0,.18,0,.08,0S101.13,13.61,101.16,13.63Zm-.06-.09a1,1,0,0,0-.4,0,.38.38,0,0,0,.2.06A.51.51,0,0,0,101.1,13.54Zm5,2s0,0,.06,0S106.16,15.54,106.08,15.54ZM105,15h0Zm-2.89-1.21h0c.05,0,.08,0,.07,0Zm1.18.44s0,0,.06,0S103.37,14.25,103.29,14.25Zm3.76,1.48h0S107.05,15.74,107.05,15.73Zm-4.41-1.82h0Zm.33.1c.06,0,.12,0,.11,0a.44.44,0,0,0-.21,0Zm.12,0a.25.25,0,0,0,.14,0A.2.2,0,0,0,103.09,14Zm.14.06h0Zm3.07,1.23s0,0,0,0h0Zm.74.29a.13.13,0,0,0,.06,0h.08S107.15,15.63,107,15.62Zm-1.56-.73h0Zm1.57.57c.07,0,.08,0,.07,0H107l-.06,0S107,15.47,107.05,15.46Zm.27.06a.18.18,0,0,0-.14,0h.16C107.4,15.54,107.39,15.53,107.32,15.52Zm-.49-.22,0-.05c-.12,0-.13,0,0,.05h0Zm-2.07-.84h0Zm-.17-.12h-.18a.48.48,0,0,0-.18,0c-.1,0-.12,0-.07,0a.69.69,0,0,0,.25,0h.11C104.58,14.36,104.65,14.36,104.59,14.34Zm-.57-.12s0,0-.09,0l-.06,0C104,14.24,104,14.24,104,14.22Zm.29-.07c-.1-.08-.1-.08-.39-.08Zm1.71.71s0,0-.06,0S106,14.86,106,14.86Zm-.85-.35c.06,0,.12,0,0,0S105,14.49,105.17,14.51Zm1.36.62a.57.57,0,0,0,.22,0A.33.33,0,0,0,106.53,15.13Zm.42,0h0Zm.15.07h0l0,0Zm.64.22h-.06a.5.5,0,0,0-.21,0,.49.49,0,0,0,.21,0h.06Zm-.72-.41h0l.07-.05h0l0,0H107a.34.34,0,0,0-.2,0,1.34,1.34,0,0,0,.2,0h0l0,0h0L107,15v0Zm1.2.35Zm-.25-.06h0Zm-.32-.15h-.05s0,0,0,0a.09.09,0,0,0,.07,0S107.66,15.2,107.65,15.19Zm.72.26a.51.51,0,0,0-.18,0s0,0,0,0A.34.34,0,0,0,108.37,15.45Zm.56,0s0,0,.06,0S109,15.42,108.93,15.41Zm-1.07-.5h-.06a.39.39,0,0,0-.23-.05s.08.05.23.05h.06Zm1.4.56h0Zm-1.91-.85a1.53,1.53,0,0,0-.45,0A1.38,1.38,0,0,0,107.35,14.62Zm1.66.69h0Zm-.91-.53c-.12,0-.19,0-.19.05s-.1,0,0,0l0,0C108,14.82,108.1,14.81,108.1,14.78Zm1.16.12h-.07l-.23,0h0l.05,0s0,0-.1,0l0,0h0c-.07.05,0,.06.12.05h.18Zm.54.08h0Zm-1.46-.29h0c.06,0,.08,0,0,0h0l.17,0,0-.08.18,0-.11-.06s0,0-.07,0,0,.05-.13.07l-.26,0,.24.12h0c-.06,0-.07,0,0,0h0Zm-.64-.17h0Zm1,.39h0Zm0,.06s0,0,.07,0h-.07Zm-1-.4h-.2S107.6,14.6,107.73,14.57Zm.16.15s0,0,0,0S107.83,14.72,107.89,14.72Zm-1.31-.23s-.08,0,0,.07a.67.67,0,0,0,.25,0c.08,0,.24,0,.24,0l-.06,0h0l0,0H107c-.07,0-.17,0-.18-.06s0,0-.1-.06a.37.37,0,0,0-.21,0c-.07,0,0,0,0,.07l-.09.08,0,0Zm.17.21s.08.07.15.1h0l-.52,0c0,.07,0,.07.16.12s-.07-.06.06-.08h.25a.34.34,0,0,0,.2,0h-.2l0-.1h0a1.85,1.85,0,0,0,.46-.09s0,0-.07,0-.13.05-.3.05Zm-1.68-.38h0Zm1.2.24c-.07,0-.11,0-.13,0S106.26,14.58,106.27,14.56ZM105,14.13a.83.83,0,0,0,.32,0A.59.59,0,0,0,105,14.13Zm1.4.64h0Zm-1-.42Zm-.65-.22a.65.65,0,0,0-.27.09s0,0,.08.08.2,0,.26,0l-.13,0,.21-.05S104.85,14.13,104.74,14.13Zm-1.83-.49c.29,0,.29,0,.41-.08a.6.6,0,0,0-.24,0C103,13.57,102.91,13.6,102.91,13.64Zm-1.6-.89a.88.88,0,0,0-.39.05A1,1,0,0,0,101.31,12.75Zm-2.75-1h0Zm.54,0a.79.79,0,0,0-.26,0s.09,0,.18,0S99.11,11.8,99.1,11.78ZM96.94,11a.31.31,0,0,0,.21,0Q96.93,11,96.94,11Zm.44.34c.14,0,.25,0,.27,0a.7.7,0,0,0-.25,0Zm.67.34a.21.21,0,0,0,.15,0C98.12,11.65,98.07,11.66,98.05,11.68ZM101.22,13h0S101.15,13,101.22,13Zm.39.27h.13l.06,0h.35s0-.06-.17-.07-.14,0-.12,0h0l-.12,0h0a.2.2,0,0,0-.16,0Zm.73.26h0c.06,0,.09,0,0-.05S102.32,13.54,102.34,13.56Zm.39.22s0,0,0,0a.84.84,0,0,0,.28,0c.08,0,.13,0,0-.07ZM95.86,11h0Zm6.37,2.6,0,0h0s-.06,0,0,0h-.14a.44.44,0,0,0-.2,0s0,0,.06,0l.14,0h0a.69.69,0,0,0,.27.09v-.07l-.17,0h0s.06,0,0,0h0c.09,0,0,0,0,0h0a.24.24,0,0,0-.14,0s.06,0,.14,0h0ZM98.5,12.25c-.07,0-.11,0-.13,0S98.48,12.27,98.5,12.25Zm1.91.81h0Zm.87.42a1.42,1.42,0,0,0,.37,0A.51.51,0,0,0,101.28,13.48ZM96,11.18l-.22.07h.14a.5.5,0,0,0,.25-.07Zm-2.57-.92c.07,0,.11,0,.11,0h-.16S93.32,10.26,93.39,10.26Zm9.9,4.12s0-.06-.21-.07C103.1,14.34,103.14,14.36,103.29,14.38ZM94,10.62h0Zm.44.34c.16,0,.24,0,.23,0A.47.47,0,0,0,94.41,11Zm1.14.36h0s0,0,0,0,0,0,0,0h0Zm2.21,1.23c.09,0,.08,0,.12,0l.74,0c.13-.05.08-.08-.05-.1a2.09,2.09,0,0,0-.41,0A1.26,1.26,0,0,0,97.76,12.55Zm2.79,1.23s.07,0,.15,0v.07h0l-.31,0h.23a.71.71,0,0,0,.22,0l-.14-.06h0l.77-.1c.06,0,.12,0,0,0s-.45,0-.67,0l-.13,0A.32.32,0,0,0,100.55,13.78Zm-7.46-3.12s0,0,0,0h0Zm.29.2h0Zm3.4,1.67a.25.25,0,0,0,.14,0A.27.27,0,0,0,96.78,12.53Zm.56.32.31,0c.25-.06.33-.11.2-.19s-.21.07-.24.11S97.3,12.8,97.34,12.85Zm3.15,1.34h-.06l-.4.08C100.43,14.23,100.43,14.23,100.49,14.19ZM100,14a1.2,1.2,0,0,0-.38.05A1,1,0,0,0,100,14Zm-.32-.06a.43.43,0,0,0-.22,0h.18S99.73,14,99.7,13.94Zm-4.15-1.36h0a.4.4,0,0,0,.16,0l.25,0h0l0,0c.1,0,.15,0,.15,0s-.08,0-.17,0h0A1.11,1.11,0,0,0,95.55,12.58Zm-3.7-1.52h0ZM94.1,12c.08,0,.09,0,.1,0C94,12,94,12,94.1,12Zm1.74.76a1.42,1.42,0,0,0-.41,0v.07h0a.75.75,0,0,0,.24,0,.71.71,0,0,1,.17,0h0a2.57,2.57,0,0,0,.48,0h0a2,2,0,0,0,.42,0s.11,0,0,0l-.38,0h0a.86.86,0,0,0-.31,0l-.17,0h0ZM93.39,12a.4.4,0,0,0,.2,0l.13,0h0s.06,0,.1,0h-.11A.59.59,0,0,0,93.39,12Zm.89.45h0Zm.45.23c-.09,0-.2,0-.21.09h.3c.09,0,.26-.05.21-.09A.73.73,0,0,0,94.73,12.72Zm-4.37-1.56h0Zm3.2,1.46h-.31l.17.07h-.31a.34.34,0,0,0-.2,0h.21a.46.46,0,0,0,.17,0c.1,0,.14,0,.13,0h0l.48-.06a.69.69,0,0,0,.33,0l.15,0h0a.07.07,0,0,0,.09,0h-.12a1.48,1.48,0,0,0-.47,0,.28.28,0,0,0-.16,0Zm-1-.36h0C92.46,12.25,92.47,12.26,92.54,12.26Zm-.38-.08c-.08,0-.13,0-.13.05h0c.11,0,.25,0,.37,0l.07,0A1.06,1.06,0,0,0,92.16,12.18Zm-.86-.25h0c-.18,0-.37,0-.51.07s-.39,0-.53.06l-.09,0c.08,0,.14,0,.2,0h.27l.28,0L91,12c.08,0,.34,0,.33-.08h0c.11,0,.26,0,.3-.06C91.4,11.87,91.3,11.88,91.3,11.93Zm37.87.27Zm-3-.94h0l.12,0h0l-.11-.05H126l.12,0Zm8.78.08-.06,0,0,0Zm-7.33-4.75h0l0,0h0Zm-.31-.19Zm11.89-.78h.23l-.08,0-.14,0h0ZM135,6.54h0a0,0,0,0,1,0,0l.07,0H135Zm-12-.29c.33.15.91.4,1.48.63l-.29,0c-.07,0-.09,0,0,.07a2.71,2.71,0,0,0,.41,0l.83.34-.11.05s.08,0,0,.06h-.15c-.05,0,0,0,0,0h0c-1.1.14-1.09.35-.39.69l.58.27s-.1,0,0,0h.18l.78.33-.14,0c-.06,0-.07,0,0,0l.17,0L129,9.88s-.07,0,0,0h.13c.95.39,1.75.71,2,.81a6,6,0,0,0,2.56.32l.42-.05.7.3a.52.52,0,0,0-.21,0,1.79,1.79,0,0,0-.36,0l.06,0,.44,0,.13,0,.11,0,1.83.75s-3.74.45-5.84.72-5.78.75-5.78.75c-.6-.26-2-.86-2.69-1.12l.36,0c1.35-.18,1.2-.42.65-.7,0,0,0,0,0,0h0c-.33-.16-1.94-.84-3.47-1.48l.16,0a.57.57,0,0,0-.19,0c-1.23-.51-2.39-1-2.78-1.12a5.9,5.9,0,0,0-3.08-.26l-.27,0c-.6-.27-2-.85-2.65-1.11,0,0,3.83-.46,6-.74S123.06,6.25,123.06,6.25Zm-9.33,1.92h0Zm11.53,5.33c-.07,0-.11,0-.13,0S125.25,13.52,125.26,13.5Zm.4-.28a1.05,1.05,0,0,0-.31,0s-.13,0,0,.05C125.64,13.28,125.64,13.28,125.66,13.22Zm.39.15h0Zm-.45-.23h0c-.06,0-.15,0-.12,0s.14,0,.12,0h0Zm.68.07a.51.51,0,0,0-.18,0s0,0,.09,0Zm0-.15h0a.2.2,0,0,0,.14,0S126.4,13.06,126.33,13.06Zm-1.07-.54a.2.2,0,0,0-.14,0A.27.27,0,0,0,125.26,12.52Zm-1.11-.59h-.1s0,0,.06,0Zm10.62-.46h.12A.2.2,0,0,0,134.77,11.47Zm-.6-.25a.65.65,0,0,0,.31,0A.54.54,0,0,0,134.17,11.22Zm-.88-.05.08,0-.17,0S133.22,11.17,133.29,11.17ZM122.45,7s.08,0,.07,0h-.08S122.43,7,122.45,7Zm.43.21h0c.06,0,.16,0,.12,0s-.15,0-.12,0h0Zm-.4.06h.06l-.09,0h0A.11.11,0,0,0,122.48,7.29Zm.94.45c.23,0,.23,0,.13-.09S123.39,7.7,123.42,7.74Zm.41.13h0S123.9,7.86,123.83,7.87Zm-.32-.07h0ZM122,7.26h.12s0,0-.06,0S122,7.24,122,7.26Zm4.11,1.66.06,0,.09,0s0,0,0,0S126.07,8.9,126.07,8.92Zm-.94-.25c.13,0,.1.07.29.07l.07-.05Zm2.38,1h0s-.08,0,.06.05l-.06-.05h0Zm-.38-.13a.23.23,0,0,0-.13,0C127.07,9.56,127.12,9.56,127.13,9.54Zm.74.41h0a.74.74,0,0,0-.44.06Zm1.06.68h0Zm2.17.8s-.09.06.11.06l.23-.09s0,0-.07,0l-.27,0h0s0,0-.07,0-.11,0,.07,0Zm-3.51-1.66-.1.05-.23,0c-.06,0-.11,0-.05.06a1.51,1.51,0,0,0,.49-.08ZM123.36,8h0Zm1,.43h0Zm-3.81-1.53h0c.06,0,.15,0,.13,0s-.15,0-.13,0h0Zm2.73,1.27h0l.1,0h0l.11,0h0c.08,0,.08,0-.11,0h-.11v0h0Zm3,1.64c-.17.07-.35.11-.3.17.31,0,.28-.07.45-.1l.5-.08.27-.11C126.91,9.75,126.71,9.83,126.35,9.84Zm.87.12h0Zm3.67,1.54c-.08,0-.17,0-.17.06C131,11.54,131,11.54,130.89,11.5Zm-.09.19h0v0h0l0,0h0ZM126.67,10h0v0h0v0h0Zm2.68,1.5h0a.74.74,0,0,0,.37.09A.69.69,0,0,0,129.35,11.48ZM127,10.37h0a.8.8,0,0,0-.27,0l-.26.05h0A1.49,1.49,0,0,0,127,10.37Zm2.37,1.51h0a.35.35,0,0,0,.23,0,.85.85,0,0,0-.23,0h0c-.11,0,0-.06,0-.09-.3,0-.3,0-.26.1A1,1,0,0,0,129.34,11.88Zm.07.07h0Zm-1.23-.55s-.05,0-.16,0-.07,0,0,0h.18c.27,0,.27,0,.32-.05h-.12a.6.6,0,0,0-.2.06h0Zm-2.32-1h0Zm2.11.89h0Zm-2.22-1h0Zm2.45,1h0Zm.34.18s0,0,.25,0C128.79,11.51,128.74,11.49,128.54,11.49Zm-.15.09h0Zm.89.14h0c.14,0,.27,0,.43,0a1.73,1.73,0,0,0-.42-.17c-.12,0-.12.06-.08.08s.05.07.07.1h0c-.06,0-.14,0-.13,0S129.28,11.74,129.28,11.72Zm-2.5-1.2-.06.06C126.92,10.57,126.94,10.56,126.78,10.52Zm2.22.92c-.05,0,0,0,0,0h0Zm-2.59-1.15c-.2,0-.24,0-.18.06S126.4,10.32,126.41,10.29Zm-3.22-1.81h.09s0,0,0,0Zm-1.64-.63h0S121.49,7.85,121.55,7.85Zm1.2.59a.23.23,0,0,0,.13,0A.23.23,0,0,0,122.75,8.44Zm.18.08h0Zm-.17.12s0,0-.07,0S122.68,8.64,122.76,8.64Zm2.79,1.3a1.05,1.05,0,0,0,.34,0s-.12,0-.22,0Zm-6.81-2.7c.07,0,.11,0,.13,0S118.76,7.22,118.74,7.24Zm1,.6s0,0,0,0h0S119.79,7.84,119.72,7.84Zm5.2,2.17h0ZM118.57,7.4h0S118.51,7.4,118.57,7.4Zm3.72,1.7a.45.45,0,0,0,.21,0Q122.34,9.06,122.29,9.1Zm2.46,1.16a1.53,1.53,0,0,0,.3,0c.28,0,.39-.12.71-.15h0a.58.58,0,0,0,.34,0h0c.17,0,.18,0,.17,0a.58.58,0,0,0-.17,0h0l-.34,0h0s.14-.07,0-.11a1.12,1.12,0,0,0-.69.19ZM129.2,12a.61.61,0,0,0-.19,0s0,0,0,0A.31.31,0,0,0,129.2,12Zm-.07.06-.07,0h.11S129.19,12,129.13,12Zm-1.19-.52h0Zm-2.31-.92h0a.24.24,0,0,0-.14,0S125.55,10.6,125.63,10.6Zm-.46-.09h0Zm2,1h0v0l0,0h0Zm-.7-.25h0s.08,0,.07,0h-.08Zm-.66-.29c-.07,0-.11,0-.12,0h0Zm2.06.73a.39.39,0,0,0-.2,0S127.79,11.67,127.91,11.65Zm-8.46-3.47h0Zm-.17,0h0Zm4.84,2.11-.05,0h.12a.82.82,0,0,0,.28,0l0,0a1,1,0,0,0-.25,0h0l-.06,0h0Zm1.17.59h.06l.08,0A.18.18,0,0,0,125.29,10.83Zm-6.7-2.61,0,0h0l0,0S118.47,8.22,118.59,8.22Zm3.19,1.34c.07,0,.11,0,.13,0S121.8,9.54,121.78,9.56Zm-4-1.34c.12,0,.2,0,.22,0A.54.54,0,0,0,117.77,8.22ZM121,9.49h0Zm1.84.85c.22,0,.3,0,.31-.05h0Zm.45.11h0ZM117,8.22h.06l0,0h-.06C117,8.21,117,8.22,117,8.22Zm8.16,3.45h.1l.13,0C125.12,11.63,125.12,11.63,125.17,11.67Zm.32,0s0,0,.06,0,0,0,0,0Zm.18.28h.17s0,0,0,0A.18.18,0,0,0,125.67,12Zm-.6-.19h0Zm-2.79-1.16h0Zm-.06,0c.07,0,.11,0,0,0s-.19,0-.19.07h0s0,0,.15.06l-.15-.06h0Zm-5.45-2.29h0Zm2.59,1.12s0,0-.07,0S119.28,9.4,119.36,9.4Zm1.93.81h0S121.3,10.2,121.29,10.21Zm-.07.13,0,0h0c-.06,0-.15,0-.13,0s.14,0,.13,0h0a1.48,1.48,0,0,0,.3,0s.05,0,0,0a1.83,1.83,0,0,0-.35,0h-.12s-.11,0-.06,0h.18Zm-.15.22s0,0,.07,0h-.07Zm-2.91-1.2a.28.28,0,0,0-.14,0C118.09,9.38,118.14,9.38,118.16,9.36Zm5.09,2.14c.09,0,.2,0,.06-.06S123.24,11.47,123.25,11.5Zm4,1.61h-.1s0,0,0,0h0l.07,0S127.34,13.1,127.3,13.11Zm-.44-.16h0s.1,0,0,0v0h0v0Zm-.53-.26h-.15s0,0,0,0a.26.26,0,0,0,.15,0S126.33,12.7,126.33,12.69Zm-1.39-.63h-.09s0,0,.05,0Zm.7.27h0Zm-1.16-.52h-.06a.34.34,0,0,0-.15,0s.06,0,.15,0h.06Zm-3.92-1.63h0Zm1.12.42h-.07S121.62,10.61,121.68,10.6ZM125.3,12h0Zm-.2-.15h-.2a.37.37,0,0,0-.18,0,.55.55,0,0,0,.18,0h0l.06,0h0S125.12,11.89,125.1,11.87Zm.78.16c-.08,0-.18,0-.18.07S126,12.09,125.88,12Zm2.53,1.07h0Zm.14,0h-.06a.62.62,0,0,0-.29,0,1.23,1.23,0,0,0,.29,0h.06Zm-.21-.17c-.07,0-.11,0-.12,0S128.32,12.9,128.34,12.88Zm-2.24-1c-.07,0-.11,0-.13,0h.13ZM123,10.39a2.37,2.37,0,0,0-.71.06l.14,0A2.84,2.84,0,0,0,123,10.39Zm2.4,1.08h.06l.07,0C125.48,11.45,125.44,11.45,125.42,11.47Zm.13.12h.32l.11,0s0,0,0-.05h-.29C125.57,11.55,125.53,11.57,125.55,11.59Zm1.17.26h0a.14.14,0,0,0,.11,0h-.13c-.22,0-.23,0-.28,0A2,2,0,0,0,126.72,11.85Zm1,.45h0Zm-1.07-.52a1.12,1.12,0,0,0-.4,0A.7.7,0,0,0,126.64,11.78Zm-.49-.18h0S126.21,11.6,126.15,11.6Zm2.29,1.13c0-.08.16-.13-.05-.18a1.08,1.08,0,0,0-.32,0A1,1,0,0,0,128.44,12.73Zm1,.2h-.12a.51.51,0,0,0-.29,0,.91.91,0,0,0,.29,0h0S129.41,13,129.46,12.93Zm-.32-.12s0,0,.05,0S129.2,12.82,129.14,12.81Zm-1.94-.94c-.07,0-.11,0-.13,0S127.18,11.89,127.2,11.87ZM126,11.36c-.17,0-.2,0-.22.07a.35.35,0,0,0,.21,0C126.06,11.41,126.13,11.38,126,11.36Zm-.09-.13v.06l.22,0h.09c.06,0,.05,0,0,0h0c.06,0,.06,0-.11-.05h0v-.06h0c.09,0,0,0,0-.06h0c-.06,0-.15,0-.14,0l.14,0h0c-.18,0-.18,0-.11.07h-.13l-.12,0c-.11,0-.18,0-.18.06a2.77,2.77,0,0,0,.3,0h0Zm1.53.37h0s-.06,0-.22,0l0,0a.74.74,0,0,0,.26,0h0Zm-.84,0h.17c.08,0,.12,0,0-.05A.35.35,0,0,0,126.58,11.56Zm2.49,1s0,0,.07,0S129.14,12.53,129.07,12.52Zm-1.72-.86a1.37,1.37,0,0,0-.31,0l.06,0C127.41,11.7,127.41,11.7,127.35,11.66Zm.26.14a.27.27,0,0,0,.16,0l.35,0h0a.26.26,0,0,0,.15,0s-.07,0-.15,0h0a.36.36,0,0,0-.18,0A2,2,0,0,0,127.61,11.8Zm1.73.69h0Zm-1.14-.56a.5.5,0,0,0,.21,0,.49.49,0,0,0-.21,0h0Zm.57.14c-.17,0-.17,0-.05,0S128.81,12.08,128.77,12.07Zm.7.25.05,0h-.1l.05,0h0Zm1.51.4h0Zm.39,0h0c-.08,0-.16,0-.18,0l.08,0c.11,0,.12,0,.1-.06h0ZM130,12a.55.55,0,0,0-.36.09l.17,0h0l.05,0h0a2.33,2.33,0,0,1-.54,0h0c-.09,0-.18.05-.12.08h.29c.17,0,.4-.06.37-.13h0l0,0h-.11s.14-.05.2-.08S130,12,130,12Zm.34.09h0Zm-.41-.25a.47.47,0,0,0-.21,0c-.05,0,0,0,.1,0S129.89,11.8,129.89,11.79Zm.68.24v0h0s-.11,0,0,0v0h0S130.68,12,130.57,12Zm0-.11h0c.05,0,.16,0,.12,0l-.18,0h0s0,0-.06-.05a1.56,1.56,0,0,0-.3,0l.06,0h0q-.1,0,.06,0h0a.32.32,0,0,0,.16,0C130.52,12,130.55,11.94,130.55,11.92Zm.6.2h0l.05,0h-.11a.39.39,0,0,0-.22,0,.49.49,0,0,0,.21,0l.07,0h0Zm.53.16h0Zm-1.34-.61c-.05,0,0,0,0,0h0c-.1,0-.26,0-.32,0l.14,0h0s-.09,0,0,0h0c.1,0,.2,0,.18,0h0C130.45,11.69,130.48,11.68,130.34,11.67Zm-.74-.37,0,0a.68.68,0,0,0-.32.09,2.17,2.17,0,0,0,.51,0h0l-.18-.08S129.71,11.3,129.6,11.3Zm1,.32h0a.32.32,0,0,0-.14,0S130.53,11.62,130.61,11.62Zm1.62.3-.36.07a1.68,1.68,0,0,0-.3,0,.66.66,0,0,0,.25,0A1.39,1.39,0,0,0,132.23,11.92Zm.12,0s0,0,.06,0S132.42,11.91,132.35,11.91Zm-.55-.36s.2,0,.16-.06a1.4,1.4,0,0,0-.36,0,.78.78,0,0,0-.37.05s-.3,0-.29.06l.17.07h0c-.12,0-.17.07-.17.11h.19l.31-.07h.21l0-.06a2.94,2.94,0,0,1-.51,0h0l.76-.1Zm1,.14h.24S133,11.65,132.85,11.69Zm-.57-.26.33,0h0a1.41,1.41,0,0,0,.29,0h0s-.06,0-.14,0l-.48.06-.08,0,.06,0-.2,0s0,0,.07,0l.4-.07v0a2.21,2.21,0,0,0,.58,0c-.1,0-.2,0-.31,0a.54.54,0,0,1,.19,0l.07-.08s.17-.06.14-.1h-.19l-.12,0h0a.94.94,0,0,0-.29,0h0A.59.59,0,0,0,132.28,11.43Zm-3-1.23h0a1.07,1.07,0,0,0-.3.06c.16,0,.31,0,.3-.06h0c.06,0,.15,0,.13,0S129.27,10.18,129.28,10.2Zm-4.14-1.9c-.19,0-.27,0-.29.06h.24S125.17,8.32,125.14,8.3Zm-.52-.22c-.05,0-.07,0-.05,0h.05l0,0Zm-2.68-1.15-.13,0h0A.33.33,0,0,0,122,7S122.14,6.94,121.94,6.93Zm2.19.78h0l0,0h0Zm-.27-.19c-.07,0,0,0,0,0h0c-.06,0-.08,0,0,.05a.36.36,0,0,0,.15,0l-.15,0h0C123.93,7.54,124,7.53,123.86,7.52Zm-.31-.2c-.07,0-.11,0-.13,0h.13Zm0-.19h-.1s0,0,.06,0Zm.85,0a.41.41,0,0,0-.24,0h.22S124.4,7.15,124.38,7.15Zm.42-.09h.14C124.86,7,124.82,7,124.8,7.06ZM103,13.38l-.06,0H103Zm-2.65,2.49h0Zm37.54-6.19,0,0h0S137.92,9.68,137.87,9.68ZM127.58,6.4h0Zm8.91-1.76h0Zm-3.63,3h0Zm.9-1.47Zm3.7-.57ZM133,5.37h0l.06,0h0C133,5.34,133,5.36,133,5.37Zm-6.38,1.34h0ZM99.37,14.5h0Zm.06-.24h0c-.07,0-.06,0,.06,0h0l0,0Zm1.7,1.37h0Zm-.49.26h0Zm-.47-.47s.1,0,0,0Zm7.27-6.6h0ZM92.62,12.55a.4.4,0,0,0-.19,0A.59.59,0,0,0,92.62,12.55ZM99,14.4c.07,0,.12,0,0-.06S98.86,14.37,99,14.4Zm8.06.6h0Zm-.08-.55h0l-.06,0h0l0,0Zm-5.09-1.13h0l0,0h-.11l0,0Zm.85,2.07Zm1.88-.21h0Zm-2.24.12h-.12C102.39,15.34,102.41,15.33,102.41,15.3Zm7.77-.53h-.13l.07,0s.07,0,.06,0h0ZM105.77,9.3Zm-1,.22a.4.4,0,0,0-.16,0Zm1-.32h0a.93.93,0,0,0-.24,0h0A.51.51,0,0,0,105.79,9.2Zm-.86.32s.12,0,.07,0l-.17,0Zm6.52,1.29h.1S111.5,10.78,111.45,10.81Zm-3.71.32ZM92,13s-.07,0,0,.05h.23L92,13Zm-.48.2.12,0h0l0,0h0c-.06,0-.08,0-.06,0Zm7.77-2.6c-1.45-.68-1.76-1.23,2-1.7a27.15,27.15,0,0,1,3-.22h0s.1,0,.07,0a28.18,28.18,0,0,1,2.9.09h0l-.2.11h0l.17,0,.2-.11h.1c.91.09,1.83.22,2.74.39l-.08,0h.19l1.21.26h-.08a.65.65,0,0,0,.2,0,28.42,28.42,0,0,1,4.3,1.41,8.93,8.93,0,0,1,2.4,1.34.18.18,0,0,0-.1,0h.1l0,0,0,0c.69.65.56,1.23-.3,1.72h0l0,0-.28.08h0s0,0-.1,0h.11l.1,0a10,10,0,0,1-2.14.68h0l-.08,0h.06c-.61.14-1.29.26-2.06.37,0,0,0,0,0,0a2,2,0,0,0-.43,0l-.06,0,.23,0-.45.06c.27-.39-.14-.76-1.25-1.32s-2.29-1.09-4.29-1.92l-.7-.28c.06,0,.11,0,.12,0a.4.4,0,0,0-.22,0c-.71-.28-1.34-.5-1.92-.68,0,0,.28,0,.27-.05a3.92,3.92,0,0,0-.66-.06h0s.2,0,.17-.06l-.2,0-.18,0c-.1,0-.11,0-.2-.05A11.52,11.52,0,0,0,99.31,10.62Zm13.81,4.16c-.08,0-.13,0-.15,0S113.1,14.8,113.12,14.78Zm-1.87-1h0Zm-8.51-3.41h-.18s0,0,0,0A.25.25,0,0,0,102.74,10.32Zm.42,0h0Zm1.41.37h0a2.07,2.07,0,0,0,.47-.06l-.06,0h0a1.24,1.24,0,0,0-.46,0l0,0h0c-.08,0-.23,0-.23,0S104.56,10.77,104.57,10.74Zm-1.28-.46Zm.36.1h0Zm.26-.45s.13,0,0,0v0c-.08,0-.06,0-.07.05s-.18,0-.17,0l.15,0,.36-.12Zm6.26,1.35c-.07,0-.09,0,0,.05a.31.31,0,0,0,.17,0l-.16,0h0c.06,0,.15,0,.12,0s-.13,0-.12,0h0Zm-4.1-1.73h0Zm4.31,1.84a1.71,1.71,0,0,0-.57,0,.79.79,0,0,0,.29.08C110.21,11.48,110.42,11.45,110.38,11.39Zm2.42,1.29c.07,0,.11,0,.13,0S112.81,12.66,112.8,12.68Zm-4.39-1.93h0l0,0h-.11l.06,0h0c-.08,0-.1,0,0,0S108.44,10.76,108.41,10.75Zm-.67-.3c-.07,0-.17,0-.15.06a1,1,0,0,0,.3,0S107.94,10.45,107.74,10.45Zm1.86.89c.05,0,0,0,0-.05h0s0,0,0,0l0,0h0C109.49,11.31,109.46,11.33,109.6,11.34ZM107.06,10a.78.78,0,0,0-.28,0c-.11,0,0,.1-.2.13s0,0,0,0h.28C106.83,10.08,107.15,10.05,107.06,10Zm-.57-.23h0S106.51,9.78,106.49,9.77Zm-.36-.14c-.2,0-.2,0-.27.12h0s-.08,0,0,0,0,0,0,0h0Q106.15,9.71,106.13,9.63Zm-.27-.08-.08,0a6.39,6.39,0,0,1-.64.05l-.17,0-.06.08a3.32,3.32,0,0,0-.64.27l.19.08h0c-.08,0-.16,0-.14,0l.24,0a.61.61,0,0,0,.23,0l-.33,0h0l.12-.1a1.17,1.17,0,0,0,.22,0c.22-.07.45-.15.5-.24h0l0,0c.11,0,.27,0,.38,0s.1,0,.06-.07Zm1,.83h0s.08,0,0,0,0,0,0,0h0a2.79,2.79,0,0,1-.5,0s.25-.05.1-.08a1.61,1.61,0,0,0-.39,0s-.15.07-.1.11a.63.63,0,0,0,.35,0l.52-.1S106.88,10.39,106.88,10.38Zm.76.35s0,0,.16,0C107.76,10.75,107.79,10.73,107.64,10.73Zm4.94,2.69Zm-5.26-2.16h-.1l0,0h0s-.14,0-.13,0h.1l0,0h0S107.33,11.28,107.32,11.26Zm4.49,1.91a.34.34,0,0,0-.15,0,.44.44,0,0,0,.17,0S111.84,13.17,111.81,13.17ZM106.22,11a.48.48,0,0,0-.24,0h0A.4.4,0,0,0,106.22,11Zm4,1.69h0Zm-2.8-1h.12C107.52,11.62,107.48,11.62,107.46,11.64Zm-1.23-.52.08,0h-.09l0,0Zm4.25,1.72h0Zm-4-1.7h0s0,0,0,0Zm-.72-.27h0l-.08,0C105.7,10.89,105.74,10.88,105.75,10.87Zm.39-.12-.11,0c.14,0,.18,0,.18,0Zm-.33-.15h0s0,0,0,0h0Zm.33.3h.11l.06,0-.08,0C106.17,10.87,106.11,10.89,106.14,10.9Zm6.72,2.66h0Zm-6-2.48,0,0h.1C107,11.1,107,11.09,106.9,11.08Zm5.55,2.24h0l-.09,0S112.37,13.32,112.45,13.32Zm-2.68-1.14h0s0,0,0,0h-.06C109.69,12.18,109.7,12.18,109.77,12.18Zm-2.44-1h0S107.4,11.15,107.33,11.15Zm4.81,2a.26.26,0,0,0,.14,0h0C112.18,13.1,112.14,13.11,112.14,13.13Zm-2.83-1.26h0Zm-2.25-1h0l0,0H107a.32.32,0,0,0-.17,0s-.07,0,0,0l.16,0h0l0,0h0l-.28,0c-.09,0-.13,0-.13,0h0s-.11,0,0,0v0h0C106.94,10.92,107,10.91,107.06,10.85Zm-1.69-.58h0s-.11,0,0,0v0h0c.06,0,.15,0,.12,0S105.36,10.25,105.37,10.27Zm-.19-.13-.05,0h0v0l0,0h0s-.06,0-.06,0S105.09,10.15,105.18,10.14Zm.4.3c.15,0,.09-.07.09-.11h0c.07,0,.15,0,.16,0a.4.4,0,0,0-.2,0c-.06,0,0,0,0,.05h0l-.14,0S105.43,10.42,105.58,10.44ZM105,10l.08,0c-.07,0-.11,0-.13,0Zm2.67,1.11h.15s.12,0,.07,0l-.16,0h-.06Zm-2-1s0,0-.11,0-.12,0-.1,0Zm1,.16h0Zm1.57.66c.07,0,.11,0,.13,0h0C108.35,10.92,108.31,10.92,108.32,10.94Zm-4.69-1.36-.22.07C103.77,9.62,103.77,9.62,103.63,9.58Zm-.41-.1c-.09,0-.13,0-.15,0A.31.31,0,0,0,103.22,9.48Zm.11.11s0,0-.07,0S103.25,9.59,103.33,9.59Zm1.55,1a.2.2,0,0,0,.08,0l0,0C104.81,10.5,104.81,10.5,104.88,10.55Zm.49.18c-.06,0-.16,0-.14,0s.15,0,.14,0h0s.12,0,0,0v0Zm-.3.16a.31.31,0,0,0-.17,0,.61.61,0,0,0,.19,0S105.13,10.89,105.07,10.89Zm.15.14a.21.21,0,0,0,.13,0A.23.23,0,0,0,105.22,11Zm.38.09c.12,0,.13,0,.13,0h.12c-.08,0-.12,0-.11,0h0S105.59,11.1,105.6,11.12Zm-.06-.16h0Zm-.39.18h.11s0,0,0,0Zm.15.06h0S105.24,11.2,105.3,11.2Zm.57.1.31,0s.17,0,.13-.07h-.12l-.2,0h-.16l-.39.07h0l.13.05A1.55,1.55,0,0,0,105.87,11.3Zm5.69,2.47h0c-.06,0-.07,0,0,0Zm.38.11h0s0,0,0,0ZM107,11.81l0,0h-.1S106.94,11.81,107,11.81ZM109.88,13h0Zm3.55,1.4a.23.23,0,0,0-.13,0C113.37,14.4,113.41,14.4,113.43,14.38Zm-7.15-3h0c.1,0,.18,0,.18-.06h0l0,0s0,0-.11,0l.06,0h0c-.09,0-.18,0-.18.06h0c-.07,0-.07,0,.11.07S106.36,11.4,106.28,11.38Zm5.29,2.06h0v0h0l0,0Zm-4-1.62c-.07,0-.11,0-.13,0S107.58,11.84,107.6,11.82Zm6.09,2.42h-.12l-.08,0h.11C113.65,14.27,113.71,14.26,113.69,14.24Zm-3-1.21h0Zm0-.11a.35.35,0,0,0-.2,0A.5.5,0,0,0,110.67,12.92Zm2.25.95h0S113,13.87,112.92,13.87Zm-.41-.2s0,0,.06,0S112.59,13.67,112.51,13.67Zm-.32-.26a.53.53,0,0,0-.23,0C112.08,13.44,112.17,13.44,112.19,13.41Zm2.74.94h-.05c-.06,0-.07,0,0,0h.06Zm.33,0h0Zm-.61-.25h0Zm-.64-.24h0a.35.35,0,0,0-.17,0s-.07,0,0,0H114l.17.08h0a1.32,1.32,0,0,0-.29,0l-.31,0h0a1.16,1.16,0,0,0,.42,0c.15,0,.23,0,.18-.08h0C114.25,13.88,114.24,13.88,114,13.86Zm-6.6-2.81h.06s0,0,0,0a.37.37,0,0,0-.16,0h0S107.35,11.05,107.41,11.05Zm1.54.6h0Zm-.38-.22c-.08,0-.12,0-.14,0A.19.19,0,0,0,108.57,11.43Zm1.56.66h0Zm2.79,1.17H113A.1.1,0,0,0,112.92,13.26Zm.91.38h0Zm.66.18h.05a.92.92,0,0,0-.29,0A.47.47,0,0,0,114.49,13.82Zm-4.11-1.76s0,0,0,0h-.09S110.27,12.06,110.38,12.06Zm5.35,2.23c-.07,0-.11,0-.13,0h.13Zm-2.6-1.09h0Zm-1.47-.61h0Zm2.39.92c-.07,0,0,0,0,0h0S114.14,13.53,114.05,13.51ZM107.84,11c-.06,0-.16,0-.18,0a.8.8,0,0,1,.31,0c-.09,0-.08,0,0,0s0,0,0,0S108,11,107.84,11Zm8.43,3.43h0Zm-2.84-1.19h0Zm-3.64-1.65s-.05,0-.12,0-.15,0-.13.06A.51.51,0,0,0,109.79,11.54Zm3.41,1.4h0c.05,0,.07,0-.06,0l.06,0h0s-.15,0-.13,0S113.21,13,113.2,12.94Zm.79.29h.07s.06,0,.1,0h-.11s0,0,0-.05-.14,0-.14,0S113.92,13.23,114,13.23Zm1.59.61h0Zm1.3.38h-.11a.25.25,0,0,0-.15,0s0,0,0,0h.15S117,14.25,116.88,14.22Zm-3.44-1.38h0Zm1.39.47h0ZM113,12.52a.88.88,0,0,0-.28,0A.72.72,0,0,0,113,12.52Zm-.91-.39a1.15,1.15,0,0,0,.27,0s0,0-.1,0Zm5.1,1.9v0h0c-.09,0-.2,0-.18,0h0c.1,0,.18,0,.18,0h0S117.28,14,117.16,14Zm-7.06-3h0l0,0h0l-.06,0h.07v0h0S110.11,11.07,110.1,11.06ZM107.32,10l.11,0h0c.06,0,.06,0-.11,0h0Zm3.31.88a.59.59,0,0,0,.19,0h0a.11.11,0,0,0,.11,0h-.13A.41.41,0,0,0,110.63,10.84Zm-.21-.16h0s0,0,0,0h0ZM107.17,9.4a1.38,1.38,0,0,1-.65.16h0a2.06,2.06,0,0,0,.43,0l.47-.06S107.34,9.43,107.17,9.4Zm.41.24h0Zm.18.34h.1s0,0,0,0h-.14Zm-.3-.15h0C107.38,9.83,107.39,9.84,107.46,9.83Zm.27.06h0Zm2.9,1.28h0Zm.35.15h0Zm-3.24-1.27h0ZM107,9.81h0a.11.11,0,0,0,.1,0Zm10.42,4.1h-.11c-.09,0-.13,0-.11,0h0c-.05,0-.09,0,0,0s0,0,0,0h.13A.12.12,0,0,0,117.38,13.91ZM110.65,11h-.19a.12.12,0,0,0-.1,0h.12l0,0h0s-.07,0-.06,0h0s-.09,0,0,0v0h0s.07,0,.06,0h0S110.68,11,110.65,11Zm-1.28-.6h0Zm8.56,3.54h0ZM108,9.82h0Zm9.62,3.83h0c-.06,0-.15,0-.13,0s.13,0,.13,0h0ZM111.43,11h-.06c-.19,0-.19,0-.23,0h0l.23,0h.06Zm-3-1.27h-.12a.44.44,0,0,0-.22,0l.22,0h0A.12.12,0,0,0,108.45,9.73Zm-.69-.21s0,0-.06,0,0,0,0,0Zm.25-.1h0Zm.1.05h0Zm2.12,1h0a.35.35,0,0,0,.23,0A.79.79,0,0,0,110.23,10.45Zm.74.28h0Zm6.86,2.64a.32.32,0,0,0-.23.06C117.77,13.41,117.91,13.41,117.83,13.37Zm-.47-.25c-.14,0-.39,0-.55,0l-.07,0a.47.47,0,0,0-.23,0c.2,0,.11.05.2.07l.63,0h0S117.35,13.13,117.36,13.12Zm-5.55-2.37h-.12a2.67,2.67,0,0,0-.53.06l.31.09h.14c.12,0,0-.06,0-.08S111.82,10.79,111.81,10.75Zm-.65-.12h0S111.22,10.63,111.16,10.63Zm.18.06s0,0,.09,0l.06,0C111.4,10.66,111.35,10.67,111.34,10.69Zm3.78,1.43h0Zm-6.2-2.6h0s0,0,0,0h-.06S108.85,9.52,108.92,9.52Zm3.6,1.38c-.07,0,0,0,0,0h0S112.62,10.91,112.52,10.9Zm-.51-.27c-.17,0-.18,0-.18.06C112,10.67,112,10.67,112,10.63Zm.88.36v0h0S112.79,11,112.89,11Zm3.1,1.25,0,0c.09,0,.15,0,.15,0S116.08,12.23,116,12.24Zm1.8.7c-.22,0-.24,0-.08.05ZM114,11.23l-.15,0h0s-.05,0-.09,0h.12s-.11.06.09.07S114,11.25,114,11.23Zm-1.06-.35h0s-.07,0,0,0Zm4.94,1.91h0Zm-5.8-2.42H112v0h-.13c-.07,0,0-.05-.14-.07s-.08,0-.09,0l-.07,0-.23,0h0a.4.4,0,0,0-.19,0,.59.59,0,0,0,.19,0h0l.1,0,.43-.07h0l0,0h0c-.18,0-.25.05-.24.1h0l-.21,0c.18,0,.2,0,.21,0h.26c.17,0,.27,0,.27-.07l-.28,0h0l.06,0h0Zm.44.13s0,0,0,0S112.42,10.5,112.49,10.5Zm.89.34h.33l.26-.12a2.6,2.6,0,0,0-.48.07h-.1s.07,0,0,0h0c.06,0,.15,0,.14,0s-.15,0-.14,0h0s-.07,0,0,0h0c-.09,0-.06.05,0,.07h0s-.1,0,0,0Zm-1-.65h0Zm0-.11h-.06a.11.11,0,0,0-.11,0h.17Zm2.69,1.29Zm-.71-.54h-.06l-.39,0-.25.08A6,6,0,0,0,114.38,10.83Zm3.88,1.82h0c-.1,0-.29,0-.25.07h.12c.12,0,.14-.05.13-.07h0Zm-.69-.42h-.12l-.09,0h.12S117.59,12.25,117.57,12.23Zm.48.07H118a.34.34,0,0,0-.15,0s.06,0,.15,0h.06Zm-5.3-2.23h0Zm-.23-.09h0ZM118,12h0Zm-2.1-1h-.14c-.06,0,0,0,0,0S116,11,115.94,11Zm-3-1h0Zm-.9-.25h.06s0,0,.1,0h-.16Zm2.34,1c.4,0,.4,0,.55-.08a2.19,2.19,0,0,0-.49,0C114.37,10.68,114.35,10.7,114.4,10.72Zm-2.33-.92h.13C112.13,9.78,112.09,9.78,112.07,9.8Zm-1-.3h0s.06,0,0,0-.12,0-.12,0Zm.34.09h0Zm.1.15,0,0h0c.06,0,.13,0,.09-.06h-.12s0,0,0,.05h0Zm-.86-.28s0,0-.06,0S110.55,9.46,110.62,9.46Zm1.21.54a3.36,3.36,0,0,0,.59-.08A2.63,2.63,0,0,0,111.83,10Zm-.29,0c.13,0,.18,0,0,0S111.45,10,111.54,10Zm-1.72-.58c.2,0,.2,0,.2-.05C109.81,9.33,109.82,9.36,109.82,9.39Zm.74.33s.07,0,.07,0,0,0,0,0h0S110.55,9.71,110.56,9.72Zm1.18.5h0c-.1,0-.23,0-.18.06h0l-.36,0H111a.39.39,0,0,0,.16,0h0l.06,0h0c-.06,0-.16,0-.12,0l.17,0h0l0,0h0c.13,0,.29,0,.3-.07h0q.18,0,.18-.06h0Zm-.44,0-.1.06a.69.69,0,0,0,.28-.05s0,0-.16,0l-.1,0Zm-.52-.24h0l0,0s0,0-.11,0l.06,0h0Zm-.91-.33h.22A.42.42,0,0,0,109.87,9.62Zm-1.81-.7a.17.17,0,0,0,.12,0A.17.17,0,0,0,108.06,8.92Zm.07.17c.16,0,.22,0,.18-.07S108.17,9,108.13,9.09Zm-.2-.09h0Zm1.32.58s-.08,0,0,.05,0,0,0-.05h0l.28,0s.16-.07.11-.1h-.11c-.15,0-.26,0-.28.09h0ZM108,9.18h.16s0,0-.08,0S108,9.16,108,9.18Zm.23.15h.11l.17,0h-.2Zm2.57,1.11c-.11,0-.26,0-.28.06h.09c.06,0,.23,0,.2-.07s.1,0,0,0S110.79,10.42,110.83,10.44Zm-.71-.2h0Zm-2.1-1c-.07,0-.12,0-.13,0S108,9.31,108,9.29ZM107.31,9h0s0,0,0,0h0l.07,0h-.08Zm-.68-.19c.2,0,.2,0,.18-.08a.46.46,0,0,0-.17,0h0S106.54,8.82,106.63,8.85Zm.48.13h0Zm.27.13h0ZM106.72,9l-.14-.07h0c.08,0,.15,0,.16,0h-.12c-.05,0-.06,0,0,0h0C106.5,9,106.52,9,106.72,9Zm-.85-.19a.28.28,0,0,0,.14,0h0C105.92,8.78,105.89,8.79,105.87,8.81Zm.27.15h.07c.08,0,.14,0,.11,0a.24.24,0,0,0-.15,0c-.09,0-.08,0,0,0h0Zm-.09.12a2.26,2.26,0,0,0,.52,0S106.5,9,106.38,9A1.35,1.35,0,0,0,106.05,9.08ZM105.62,9c.08,0,.12,0,.15,0A.31.31,0,0,0,105.62,9Zm-2-.2.18-.07h0a.59.59,0,0,0-.23,0C103.46,8.82,103.46,8.82,103.6,8.83Zm.13.08H104l.17,0c.17,0,.33,0,.36-.09l-.1,0s.19,0,.17-.06l-.43,0c-.09,0,0,.05,0,.07l-.21.07h-.2a.22.22,0,0,0-.15,0S103.7,8.91,103.73,8.91Zm.85.74.1,0,.31-.05a1.43,1.43,0,0,1,.39-.13l.31,0,0,0c.1,0,.35,0,.46-.06a.43.43,0,0,1,.17,0c0,.05.32.05.22.1h-.2l.09,0a1.36,1.36,0,0,0,.4,0c-.15,0,0-.08-.21-.1,0,0,0,0,0-.07l.34,0V9.19h0l.1,0h.21a.88.88,0,0,0,.28,0h0c0,.05-.33.05-.35.1s.06.05.19.06V9.28c.09,0,.25,0,.31,0s.08-.06,0-.09l-.13,0h0a.88.88,0,0,0-.28,0h0l-.05,0h-.22l0,0h0l-.41.05c-.09,0-.13,0-.13,0l-.2,0-.28-.05-.18,0h0l.12-.08h0c.12,0,0-.06-.06-.08h0c-.11,0-.23,0-.18.05h0l-.39,0s-.12.05-.06.08h.58l0,0a.54.54,0,0,0-.35.1l-.4,0c-.16,0,0-.05-.17-.05s-.09,0-.12.05-.18,0-.15,0l.09,0-.15,0C104.6,9.57,104.46,9.62,104.58,9.65Zm-.68-.25h0a.24.24,0,0,0-.14,0S103.82,9.4,103.9,9.4Zm0,.18H104l.11,0v0H104S104,9.56,103.92,9.58Zm-1.22-.27a1.28,1.28,0,0,0,.29,0h0A.59.59,0,0,0,102.7,9.31Zm-.43.12a2.3,2.3,0,0,0,.51-.06,2.26,2.26,0,0,0-.45,0C102.27,9.39,102.21,9.4,102.27,9.43Zm.06.11h0c-.07,0-.16,0-.16,0h.32a.84.84,0,0,0,.33-.06c-.18,0-.32,0-.49,0h0v0Zm-.41-.07a.33.33,0,0,0,.15,0s0,0,0,0A.33.33,0,0,0,101.92,9.47Zm.72.41a.89.89,0,0,0,.3,0h0l.06,0h0c-.11,0-.25,0-.28.06.18,0,.28,0,.28-.06h0l0,0h-.11s-.08,0,0,0l.22,0,.28-.06h0a1.53,1.53,0,0,0-.37,0,3.39,3.39,0,0,0-.44,0s.1,0,.06.06S102.53,9.86,102.64,9.88Zm-.84-.26h0Zm-.36-.08h.09A.1.1,0,0,0,101.44,9.54Zm.41.18a.76.76,0,0,0,.33,0l.07,0A1.52,1.52,0,0,0,101.85,9.72Zm0,.1c.07,0,.11,0,.13,0h-.1Zm0,.08h0S101.71,9.9,101.77,9.9Zm.35.26c.19,0,.45,0,.62,0s-.08.05.08.07l.42-.07h.11v0h0l.16,0-.07-.09c-.08,0-.23,0-.26,0a.4.4,0,0,1,.16,0h0a.49.49,0,0,0,.23,0l-.23,0h0a1.55,1.55,0,0,0-.43,0L103,10l0,0a1,1,0,0,1-.37-.06l-.2,0-.05.06-.26,0S102.08,10.15,102.12,10.16Zm.29.31h0Zm-3-1.19h0S99.37,9.27,99.39,9.28ZM91.67,13.2h0c.11,0,.11,0,.12,0h-.11Zm11.65-3.11a3.71,3.71,0,0,0-.43.06c.07,0,.26,0,.35,0h.13S103.41,10.11,103.32,10.09Zm.59-.69Zm-.49.33h0Zm26,2.6h0Zm-51.52.11.06,0h.13l-.06,0h-.13Zm0,0h0Zm-.79.85h0Zm8.48-4.5-.06,0h.12l0,0ZM146.21,13h-.11c.09,0,.12,0,.12,0h0ZM93.84,18.48l-.16,0,.23,0c.13,0,.2,0,.19,0H94l0,0h0A.44.44,0,0,0,93.84,18.48Zm-18-7.64.23,0A.3.3,0,0,0,75.88,10.84Zm39.4,5.93Zm-.6.41Zm-.5,0h0c-.05,0-.06,0-.06,0h.13l-.06,0ZM92.07,18.52Zm14.6-1Zm-6.13,1h0l.07,0,.11,0h-.17Zm-.12.22a.44.44,0,0,0,.15,0S100.5,18.75,100.42,18.76ZM73.81,11.44s-.07,0,0,.05S73.83,11.46,73.81,11.44Zm.06.29H74C73.85,11.7,73.87,11.72,73.87,11.73Zm.52-.34s0,0,0-.05-.18,0-.13.05Zm-.71.3h0s0,0,0,0Zm3.54.31s-.15,0-.11.06a.37.37,0,0,0,.19,0h.06Zm-4.43-.66h-.07a.44.44,0,0,0,0,.1l.05-.1h0Zm2.1.11a1.2,1.2,0,0,0,.19,0A.41.41,0,0,0,74.89,11.45Zm17.76,7.3h0l.06,0h0l.12,0h0l-.07,0Zm-.38-.28-.17.05.24,0a1.79,1.79,0,0,0,.24,0l0,0h0A.56.56,0,0,1,92.27,18.47Zm-.48,0h0Zm1,.24v0S92.87,18.72,92.77,18.71Zm36.4-4.33h0c-.06,0-.08,0-.06,0h0C129.17,14.41,129.18,14.39,129.17,14.38ZM73.64,12.22l.72-.09h0l0,0h0c-.24,0-.25,0-.18-.08h0l-.06,0-.49.06-.09.06c.16,0,.18.06.15.09h0Zm18.69,6.35ZM73.88,11.34h0l.05,0h0C74,11.34,74,11.33,73.88,11.34Zm75.69-6.08h.07l0,0h-.09ZM85.65,9.8l.28,0h0s.07,0,.12,0h0l0,0a1.11,1.11,0,0,0-.37,0h0s0,0,0,0-.09,0-.08,0h.13Zm25.29,6.75h0l0,0ZM76.85,11.78h0a.47.47,0,0,0-.24,0h0s0,0,0,0h0A.76.76,0,0,0,76.85,11.78Zm-.3.54h0l0,0h0l.06,0Zm1.39,0h0a2.67,2.67,0,0,0-.4,0l-.26.06h0a1.3,1.3,0,0,0-.35,0h0l-.07-.08a2,2,0,0,1,.29,0c.06,0,.08,0,.08,0h0a1.84,1.84,0,0,1-.37,0l.62-.05Zm-.25-.08h0ZM116,5.94s0,0,0,0h-.13A.3.3,0,0,0,116,5.94ZM77.13,12h0Zm-.44-.41h0Zm.16.3a.72.72,0,0,0-.22,0s.05.06.24,0S76.88,11.87,76.85,11.85Zm73.28-6.68a.05.05,0,0,0,0,0h-.23A.27.27,0,0,0,150.13,5.17Zm.33,0ZM93.71,8.59c-.06,0-.13,0-.09.06h.14Zm-8.61,1h0ZM154,5.34Zm-.23,0h.11l-.06,0h0l0,0Zm-77,6.32,0,0h0c-.08,0-.14,0-.15,0h0Zm85.88-.91ZM160,9h0ZM144.25,2.2h0a.51.51,0,0,0-.18,0h.18Zm7.84,3.06ZM83.92,9.34Zm-1.43-.15ZM118.34,5h0Zm23.93,7.84ZM91.71,8.41h-.12C91.69,8.45,91.71,8.43,91.71,8.41Zm-4.26.85c-.16,0-.26,0-.39,0A1,1,0,0,0,87.45,9.26Zm-10.6,2.52v.07h.09l-.08-.06Zm3-2h0c.09,0,.05,0-.06,0h0l.05,0Zm-5.22.34a14,14,0,0,1,1.5-.28l0,0h0l.34-.05h-.09l3-.38h0L80,9.33h0l.07,0h.12l.09-.06L82.84,9h0a.8.8,0,0,0,.37-.06h0l.28,0,.07,0c.29,0,.62,0,.92-.06l-.19-.06h0l.27,0h.1l.64-.08c.07.12.06.12-.12.2a1.3,1.3,0,0,0-.35,0h0s-.15.05-.09.08.32,0,.36,0S85,9,85.1,9h0L85,9h.13a.81.81,0,0,0,.46,0,2.71,2.71,0,0,0-.46,0h0L85.1,9h0c.11,0,.06,0,0-.07l.16,0,.11,0s-.11,0,0,0l0,0,.11,0a.46.46,0,0,1,.24,0h0s-.13,0,0,0v0h0c.12,0,0-.06-.06-.09.07,0,.18,0,.23,0a.88.88,0,0,0-.28,0h0l-.15-.11s.15,0,0-.06h0l33.73-4.28h0l1.08-.14h0L137.45,2a29.49,29.49,0,0,1,7,.06l-.08,0h.22a16.48,16.48,0,0,1,3.9.92l3.32,1.39-.09,0s0,0,.13,0l.06,0,7.34,3.05-.1,0h.17l1.42.59h0l.29.12c-.15,0-.18,0-.06,0l.09,0,1.29.54c1.48.61,1.7,1.3.82,1.85-.07,0-.1,0-.12,0h.09a4.61,4.61,0,0,1-.79.35h-.11s0,0,0,0h.08a12.18,12.18,0,0,1-2.15.44l-2.15.27c-.17,0-.19,0-.23,0l-.88.12,0,0a2,2,0,0,0-.57.1l-5.88.74h-.06s0,0,0,0l-2.93.37a.7.7,0,0,0-.2,0l-.14,0-.34,0h0c.1,0,.34-.08.35-.13h.14c.17,0,.17,0,.23,0h0l.05,0s0,0-.1,0l.05,0h0l-.23,0h0l-.13,0c-.06,0,0,0,0,0h0a2.41,2.41,0,0,1-.6,0h0l.31,0c.11-.08.11-.08,0-.14s-.2.06-.19.09-.09.06-.1.09h0l-.36,0h-.1l0,0h0c-.07.06-.06.06.18.08h0l0,.11c-.11,0-.31,0-.52.07l-.07,0-2,.25a.55.55,0,0,0-.33,0h.1l-5.24.67-.34,0h0a.55.55,0,0,0-.23,0h0s0,0,0-.05-.13,0,0,.05h0a.55.55,0,0,0,.23,0h0l.06.05h0L124.64,16h-.1l-.07,0h0l-7.83,1h-.16a.34.34,0,0,0-.2,0,.64.64,0,0,0,.2,0h0l.07,0-10.45,1.33h0s.07,0,0,0,0,0,0,0h0l-7.1.9a26.06,26.06,0,0,1-4,.17h0c0-.05.1-.09.16-.13h-.23a1.65,1.65,0,0,0-.34.07h-.11s-.11,0-.07,0l.18,0a.32.32,0,0,1-.13.05A28,28,0,0,1,90.77,19c.06,0,.07,0,.09,0h.26c.29-.05.16-.12.27-.18l.21,0h0s0,0,.07,0,.15,0,.28,0h.23s-.19-.07,0-.11l.31,0,.13.05h0l0,0h.11a.6.6,0,0,0,.26,0l-.14-.07h0a1.56,1.56,0,0,0,.27,0v-.14a1.2,1.2,0,0,0-.35,0c-.07,0,0,.07-.23.09l-.07-.08c.09,0,.25,0,.3-.05s.32,0,.37-.07l0-.05s.17,0,0-.06l-.3,0h0c0,.05-.19.05-.3.07h0v-.05h-.22s0,0-.06-.05-.06,0-.08-.06h0a1.2,1.2,0,0,0-.35.11h-.1l0,0h0l-.16,0,.2.06-.1.05s.12,0,.06.05l-.23,0s.14,0,.18,0,0,0,0,0h0a1,1,0,0,0-.17,0,.87.87,0,0,0-.46.1c0,.05-.22.07-.29.11s0,0,0,0A13.43,13.43,0,0,1,88,18.26l-5.17-2.15h0l.26,0h0a.84.84,0,0,0-.29,0l0,0-.95-.39h0L80.19,15h0l.24,0s.16,0,.09,0l-.41.05-2-.84c.14,0,.15,0,.17-.07-.15,0-.21,0-.23,0l-1.25-.52.27,0,.08-.08c.08,0,.22,0,.27,0s.07-.05,0-.08a3.88,3.88,0,0,0-.4,0c-.16,0,.12,0,.09.07l-.46.11-1.56-.65s.1,0,0,0H75l-.91-.38-.07,0h0c.08,0,.2,0,.17,0h0c-.1,0-.18,0-.17,0h0l-.2-.09h0l-.22-.12h.1c.15,0,.37,0,.5,0,0,0-.08.05.1.05l0,0,.2,0a.45.45,0,0,0,.19,0s.07,0,0,0h-.18s0-.06-.07-.09h0c.07,0,.06,0,0,0h0s0,0,.15,0l.25,0s0-.07-.1-.1l-.31,0h-.17c.1,0,.18,0,.17-.06l0-.09a1.32,1.32,0,0,1,.3,0l0,0c.21,0,.33,0,.29-.08h-.58c-.07,0,0,0,0,.06-.18,0-.32,0-.54.06a1.46,1.46,0,0,0-.49.07,1.39,1.39,0,0,1-.3-.29l.05,0h-.07a1.62,1.62,0,0,1-.1-.18l.12,0-.14,0h0l.25,0h.28l-.17,0v0s0,0,.12,0h.46c-.36.05-.57.1-.51.18s.32,0,.47,0l-.07.07.31,0h0s.05,0,.17,0l0,0c.09,0,0-.05.06-.07s.26,0,.19-.07-.16,0-.26,0-.2,0-.37,0l-.19,0s.05,0,.12,0,.38,0,.57-.05a1.34,1.34,0,0,1,.51-.12h0l-.13.11a0,0,0,0,1,0,.06l.27,0c-.05-.07.27-.11.3-.16s.16-.08,0-.12-.06.05-.19.06h-.25s.26-.06.12-.1a1.76,1.76,0,0,0-.42,0,1.3,1.3,0,0,1-.21,0s.06-.05.1-.08.11-.11-.11-.15H74c-.11,0-.17,0-.11.06h.19s-.23.08-.32.14c.15,0,.09,0,.1.07h0l0,0h.11s0,.06-.13.08a3.27,3.27,0,0,0-.44,0l-.1,0h0l0,0c-.14,0-.15-.08-.24-.11H73l-.19.07h-.07a.76.76,0,0,1,.36-.6l0,0h0a4.54,4.54,0,0,1,1.55-.63h0Zm-1.21,1.22h0Zm-.38.53s.07,0,.05,0h-.05Zm.92,0a.93.93,0,0,0-.33-.06c-.1,0-.39,0-.33.13S73.81,11.91,74,11.87Zm.35-.12h0Zm.06.76s0,0-.07,0S74.32,12.51,74.4,12.51Zm1.19.43h-.07s0,0,0,0h0S75.59,13,75.59,12.94Zm7.73,3.29h-.1s0,0,.06,0Zm10.07,2.68h0c-.06,0-.09,0-.06,0h0s-.11,0,0,0v0h0c.07,0,.09,0,.06,0h0ZM151.61,4.39h0Zm-77.09,6h0a1.78,1.78,0,0,0,.34,0c.06,0,0,0,0-.05l.3,0c.08,0,.12,0,.07-.05h-.34l0,.09h-.24s-.07,0,0,.06h0Zm1.32.61c.18,0,.06,0,.15-.06a1,1,0,0,1,.31,0s-.13,0,0,0l0,0,.15-.1h-.3l0,0c.09,0,0-.06,0-.08a.72.72,0,0,0-.27,0,2,2,0,0,0-.37,0C75.8,10.85,75.59,10.94,75.84,11Zm.73,0a.45.45,0,0,0,.2,0A.23.23,0,0,0,76.57,11Zm-.06.1h0Zm.11.16.08,0s-.08,0-.18,0S76.51,11.24,76.62,11.24Zm-.12-.08h0a.25.25,0,0,0-.14,0Zm-.42-.06c.08,0,.12,0,.13,0h-.13Zm.24.17h0Zm0,.11h.12s0,0-.06,0S76.26,11.36,76.27,11.38Zm.12,0a.24.24,0,0,0,.13,0C76.45,11.41,76.41,11.41,76.39,11.43Zm.12.05h.06l.07,0C76.57,11.46,76.53,11.46,76.51,11.48ZM74.92,11c.09,0,.14,0,.15,0l-.07,0C74.94,10.92,74.92,10.94,74.92,11Zm.52.21c.06,0,.09,0,0-.05S75.33,11.13,75.44,11.16Zm-1-.31h0Zm1,.51h.11s0,0,0,0h0s.07,0,0,0h0a1.79,1.79,0,0,0,.24,0l-.06,0h0c-.11,0-.18,0-.18.06h0s-.07,0,0,0h0C75.51,11.33,75.42,11.33,75.43,11.36Zm.52.09h0Zm-2.29-.39a1,1,0,0,0-.26,0h0a.45.45,0,0,0,.22,0Zm.52-.11.18,0-.54-.05h0s.2-.06,0-.1-.2.05-.23.09l0,0h.19l.05,0c-.2,0-.2,0-.26.11h.06Zm.46.27h0Zm-.26-.16c.07,0,.12,0,.13,0S74.39,11,74.38,11.06Zm.22,0h0Zm.28.87C75,12,75,12,75,12S74.89,12,74.88,12Zm3,1.33h0c.09,0,.25,0,.26-.05a.71.71,0,0,0-.29,0S77.78,13.29,77.83,13.31Zm6,2.28a.42.42,0,0,0,.16,0s0,0,0-.05h0C83.87,15.55,83.77,15.56,83.82,15.59Zm-4.88-2.11s0,0,0,0S78.88,13.48,78.94,13.48Zm3.81,1.63h0ZM76.6,12.56h0Zm4.54,2s0,0,0,0a.21.21,0,0,0,.15,0ZM76,12.4s0,0,.06,0S76.1,12.4,76,12.4Zm.79.39a.23.23,0,0,0,.13,0A.23.23,0,0,0,76.82,12.79Zm.17.14c.1,0,.1,0,.08,0S76.89,12.91,77,12.93Zm-2-.76s0,0-.07,0S74.92,12.16,75,12.17Zm3,1.23a.68.68,0,0,0-.32,0A.58.58,0,0,0,78,13.4ZM81.6,15c-.06,0,0,0,0,0h0Zm-.47.26a3.89,3.89,0,0,0,.76-.06,1.07,1.07,0,0,0-.4,0Zm.08-.16h.13s.12,0,.07,0h-.2a.55.55,0,0,0-.18,0A.53.53,0,0,0,81.21,15.05Zm0-.24h-.11s0,0,.07,0Zm-5.87-2.4h0s.13,0,0,0v0h0Zm.4.19h0l.08,0S75.8,12.6,75.73,12.6Zm.15.1h0Zm.62.3c.08,0,.12,0,.14,0A.18.18,0,0,0,76.5,13Zm.32.07h.05S76.8,13.06,76.82,13.07Zm-2.28-.68h0Zm.13.06c.12,0,.19,0,.18,0a2,2,0,0,0,.52-.08c-.15,0-.28,0-.4,0h0s.12,0,0,0v0h-.14s0,0-.09,0h.11v.07C74.77,12.41,74.69,12.42,74.67,12.45Zm.42.05h0Zm0,.1-.06.05C75.22,12.65,75.24,12.64,75.08,12.6Zm1,.31h.12c.06,0,.13,0,.07,0l-.16,0h0a.31.31,0,0,0-.19,0A.6.6,0,0,0,76.05,12.91Zm.59.2s0,0,.06,0S76.71,13.12,76.64,13.11Zm.52.18h0c.09,0,.24,0,.1-.06s-.12,0-.1.06h0v0Zm1.62.7Zm-.34.16c.07,0,.15,0,.16,0s0-.06-.1-.08-.12,0-.12,0a.47.47,0,0,0,.06.09h0s-.12,0,0,0v0h0Zm2.07.93.15-.05.44,0s0,0,.06,0h0a4.54,4.54,0,0,0-.81.09S80.38,15.08,80.51,15.08Zm.3,0h0Zm4.83,1.93h0Zm-2-.82h-.08a.11.11,0,0,0,.08,0S83.69,16.23,83.69,16.23ZM83.15,16s-.07,0-.15,0h0a1.22,1.22,0,0,0-.34,0c-.09,0-.15,0-.06.06a2.35,2.35,0,0,0,.4,0h0A.27.27,0,0,0,83.15,16Zm3.66,1.47h0Zm-4-1.66h-.07a.37.37,0,0,0-.18,0,.55.55,0,0,0,.18,0h.07Zm5.47,2.12h-.14s0,0,0,0l.07,0Zm-5.51-2.24h0s0,0,0,0h0Zm.46.06h0S83.21,15.71,83.22,15.7Zm-.37-.34c-.2,0-.21,0-.22.08h0c-.11,0-.25,0-.37,0l-.07,0a.68.68,0,0,0,.25,0,1,1,0,0,0,.24,0l0,0h0C82.79,15.42,82.87,15.4,82.85,15.36Zm.55.3c.13,0,.19,0,.2-.06s-.12,0-.14-.08C83.18,15.61,83.18,15.61,83.4,15.66Zm6,2.43c-.11,0-.16.05,0,.07S89.52,18.12,89.41,18.09Zm-5.06-2.22a1.48,1.48,0,0,0-.3,0S84.1,15.9,84.35,15.87Zm7,2.87h0Zm-7-3-.18,0h0a2.58,2.58,0,0,1,.49,0c.06,0,.11,0,.09,0a4.29,4.29,0,0,0-.62,0l0,0h0c-.06,0-.12,0-.1.06A.75.75,0,0,0,84.32,15.77Zm-6.56-2.9h0ZM77,12.52h0Zm4.56,1.83h0S81.45,14.35,81.51,14.35Zm4.71,2.17ZM85.15,16h0Zm.12-.08.21,0c.07,0,.21,0,.18,0-.35,0-.71,0-1,0-.1,0-.09.07.11.09ZM83.46,15h0Zm4.05,1.82v0h.24c.09,0,.22,0,.18-.08A1.18,1.18,0,0,0,87.51,16.78ZM90.45,18h0Zm-1.17-.56c-.18,0-.33,0-.36.05s0,0,.11,0A.47.47,0,0,0,89.28,17.43Zm-.21-.11c.08,0,.24,0,.08-.06s-.1,0-.08.06h0s-.1,0,0,0v0h0Zm1.23.42c-.09.08-.09.08.09.1S90.48,17.77,90.3,17.74ZM77.93,12.56h0s0,0,0,0h0S77.88,12.57,77.93,12.56Zm0-.12h0c-.07,0-.14,0-.16,0a.79.79,0,0,0,.22,0h.11v0h0l0,0h-.11a.24.24,0,0,0-.15,0s0,0,0,0Zm6.83,2.87h0Zm-2.44-.94h0ZM91.23,18s-.06.05,0,.07h.11S91.34,18,91.23,18ZM87,16.22h0s-.07,0,0,0Zm2.84,1h0s0,0,0,0ZM89,17h0Zm-.68-.3h0Zm5,1.81h.11c.05,0,0,0,0,0Zm.09.18c.2,0,.22-.05.4,0a3.27,3.27,0,0,0,.44,0l.39,0s.14-.05.11-.08l-.32-.06-.28.05h0l0,0h0c.06,0,0,0,0,0a1.11,1.11,0,0,0-.38.05l0,0-.11,0h0S93.26,18.59,93.36,18.64Zm1.46,0h0s-.1,0,0,0v0h0l0,0Zm-.67.22h0Zm-.06-.2h-.22l-.22.14a1.23,1.23,0,0,0,.29,0C94,18.73,94.12,18.68,94.09,18.63Zm1.38.4h0Zm-.19-.2a.23.23,0,0,0-.13,0C95.22,18.85,95.26,18.85,95.28,18.83Zm.34-.29h0s0,0-.06,0a.11.11,0,0,0,0,0h0l-.1,0h0a.8.8,0,0,0-.28,0l-.08.05-.28,0-.08.13h.2c.15,0,.09-.05.12-.08l.22-.06.18-.07h.11v0h0a2.71,2.71,0,0,0,.27-.05S95.71,18.54,95.62,18.54ZM95,18.47a.27.27,0,0,0,.13,0,.24.24,0,0,0-.15,0Zm1.23,0c-.07,0-.11,0-.12,0S96.24,18.46,96.26,18.44Zm1.66.49h0Zm.21-.1H98c-.06,0-.11,0-.09,0a.47.47,0,0,0,.17,0C98.14,18.86,98.15,18.84,98.13,18.83Zm.05-.09h0c-.08,0-.12,0-.11,0h0l.11,0h0a.32.32,0,0,0,.14,0S98.26,18.74,98.18,18.74Zm-.8-.44-.18,0h0a.34.34,0,0,0-.2,0,.67.67,0,0,0,.2,0h0s-.06,0-.2.05-.25,0-.34,0,0,0,.14,0l.38,0C97.34,18.39,97.53,18.35,97.38,18.3Zm1.69.5c-.09,0-.22,0-.18.07S99.16,18.86,99.07,18.8Zm.56-.19,0,0-.39,0h0c.08,0,.17,0,.17-.06h0s.11,0,0,0v0h0c-.09,0-.18,0-.17.06H99l-.49.14.49,0a1.35,1.35,0,0,1,.29-.05A1.5,1.5,0,0,0,99.63,18.61Zm1.15.31a4.13,4.13,0,0,0-.47,0A1.08,1.08,0,0,0,100.78,18.92Zm-.08-.22c-.17,0-.29,0-.29.05s-.11.05-.08.07h.17l.23,0C100.86,18.77,100.9,18.73,100.7,18.7Zm.12-.21a1.72,1.72,0,0,0-.34,0h0a.1.1,0,0,0-.09,0h.11l.06,0h0c-.19,0-.4.05-.34.11a.8.8,0,0,0,.28,0l.3-.08-.06,0h0C100.78,18.53,100.85,18.51,100.82,18.49Zm-1-.11h-.07A.09.09,0,0,0,99.78,18.38Zm.35,0a.51.51,0,0,0,.24,0A.54.54,0,0,0,100.13,18.34Zm-.2-.09a.75.75,0,0,0,.15,0s0,0-.1,0l-.08,0Zm1.12-.05H101c-.06,0-.07,0,0,0h.09Zm.72,0h0c-.07,0-.19,0-.15,0h.06c.1,0,.09,0,.09-.06h0Zm1.37.47-.09,0,0,0s0,0,.09,0Zm.22,0s0,0,0,0S103.43,18.63,103.36,18.63Zm-.6-.3-.06,0h.16S102.89,18.34,102.76,18.33Zm.77.17a.25.25,0,0,0-.12,0,.29.29,0,0,0,.14,0Zm.21-.12c-.26,0-.43,0-.48.1A1.1,1.1,0,0,0,103.74,18.38Zm-.26-.23c-.07,0-.11,0-.13,0S103.46,18.17,103.48,18.15Zm-.23-.23h0Zm1.62,0h-.07a.11.11,0,0,0,.08,0S104.87,17.93,104.87,17.92Zm-.48-.44s0,0,0,0S104.46,17.48,104.39,17.48Zm1,.35h0Zm1.56.38a.3.3,0,0,0-.19,0s0,0,.12,0S107,18.23,107,18.21Zm-.36-.2s0,0,.06,0S106.71,18,106.63,18Zm-1.18-.5.08-.06C105.3,17.49,105.3,17.49,105.45,17.51Zm.76.26h0Zm-.48-.21s0,0,0,0h-.06s0,0,0,0S105.69,17.57,105.73,17.56Zm2,.57-.26,0a2,2,0,0,1-.32.06C107.66,18.17,107.68,18.17,107.74,18.13Zm-1.65-.61c-.08,0-.12,0-.14,0S106.07,17.54,106.09,17.52Zm1,.3h0Zm.16-.34-.5,0h-.1l0,0h.12a1.42,1.42,0,0,0,.46,0C107.31,17.51,107.34,17.5,107.29,17.48Zm-.75-.06,0,0,0,0h0Zm-.11-.25.11,0h0s-.13,0-.12,0h.1s0,0,0,0h0c.06,0,0,0-.11,0h0Zm.28-.06h0Zm.88.06s0,0,0,0h-.06c-.06,0,0,0,0,0Zm2.13.61h-.17s0,0,0,0h.09C109.69,17.8,109.74,17.8,109.72,17.78Zm.82-.08h0l.33,0-.42,0c-.37,0-.75,0-1.11.07l-.31.1.76-.09c.23,0,.49,0,.75,0h0l-.05,0s0,0,.11,0l-.06,0h0Zm-.73-.42h0Zm1.06.19s0,0,.07,0S111,17.47,110.87,17.47Zm-.78-.33h0Zm.35.16h0Zm.87.22s0,0,0,0S111.38,17.52,111.31,17.52Zm-.12-.12h-.06l-.08,0A.18.18,0,0,0,111.19,17.4Zm.45.07h-.06c-.06,0,0,0,0,0h0Zm-.16-.2h-.3a2.23,2.23,0,0,0-.32.09A3.47,3.47,0,0,0,111.48,17.27Zm-.4-.18h0Zm1,.33h0Zm-1.49-.67h0Zm2,.64h0Zm-.52-.21v0h0c-.06,0-.12,0-.08.06s.13,0,.12,0l0,0h0S112.19,17.19,112.07,17.18Zm1-.05h0s.08,0,.07,0Zm.07-.14h0a2.75,2.75,0,0,1-.34-.05c-.09,0-.1,0-.08.06l-.24,0h0s-.2,0-.21.07l.13,0c-.07,0-.07,0,0,0s0,0,0,0,.2-.05.37-.06.27,0,.4-.06l-.06,0h0Zm-1.55-.13h0Zm.58.06L112,17a1.15,1.15,0,0,0,.32,0c.12,0,.06-.08,0-.12h0l.06,0s0,0-.12,0l.06,0h-.25l0,0S112.19,16.9,112.2,16.92Zm.2-.26s0,0,0,0a.22.22,0,0,0-.12,0A.25.25,0,0,0,112.4,16.66Zm1.33.49h0l-.08,0A.21.21,0,0,0,113.73,17.15Zm-1.2-.45c-.06,0,0,0,0,0l.21,0h0s0,0,.15.07l-.15-.07h0S112.75,16.72,112.53,16.7Zm1.92.43h0l-.23,0h0c-.17,0-.24,0-.23,0s.07,0,.17,0h.1l0,0h0c.09,0,.21,0,.17-.05h0Zm-2-.58h0Zm.09.05h0c.07,0,.11,0,.11,0S112.58,16.58,112.56,16.6Zm1.08.15c-.08,0-.16,0-.15,0a.84.84,0,0,0,.35,0l-.2,0h0l0,0h0Zm.42.13h0S114,16.87,114.06,16.88Zm.62.3v0h0s-.07,0,.06,0l-.06,0Zm-.15-.17a.21.21,0,0,0-.15,0A.21.21,0,0,0,114.53,17Zm-1-.51h0a.54.54,0,0,0-.22,0c-.05,0,0,0,.06,0Zm2,.65h0Zm-.1-.16h-.07a3.09,3.09,0,0,0-.5,0,.24.24,0,0,0,.15,0l.35,0h.07Zm-1.47-.43a.18.18,0,0,0-.14,0A.19.19,0,0,0,113.92,16.56Zm.35.09s0,0,0,0S114.2,16.64,114.27,16.65Zm1.21.24-.07,0C115.58,16.92,115.62,16.91,115.48,16.89Zm-1.54-.61h0Zm.14-.11c-.06,0-.11,0-.09,0h.16S114.16,16.17,114.08,16.17Zm.67.35a.65.65,0,0,0,.31,0v0A.71.71,0,0,0,114.75,16.52Zm-.42-.17s0,0,.13,0S114.47,16.35,114.33,16.35Zm.78.38.16,0h0c.1,0,.07-.06-.08-.08S115.11,16.72,115.11,16.73Zm.45,0c-.07,0-.2,0-.14.08S115.66,16.83,115.56,16.77Zm-.21-.13h0Zm1.08.21a1.87,1.87,0,0,0-.39,0v0C116.23,16.91,116.39,16.9,116.43,16.85Zm-.45-.08c.07,0,.11,0,.11,0h-.17S115.9,16.76,116,16.77Zm2.24-.66s0,0,.06,0S118.29,16.12,118.22,16.11Zm.16-.1h0a.48.48,0,0,0,.21-.08.51.51,0,0,0-.26.05l.05,0h0Zm.88.27a.27.27,0,0,0-.14,0C119.2,16.3,119.24,16.3,119.26,16.28Zm.86.24s0,0-.05,0h0s0,0-.08,0h.15Zm-.07-.11a.21.21,0,0,0-.15,0A.21.21,0,0,0,120.05,16.41Zm-.36-.15a.25.25,0,0,0-.14,0h.06Zm-.18-.15h-.3l0,0h0s.14,0,.13,0-.12,0-.13,0h0c-.07,0-.16,0-.18,0l.23,0h.2S119.47,16.14,119.51,16.11Zm.31.09h0Zm.53-.21a1.1,1.1,0,0,0-.33,0l-.19,0h0a.22.22,0,0,0-.15,0s.06,0,.15,0h0s0,.05,0,.07.17,0,.33,0l.1,0h0c-.09,0,0,0,0,.06h0a.47.47,0,0,0,.17,0l-.17,0h0C120.41,16.06,120.38,16,120.35,16Zm-1-.34h0Zm.06-.12h-.1s-.07,0-.12,0h.13S119.34,15.56,119.38,15.53Zm1.29.47c-.1,0-.11,0-.09.05a.74.74,0,0,0,.21,0S120.75,16,120.67,16Zm0-.06h-.13A.25.25,0,0,0,120.65,15.94Zm-.87-.44.16,0h0l.06,0h0s.15,0,.12,0h-.19a1.33,1.33,0,0,0-.35,0h0A.69.69,0,0,0,119.78,15.5Zm.91.2h0Zm.84.52h0Zm.67-.29L122,16h0a.43.43,0,0,0-.16,0,3.61,3.61,0,0,1-.5.06h0a.36.36,0,0,0-.21,0s0,0,.09,0l.12,0h0l.28.06s.23,0,.31-.06L122,16h0a.41.41,0,0,0,.11,0C122.18,16,122.25,16,122.2,15.93Zm-1.53-.39h0Zm0-.06h0Zm1.42.09,0,0h-.21c-.05,0-.12,0-.07,0l.17,0h0l0,0h0l0,0s.06,0,0,0h0Zm.07.08h0Zm-.18-.18a2.59,2.59,0,0,0-.78.14l.2,0Zm1.67.58c-.08,0-.13,0-.14,0A.18.18,0,0,0,123.63,16.05Zm-.84-.39a5.8,5.8,0,0,0-.65.12l0,0-.12,0c-.09,0-.08,0,.05.05h.39a.36.36,0,0,0,.23,0l-.23,0h-.18l-.13,0c.14-.06.48-.06.67-.12C122.8,15.69,122.92,15.67,122.79,15.66Zm.41-.05h-.12l0,0a1.36,1.36,0,0,0,.28,0S123.3,15.62,123.2,15.61Zm-.68-.27-.08,0a.41.41,0,0,0,.22,0S122.63,15.34,122.52,15.34Zm1.17.28h-.13A.23.23,0,0,0,123.69,15.62Zm.71,0a.43.43,0,0,0-.22,0l-.16,0h0c-.19,0-.19,0-.17,0l.17,0h0a.66.66,0,0,0,.18,0A.46.46,0,0,0,124.4,15.66Zm.33.12h0Zm.56-.12a1.91,1.91,0,0,0-.67,0,.76.76,0,0,0,.26,0l.18,0A.45.45,0,0,0,125.29,15.66Zm.36,0h-.06S125.65,15.63,125.65,15.62Zm-.27-.15h-.06c-.06,0-.07,0,0,0h.09Zm1.54.15c-.19.06-.19.06,0,.08Zm-.18-.2a.59.59,0,0,0-.27.05A.59.59,0,0,0,126.74,15.42Zm.6.15h0Zm-.44-.21h-.06S126.92,15.37,126.9,15.36Zm-1.26-.58h0Zm1.7.56h-.07s0,0,0,0S127.35,15.35,127.34,15.34Zm.67-.08h0Zm.31,0h0c.05,0,.08,0,.07,0Zm-.16-.3Zm1.2.23c-.11,0-.12,0-.12,0h0S129.37,15.18,129.36,15.16Zm-.75-.26h0Zm0-.11h-.06c-.06,0,0,0,0,0h0A0,0,0,0,0,128.63,14.79Zm-.08-.09h0Zm1.32.26h0Zm.56.16h0Zm.46.08h-.09s0,0,.06,0Zm-.78-.37,0,0c.1,0,.15,0,.17,0S130.23,14.83,130.11,14.83Zm-.7-.37-.1,0C129.54,14.48,129.54,14.48,129.41,14.46Zm0-.07a.84.84,0,0,0-.28,0h0a.33.33,0,0,0-.17,0c-.11,0-.23,0-.24.08h0a3.16,3.16,0,0,0-.55,0l-.06,0h0l-.23,0h0l-.06,0h0l0,0h.12a1,1,0,0,0,.29,0,2.31,2.31,0,0,0,.38,0,1,1,0,0,0,.35,0c.07,0,.12,0,.11,0l-.29,0h0l.35,0h0A.68.68,0,0,0,129.45,14.39Zm-.95,0h0Zm2.67.58h0Zm-.66-.32-.22.07a.43.43,0,0,0,.17,0l.08,0c.08,0,.22,0,.25,0A.62.62,0,0,0,130.51,14.64Zm.13-.06s.06,0-.07,0l-.12,0h0A.34.34,0,0,0,130.64,14.58Zm.63.18h-.14s0,0,.06,0Zm-1.09-.61h-.06S130.19,14.17,130.18,14.15Zm.66.23h-.06c-.06,0-.07,0,0,0h.09Zm-.4-.18h0Zm.76.2.22,0A.23.23,0,0,0,131.2,14.4Zm-.43-.23h0c-.07,0-.12,0-.14,0Zm.18-.07h0l-.11,0a2.89,2.89,0,0,0-.49.07Zm.77.22a1,1,0,0,0,.31-.08s.07,0-.05,0-.27.07-.26.12h0c-.05,0-.14,0-.12,0s.14,0,.12,0Zm0-.28Zm1.13.38h0Zm-.14-.16a4.44,4.44,0,0,0-.59.08.28.28,0,0,0,.16,0,1.54,1.54,0,0,0,.39,0C132.75,14.31,132.83,14.29,132.72,14.26Zm-.2-.15h0c-.08,0-.13,0-.12.06a.54.54,0,0,0,.22,0s-.06,0-.1-.06h0Zm.37,0h0s-.13,0,0,0v0h0Zm-.25-.16h0a1.29,1.29,0,0,0-.28,0h-.11l0,0h.13a1.34,1.34,0,0,0,.28,0h0a.28.28,0,0,0,.14,0S132.72,14,132.64,14Zm-.08-.07h0Zm2.91.61-.08,0s0,0,0,0S135.48,14.52,135.47,14.51Zm-1.62-.69h0l0,0h-.11a.4.4,0,0,0-.19,0,.59.59,0,0,0,.19,0h0l.05,0h0Zm1.82.68.05,0h0s-.11,0,0,0v0h0l.06,0S135.76,14.49,135.67,14.5Zm.45-.1a.4.4,0,0,0-.24,0A.38.38,0,0,0,136.12,14.4Zm.2-.13a.27.27,0,0,0-.19,0c-.08,0-.1,0-.07.05A.54.54,0,0,0,136.32,14.27Zm-1.71-.63h-.13A.24.24,0,0,0,134.61,13.64Zm2.68.58c-.1,0-.1,0-.08,0s.17,0,.16,0Zm-.07-.48c-.08,0-.12,0-.14,0A.28.28,0,0,0,137.22,13.74Zm.95.21h-.09s0,0,0,0Zm.54-.11a.51.51,0,0,0-.18,0c-.05,0,0,0,0,0S138.7,13.86,138.71,13.84Zm0-.13a.25.25,0,0,0-.13,0A.23.23,0,0,0,138.73,13.71Zm.42-.16s0,0,.06,0S139.22,13.56,139.15,13.55Zm-.52-.25c-.16,0-.25,0-.17.09S138.63,13.35,138.63,13.3Zm1.35.41c-.11,0-.13,0-.13,0h0C139.91,13.73,140,13.73,140,13.71Zm0-.12h0s-.05,0-.05,0h0c.05,0,.06,0,.05,0h0Zm-1.19-.45h0Zm1.44.14h-.19a.58.58,0,0,1-.19,0s.18,0,.12-.1a1.42,1.42,0,0,1-.36,0,1.29,1.29,0,0,1-.31.07c-.12,0,.06-.07-.19-.07s0,.1.18.14a1,1,0,0,1,.35,0s-.24,0-.2.07l.15,0h0s-.15,0-.11,0h.18s.06,0,.11,0h-.12l-.06,0h0l.59-.06C140.26,13.3,140.28,13.29,140.24,13.28Zm-.58-.25a1,1,0,0,0-.24,0h0l0,0h-.13a.22.22,0,0,0-.15,0s.06,0,.15,0h.19s-.11,0,0,.06S139.63,13.07,139.66,13Zm1.46.39c-.18,0-.19,0-.23,0h0l.23,0a.49.49,0,0,0,.27.05A.39.39,0,0,0,141.12,13.42Zm-.84-.44a.71.71,0,0,0-.23,0c-.05,0,0,0,0,.08a1.29,1.29,0,0,0,.36-.08A.36.36,0,0,0,140.28,13Zm1.26.44v0h0S141.42,13.42,141.54,13.42Zm-1.15-.5h0Zm1.75.68h-.09A.1.1,0,0,0,142.14,13.6Zm.15-.24h0c-.05,0-.14,0-.12,0s.12,0,.12,0h0Zm.37,0h0Zm-.09-.06h0Zm1,0s0,0,.05,0S143.59,13.33,143.53,13.33Zm-1.25-.48h0c-.06.06-.05.07.22.11.08,0,.09,0,.05-.06A.93.93,0,0,0,142.28,12.85ZM143,13a.53.53,0,0,0-.2,0S142.92,13,143,13Zm.8.05h0Zm1.26.35H145s0,0,.05,0Zm.23-.7-.07,0a.79.79,0,0,0,.31,0S145.45,12.71,145.32,12.7Zm1.48.08h-.18s0,0,0,0A.34.34,0,0,0,146.8,12.78Zm.24-.14c-.11,0-.14,0-.14.06a1.69,1.69,0,0,0,.32,0S147.23,12.64,147,12.64Zm1.1.3a.16.16,0,0,0-.13,0C148.08,13,148.12,13,148.14,12.94Zm.45-.13h-.1s0,0,0,0h0a1.64,1.64,0,0,0-.23,0,.47.47,0,0,0,.29,0l-.06,0h0C148.53,12.84,148.62,12.84,148.59,12.81Zm-.43-.09,0-.09h-.4c.07,0-.16.06-.25.09l.13,0c.12,0,.33,0,.48,0h0a.38.38,0,0,0,.21,0h-.22Zm0-.14s.06,0,0,0-.14,0-.09,0S148.09,12.59,148.11,12.58Zm.71.1a.44.44,0,0,0-.17,0h0l-.06.1C148.78,12.74,148.85,12.71,148.82,12.68Zm.29,0h0Zm0-.13c-.06,0-.07,0-.06,0s.12,0,.14,0S149.16,12.56,149.09,12.55Zm-.74-.39h0Zm.83.15h0Zm1.69.31h0Zm-.1-.11h0s.07,0,.07,0Zm0-.11h0Zm4.2-.3h0Zm.6-.14c-.08,0-.12,0-.14,0A.19.19,0,0,0,155.6,12Zm-1.21-.7h0Zm.38,0c-.06,0-.12,0-.14,0h.17S154.8,11.22,154.77,11.21Zm.61,0c.11,0,.18,0,.12-.08.12,0,.3,0,.33-.07a2.08,2.08,0,0,0,.35-.06c-.19,0-.37,0-.41.06s-.28,0-.27.07l-.24,0h0a.42.42,0,0,0-.22,0l.22,0h0l.12,0h0q-.09,0-.06,0h0l0,0h0q.09,0,.06,0h0Zm2.33-.18a1.64,1.64,0,0,0-.45,0h-.19a3.46,3.46,0,0,1-.65,0l-.07,0a2.11,2.11,0,0,0,.47,0c.29,0,.59,0,.83-.07Zm.84.36h0ZM156,11.24a2.13,2.13,0,0,0,.37,0s-.08-.06-.2-.08l-.08,0a1,1,0,0,0-.44.06s0,0,0,0A2.72,2.72,0,0,0,156,11.24Zm.66.25h0s0,0,0,0h0Zm1.36.14h-.24l0,0h0a1.38,1.38,0,0,0-.22,0l0,.05a1,1,0,0,1-.46,0l-.07,0a4.47,4.47,0,0,0,.52,0c-.09,0-.33,0-.33.09h.27a.66.66,0,0,0,.32-.12.76.76,0,0,0,.26,0C158.14,11.66,158.08,11.64,158,11.63Zm.55,0c-.07,0-.13,0-.14,0l.07,0,.08,0S158.56,11.62,158.55,11.62Zm.27-.12a1.53,1.53,0,0,0-.37,0s0,0,.08.05S158.79,11.54,158.82,11.5ZM157.6,11a.23.23,0,0,0-.13,0A.23.23,0,0,0,157.6,11Zm.77.29h0S158.43,11.23,158.37,11.24Zm-.87-.36h0Zm.86.3h0Zm1.18.25a.27.27,0,0,0-.16,0l0,0h.2Zm-1.21-.63-.25.08h.3S158.45,10.83,158.33,10.8Zm-.47,0h-.07S157.8,10.77,157.86,10.76Zm.8.14h0s.07,0,0,0,0,0,0,0h0v0Zm1.49.48a.51.51,0,0,0-.25,0A.66.66,0,0,0,160.15,11.38Zm-1-.72c-.07,0,0,0,0,0h0a.43.43,0,0,0-.18.05c.14,0,.18,0,.18-.05h0C159.19,10.68,159.22,10.67,159.13,10.66Zm.6-.08h0Zm-.23-.1h0Zm2.25.67h0c.05,0,.08,0,.07,0ZM160,10.42h0Zm.16-.06h0Zm1.75.6s.1,0,.27,0C162.14,11,162.06,11,161.89,11Zm-1.52-.65.08,0h-.14S160.32,10.31,160.37,10.31Zm2.34.48h-.06a.32.32,0,0,0-.17,0s-.06,0,0,0l.16,0h.06Zm-.5-.23c-.06,0-.08,0-.06,0h.11C162.31,10.58,162.29,10.57,162.21,10.56ZM158.87,9.1h0Zm-.38-.28c-.17,0-.17,0-.21,0A.78.78,0,0,0,158.49,8.82Zm1.7.65h0s-.12,0,0,0v0h0Zm-7.91-3.34c-.26,0-.26,0-.38,0Zm-1.06-.48h0Zm.52.23h0Zm-1.26-.53h0Zm1.41.72c.15,0,.21,0,.13-.07S151.82,6,151.89,6.07Zm-1.52-.64h0Zm5.95,2.35a.28.28,0,0,0-.14,0A.28.28,0,0,0,156.32,7.78Zm6.75,2.76H163a.1.1,0,0,0-.09,0h.15Zm-1.56-.66h-.06s0,0,0,0h0ZM160.06,9h0s-.13,0-.12,0L160,9s0,0,0,0h0Zm.15-.09h-.11l0,0h0l0,0h.2Zm-1.63-.73h-.06a.34.34,0,0,0-.2,0,.67.67,0,0,0,.2,0h.06Zm.09-.09h0l0,0h0Zm-.41-.12c-.08,0-.12,0-.13,0A.23.23,0,0,0,158.26,7.93Zm1.18.37h-.06s0,0,0,0h0S159.44,8.3,159.44,8.3Zm-1.1-.49h-.18l-.12.06h0a4.17,4.17,0,0,0-.5,0c-.09,0-.17,0-.12,0,.35,0,.37,0,.34,0a2,2,0,0,0-.43,0c-.13.06-.13.06,0,.18h.27c-.16,0-.43,0-.42.11l.16,0h0c-.1,0-.06,0,0,.06h0l-.05,0s0,0,.11,0l-.06,0h.13s.06,0,.1,0h-.11l-.12-.05h0a2.23,2.23,0,0,1,.37,0,1.45,1.45,0,0,0,.36,0h0L158,8s-.21,0-.16-.07a.56.56,0,0,1,.23-.07h.19C158.31,7.86,158.36,7.84,158.34,7.81Zm-2.18-.19h0ZM152,5.79s0,0-.09,0-.08,0-.07,0A.39.39,0,0,0,152,5.79Zm4.43,1.89h0v0Zm.17.1h.17s0,0-.08,0S156.6,7.76,156.63,7.78Zm-4.2-2-.06,0h-.19S152.23,5.77,152.43,5.75Zm1.06.47-.05,0c.08,0,.14,0,.15,0S153.57,6.22,153.49,6.22Zm-1.65-.64h0Zm4.58,2s0,0,.1,0,.12,0,.13,0,.26,0,.25,0a.66.66,0,0,0-.28,0c-.05,0,0,0,0,0A1.38,1.38,0,0,0,156.42,7.57Zm1-.19c.13,0,.28,0,.42,0h0s-.12,0,0,0v0h0c.09,0,.08-.06,0-.09S157.34,7.31,157.38,7.38ZM154.21,6h0Zm.29-.14a.54.54,0,0,0-.26,0A.42.42,0,0,0,154.5,5.83Zm2.92,1.24h-.06s0,0,0,0h0Zm.62.41c-.09,0-.2,0-.15,0a.41.41,0,0,0,.29,0l-.14,0h0v0l0,0Zm0,.17H158a.42.42,0,0,0-.22,0,.77.77,0,0,0,.22,0H158ZM154,6.2l.25-.11C153.8,6.15,153.79,6.15,154,6.2ZM153.7,6h0S153.63,6,153.7,6Zm.2,0h0Zm-.85-.42h0Zm1.36.71h0Zm2.67,1.12c.18,0,.18,0,.1,0S157.08,7.43,157.08,7.45Zm.37.08a.23.23,0,0,0,.13,0A.23.23,0,0,0,157.45,7.53Zm-3.63-1.66h-.07a.08.08,0,0,0,.07,0S153.82,5.87,153.82,5.87Zm-1.45-.6h-.09A.1.1,0,0,0,152.37,5.27Zm.34.31h-.11l0,0h.13c.2,0,.2,0,.28,0A2.19,2.19,0,0,0,152.71,5.58Zm-1-.41a.78.78,0,0,0-.21,0,.2.2,0,0,0,.16,0C151.74,5.22,151.77,5.2,151.69,5.17Zm0,.16c.07,0,.11,0,.13,0S151.71,5.31,151.69,5.33Zm.85.35h0Zm4.54,1.9s.07,0,.17,0h0l0,0a.5.5,0,0,0-.25.1s0,0,.08,0l.18,0,.05-.09a1,1,0,0,0,.24-.06,2.88,2.88,0,0,0-.33,0h0A.25.25,0,0,0,157.08,7.58Zm1.87.29h0Zm1,.23c-.13,0-.21,0-.24,0a.94.94,0,0,0,.29,0S160,8.11,160,8.1Zm-1-.45h0s-.05,0-.05,0h-.13a.34.34,0,0,0-.15,0,1.24,1.24,0,0,0-.39.07h0a.66.66,0,0,0,.28,0l.26,0h.11v0h0l.05,0h0Zm-4-1.68h0Zm-1.05-.45h-.31s-.1,0-.11.05-.25,0-.17,0h.05A1.85,1.85,0,0,0,153.88,5.52ZM161,8.44h0Zm-.26-.13c-.06,0-.12,0,0,.06h.11S160.87,8.32,160.77,8.31Zm-1.54-.72h-.06C159.22,7.61,159.24,7.6,159.23,7.59Zm-2.75-1.15a.26.26,0,0,0-.17,0h.17S156.5,6.45,156.48,6.44Zm-1.72-.64c.13,0,.16,0,0,0S154.67,5.79,154.76,5.8Zm-.91-.46a.33.33,0,0,0-.2,0l-.24.07a1,1,0,0,0-.27,0l.18,0a4.34,4.34,0,0,1,.46-.08c.1,0,.16,0,.13,0H154l-.05,0h0l-.12,0h0Zm-4.59-1.75h.12A.2.2,0,0,0,149.26,3.59Zm2.41,1c-.06,0,0,0,0,0h0ZM149.88,4H150s0,0-.05,0Zm1.49.71h0Zm-2.25-.87h0Zm3.72,1.58s-.08,0,0,0l0,0,.61-.13s0,0,0,0h-.19a3,3,0,0,0-.55.11Zm-1.75-.71,0,0h0c-.09,0-.07.06,0,.09l.13,0s0,0-.11-.07h0S151.09,4.68,151.09,4.68Zm-1.55-.56.06,0h-.11Zm-3.62-1.46c.16,0,.24,0,.23,0A.4.4,0,0,0,145.92,2.66Zm0,.1c.19,0,.21,0,.22,0h0Zm-1.78-.52c.1,0,.14,0,.12,0h0l.12,0h0a.49.49,0,0,0-.22-.06.38.38,0,0,0-.15,0l.07,0h0S144,2.25,144.13,2.24Zm3.38,1.26h0l0,0h.08S147.52,3.5,147.51,3.5Zm.42.19s0,0,.06,0S148,3.7,147.93,3.69Zm-3.46-1.44h0Zm.1,0h0Zm1.17.56h0Zm-.11-.06h-.06l-.08,0C145.57,2.82,145.62,2.82,145.63,2.8Zm-.43.09a.24.24,0,0,0,.13,0C145.26,2.86,145.22,2.87,145.2,2.89Zm-.59-.14h0Zm1.19.54h.07s0,0,0,0S145.78,3.27,145.8,3.29Zm1.36.62-.39,0s.07.08-.05.11h.12A5.24,5.24,0,0,1,147.7,4a3.27,3.27,0,0,0,.54,0s0,0,.07,0h0l.37,0,.06,0h-.18l-.3.06h0l0,0h0a3.62,3.62,0,0,1-.57,0l-.3,0Zm2.19.26h0Zm1.53.7h0Zm0,.06c-.05,0-.06,0,0,0h0Zm-.48,0,.08,0C150.26,4.94,150.25,5,150.36,5Zm-1.3-.07h0Zm-2.43-1.06h0a0,0,0,0,1,0,0s0,0,0,0h0s0,0,0,0ZM142,2h0Zm.44.18s0,0-.06,0S142.39,2.15,142.46,2.15Zm-.29.13h.09s0,0,0,0Zm.06.22h.09s0,0,0,0Zm-3.73-.21h0Zm-.61-.19h0ZM134,3.23h.1l0,0h0s.07,0,.06,0h0c-.05,0-.07,0-.06,0h0C134.06,3.2,134,3.2,134,3.23Zm-1.59-.53a.47.47,0,0,0,.17,0s0,0,0,0A.23.23,0,0,0,132.39,2.7Zm-2.82.5h.08s0,0-.06,0S129.57,3.19,129.57,3.2Zm.72.4v0h0c.07,0,.14,0,.15-.05s-.18,0-.15.05h0S130.18,3.59,130.29,3.6Zm.32.06Zm.34.14h0Zm-.37,0c.12,0,.13,0,.14,0h0l0,0h-.09l.05,0h0C130.66,3.77,130.57,3.77,130.58,3.79Zm-.38,0a.18.18,0,0,0,.14,0C130.26,3.74,130.22,3.75,130.2,3.77Zm-.53-.17h.06s0,0,0,0h-.05Zm.16.41h0Zm-.27-.08h0a.26.26,0,0,0-.15,0S129.48,3.93,129.56,3.93Zm.11.21h0l-.09,0S129.58,4.14,129.67,4.14Zm-.51.06c.19,0,.19,0,.25,0h-.1Q129.13,4.16,129.16,4.2Zm-.42-.11h0Zm-.72,0c.07,0,.11,0,.13,0S128,4,128,4.05Zm.1.32c.12,0,.18,0,.17,0h0s.14,0,.12,0-.13,0-.12,0h0A.27.27,0,0,0,128.12,4.37Zm-.79.12h0Zm-2,.23h0Zm-.62-.19h0ZM121,4.22c.06,0,.11,0,.12,0H121S121,4.22,121,4.22Zm-.06.36,0,0h0Zm-.77-.3h0Zm.25.56c.07,0,0,0-.09,0S120.3,4.83,120.42,4.84Zm-1.26-.42.08,0h-.11S119.1,4.43,119.16,4.42Zm1.26.56a.5.5,0,0,0,.24,0l-.13,0h0C120.44,4.93,120.41,5,120.42,5Zm-1.18-.45Zm.34.22h0a.31.31,0,0,0,.13,0A.29.29,0,0,0,119.58,4.75Zm-.25,0h.11l0,0h-.15Zm.68.41s0,0,0,0h0l.06,0h0l-.06,0h0Zm-.66-.22h.09s0,0,0,0Zm-.32.21a.23.23,0,0,0,.13,0A.23.23,0,0,0,119,5.12ZM118.17,5l.17,0h-.1S118.13,5,118.17,5Zm.46.26h.09s0,0,0,0Zm0,.1c.07,0,.11,0,.13,0S118.69,5.35,118.67,5.37Zm0,.06h0Zm-.37,0h0Zm-.19.08,0,0h.11l-.06,0h0s.1,0,0,0v0Zm-1-.25h0Zm.63.32s.05-.06-.07-.07S117.56,5.53,117.71,5.56Zm-1-.15a.24.24,0,0,0,.15,0h0A.27.27,0,0,0,116.74,5.41Zm.38.16h.19a.35.35,0,0,0,.17,0s-.07,0-.16,0S117.09,5.54,117.12,5.57Zm-.37.11a.46.46,0,0,0,.17,0s0,0,0-.05h0C116.81,5.65,116.74,5.66,116.75,5.68Zm-.35.05v0h0s.11,0,0,0v0h0S116.29,5.72,116.4,5.73Zm-2.8,0a3.13,3.13,0,0,0,.69,0s.07,0,0-.05h-.19l-.16,0h-.2A.66.66,0,0,0,113.6,5.71Zm-1,.4.37,0h0v0l0,0h0a1.67,1.67,0,0,0,.49-.19,3.29,3.29,0,0,0,.65-.12l0,0h0c-.28,0-.53.07-.84.09l0,0-.16,0s0,.07-.08.1A3.51,3.51,0,0,1,112.63,6.11Zm-1.1.07h0S111.47,6.19,111.53,6.18Zm0,.06h0Zm-.12.08h0Zm0,.06h.13l.15,0h-.14Zm.34.06h0s.07,0,.06,0ZM110.34,6h0Zm.76.37c.07,0,.12,0,.13,0S111.11,6.34,111.1,6.36Zm.45.14h0Zm-.65,0h0a.14.14,0,0,0,.11,0h-.16Zm-.75-.11c.1,0,.12,0,.12,0h0S110.14,6.4,110.15,6.42Zm-.25.15h0c.08,0,.22,0,.24-.06-.14,0-.23,0-.24.06h0Zm.28,0c.07,0,.1,0,.13,0A.23.23,0,0,0,110.18,6.57Zm-.62-.12h0Zm-.9-.24h0Zm0,.13h0Zm.19.15h0Zm-.11.14h0l-.08,0S108.65,6.63,108.73,6.63Zm-1.84-.1c.08,0,.11,0,.06,0S106.77,6.51,106.89,6.53Zm-.94,0h0s.14,0,.13,0-.12,0-.13,0h0Zm0,.31c.25,0,.48,0,.72,0l.15,0h0a5.33,5.33,0,0,0-.57,0C106.24,6.77,105.9,6.76,106,6.82Zm.51.19.24-.07.4-.07h-.43l-.31.09C106.35,7,106.34,7,106.51,7Zm0,.09Zm-1.32-.44.08-.07C105.05,6.64,105.05,6.64,105.19,6.66Zm.39.19h.07l0,0C105.57,6.83,105.55,6.84,105.58,6.85Zm-.09.11-.24.07a2.49,2.49,0,0,0,.55,0l0,0h0a1.83,1.83,0,0,1-.35,0Zm.54.14h0Zm-.28.07a.23.23,0,0,0,.13,0A.21.21,0,0,0,105.75,7.17ZM105,7h0Zm-.19.11.27,0c.08,0,.29,0,.38-.06A3,3,0,0,0,104.77,7.15Zm-1-.07h0c-.06,0-.15,0-.13,0h.11s0,0,0,0h0s.1,0,0,0Zm-1.39-.29h.06a1.68,1.68,0,0,0,.45,0s.09-.06-.12-.07l-.33.07h-.06Zm1.27.44c-.09,0-.1,0,0,0s.11,0,.09,0l-.14,0Zm-1.24,0a.4.4,0,0,0,.24,0A.49.49,0,0,0,102.37,7.27Zm-.67-.19s.08,0,.07,0h-.08S101.68,7.08,101.7,7.08Zm-.09.06h0Zm-.45,0h0Zm-.25.17h0v0h0Zm-.14.35c.08,0,.12,0,.14,0A.33.33,0,0,0,100.77,7.67Zm-.83-.29h0c.05,0,.07,0,0,0h-.09Zm-.36.12c.07,0,.13,0,.14,0h0C99.61,7.47,99.57,7.48,99.58,7.5Zm-1.34-.43h.09s0,0,0,0Zm.81.51h-.28l-.08.09a.67.67,0,0,0,.2,0c.14,0,.17-.06.16-.09h0Zm.56.34h0Zm-1.44-.67v0h0S98.1,7.24,98.17,7.25ZM98,7.39l.37,0C98,7.34,98,7.34,98,7.39Zm.67.54a.28.28,0,0,0,.14,0A.27.27,0,0,0,98.7,7.93Zm-.76-.06H98l.08,0H98Zm-.42.2c.21,0,.45,0,.67-.06h0a2.42,2.42,0,0,0-.6,0C97.53,8,97.42,8,97.52,8.07Zm-1.4-.44Zm-.43.16s0,0-.06,0S95.61,7.79,95.69,7.79Zm.46.38a.7.7,0,0,0,.2,0C96.19,8.14,96.19,8.14,96.15,8.17Zm-1.61.17.33.05.31,0,.2-.1.15,0h0s0,0,.12.06l-.12-.06h0c.09,0,.14,0,.09-.07l-.15,0h0l.24,0h0c-.06,0-.16,0-.17,0s-.15,0-.31,0h0a.35.35,0,0,0-.23,0,.85.85,0,0,0,.23,0h0l.24.1h0l-.34,0-.22.08A1.09,1.09,0,0,0,94.54,8.34Zm-1.2-.41c.23,0,.23,0,.08-.08S93.28,7.9,93.34,7.93Zm-.69-.14a.29.29,0,0,0,.16,0s0,0,0,0h-.16S92.64,7.79,92.65,7.79Zm-.2.08,0,0c-.09,0-.14,0-.14,0S92.36,7.88,92.45,7.87Zm0,.07A4,4,0,0,0,93,7.89h0l.05,0h0c-.07,0-.15,0-.16,0a.55.55,0,0,0,.27,0s-.06,0-.11-.06h0l0,0H93A1.3,1.3,0,0,0,92.45,7.94Zm1.8.6a.63.63,0,0,0,.35,0A2.24,2.24,0,0,0,94.25,8.54Zm-1-.34,0,0c-.09,0-.14,0-.14,0S93.15,8.21,93.23,8.2Zm.07.06h0Zm0,.15-.41.05c.16,0,.13.08,0,.12a1.17,1.17,0,0,0-.32,0l0,0a6.55,6.55,0,0,0,.69-.05l.08,0s0,0,0,0a.53.53,0,0,0-.11-.09,2.23,2.23,0,0,0,.39,0s.06,0,0-.07S93.37,8.4,93.25,8.41Zm-.88-.29c.1,0,.12,0,.12,0h0s.1,0,0,0v0h0S92.36,8.1,92.37,8.12Zm-.44,0h0s0,0-.06,0ZM91.48,8l.09,0h0l-.1,0Zm.19.22.49,0,.15,0h0c.16,0,.17,0,.22,0h0l-.22,0h0l-.14-.06a3.46,3.46,0,0,0-.46,0Zm.17.05h0Zm-.73.34h.24a.58.58,0,0,0,.2,0h.15l.19,0V8.53l.18,0a1.76,1.76,0,0,0,.62-.09h.23c.06,0,0,0,0,0s-.11,0-.18,0h0l-.51-.05H92s.18,0,.27-.06h0c.31,0,.36,0,.35-.07l-.35.07h0s0,0-.08-.05a1.81,1.81,0,0,0-.42.06c-.06,0,.06.06,0,.09h0c-.09,0-.13,0-.12,0h0c-.07,0-.07,0,0,.06l.17,0h-.25l-.19.06h-.24Zm-.17-.05h0Zm-.42.28h0a.69.69,0,0,0,.26,0,2,2,0,0,1,.65,0l-.19-.08a2.18,2.18,0,0,1-.52.06Zm.9,0h0Zm-.62.13c.11,0,.26,0,.18-.08S90.78,8.88,90.8,8.92Zm-.49,0h.22C90.46,8.9,90.46,8.9,90.31,8.94Zm-.63.15c.11,0,.18,0,.15-.08h0c.17,0,.21,0,.37,0s.17,0,.18,0l-.21,0c-.08,0,0-.05-.15-.05s-.22,0-.19.07h0a1.09,1.09,0,0,0-.28.05S89.59,9.09,89.68,9.09Zm.71,0h0Zm-.21,0h0a.11.11,0,0,0,.08,0s0,0,0,0ZM87.3,8.59c.08,0,.13,0,.15,0A.28.28,0,0,0,87.3,8.59Zm.43.18c.07,0,.11,0,.13,0S87.75,8.75,87.73,8.77Zm-.15.15s-.09,0,0,.06l.16,0h0a.4.4,0,0,0,.15,0s-.07,0-.15,0h0A.35.35,0,0,0,87.58,8.92Zm1,.47h0Zm-2-.72h0l.06,0h0l0,0h-.1l0,0h0l-.06,0ZM87,9V9h.2c.08,0,0,0,0-.06s.12,0,0-.07l-.24,0c0,.06-.06.09-.16.13L87,9h0S86.91,9,87,9Zm-.24.11a.75.75,0,0,0,.23,0c.09,0,.21-.06.11-.1S86.82,9.07,86.79,9.11ZM86,8.68h0l0,0s0,0-.11,0l.06,0h0Zm.15.22a.28.28,0,0,0,.14,0h-.14Zm.4.16c.08,0,.11,0,.11,0s-.2,0-.21,0S86.49,9.06,86.54,9.06Zm.43.21.06,0-.11,0h0a.48.48,0,0,0,.3.06h0a.44.44,0,0,0,.2,0,.67.67,0,0,0-.2,0h0l.08,0a1.76,1.76,0,0,0,.4-.08l-.12-.06h0l0,0h-.1l.06,0h0a2.94,2.94,0,0,1-.42,0C87.08,9.22,87,9.24,87,9.27Zm.81.05h.14C87.85,9.3,87.8,9.3,87.78,9.32Zm-.48.14h0s-.1,0,0,0v0h0Zm-.57-.23-.12,0c-.08.06-.29.1-.35.14h-.15s0,.08,0,.1a1.32,1.32,0,0,0,.34,0s0-.05.06-.08S86.78,9.28,86.73,9.23ZM86.09,9c.08,0,.1,0,0,0S86,9,86.09,9Zm.15.16c.17,0,.15-.08,0-.11h-.22c.11,0,.15,0,.11.06S86.07,9.16,86.24,9.17Zm-1.57-.1.16,0s0-.05-.1-.05h-.06S84.63,9.06,84.67,9.07ZM83.74,9c.06,0,.09,0,0,0S83.61,9,83.74,9Zm.09,0h0Zm-.7,0a.77.77,0,0,0,.28,0s0-.06-.09-.06l-.18,0Zm.22.11h0Zm-.92,0,.06,0h0l.23,0h0a.4.4,0,0,0,.21,0s.13,0,.16-.09h0a.76.76,0,0,0-.32.07h0l-.12,0-.17,0Zm.49.33h0s-.1,0,0,0v0h.23v0h0c.13,0,.12-.05.09-.08l-.09,0h0l.23,0h0l.16,0c-.11.05-.17.09,0,.15l.17-.08h.17c.07,0,0,.06.16.06s.07-.06.22-.08,0,.06.25.06l.18,0h.4s.14,0,.26-.06.12,0,.1,0h.31l.06,0h0c-.09,0-.24,0-.24,0,.17,0,.24,0,.24,0h0l.19,0a1,1,0,0,0-.25,0h0a.46.46,0,0,0-.17,0h-.11v0h0a2.86,2.86,0,0,1-.51,0,2.75,2.75,0,0,1,.5-.1l.11-.05a.87.87,0,0,0,.26,0c-.07,0-.12-.05-.12-.07h0c.05,0,.13,0,.13,0s-.13,0-.13,0h0a3.91,3.91,0,0,0-.64.07,2.41,2.41,0,0,0-.38,0l-.14,0,.1,0,.25,0a3.83,3.83,0,0,1-.45.1,2.67,2.67,0,0,0-.49,0s0-.05.11-.08.09-.06,0-.09h-.2s-.07,0-.11,0h.11s0,.06-.17.09l-.3,0h0l0,0h0c.06,0,.16,0,.12,0h-.11s0,0,0,0h0c-.25,0-.26,0-.18.05h0c-.09,0-.08.08,0,.12h0l-.1,0h-.11Zm3.29,0h0Zm-.33-.1h0c-.08,0-.24,0-.25.05.15,0,.25,0,.25-.05h0Zm-.36.23q.24,0,.21-.06C85.49,9.58,85.47,9.6,85.52,9.64Zm-.19-.17c-.07,0-.11,0-.13,0S85.31,9.49,85.33,9.47Zm-.11.13c.06,0,.07,0,0,0a3.79,3.79,0,0,0-.51,0h0l.11.05c0,.05-.2.07-.17.1l.15,0a.23.23,0,0,0-.15.11l.27,0,.11-.11-.17,0,0,0s0,0,.17-.07h.1l0,0h0Zm-1.87,0s0,0,.09,0,.11,0,.07,0A.29.29,0,0,0,83.35,9.58Zm-1.26-.33a.23.23,0,0,0,.13,0A.21.21,0,0,0,82.09,9.25Zm0,.2s.06,0,.06,0l-.08,0h0Zm.46.25a1.19,1.19,0,0,0,.31,0c.1,0,0,0,0-.06.18,0,.27-.05.3-.1s0,0,0,0c-.17,0-.16,0-.31,0h-.12l-.07,0h0v0l0,0h0l-.12,0C82.57,9.64,82.58,9.67,82.52,9.7Zm.28.12a1.23,1.23,0,0,0,.35,0h0a.71.71,0,0,0,.29,0h0l-.09.06a1,1,0,0,0,.3,0l.15,0h0a1.69,1.69,0,0,0,.58-.05.56.56,0,0,0-.27,0,1.06,1.06,0,0,1-.31.09h0c-.1,0,.06-.08-.12-.1s-.1.06-.24.08h0a.94.94,0,0,0-.29,0h0l-.05,0h0l.17,0,.57-.12,0,0c.13,0,.27,0,.39-.06s.14,0,0-.05-.31,0-.45.05h-.1s0,0,.09,0h0l0,.06-.35.05a1.69,1.69,0,0,0-.35,0v.07h0l-.36,0Zm1.3-.19s0,0,.06,0S84.18,9.63,84.1,9.63ZM84,9.88h0s-.15,0-.13,0,.15,0,.13,0h0Zm-.47,0h0l0,0h0c-.09,0-.2.05-.06.08s.12,0,.06-.08h0v0Zm-.34.16s0,0,0,0h0l-4.76.6c-1,.13-1.6.36-1.75.63h-.08s0,0,0,0h.07a.26.26,0,0,0,0,.15.43.43,0,0,0-.17,0v.07a1.7,1.7,0,0,1-.4-.06h0c.05,0,.14,0,.12,0s-.13,0-.12,0h0a1.42,1.42,0,0,0-.3.06h-.37c.08,0,.16,0,.17,0a.69.69,0,0,0-.32,0l.15,0h0l-.82.1a1.05,1.05,0,0,1,.36.08h.33c.08,0,.24-.06.27-.1a.37.37,0,0,1,.21-.06s-.14.08,0,.12H76l.19-.07c.14,0,.14.06.33,0h0l.06,0h0s-.07,0,0,0h0l-.16,0a1.09,1.09,0,0,0-.39,0,.36.36,0,0,0-.11,0,1.09,1.09,0,0,0-.17.13,2.6,2.6,0,0,0,.4,0c.12,0,0-.06.1-.09h.18l.15,0c-.11.05-.46.06-.43.14l.06,0h0s-.1,0,0,0v0h0a2.46,2.46,0,0,0,.45-.11l.12,0c.08,0,.08.06.06.1l-.26.06,0,.08-.2.07h0a.49.49,0,0,0-.29-.06h-.2l-.11-.05h0c-.08,0-.07,0,.11.05h0l0,0h0l0,0h0c-.18,0-.25.05-.22.09a.41.41,0,0,0,.22,0c.08,0,.09-.06,0-.09h0l.06,0H76a.51.51,0,0,0,.29.06h0l.24,0h0l0,0h.11a1,1,0,0,0,.3,0h0a.89.89,0,0,0,.35,0h0a3.15,3.15,0,0,0,.53,0l.13,0h0l4.78,2-.27,0h0a.48.48,0,0,0,.18,0l.16,0,2.47,1h-.13a.5.5,0,0,0-.22.07,2.76,2.76,0,0,0,.44,0l2.41,1s0,0,0,0-.19.05-.09.08l.24-.05,3.32,1.38a9.23,9.23,0,0,0,2.55.53h0a.44.44,0,0,0-.2,0s0,0,0,0l.15,0h0l.14,0h0a14.88,14.88,0,0,0,2.84,0l9.12-1.16H106l4.89-.62H111a.66.66,0,0,0,.24,0s0,0,0,0l20.27-2.58s-.05,0,0,.05h0a1.55,1.55,0,0,0,.29-.05l-.06,0,3.7-.47h.07a.46.46,0,0,0,.21-.05l3.09-.39h0c-.07,0-.15,0-.15,0h.17c.07,0,0,0,0-.05h0l.09,0,14.31-1.82h0l.46,0h-.07s0,0,.09,0h.41l-.05.05h.06l.48-.08c.05,0,.1-.05.05-.07l-.15,0h0c-.26,0-.52,0-.76.06l4.28-.55c1.57-.2,2.16-.66,1.54-1.12h0s0,0,0,0h-.05a2.53,2.53,0,0,0-.41-.22l-5.7-2.37h0l-3.64-1.52.17,0a.28.28,0,0,1,.2-.08l.24,0,.09-.06a1.14,1.14,0,0,0,.31,0,1.28,1.28,0,0,1,.29,0c-.05,0-.06,0-.05,0h0c.05,0,.08,0,.06,0,.21,0,.26-.07.28-.11l-.19,0L151.4,5s.09-.1-.1-.14a1,1,0,0,1-.5.12,1.5,1.5,0,0,0-.3,0s.18,0,.09.06h-.38c-.07,0,.08-.06-.12-.07l-.4.15s.08.06,0,.09h0a.26.26,0,0,0-.16,0l0,0-1.1-.46h0l0,0,0,0h0l-2.09-.87h.1c.06,0,.11,0,0,0a.31.31,0,0,0-.15,0l-.94-.4a5.18,5.18,0,0,0-.86-.26h0a14.47,14.47,0,0,0-4.67-.23l-11,1.39h0l-4.74.6h-.09l-.06,0-7.65,1a.38.38,0,0,0-.2,0h0l0,0h0c.1,0,.27,0,.27-.06H116c-.11,0-.1,0-.1.07h0s-.08,0-.06,0h0a2.67,2.67,0,0,0-.39.1h0l-5,.63h0l-.3,0s0,0,0,0h-.06c-.08,0-.1,0-.09,0l-1.14.14h-.1c-.17.05-.51,0-.69.09h.07l-8.8,1.11h0a.54.54,0,0,0-.22,0,.36.36,0,0,0-.22,0h.29L95,8.61l0,0a.47.47,0,0,0-.25,0l-.27,0,0,0h0s.06,0,.06,0,0,0-.12,0l.06,0h0a.4.4,0,0,0-.19,0l-.69.09c.13-.06.39-.1.33-.17s-.11,0-.24,0h-.19a1.56,1.56,0,0,1-.51.15h-.22l-.13.06h0c.26,0,.52,0,.82,0l-3.9.49h0c-.1,0-.15,0-.15,0h0l-3.44.44,0,0h0c.07,0,.1,0,.1,0l.25,0,0,0a2.94,2.94,0,0,0,.35-.05h-.17s.16,0,.12-.08a.4.4,0,0,0-.16,0,1.29,1.29,0,0,1-.23,0,3.51,3.51,0,0,0-.66.14h0l-.38.06c-.08,0-.1,0-.09.05a1.75,1.75,0,0,0,.35,0h0l0,0-1.06.13h-.09l-.13,0-1,.12H83.2Zm4.23,6.27h0ZM86.86,16a.28.28,0,0,0-.14,0C86.8,16.06,86.84,16.06,86.86,16Zm-2.45-1c-.08,0-.11,0-.13,0S84.39,15.05,84.41,15Zm-9-3.12h-.12l-.08,0h.12S75.48,11.92,75.45,11.91Zm.15.09s-.07,0-.06,0h.06Zm-.21-.16h0Zm.11-1.58h0Zm3.41.36a1.41,1.41,0,0,0-.33,0l-.45.06A3.32,3.32,0,0,0,78.91,10.62Zm0-.06h0s.06,0,.1,0H79a.1.1,0,0,0-.09,0Zm1.19-.2c.08,0,.08,0,.07,0a.58.58,0,0,0-.3,0A.68.68,0,0,0,80.15,10.36Zm.13-.41h0Zm.63-.17,0,0h.21v0h0c.07,0,.15,0,.14,0-.22,0-.22,0-.31,0Zm.34.24c-.1.11-.1.11,0,.11a.44.44,0,0,0,.26-.09A.37.37,0,0,0,81.25,10Zm.45.22h0c-.08,0-.23,0-.23,0,.16,0,.22,0,.23,0h0Zm-.38,0h.08l0,0Zm-.13,0c-.07,0-.11,0-.13,0A.17.17,0,0,0,81.19,10.19Zm1.53-.29c.07,0,.12,0,.08,0h-.15S82.65,9.91,82.72,9.9Zm-1.44-.61s.06,0,0,0H81S81.14,9.31,81.28,9.29Zm.57.39-.09.06a.56.56,0,0,0-.19,0c-.09,0-.11,0,0,0a1,1,0,0,0,.24,0,.51.51,0,0,0,.34,0C82,9.71,82,9.68,81.85,9.68Zm-1-.3a.27.27,0,0,0,.14,0A.28.28,0,0,0,80.81,9.38Zm.46.22h0c.09,0,.12,0,.11,0h0l.17-.07c-.11,0-.09-.06-.28-.07l-.17.05s.06,0,.07,0,0,0,0,0S81.12,9.62,81.27,9.6Zm.87.4c.1,0,0,0,0-.06l.16-.08s0,0-.1,0-.22.05-.24.09S82,10,82.14,10Zm-2.55-.49a1.19,1.19,0,0,0,.28,0h0a3,3,0,0,0,.52,0c.06,0,.09,0,0-.05-.22,0-.37.05-.56.06h0C79.63,9.48,79.63,9.48,79.59,9.51Zm-.61,0h0Zm.28.24.15,0,0-.06h0l.15,0s-.14,0-.18,0l-.16-.05c-.12,0-.11,0-.11.07h0a.48.48,0,0,1,.18,0l.12.05h0C79.33,9.66,79.21,9.68,79.26,9.72Zm.07.07a.74.74,0,0,0-.26.05,1.51,1.51,0,0,0,.31,0l0,0h0l.22,0h0a.94.94,0,0,0,.29,0h0l0,.05.32,0-.09.07h0l-.1,0h0s-.06,0-.11,0H80l0,0h0l0,0h0a1.14,1.14,0,0,1,.3,0h.25c-.27,0-.11-.05-.11-.07l-.14,0,0-.07a1.62,1.62,0,0,0-.32,0L80,9.67h0c.1,0,.19,0,.18-.06h0l.24,0h.19a.56.56,0,0,0,.21,0l.05,0a1,1,0,0,0-.26,0h-.19l0-.05a1,1,0,0,0-.43,0l0,0h0c-.08,0,0,.05,0,.07h0c-.1,0-.21,0-.18.05h0l-.24,0h0c-.16,0-.16,0-.22,0h0Zm-.44-.1c-.07,0-.11,0-.13,0S78.87,9.71,78.89,9.69Zm-.23,0v0h0c.06,0,.14,0,.12,0s-.13,0-.12,0h0S78.56,9.65,78.66,9.66Zm.89.42-.35,0-.1.11h0l0,0h.11s.15,0,.15,0l-.11,0s-.14,0-.15,0l.22,0h0s-.08.05.06.05.13,0,.12,0h0l.05,0h-.12l0,0c.41,0,.73-.05,1-.07.08,0,0-.06-.09-.08h0l-.17,0h-.38l.07,0h-.13l-.06-.05c.13,0,.31,0,.27-.09A1.39,1.39,0,0,0,79.55,10.08Zm-1.21-.21a.87.87,0,0,0,.28,0l0,0a.42.42,0,0,0-.21,0C78.39,9.84,78.3,9.84,78.34,9.87Zm-.08.17c.19,0,.21,0,.22,0s-.07,0-.19,0S78.25,10,78.26,10Zm.22.18a2.21,2.21,0,0,1,.43-.08l0-.05a.38.38,0,0,0-.19,0,.79.79,0,0,1-.21,0l-.23,0C78.39,10.18,78.31,10.21,78.48,10.22Zm-1.07-.34h0Zm.66.28h0Zm-.37-.09h0Zm0,.14c.1,0,.16,0,.18,0S77.72,10.18,77.69,10.21Zm-1-.3h.07a.28.28,0,0,0,.14,0s-.07,0-.14,0h-.07Zm.54.35c0,.08,0,.16-.17.24h0c0,.05,0,.05.15.06l-.15-.06h0l.59-.08h0l.06,0c-.1,0-.26,0-.27.05a1.57,1.57,0,0,0,.32,0s-.31,0-.34.09c.16,0,.29,0,.44,0l0,.06h.18c.14,0,.09-.07.13-.11a2.9,2.9,0,0,0,.51,0l.3-.07h-.2l.09-.05-.15-.12-.1,0c-.21,0,0,.07-.08.1l-.3.06c-.2,0-.43,0-.64,0h0l-.14,0s.08,0,.08-.06,0-.13-.21-.18S77.27,10.23,77.27,10.26Zm-.42,0a1.67,1.67,0,0,0-.32,0l0,0A.91.91,0,0,0,76.85,10.28ZM75.75,10c.11,0,.14,0,.12,0h0c.05,0,.14,0,.13,0s-.13,0-.13,0h0C75.81,10,75.72,10,75.75,10Zm.48.2v0h0a1.23,1.23,0,0,0,.29-.07h0a1.12,1.12,0,0,0,.27,0c.05,0,0,0-.1-.06h0l-.17.05h0a.38.38,0,0,0-.25,0s0,0,0,.05h0S76.14,10.23,76.23,10.23Zm1.18.58h0c-.09,0-.24,0-.26.05h.18c.07,0,.1,0,.08-.06h0Zm-.28-.07h0Zm-.41-.12h0a.23.23,0,0,0,.13,0Zm-.82-.31h0Zm.19.13h0ZM75,10.14h.12c.09,0,.13,0,.11-.06C75.06,10.11,75.06,10.11,75,10.14Zm5.18-.53H80A.51.51,0,0,0,80.18,9.61ZM73.3,12.09Zm73,1ZM77.86,10.45h-.1l.07,0ZM81,9.81h0l.11,0h-.18l.06,0Zm-1.69.54h0a.51.51,0,0,0,.18,0h0l-.06,0h-.12ZM84.09,8.8l-.22,0H84Zm-4.34,1.36a4.29,4.29,0,0,0-.65.05h0l0,0h0a2.61,2.61,0,0,1,.42,0h.24ZM73.62,12c-.08,0-.13,0-.1.06L74,12A1.53,1.53,0,0,0,73.62,12Zm-.05.09-.06,0-.05,0Zm7.68-2.49,0,0h0ZM74,12l0,0,0,0Z"/></g></g></g></svg>