<svg xmlns="http://www.w3.org/2000/svg" viewBox="0 0 270.51 146.24"><defs><style>.cls-1{isolation:isolate;}.cls-2{fill:#b3b3b3;}.cls-2,.cls-6{mix-blend-mode:multiply;}.cls-3{fill:#f0ba32;}.cls-4{fill:#723e32;}.cls-5{fill:#c99c29;}.cls-6{fill:#d6d6d6;}.cls-7{fill:#ffd15f;}</style></defs><g class="cls-1"><g id="Layer_2" data-name="Layer 2"><g id="envelopes"><path class="cls-2" d="M20.12,123.24v1.5L80,146.24c68.39,0,134.4-2.8,167.93-5.25v-1.5Z"/><path class="cls-3" d="M248,139.49,80,140.24l-60.24-17c64.32.39,124.08,0,167.93-3C197.86,124.59,223.11,132.08,248,139.49Z"/><polygon class="cls-4" points="80.03 140.24 19.79 123.24 19.79 124.74 80.03 143.24 247.96 140.99 247.96 139.49 80.03 140.24"/><polygon class="cls-5" points="122.03 128.17 80.03 140.24 247.96 139.49 122.03 128.17"/><path class="cls-6" d="M150.2,135.77,19.79,123.24c62.75.51,120.9,0,167.93-3A168.74,168.74,0,0,1,150.2,135.77Z"/><path class="cls-7" d="M145.72,134.56c-34.59-4.16-78.5-7.83-125.93-11.32,30.33-1.48,59.78-.95,87.72-1.09C136,122,162.9,121,187.72,120.24,172.71,124.84,158.35,131.91,145.72,134.56Z"/><path class="cls-2" d="M36.7,114.57l0,1.5L97.2,136c68.37-1.81,134.28-6.36,167.74-9.69l0-1.5Z"/><path class="cls-3" d="M264.9,124.79,97,130,36.37,114.57c64.32-1.3,124-3.26,167.79-7.43C214.42,111.22,239.86,118,264.9,124.79Z"/><polygon class="cls-4" points="97.04 129.98 36.37 114.57 36.41 116.07 97.12 132.98 264.94 126.29 264.9 124.79 97.04 129.98"/><polygon class="cls-5" points="138.71 116.8 97.04 129.98 264.9 124.79 138.71 116.8"/><path class="cls-6" d="M167.07,123.65l-130.7-9.08c62.74-1.14,120.86-3.2,167.79-7.43A168.22,168.22,0,0,1,167.07,123.65Z"/><path class="cls-7" d="M162.56,122.56c-34.69-3.23-78.68-5.75-126.19-8,30.28-2.27,59.73-2.52,87.66-3.4,28.51-.89,55.35-2.66,80.13-4C189.28,112.14,175.12,119.58,162.56,122.56Z"/><path class="cls-2" d="M42.94,100.24l0,1.5,59.38,22.94c68.37,1.64,134.43.44,168-1.2l0-1.5Z"/><path class="cls-3" d="M270.33,122l-167.9-3.3L42.61,100.23c64.3,1.94,124,3,168,1C220.6,105.87,245.66,114,270.33,122Z"/><polygon class="cls-4" points="102.43 118.68 42.61 100.23 42.57 101.73 102.35 121.68 270.29 123.48 270.33 121.98 102.43 118.68"/><polygon class="cls-5" points="144.71 107.62 102.43 118.68 270.33 121.98 144.71 107.62"/><path class="cls-6" d="M172.68,115.9,42.61,100.23c62.72,2,120.86,2.91,168,1A168.87,168.87,0,0,1,172.68,115.9Z"/><path class="cls-7" d="M168.23,114.58c-34.48-5-78.28-9.72-125.62-14.35,30.36-.74,59.78.49,87.72,1,28.52.55,55.41.14,80.23,0C195.45,105.52,180.93,112.24,168.23,114.58Z"/><path class="cls-2" d="M20,97.09l0,1.5,60.43,20c68.37-1.72,134.29-6.17,167.75-9.46l0-1.5Z"/><path class="cls-3" d="M248.13,107.62l-167.86,5L19.62,97.1c64.32-1.22,124-3.1,167.8-7.22C197.67,94,223.1,100.83,248.13,107.62Z"/><polygon class="cls-4" points="80.27 112.58 19.62 97.1 19.66 98.6 80.35 115.58 248.17 109.11 248.13 107.62 80.27 112.58"/><polygon class="cls-5" points="121.96 99.46 80.27 112.58 248.13 107.62 121.96 99.46"/><path class="cls-6" d="M150.31,106.35,19.62,97.1c62.74-1.07,120.86-3,167.8-7.22A167.84,167.84,0,0,1,150.31,106.35Z"/><path class="cls-7" d="M145.79,105.25C111.11,102,67.13,99.4,19.62,97.1c30.29-2.23,59.74-2.45,87.67-3.29,28.51-.85,55.34-2.58,80.13-3.93C172.54,94.86,158.36,102.29,145.79,105.25Z"/><path class="cls-2" d="M42.67,82.06v1.5l59.91,21.5c68.39,0,134.4-2.8,167.93-5.25v-1.5Z"/><path class="cls-3" d="M270.51,98.31l-167.93.75-60.24-17c64.32.39,124.07,0,167.93-3C220.41,83.41,245.66,90.9,270.51,98.31Z"/><polygon class="cls-4" points="102.58 99.06 42.34 82.06 42.34 83.56 102.58 102.06 270.51 99.81 270.51 98.31 102.58 99.06"/><polygon class="cls-5" points="144.58 86.99 102.58 99.06 270.51 98.31 144.58 86.99"/><path class="cls-6" d="M172.75,94.59,42.34,82.06c62.74.51,120.89,0,167.93-3A168.74,168.74,0,0,1,172.75,94.59Z"/><path class="cls-7" d="M168.27,93.38c-34.59-4.15-78.5-7.83-125.93-11.32,30.33-1.47,59.77-1,87.72-1.09,28.52-.13,55.39-1.19,80.21-1.91C195.26,83.66,180.9,90.73,168.27,93.38Z"/><path class="cls-2" d="M17,69.06v1.5l59.92,21.5c68.38,0,134.39-2.8,167.93-5.25v-1.5Z"/><path class="cls-3" d="M244.84,85.31l-167.93.75-60.25-17c64.33.39,124.08,0,167.93-3C194.74,70.41,220,77.9,244.84,85.31Z"/><polygon class="cls-4" points="76.91 86.06 16.66 69.06 16.66 70.56 76.91 89.06 244.84 86.81 244.84 85.31 76.91 86.06"/><polygon class="cls-5" points="118.91 73.99 76.91 86.06 244.84 85.31 118.91 73.99"/><path class="cls-6" d="M147.08,81.59,16.66,69.06c62.75.51,120.9,0,167.93-3A168.83,168.83,0,0,1,147.08,81.59Z"/><path class="cls-7" d="M142.59,80.38C108,76.22,64.09,72.55,16.66,69.06c30.33-1.48,59.78-1,87.72-1.09,28.53-.14,55.4-1.19,80.21-1.91C169.59,70.66,155.23,77.73,142.59,80.38Z"/><path class="cls-2" d="M249.81,59.05v1.5L189.89,82.06c-68.38,0-134.39-2.8-167.93-5.25v-1.5Z"/><path class="cls-3" d="M22,75.31l167.93.75,60.25-17c-64.33.4-124.08,0-167.93-3C72.06,60.41,46.82,67.9,22,75.31Z"/><polygon class="cls-4" points="189.89 76.06 250.14 59.05 250.14 60.55 189.89 79.06 21.96 76.81 21.96 75.31 189.89 76.06"/><polygon class="cls-5" points="147.89 63.99 189.89 76.06 21.96 75.31 147.89 63.99"/><path class="cls-6" d="M119.72,71.59,250.14,59.05c-62.75.51-120.9,0-167.93-3A168.26,168.26,0,0,0,119.72,71.59Z"/><path class="cls-7" d="M124.21,70.38c34.59-4.16,78.49-7.83,125.93-11.33-30.33-1.47-59.78-.94-87.72-1.08-28.53-.14-55.4-1.19-80.21-1.92C97.21,60.66,111.57,67.73,124.21,70.38Z"/><path class="cls-2" d="M31.13,40.55l-.06,1.5L90.13,65.81c68.33,2.59,134.4,2.3,168,1.12l.06-1.5Z"/><path class="cls-3" d="M258.19,65.43,90.35,59.82,30.8,40.54c64.26,2.83,124,4.73,167.92,3.37C208.69,48.64,233.64,57.09,258.19,65.43Z"/><polygon class="cls-4" points="90.35 59.81 30.8 40.54 30.74 42.04 90.24 62.81 258.13 66.93 258.19 65.43 90.35 59.81"/><polygon class="cls-5" points="132.78 49.34 90.35 59.81 258.19 65.43 132.78 49.34"/><path class="cls-6" d="M160.64,58,30.8,40.54c62.68,2.89,120.81,4.58,167.92,3.37A168.52,168.52,0,0,1,160.64,58Z"/><path class="cls-7" d="M156.21,56.63C121.8,51.17,78.06,45.83,30.8,40.54c30.36-.32,59.77,1.32,87.69,2.24,28.51.95,55.41.91,80.23,1.13C183.55,47.94,168.93,54.46,156.21,56.63Z"/><path class="cls-2" d="M.33,36.36l.07,1.5L61.22,56.63c68.32-3.09,134.14-8.87,167.52-12.83l-.06-1.5Z"/><path class="cls-3" d="M228.68,42.3,61,50.64,0,36.38c64.28-2.52,124-5.59,167.62-10.59C178,29.68,203.51,36,228.68,42.3Z"/><polygon class="cls-4" points="60.95 50.64 0 36.38 0.07 37.87 61.09 53.63 228.74 43.8 228.68 42.3 60.95 50.64"/><polygon class="cls-5" points="102.36 36.68 60.95 50.64 228.68 42.3 102.36 36.68"/><path class="cls-6" d="M130.85,43,0,36.38c62.71-2.33,120.77-5.47,167.62-10.59A168.79,168.79,0,0,1,130.85,43Z"/><path class="cls-7" d="M126.31,42C91.57,39.41,47.54,37.72,0,36.38c30.23-2.85,59.67-3.65,87.58-5.05,28.49-1.43,55.29-3.7,80-5.54C152.84,31.07,138.82,38.78,126.31,42Z"/><path class="cls-2" d="M249.81,21.27v1.5L189.89,44.28C121.51,44.28,55.5,41.47,22,39v-1.5Z"/><path class="cls-3" d="M22,37.53l167.93.75,60.25-17c-64.33.4-124.08,0-167.93-3C72.06,22.63,46.82,30.12,22,37.53Z"/><polygon class="cls-4" points="189.89 38.28 250.14 21.27 250.14 22.77 189.89 41.28 21.96 39.03 21.96 37.53 189.89 38.28"/><polygon class="cls-5" points="147.89 26.2 189.89 38.28 21.96 37.53 147.89 26.2"/><path class="cls-6" d="M119.72,33.8,250.14,21.27c-62.75.51-120.9,0-167.93-3A168.34,168.34,0,0,0,119.72,33.8Z"/><path class="cls-7" d="M124.21,32.59c34.59-4.15,78.49-7.82,125.93-11.32-30.33-1.47-59.78-.94-87.72-1.08C133.89,20.05,107,19,82.21,18.27,97.21,22.88,111.57,30,124.21,32.59Z"/><path class="cls-2" d="M245.32,0l.11,1.5-58.12,26c-68.19,5.16-134.23,7.35-167.85,7.43l-.11-1.49Z"/><path class="cls-3" d="M19.35,33.42,186.86,21.5,245.65,0C181.53,5.24,121.92,9.38,78,9.68,68.18,14.78,43.57,24.16,19.35,33.42Z"/><polygon class="cls-4" points="186.86 21.5 245.65 0 245.76 1.5 187.08 24.49 19.46 34.91 19.35 33.42 186.86 21.5"/><polygon class="cls-5" points="144.06 12.63 186.86 21.5 19.35 33.42 144.06 12.63"/><path class="cls-6" d="M116.55,22.33,245.65,0C183.11,5.24,125.09,9.11,78,9.68A168.67,168.67,0,0,0,116.55,22.33Z"/><path class="cls-7" d="M120.93,20.79C155.1,14,198.61,7.06,245.65,0,215.29.82,186,3.56,158.09,5.54c-28.45,2-55.32,3-80.12,4.14C93.28,13.14,108.13,19.1,120.93,20.79Z"/></g></g></g></svg>