<svg xmlns="http://www.w3.org/2000/svg" viewBox="0 0 1232.7 341.78"><defs><style>.cls-1{isolation:isolate;}.cls-2{fill:#b3b3b3;}.cls-13,.cls-17,.cls-19,.cls-2,.cls-23,.cls-29,.cls-5{mix-blend-mode:multiply;}.cls-3{fill:#fec381;}.cls-4{fill:#b57c49;}.cls-5{fill:#b2b2b2;}.cls-6{fill:#bd8d58;}.cls-10,.cls-7{fill:#422e17;}.cls-8{fill:#fff;}.cls-9{fill:#242424;}.cls-10,.cls-26{fill-rule:evenodd;}.cls-11{fill:#e0ae70;}.cls-12{fill:#d78b57;}.cls-13{fill:#d1d3d4;}.cls-14{fill:#bdaa95;}.cls-15{fill:#545456;}.cls-16{fill:#666;}.cls-18{fill:#aa7b44;}.cls-19{fill:#ccc;}.cls-20{fill:#e9ce89;stroke:#e9ce89;stroke-miterlimit:10;}.cls-21{fill:#d88f5a;}.cls-22{fill:#ad7747;}.cls-23{fill:#c2c4c5;}.cls-24{fill:#e3ad74;}.cls-25{fill:#ae9b86;}.cls-26,.cls-27{fill:#331f08;}.cls-28{fill:#c58247;}.cls-29{fill:#a3a3a3;}.cls-30{fill:#efb472;}.cls-31{fill:#e2e3e3;}</style></defs><g class="cls-1"><g id="Layer_2" data-name="Layer 2"><g id="table"><path class="cls-2" d="M1232.7,307.81c0,34-276,34-616.35,34S0,341.78,0,307.81s274.6-38,615-38S1232.7,273.83,1232.7,307.81Z"/><ellipse class="cls-2" cx="334.81" cy="313.53" rx="122.45" ry="11.51"/><ellipse class="cls-2" cx="661.37" cy="313.53" rx="122.45" ry="11.51"/><ellipse class="cls-2" cx="933.97" cy="313.53" rx="96.99" ry="11.51"/><rect class="cls-3" x="244.94" y="191.37" width="111.48" height="124.28"/><rect class="cls-4" x="356.42" y="191.37" width="75.48" height="124.28"/><rect class="cls-5" x="244.94" y="172.06" width="111.48" height="28.34"/><rect class="cls-5" x="356.42" y="172.06" width="75.48" height="28.34"/><rect class="cls-3" x="238.33" y="170.62" width="124.71" height="28.34"/><rect class="cls-6" x="356.42" y="170.62" width="82.37" height="28.34"/><rect class="cls-7" x="419.12" y="291.91" width="5.71" height="0.99"/><rect class="cls-7" x="423.84" y="291.91" width="0.99" height="5.71"/><rect class="cls-7" x="423.84" y="305.16" width="0.99" height="5.71"/><rect class="cls-7" x="419.12" y="309.88" width="5.71" height="0.99"/><rect class="cls-7" x="365.94" y="309.88" width="5.71" height="0.99"/><rect class="cls-7" x="365.94" y="305.16" width="0.99" height="5.71"/><rect class="cls-7" x="365.94" y="291.91" width="0.99" height="5.71"/><rect class="cls-7" x="365.94" y="291.91" width="5.71" height="0.99"/><rect class="cls-8" x="367.26" y="293.09" width="56.26" height="16.59"/><path class="cls-9" d="M388.26,294a3.27,3.27,0,0,1,.7,0v13.9a3.28,3.28,0,0,1-.7,0Z"/><path class="cls-9" d="M382.07,306.86V294a5.25,5.25,0,0,1,.69,0v12.84A2.26,2.26,0,0,1,382.07,306.86Z"/><path class="cls-9" d="M387.32,294a2.22,2.22,0,0,1,.51,0,.19.19,0,0,1,.17.05v12.79a2.57,2.57,0,0,1-.68,0Z"/><path class="cls-9" d="M376.58,306.84a.6.6,0,0,1-.29,0,.24.24,0,0,1-.17,0V294.05a.79.79,0,0,1,.46,0Z"/><path class="cls-9" d="M369.67,307.93a1.62,1.62,0,0,1-.44,0V294a.93.93,0,0,1,.44,0Z"/><path class="cls-9" d="M374.46,294a1.14,1.14,0,0,1,.45,0v12.8a.82.82,0,0,1-.45,0Z"/><path class="cls-9" d="M372.06,306.86a1.14,1.14,0,0,1-.45,0v-12.8c.14-.08.29,0,.45,0Z"/><path class="cls-9" d="M372.34,294a1.36,1.36,0,0,1,.45,0v12.8a.75.75,0,0,1-.45,0Z"/><path class="cls-9" d="M378.28,294a.77.77,0,0,1,.45,0v12.8a.76.76,0,0,1-.45,0Z"/><path class="cls-9" d="M383.74,306.88a1.36,1.36,0,0,1-.45,0V294.07c.07-.06.15,0,.23,0a1.61,1.61,0,0,1,.22,0Z"/><path class="cls-9" d="M384.7,306.89h-.46V294.06a1.41,1.41,0,0,1,.46,0Z"/><path class="cls-9" d="M368,294.06a.18.18,0,0,1,.22,0v13.88a.2.2,0,0,1-.22,0Z"/><path class="cls-9" d="M368.51,294a.2.2,0,0,1,.21,0v13.88a.2.2,0,0,1-.21,0Z"/><path class="cls-9" d="M389.45,294.06c.07-.07.14-.05.22,0v13.88a.22.22,0,0,1-.22,0Z"/><path class="cls-9" d="M370.17,294a.24.24,0,0,1,.22,0v13.87a.18.18,0,0,1-.22,0Z"/><path class="cls-9" d="M389.93,294a.22.22,0,0,1,.21,0v13.88a.18.18,0,0,1-.21,0Z"/><path class="cls-9" d="M379,294a.24.24,0,0,1,.22,0v13.88a.2.2,0,0,1-.22,0Z"/><path class="cls-9" d="M379.45,294a.24.24,0,0,1,.22,0v13.88a.2.2,0,0,1-.22,0Z"/><path class="cls-9" d="M390.4,294a.24.24,0,0,1,.22,0v13.88a.2.2,0,0,1-.22,0Z"/><path class="cls-9" d="M384.93,294a.24.24,0,0,1,.22,0v12.79c-.07.06-.13.05-.22,0Z"/><path class="cls-9" d="M380.15,306.85a.18.18,0,0,1-.22,0V294.07c.06-.08.13-.06.22-.05Z"/><path class="cls-9" d="M386.81,306.85a.22.22,0,0,1-.21,0V294.06a.11.11,0,0,1,.1-.05l.11,0Z"/><path class="cls-9" d="M386.12,294.05a.19.19,0,0,1,.22,0v12.79c-.07.06-.13.05-.22,0Z"/><path class="cls-9" d="M375.17,294.05a.25.25,0,0,1,.22,0v12.81l-.06,0a.17.17,0,0,1-.16-.05Z"/><path class="cls-9" d="M377.06,306.83a.22.22,0,0,1-.22,0v-12.8a.16.16,0,0,1,.22,0Z"/><path class="cls-9" d="M381.1,306.85a.22.22,0,0,1-.21,0V294.06A.1.1,0,0,1,381,294l.12,0Z"/><path class="cls-9" d="M381.82,306.83a.22.22,0,0,1-.22,0v-12.8s0,0,.06,0a.14.14,0,0,1,.16.05Z"/><path class="cls-9" d="M373.52,294.05c.06-.05.13,0,.22,0v12.79a.13.13,0,0,1-.1,0h-.12Z"/><path class="cls-9" d="M371.11,306.84a.17.17,0,0,1-.2,0V294.05c.06-.05.12,0,.2,0Z"/><path class="cls-9" d="M377.77,306.84a.18.18,0,0,1-.2,0V294.05a.18.18,0,0,1,.2,0Z"/><path class="cls-9" d="M374,307.94a2,2,0,0,1,.06-.55.33.33,0,0,1,.35-.29h.29a.31.31,0,0,1,.32.23,2.19,2.19,0,0,1,0,1.19c-.06.21-.22.27-.52.26s-.38-.09-.44-.3A1.66,1.66,0,0,1,374,307.94Zm.74-.61h-.15c-.28,0-.31,0-.34.31a2.82,2.82,0,0,0,0,.71c0,.17.12.21.27.21s.29,0,.3-.21a3.75,3.75,0,0,0,0-.58A.53.53,0,0,0,374.76,307.33Z"/><path class="cls-9" d="M376.78,307.93a2,2,0,0,1-.06.54c-.06.22-.18.3-.46.31s-.45-.06-.5-.27a2.14,2.14,0,0,1,0-1.15.34.34,0,0,1,.35-.26c.54,0,.66.09.68.64Zm-.32-.6h-.32a.18.18,0,0,0-.19.15,2.78,2.78,0,0,0,0,.91c0,.15.14.16.26.16s.25,0,.28-.14A2,2,0,0,0,376.46,307.33Z"/><path class="cls-9" d="M385.51,307.91c0-.29.25-.35.36-.57-.2,0-.41,0-.61,0s0-.12,0-.19h.95c.13.32-.21.39-.33.6a.58.58,0,0,1,.41.36.53.53,0,0,1,0,.39.72.72,0,0,1-1,.19.22.22,0,0,1,0-.21,1,1,0,0,0,.47.09.3.3,0,0,0,.31-.32c0-.18-.08-.25-.3-.28Z"/><path class="cls-9" d="M370.82,307.44a.23.23,0,0,1,0-.21l.06-.05a.78.78,0,0,1,.25-.07c.34,0,.53.06.61.29a.53.53,0,0,1-.27.62,1.91,1.91,0,0,0-.32.24c-.06.07-.14.13-.1.27h.64a.16.16,0,0,1,0,.21c-.3,0-.6,0-.94,0A.76.76,0,0,1,371,308l.35-.23a.27.27,0,0,0,.1-.33c-.05-.12-.17-.13-.29-.13S371,307.42,370.82,307.44Z"/><path class="cls-9" d="M377.43,308.76a.77.77,0,0,1,.36-.81l.28-.19a.23.23,0,0,0,.08-.28c0-.12-.14-.15-.26-.15a1.67,1.67,0,0,0-.41.11c-.06-.15,0-.24.13-.29a.84.84,0,0,1,.47,0,.38.38,0,0,1,.32.31.49.49,0,0,1-.16.48,3.21,3.21,0,0,1-.3.21.56.56,0,0,0-.28.39h.65a.17.17,0,0,1,.06.22C378.07,308.77,377.76,308.75,377.43,308.76Z"/><path class="cls-9" d="M372.74,307.34a.65.65,0,0,0,0,.28.7.7,0,0,1,.6.27.46.46,0,0,1,.06.38c-.07.35-.44.54-.9.46,0-.05,0-.1,0-.15s.2,0,.31-.05.36-.17.36-.37a.27.27,0,0,0-.27-.3,1.47,1.47,0,0,1-.41,0c0-.23,0-.47.05-.71a5.25,5.25,0,0,1,.79,0,.15.15,0,0,1,0,.19C373.13,307.35,372.94,307.3,372.74,307.34Z"/><path class="cls-9" d="M387.26,307.33a.45.45,0,0,0-.05.28c.22,0,.47.05.61.28a.58.58,0,0,1,.06.39c-.06.33-.41.51-.89.46-.06-.06-.05-.12,0-.19a1.62,1.62,0,0,0,.44-.07.34.34,0,0,0,.2-.39c0-.18-.15-.24-.33-.23a1.08,1.08,0,0,1-.31,0,1.77,1.77,0,0,1,.05-.73h.75c.06.05,0,.12,0,.18C387.64,307.36,387.44,307.29,387.26,307.33Z"/><path class="cls-9" d="M382.54,307.86l.08,0h.1c.07.09,0,.19,0,.29s.18,0,.19.13-.12.1-.18.14,0,.22,0,.31a.21.21,0,0,1-.19,0c-.06-.1,0-.22-.07-.32s-.36,0-.54,0a.21.21,0,0,1,0-.2c.14-.33.29-.66.44-1,0-.1.14-.08.26,0l-.46,1a.67.67,0,0,0,.31,0C382.55,308.07,382.47,308,382.54,307.86Z"/><path class="cls-9" d="M381,307.33h-.73c0-.13,0-.22.11-.22h.91a.32.32,0,0,1,0,.32,1.13,1.13,0,0,1-.12.18,1.28,1.28,0,0,0-.42,1.1.22.22,0,0,1-.22,0,1.52,1.52,0,0,1,.53-1.33Z"/><path class="cls-9" d="M384.14,307.49l-.3.24a.49.49,0,0,1,.58-.56v1.56c-.07.06-.13.06-.22,0v-1.21Z"/><path class="cls-9" d="M391.09,307.93c0-.08,0-.16,0-.24,0-.25.1-.31.33-.32s.32.05.37.31a1.69,1.69,0,0,1,0,.55c0,.22-.11.27-.35.26s-.31-.06-.34-.27A2.83,2.83,0,0,1,391.09,307.93Zm.2-.36a1.94,1.94,0,0,0,0,.72.34.34,0,0,0,.34,0,1.8,1.8,0,0,0,0-.73A.4.4,0,0,0,391.29,307.57Z"/><rect class="cls-9" x="394.32" y="295.33" width="28.55" height="0.58"/><rect class="cls-9" x="394.32" y="299.38" width="28.55" height="0.58"/><rect class="cls-9" x="394.32" y="303.44" width="28.55" height="0.58"/><rect class="cls-9" x="394.32" y="307.49" width="28.55" height="0.58"/><path class="cls-10" d="M285.6,302.57Zm-.31-3.35s0,0,0,0S285.3,299.25,285.29,299.22Zm-4.72,2.21Zm2.6,2.05h.33a1.66,1.66,0,0,0,1.11-.41l.54-.82h0a1.92,1.92,0,0,0,.29-.48.62.62,0,0,0,0-.48l-.75-1.46-.12-.22.21-.13.36-.23-3-.58-1,2.85.34-.22.23-.16.15.24Zm-3.8,0h3.16l-1-1.59-.44.29,0,0h0a.41.41,0,0,1-.19,0,.38.38,0,0,1-.25-.13.47.47,0,0,1-.1-.28,1.16,1.16,0,0,1,.08-.39l1.08-3.17.07-.22.24,0,3.27.62c.39.08.55.23.59.4a.47.47,0,0,1-.24.48h0l-.29.19.65,1.25a1.18,1.18,0,0,1,0,.9,2.67,2.67,0,0,1-.36.63l-2.52,4a1.45,1.45,0,0,1-1.41.89h-2.88v-3.34C278.79,303.61,279,303.5,279.37,303.48Z"/><path class="cls-7" d="M276,294.3Zm-2.65,2.06s0,0,0,0S273.33,296.34,273.31,296.36Zm4.4,2.78Zm.85-3.13-1,2.08.48.21,0,0,0,0a.44.44,0,0,1,.12.15.38.38,0,0,1,0,.28.54.54,0,0,1-.18.23,1,1,0,0,1-.38.14l-3.24.81-.23.05-.09-.22-1.24-3.09c-.14-.37-.11-.59,0-.71a.46.46,0,0,1,.53-.06h0l.32.14.7-1.22a1.12,1.12,0,0,1,.73-.51,2.32,2.32,0,0,1,.73,0h4.41l-2,.59-2.41-.05h0a2.12,2.12,0,0,0-.56,0,.63.63,0,0,0-.39.27l-.83,1.43-.12.21-.22-.1-.39-.18,1.16,2.87,2.92-.72-.38-.17-.25-.11.12-.25,1.09-2.33Z"/><path class="cls-10" d="M280.09,299.05l-2.23-3.48a1.67,1.67,0,0,0-1-.73l1.47-.48,2.39-.1a1.43,1.43,0,0,1,1.51.7l1.56,2.43-2.81,1.8c-.43.28-.63.17-.85-.14Z"/><path class="cls-10" d="M273.55,306.67Zm3,1.43h0S276.56,308.09,276.59,308.1Zm.49-5.18ZM274,304.11l-.17.29a1.64,1.64,0,0,0-.21,1.16l.43.89h0a2,2,0,0,0,.27.49.65.65,0,0,0,.42.23l1.64.09h.25v.25l0,.42,2-2.33-2-2.28,0,.42,0,.27h-.28Zm1.92-3.28-1.6,2.73,1.88-.05,0-.53v-.06a.42.42,0,0,1,.08-.18.37.37,0,0,1,.24-.15.43.43,0,0,1,.28.06,1,1,0,0,1,.3.27l2.18,2.53.16.18-.16.17-2.2,2.51c-.26.29-.47.36-.64.31a.48.48,0,0,1-.29-.46v0l0-.34-1.41-.08a1.16,1.16,0,0,1-.79-.42,2.26,2.26,0,0,1-.36-.63l-2.17-4.2a1.44,1.44,0,0,1-.05-1.66l1.46-2.49,2.87,1.69C276.11,300.28,276.1,300.5,275.92,300.83Z"/><path class="cls-7" d="M286.25,291.45H270.88a2,2,0,0,0-1.93,2v16a2,2,0,0,0,1.93,2h15.37a2,2,0,0,0,1.92-2v-16a2,2,0,0,0-1.92-2Zm.77,17.73a1,1,0,0,1-1,1.06H271.13a1,1,0,0,1-1-1.06V293.71a1,1,0,0,1,1-1.06H286a1,1,0,0,1,1,1.06Z"/><path class="cls-7" d="M263.56,309.1h-10a.35.35,0,1,1,0-.7h10a.35.35,0,0,1,0,.7Z"/><polygon class="cls-10" points="257.02 296.47 257.02 306.92 254.9 306.92 254.9 296.46 253.86 296.46 256 293.78 258.13 296.47 257.02 296.47"/><polygon class="cls-10" points="262.21 296.48 262.21 306.93 260.1 306.93 260.1 296.47 259.06 296.46 261.2 293.79 263.32 296.48 262.21 296.48"/><path class="cls-7" d="M266.24,291.45H250.87a2,2,0,0,0-1.93,2v16a2,2,0,0,0,1.93,2h15.37a2,2,0,0,0,1.92-2v-16a2,2,0,0,0-1.92-2Zm.77,17.73a1,1,0,0,1-1,1.06H251.12a1,1,0,0,1-1-1.06V293.71a1,1,0,0,1,1-1.06H266a1,1,0,0,1,1,1.06Z"/><path class="cls-7" d="M306.5,291.45H291.13a2,2,0,0,0-1.92,2v16a2,2,0,0,0,1.92,2H306.5a2,2,0,0,0,1.92-2v-16a2,2,0,0,0-1.92-2Zm.77,17.73a1,1,0,0,1-1,1.06H291.38a1,1,0,0,1-1-1.06V293.71a1,1,0,0,1,1-1.06h14.88a1,1,0,0,1,1,1.06Z"/><path class="cls-10" d="M298.72,296.64A6.94,6.94,0,0,0,292,302a1.71,1.71,0,0,1,1.19-.42c.74,0,1.35.37,1.4.83.08-.46.68-.81,1.41-.81s1.34.36,1.4.83c.07-.46.67-.82,1.4-.82s1.35.37,1.41.83c.07-.45.67-.81,1.4-.81s1.36.37,1.41.84c.05-.47.66-.84,1.4-.84a1.81,1.81,0,0,1,1.07.31,6.94,6.94,0,0,0-6.74-5.28Z"/><path class="cls-7" d="M299.14,296.29a.32.32,0,0,0-.64,0l0,11.65a.32.32,0,0,0,.64,0Z"/><path class="cls-7" d="M296.75,307.16a.32.32,0,0,0,0-.46.33.33,0,0,0-.45,0,1.65,1.65,0,0,0,0,2.35,1.62,1.62,0,0,0,1.17.5,1.68,1.68,0,0,0,1.18-.48,1.49,1.49,0,0,0,.37-.55,1.57,1.57,0,0,0,.13-.65.32.32,0,0,0-.33-.32.34.34,0,0,0-.32.33.92.92,0,0,1-.07.4.94.94,0,0,1-.23.33,1,1,0,0,1-1.74-.73,1.07,1.07,0,0,1,.31-.72Z"/><path class="cls-7" d="M326.6,291.34H311.15a2,2,0,0,0-1.94,2v16.07a2,2,0,0,0,1.94,2H326.6a2,2,0,0,0,1.93-2V293.36a2,2,0,0,0-1.93-2Zm.77,17.83a1.06,1.06,0,0,1-1,1.07h-15a1,1,0,0,1-1-1.07V293.62a1,1,0,0,1,1-1.07h15a1,1,0,0,1,1,1.07Z"/><path class="cls-10" d="M323,299.91v.15h0v.11a3.85,3.85,0,0,1-7.69,0v-.11h0v-5.15H323Z"/><rect class="cls-7" x="318.83" y="298.57" width="0.67" height="10.25"/><path class="cls-10" d="M322.5,309.34a6.08,6.08,0,0,0-6.74,0Z"/><rect class="cls-11" x="271.16" y="72.17" width="126.33" height="99.15"/><rect class="cls-12" x="397.49" y="72.17" width="27.68" height="99.15"/><rect class="cls-13" x="322.16" y="137.33" width="24.93" height="33.99"/><rect class="cls-14" x="321.57" y="137.33" width="24.93" height="33.99"/><rect class="cls-13" x="322.16" y="72.17" width="24.93" height="33.99"/><rect class="cls-14" x="321.57" y="72.17" width="24.93" height="33.99"/><rect class="cls-13" x="407.97" y="137.33" width="9.12" height="33.99"/><rect class="cls-14" x="407.75" y="137.33" width="9.12" height="33.99"/><rect class="cls-13" x="407.97" y="72.17" width="9.12" height="33.99"/><rect class="cls-14" x="407.75" y="72.17" width="9.12" height="33.99"/><path class="cls-10" d="M372.11,165.85Zm-.16-1.78h0S372,164.09,372,164.07Zm-2.5,1.17Zm1.37,1.09H371a.86.86,0,0,0,.59-.22l.29-.43h0a.79.79,0,0,0,.15-.25.34.34,0,0,0,0-.26l-.4-.77-.06-.12.11-.07.19-.12-1.61-.31-.51,1.52.18-.12.12-.08.08.12Zm-2,0h1.67l-.53-.84-.23.15h0l-.1,0a.21.21,0,0,1-.13-.07.34.34,0,0,1-.06-.15.52.52,0,0,1,.05-.21l.57-1.68,0-.11.12,0,1.74.33c.2,0,.29.12.31.21a.26.26,0,0,1-.13.26h0l-.15.1.34.67a.6.6,0,0,1,0,.47,1.37,1.37,0,0,1-.19.34L370.78,168a.79.79,0,0,1-.75.47H368.5v-1.77C368.5,166.4,368.61,166.34,368.81,166.33Z"/><path class="cls-7" d="M367,161.46Zm-1.4,1.1h0S365.61,162.54,365.6,162.56Zm2.33,1.47Zm.45-1.66-.52,1.1.26.12h0a.24.24,0,0,1,.06.08.2.2,0,0,1,0,.15.18.18,0,0,1-.09.12.55.55,0,0,1-.2.08l-1.72.43-.12,0,0-.12-.66-1.64c-.07-.2-.05-.31,0-.38a.27.27,0,0,1,.29,0h0l.16.07.38-.64a.6.6,0,0,1,.39-.28,1.25,1.25,0,0,1,.38,0h2.34l-1.08.32-1.27,0h0a1,1,0,0,0-.3,0,.33.33,0,0,0-.21.14l-.43.76-.07.11-.12-.05-.2-.1.61,1.53,1.55-.39-.2-.09-.13-.06.06-.13.58-1.23Z"/><path class="cls-10" d="M369.19,164,368,162.14a.85.85,0,0,0-.55-.39l.78-.26,1.26-.05a.78.78,0,0,1,.81.37l.82,1.29-1.49,1c-.23.14-.33.08-.45-.08Z"/><path class="cls-10" d="M365.72,168Zm1.61.76h0Zm.26-2.75Zm-1.63.63-.09.16a.85.85,0,0,0-.11.61l.23.47h0a1.1,1.1,0,0,0,.14.26.37.37,0,0,0,.22.12l.88.05h.13v.36l1.08-1.23-1-1.21v.36h-.15Zm1-1.73-.85,1.44,1,0,0-.27v0a.15.15,0,0,1,0-.09.2.2,0,0,1,.13-.08.22.22,0,0,1,.15,0,.47.47,0,0,1,.15.14l1.16,1.34.08.1-.08.09-1.17,1.33c-.14.16-.25.19-.34.16a.25.25,0,0,1-.15-.24h0v-.18l-.74,0a.63.63,0,0,1-.43-.23,1.4,1.4,0,0,1-.19-.33l-1.15-2.22a.78.78,0,0,1,0-.89l.77-1.32,1.52.9C367.08,164.63,367.07,164.75,367,164.93Z"/><path class="cls-7" d="M372.46,160h-8.15a1,1,0,0,0-1,1.06v8.48a1,1,0,0,0,1,1.06h8.15a1,1,0,0,0,1-1.06V161a1,1,0,0,0-1-1.06Zm.4,9.4a.56.56,0,0,1-.53.57h-7.89a.56.56,0,0,1-.54-.57v-8.2a.55.55,0,0,1,.54-.56h7.89a.55.55,0,0,1,.53.56Z"/><path class="cls-7" d="M360.42,169.31h-5.3a.19.19,0,1,1,0-.37h5.3a.18.18,0,0,1,.19.18A.18.18,0,0,1,360.42,169.31Z"/><polygon class="cls-10" points="356.96 162.61 356.96 168.15 355.84 168.15 355.84 162.61 355.29 162.61 356.42 161.19 357.55 162.61 356.96 162.61"/><polygon class="cls-10" points="359.71 162.62 359.71 168.16 358.59 168.16 358.59 162.61 358.04 162.61 359.17 161.19 360.3 162.62 359.71 162.62"/><path class="cls-7" d="M361.85,160H353.7a1,1,0,0,0-1,1.06v8.48a1,1,0,0,0,1,1.06h8.15a1,1,0,0,0,1-1.06V161a1,1,0,0,0-1-1.06Zm.41,9.4a.56.56,0,0,1-.54.57h-7.89a.56.56,0,0,1-.54-.57v-8.2a.55.55,0,0,1,.54-.56h7.89a.56.56,0,0,1,.54.56Z"/><path class="cls-7" d="M383.07,160h-8.15a1,1,0,0,0-1,1.06v8.48a1,1,0,0,0,1,1.06h8.15a1,1,0,0,0,1-1.06V161a1,1,0,0,0-1-1.06Zm.41,9.4a.56.56,0,0,1-.54.57h-7.89a.56.56,0,0,1-.54-.57v-8.2a.55.55,0,0,1,.54-.56h7.89a.56.56,0,0,1,.54.56Z"/><path class="cls-10" d="M378.94,162.7a3.69,3.69,0,0,0-3.58,2.83.94.94,0,0,1,.63-.22c.4,0,.72.19.75.44,0-.24.36-.43.74-.43s.72.19.75.44c0-.24.35-.43.74-.43s.72.19.75.44c0-.24.35-.43.74-.43s.72.19.74.44c0-.25.35-.44.75-.44a1,1,0,0,1,.57.16,3.7,3.7,0,0,0-3.58-2.8Z"/><path class="cls-7" d="M379.16,162.52a.16.16,0,0,0-.17-.17.17.17,0,0,0-.17.17v6.17a.16.16,0,0,0,.17.17.17.17,0,0,0,.17-.17Z"/><path class="cls-7" d="M377.9,168.28a.17.17,0,0,0,0-.24.16.16,0,0,0-.24,0,.88.88,0,1,0,1.23,1.25.72.72,0,0,0,.2-.29.8.8,0,0,0,.07-.34.17.17,0,0,0-.34,0,.71.71,0,0,1,0,.21.57.57,0,0,1-.12.18.54.54,0,0,1-.39.16.53.53,0,0,1-.38-.17.5.5,0,0,1-.15-.38.51.51,0,0,1,.16-.38Z"/><path class="cls-7" d="M393.72,159.9h-8.19a1,1,0,0,0-1,1.06v8.52a1,1,0,0,0,1,1.07h8.19a1,1,0,0,0,1-1.07V161a1,1,0,0,0-1-1.06Zm.41,9.45a.56.56,0,0,1-.54.56h-7.93a.56.56,0,0,1-.54-.56V161.1a.55.55,0,0,1,.54-.56h7.93a.55.55,0,0,1,.54.56Z"/><path class="cls-10" d="M391.81,164.44h0v.07h0v.05a2,2,0,0,1-4.08,0v-.05h0v-2.73h4.07Z"/><rect class="cls-7" x="389.61" y="163.73" width="0.36" height="5.44"/><path class="cls-10" d="M391.55,169.44a3.17,3.17,0,0,0-3.57,0Z"/><rect class="cls-7" x="315.65" y="155.4" width="4.39" height="0.76"/><rect class="cls-7" x="319.28" y="155.4" width="0.76" height="4.39"/><rect class="cls-7" x="319.28" y="165.6" width="0.76" height="4.39"/><rect class="cls-7" x="315.65" y="169.23" width="4.39" height="0.76"/><rect class="cls-7" x="274.73" y="169.23" width="4.39" height="0.76"/><rect class="cls-7" x="274.73" y="165.6" width="0.76" height="4.39"/><rect class="cls-7" x="274.73" y="155.4" width="0.76" height="4.39"/><rect class="cls-7" x="274.73" y="155.4" width="4.39" height="0.76"/><rect class="cls-8" x="275.74" y="156.31" width="43.29" height="12.77"/><path class="cls-9" d="M291.9,157a3.25,3.25,0,0,1,.54,0v10.7a2.44,2.44,0,0,1-.54,0Z"/><path class="cls-9" d="M287.14,166.9V157a2.33,2.33,0,0,1,.53,0v9.88A1.88,1.88,0,0,1,287.14,166.9Z"/><path class="cls-9" d="M291.17,157a1.82,1.82,0,0,1,.4,0,.14.14,0,0,1,.13,0v9.84a2.33,2.33,0,0,1-.53,0Z"/><path class="cls-9" d="M282.91,166.89a.44.44,0,0,1-.22,0,.18.18,0,0,1-.13,0v-9.83a.59.59,0,0,1,.35,0Z"/><path class="cls-9" d="M277.6,167.73a1,1,0,0,1-.34,0V157a.77.77,0,0,1,.34,0Z"/><path class="cls-9" d="M281.28,157a1,1,0,0,1,.35,0v9.86a.52.52,0,0,1-.35,0Z"/><path class="cls-9" d="M279.44,166.9a.83.83,0,0,1-.35,0v-9.85a.59.59,0,0,1,.35,0Z"/><path class="cls-9" d="M279.65,157a.83.83,0,0,1,.35,0v9.85c-.11.06-.22,0-.35,0Z"/><path class="cls-9" d="M284.22,157a.6.6,0,0,1,.35,0v9.85a.59.59,0,0,1-.35,0Z"/><path class="cls-9" d="M288.42,166.92a1,1,0,0,1-.34,0v-9.85c.05,0,.11,0,.17,0h.17Z"/><path class="cls-9" d="M289.16,166.93h-.35v-9.87a1,1,0,0,1,.35,0Z"/><path class="cls-9" d="M276.34,157.06a.12.12,0,0,1,.16,0v10.68a.14.14,0,0,1-.16,0Z"/><path class="cls-9" d="M276.7,157.05a.17.17,0,0,1,.17,0v10.68a.15.15,0,0,1-.17,0Z"/><path class="cls-9" d="M292.82,157.06c.05-.06.1,0,.16,0v10.69c-.05,0-.1,0-.16,0Z"/><path class="cls-9" d="M278,157a.2.2,0,0,1,.17,0v10.68a.17.17,0,0,1-.17,0Z"/><path class="cls-9" d="M293.18,157a.2.2,0,0,1,.17,0v10.68a.15.15,0,0,1-.17,0Z"/><path class="cls-9" d="M284.76,157a.2.2,0,0,1,.17,0v10.68a.15.15,0,0,1-.17,0Z"/><path class="cls-9" d="M285.13,157a.18.18,0,0,1,.16,0v10.68a.14.14,0,0,1-.16,0Z"/><path class="cls-9" d="M293.55,157.05a.17.17,0,0,1,.17,0v10.68a.15.15,0,0,1-.17,0Z"/><path class="cls-9" d="M289.34,157a.18.18,0,0,1,.16,0v9.84c0,.05-.1,0-.16,0Z"/><path class="cls-9" d="M285.66,166.89a.14.14,0,0,1-.17,0v-9.82c.05-.06.1,0,.17,0Z"/><path class="cls-9" d="M290.79,166.9a.2.2,0,0,1-.17,0v-9.83a.09.09,0,0,1,.08,0h.09Z"/><path class="cls-9" d="M290.26,157.05a.13.13,0,0,1,.16,0v9.85a.13.13,0,0,1-.16,0Z"/><path class="cls-9" d="M281.83,157.05a.21.21,0,0,1,.17,0v9.86l-.05,0a.1.1,0,0,1-.12,0Z"/><path class="cls-9" d="M283.28,166.88a.16.16,0,0,1-.16,0v-9.85c0-.05.1,0,.16,0Z"/><path class="cls-9" d="M286.39,166.9a.18.18,0,0,1-.16,0v-9.83a.09.09,0,0,1,.07,0h.09Z"/><path class="cls-9" d="M287,166.89a.2.2,0,0,1-.17,0v-9.85l0,0a.14.14,0,0,1,.13,0Z"/><path class="cls-9" d="M280.56,157.05c.05,0,.1,0,.17,0v9.84a.08.08,0,0,1-.08,0h-.09Z"/><path class="cls-9" d="M278.71,166.89a.15.15,0,0,1-.16,0v-9.84c.05,0,.09,0,.16,0Z"/><path class="cls-9" d="M283.83,166.89a.14.14,0,0,1-.15,0v-9.84c.05,0,.09,0,.15,0Z"/><path class="cls-9" d="M281,167.73a1.2,1.2,0,0,1,0-.42.26.26,0,0,1,.27-.22h.22a.24.24,0,0,1,.25.18,1.6,1.6,0,0,1,0,.92c-.05.15-.17.2-.4.19s-.3-.07-.34-.22A1.24,1.24,0,0,1,281,167.73Zm.56-.46h-.11c-.22,0-.24,0-.27.24a2.44,2.44,0,0,0,0,.54.18.18,0,0,0,.21.17c.13,0,.23,0,.24-.16s0-.3,0-.45A.41.41,0,0,0,281.51,167.27Z"/><path class="cls-9" d="M283.07,167.73a2,2,0,0,1,0,.42c0,.17-.15.23-.36.23s-.34,0-.39-.21a1.64,1.64,0,0,1,0-.88.25.25,0,0,1,.26-.2c.42,0,.51.07.53.49Zm-.25-.47h-.24c-.08,0-.14,0-.15.12a2.12,2.12,0,0,0,0,.71c0,.11.11.12.2.12s.19,0,.21-.11A1.51,1.51,0,0,0,282.82,167.26Z"/><path class="cls-9" d="M289.78,167.72c0-.23.2-.28.28-.44-.15,0-.31,0-.46,0s0-.09,0-.15h.73c.1.25-.16.31-.25.47a.44.44,0,0,1,.31.28.41.41,0,0,1,0,.29.55.55,0,0,1-.76.15.16.16,0,0,1,0-.16.61.61,0,0,0,.35.07c.16,0,.25-.1.25-.25s-.06-.19-.24-.21Z"/><path class="cls-9" d="M278.48,167.35a.18.18,0,0,1,0-.16l0,0a.59.59,0,0,1,.19-.05c.25,0,.41.05.47.22s0,.34-.22.48a1.37,1.37,0,0,0-.24.18c-.05.06-.11.1-.08.21h.49a.13.13,0,0,1,0,.17c-.23,0-.46,0-.72,0a.57.57,0,0,1,.2-.57l.27-.18a.19.19,0,0,0,.08-.25c0-.1-.13-.11-.22-.1A1.57,1.57,0,0,0,278.48,167.35Z"/><path class="cls-9" d="M283.57,168.37a.59.59,0,0,1,.27-.62l.22-.15a.19.19,0,0,0,.06-.22.18.18,0,0,0-.19-.11,1.16,1.16,0,0,0-.32.08c-.05-.11,0-.19.1-.22a.73.73,0,0,1,.36,0,.31.31,0,0,1,.24.24.35.35,0,0,1-.12.37,1.34,1.34,0,0,1-.23.16c-.09.08-.19.14-.21.3h.5a.16.16,0,0,1,0,.18C284.06,168.38,283.82,168.36,283.57,168.37Z"/><path class="cls-9" d="M280,167.27a.55.55,0,0,0,0,.22.55.55,0,0,1,.46.21.37.37,0,0,1,.05.29c-.06.27-.34.42-.7.35,0,0,0-.07,0-.11s.16,0,.24,0,.28-.13.28-.29a.2.2,0,0,0-.21-.22,1.16,1.16,0,0,1-.31,0c0-.18,0-.36,0-.55h.61a.12.12,0,0,1,0,.14C280.26,167.28,280.11,167.24,280,167.27Z"/><path class="cls-9" d="M291.13,167.27a.31.31,0,0,0,0,.21c.18,0,.36,0,.47.22a.44.44,0,0,1,.05.3c-.05.25-.32.39-.69.35,0,0,0-.09,0-.14s.22,0,.33-.05a.26.26,0,0,0,.15-.3c0-.14-.11-.19-.24-.19a.48.48,0,0,1-.24,0,1.31,1.31,0,0,1,0-.56h.58s0,.09,0,.14S291.27,167.24,291.13,167.27Z"/><path class="cls-9" d="M287.5,167.67h.14c.05.06,0,.15,0,.22s.14,0,.14.1-.09.08-.14.11,0,.16,0,.24a.16.16,0,0,1-.15,0c-.05-.07,0-.16-.05-.24s-.28,0-.42,0a.18.18,0,0,1,0-.16c.11-.25.23-.5.35-.75,0-.08.1-.07.19,0-.12.25-.23.5-.35.76a.49.49,0,0,0,.24,0C287.51,167.84,287.44,167.74,287.5,167.67Z"/><path class="cls-9" d="M286.29,167.27h-.56c0-.1,0-.17.09-.17h.7a.27.27,0,0,1,0,.25.51.51,0,0,1-.09.13,1,1,0,0,0-.32.85.17.17,0,0,1-.17,0,1.16,1.16,0,0,1,.4-1Z"/><path class="cls-9" d="M288.73,167.39l-.23.19a.38.38,0,0,1,.45-.44v1.21a.12.12,0,0,1-.17,0v-.94Z"/><path class="cls-9" d="M294.08,167.73a1.09,1.09,0,0,1,0-.18c0-.19.08-.25.26-.25s.24,0,.28.24a1.19,1.19,0,0,1,0,.42c0,.17-.09.2-.27.2s-.24,0-.27-.21A1.62,1.62,0,0,1,294.08,167.73Zm.15-.28a1.75,1.75,0,0,0,0,.56.24.24,0,0,0,.26,0,1.37,1.37,0,0,0,0-.57A.36.36,0,0,0,294.23,167.45Z"/><rect class="cls-9" x="296.56" y="158.03" width="21.97" height="0.45"/><rect class="cls-9" x="296.56" y="161.15" width="21.97" height="0.45"/><rect class="cls-9" x="296.56" y="164.27" width="21.97" height="0.45"/><rect class="cls-9" x="296.56" y="167.39" width="21.97" height="0.45"/><rect class="cls-15" x="1052.56" y="20.5" width="24" height="272.07"/><rect class="cls-16" x="1061.13" y="20.5" width="6.86" height="272.07"/><rect class="cls-15" x="148.32" y="20.5" width="24" height="272.07"/><rect class="cls-16" x="156.89" y="20.5" width="6.85" height="272.07"/><rect class="cls-15" x="52.35" y="38.63" width="1125.27" height="8.63"/><g class="cls-17"><rect class="cls-15" x="52.35" y="38.63" width="1125.27" height="3.24"/></g><polygon class="cls-18" points="1197.47 38.63 32.5 38.63 32.5 10.5 152.5 0.5 1077.47 0.5 1197.47 10.5 1197.47 38.63"/><rect class="cls-15" x="59.82" y="47.26" width="24" height="272.07"/><rect class="cls-15" x="1146.15" y="47.26" width="24" height="272.07"/><rect class="cls-16" x="1154.73" y="47.26" width="6.86" height="272.07"/><rect class="cls-16" x="68.39" y="47.26" width="6.85" height="272.07"/><rect class="cls-19" x="1146.15" y="47.26" width="24" height="7.91"/><rect class="cls-19" x="59.82" y="47.26" width="24" height="7.91"/><path class="cls-20" d="M1197.47,17.85H32.5V14.18a4,4,0,0,1,3.67-4L152.5.5h925l116.33,9.69a4,4,0,0,1,3.67,4Z"/><rect class="cls-3" x="525.52" y="115.04" width="157.96" height="80.23"/><rect class="cls-12" x="683.47" y="115.04" width="34.61" height="80.23"/><rect class="cls-13" x="589.28" y="115.04" width="31.17" height="42.5"/><rect class="cls-14" x="588.54" y="115.04" width="31.17" height="42.5"/><rect class="cls-13" x="696.57" y="115.04" width="11.4" height="42.5"/><rect class="cls-14" x="696.3" y="115.04" width="11.4" height="42.5"/><path class="cls-10" d="M651.53,126.27h0S651.54,126.29,651.53,126.27Zm-3.13,1.46Zm1.72,1.36h.22a1.13,1.13,0,0,0,.74-.27l.36-.54h0a1.26,1.26,0,0,0,.18-.32.4.4,0,0,0,0-.32l-.51-1-.07-.14.14-.09.23-.15-2-.39-.65,1.89.23-.15.16-.1.09.16Zm-2.52,0h2.1L649,128l-.29.19,0,0h-.15a.26.26,0,0,1-.17-.09.3.3,0,0,1-.06-.18.77.77,0,0,1,0-.26l.72-2.1,0-.15.15,0,2.17.42c.26,0,.37.15.39.26a.31.31,0,0,1-.16.32h0l-.19.12.43.83a.74.74,0,0,1,0,.6,1.27,1.27,0,0,1-.24.41l-1.66,2.66a1,1,0,0,1-.94.59h-1.91v-2.21C647.22,129.17,647.35,129.1,647.6,129.09Z"/><path class="cls-7" d="M643.59,124.37h0S643.6,124.36,643.59,124.37Zm2.92,1.84Zm.56-2.07-.65,1.38.32.14h0a.39.39,0,0,1,.08.1.21.21,0,0,1,0,.19.29.29,0,0,1-.11.15.88.88,0,0,1-.25.09l-2.15.54-.15,0-.06-.14-.83-2c-.09-.25-.07-.39,0-.47a.32.32,0,0,1,.36,0h0l.21.1.47-.81a.73.73,0,0,1,.48-.34,1.66,1.66,0,0,1,.49,0h2.92l-1.35.39-1.59,0h0a1.15,1.15,0,0,0-.37,0,.38.38,0,0,0-.26.17l-.55,1-.08.14-.15-.07-.25-.11.76,1.9,1.94-.48-.25-.11-.17-.08.08-.16.73-1.54Z"/><path class="cls-10" d="M648.08,126.15l-1.47-2.3a1.07,1.07,0,0,0-.69-.49l1-.32,1.58-.07a1,1,0,0,1,1,.47l1,1.61-1.86,1.2c-.29.18-.42.11-.57-.1Z"/><path class="cls-10" d="M643.75,131.2Zm2,1h0Zm.33-3.43Zm-2.05.79-.11.19a1.07,1.07,0,0,0-.13.77l.28.59h0a1.19,1.19,0,0,0,.18.33.41.41,0,0,0,.28.15l1.09.06h.16v.44l1.35-1.54-1.3-1.51v.45h-.18Zm1.28-2.17-1.06,1.8,1.24,0v-.4a.37.37,0,0,1,0-.11.25.25,0,0,1,.16-.1.28.28,0,0,1,.19,0,.61.61,0,0,1,.2.18l1.44,1.67.11.12-.11.12-1.45,1.66c-.18.19-.32.24-.43.2a.3.3,0,0,1-.19-.3h0V132l-.94,0a.73.73,0,0,1-.52-.28,1.5,1.5,0,0,1-.24-.42l-1.44-2.78a1,1,0,0,1,0-1.1l1-1.65,1.91,1.12C645.44,127,645.44,127.12,645.32,127.34Z"/><path class="cls-7" d="M652.17,121.11H642a1.31,1.31,0,0,0-1.28,1.33V133a1.3,1.3,0,0,0,1.28,1.32h10.19a1.3,1.3,0,0,0,1.27-1.32v-10.6a1.3,1.3,0,0,0-1.27-1.33Zm.51,11.76a.7.7,0,0,1-.68.7h-9.86a.69.69,0,0,1-.67-.7V122.61a.68.68,0,0,1,.67-.7H652a.69.69,0,0,1,.68.7Z"/><path class="cls-7" d="M637.12,132.82h-6.63a.23.23,0,0,1-.23-.24.23.23,0,0,1,.23-.23h6.63a.23.23,0,0,1,.24.23A.24.24,0,0,1,637.12,132.82Z"/><polygon class="cls-10" points="632.79 124.44 632.79 131.37 631.39 131.37 631.39 124.44 630.7 124.44 632.12 122.66 633.53 124.44 632.79 124.44"/><polygon class="cls-10" points="636.23 124.44 636.23 131.37 634.83 131.37 634.83 124.44 634.14 124.44 635.56 122.67 636.97 124.45 636.23 124.44"/><path class="cls-7" d="M638.9,121.11H628.72a1.31,1.31,0,0,0-1.28,1.33V133a1.3,1.3,0,0,0,1.28,1.32H638.9a1.3,1.3,0,0,0,1.27-1.32v-10.6a1.3,1.3,0,0,0-1.27-1.33Zm.51,11.76a.69.69,0,0,1-.67.7h-9.86a.69.69,0,0,1-.68-.7V122.61a.69.69,0,0,1,.68-.7h9.86a.68.68,0,0,1,.67.7Z"/><path class="cls-7" d="M665.44,121.11H655.25a1.31,1.31,0,0,0-1.28,1.33V133a1.3,1.3,0,0,0,1.28,1.32h10.19a1.3,1.3,0,0,0,1.27-1.32v-10.6a1.31,1.31,0,0,0-1.27-1.33Zm.5,11.76a.69.69,0,0,1-.67.7h-9.86a.69.69,0,0,1-.67-.7V122.61a.68.68,0,0,1,.67-.7h9.86a.68.68,0,0,1,.67.7Z"/><path class="cls-10" d="M660.28,124.55a4.61,4.61,0,0,0-4.48,3.54,1.17,1.17,0,0,1,.79-.27c.49,0,.89.24.93.55.05-.31.45-.54.93-.54s.89.24.93.55c0-.31.45-.54.93-.54s.89.24.93.55c0-.31.45-.54.93-.54s.9.25.94.56c0-.31.43-.56.93-.56a1.22,1.22,0,0,1,.71.21,4.62,4.62,0,0,0-4.47-3.51Z"/><path class="cls-7" d="M660.55,124.32a.21.21,0,0,0-.42,0v7.73a.21.21,0,1,0,.42,0Z"/><path class="cls-7" d="M659,131.53a.22.22,0,0,0,0-.3.21.21,0,0,0-.3,0,1.1,1.1,0,0,0-.33.78,1.07,1.07,0,0,0,.32.78,1.06,1.06,0,0,0,.77.33,1.06,1.06,0,0,0,1-.68,1,1,0,0,0,.09-.43.21.21,0,0,0-.22-.21.21.21,0,0,0-.21.21.81.81,0,0,1,0,.27.86.86,0,0,1-.15.22.71.71,0,0,1-.48.2.68.68,0,0,1-.48-.21.68.68,0,0,1,0-.95Z"/><path class="cls-7" d="M678.76,121H668.52a1.32,1.32,0,0,0-1.29,1.34V133a1.31,1.31,0,0,0,1.29,1.33h10.24A1.3,1.3,0,0,0,680,133V122.38a1.31,1.31,0,0,0-1.27-1.34Zm.51,11.82a.7.7,0,0,1-.68.71h-9.91a.7.7,0,0,1-.68-.71V122.55a.69.69,0,0,1,.68-.7h9.91a.69.69,0,0,1,.68.7Z"/><path class="cls-10" d="M676.36,126.72v.1h0v.06a2.55,2.55,0,1,1-5.09,0v-.06h0v-3.41h5.09Z"/><rect class="cls-7" x="673.61" y="125.84" width="0.44" height="6.8"/><path class="cls-10" d="M676,133a4.06,4.06,0,0,0-4.47,0Z"/><rect class="cls-7" x="581.14" y="117.66" width="5.49" height="0.96"/><rect class="cls-7" x="585.67" y="117.66" width="0.96" height="5.49"/><rect class="cls-7" x="585.67" y="130.41" width="0.96" height="5.49"/><rect class="cls-7" x="581.14" y="134.95" width="5.49" height="0.96"/><rect class="cls-7" x="529.98" y="134.95" width="5.49" height="0.96"/><rect class="cls-7" x="529.98" y="130.41" width="0.96" height="5.49"/><rect class="cls-7" x="529.98" y="117.66" width="0.96" height="5.49"/><rect class="cls-7" x="529.98" y="117.66" width="5.49" height="0.96"/><rect class="cls-8" x="531.24" y="118.8" width="54.12" height="15.96"/><path class="cls-9" d="M551.45,119.69a3,3,0,0,1,.67,0v13.37a3.75,3.75,0,0,1-.67,0Z"/><path class="cls-9" d="M545.5,132V119.71a3.53,3.53,0,0,1,.66,0V132A2.08,2.08,0,0,1,545.5,132Z"/><path class="cls-9" d="M550.54,119.7a2.86,2.86,0,0,1,.5,0,.18.18,0,0,1,.16,0V132a2.41,2.41,0,0,1-.66,0Z"/><path class="cls-9" d="M540.21,132a.71.71,0,0,1-.28,0,.23.23,0,0,1-.16-.05V119.72a.72.72,0,0,1,.44,0Z"/><path class="cls-9" d="M533.57,133.08a2.06,2.06,0,0,1-.43,0V119.71a1,1,0,0,1,.43,0Z"/><path class="cls-9" d="M538.17,119.7a1.09,1.09,0,0,1,.44,0V132a.72.72,0,0,1-.44,0Z"/><path class="cls-9" d="M535.86,132a1,1,0,0,1-.43,0V119.72a.87.87,0,0,1,.43,0Z"/><path class="cls-9" d="M536.13,119.7a1.24,1.24,0,0,1,.43,0V132a.87.87,0,0,1-.43,0Z"/><path class="cls-9" d="M541.85,119.71a.7.7,0,0,1,.43,0V132a.78.78,0,0,1-.43,0Z"/><path class="cls-9" d="M547.1,132.06a1.24,1.24,0,0,1-.43,0V119.74c.06-.06.14,0,.21,0h.22Z"/><path class="cls-9" d="M548,132.07h-.44V119.73a1.6,1.6,0,0,1,.44,0Z"/><path class="cls-9" d="M532,119.73a.18.18,0,0,1,.21,0v13.35a.18.18,0,0,1-.21,0Z"/><path class="cls-9" d="M532.44,119.72a.2.2,0,0,1,.21,0v13.35a.18.18,0,0,1-.21,0Z"/><path class="cls-9" d="M552.59,119.73c.07-.07.13,0,.21,0v13.36c-.07.05-.13,0-.21,0Z"/><path class="cls-9" d="M534.05,119.71a.22.22,0,0,1,.21,0v13.35a.2.2,0,0,1-.21,0Z"/><path class="cls-9" d="M553.05,119.71a.22.22,0,0,1,.21,0v13.35a.18.18,0,0,1-.21,0Z"/><path class="cls-9" d="M542.52,119.71a.22.22,0,0,1,.21,0v13.35a.18.18,0,0,1-.21,0Z"/><path class="cls-9" d="M543,119.71a.2.2,0,0,1,.2,0v13.35a.17.17,0,0,1-.2,0Z"/><path class="cls-9" d="M553.51,119.72a.2.2,0,0,1,.21,0v13.35a.18.18,0,0,1-.21,0Z"/><path class="cls-9" d="M548.25,119.71a.2.2,0,0,1,.2,0V132c-.06.06-.12.05-.2,0Z"/><path class="cls-9" d="M543.64,132a.18.18,0,0,1-.21,0V119.74c.06-.08.13,0,.21,0Z"/><path class="cls-9" d="M550.05,132a.2.2,0,0,1-.2,0V119.73a.11.11,0,0,1,.09,0l.11,0Z"/><path class="cls-9" d="M549.39,119.72a.18.18,0,0,1,.21,0V132a.18.18,0,0,1-.21,0Z"/><path class="cls-9" d="M538.85,119.72a.23.23,0,0,1,.21,0V132a.09.09,0,0,1,0,0,.15.15,0,0,1-.16-.05Z"/><path class="cls-9" d="M540.67,132a.22.22,0,0,1-.21,0V119.72c.06-.06.13,0,.21,0Z"/><path class="cls-9" d="M544.56,132a.22.22,0,0,1-.21,0V119.73a.11.11,0,0,1,.1,0l.11,0Z"/><path class="cls-9" d="M545.25,132a.22.22,0,0,1-.21,0V119.72l.06,0a.12.12,0,0,1,.15,0Z"/><path class="cls-9" d="M537.27,119.72c.06,0,.12,0,.2,0q0,6.15,0,12.3a.12.12,0,0,1-.09,0h-.12Z"/><path class="cls-9" d="M535,132a.18.18,0,0,1-.2,0v-12.3a.18.18,0,0,1,.2,0Z"/><path class="cls-9" d="M541.36,132a.18.18,0,0,1-.2,0v-12.3a.18.18,0,0,1,.2,0Z"/><path class="cls-9" d="M537.75,133.08a1.57,1.57,0,0,1,0-.53.32.32,0,0,1,.34-.27h.28a.29.29,0,0,1,.31.21,2,2,0,0,1,0,1.15c-.06.2-.21.26-.5.25s-.37-.08-.43-.28A1.91,1.91,0,0,1,537.75,133.08Zm.71-.58h-.14c-.27,0-.3,0-.34.29a3.19,3.19,0,0,0,0,.69c0,.16.11.2.26.2s.28,0,.29-.2a5.24,5.24,0,0,0,0-.56A.48.48,0,0,0,538.46,132.5Z"/><path class="cls-9" d="M540.4,133.07a1.59,1.59,0,0,1,0,.53c-.06.21-.18.28-.44.29s-.44-.06-.49-.26a2.16,2.16,0,0,1,0-1.1.33.33,0,0,1,.34-.26c.51,0,.63.09.65.62Zm-.31-.58h-.3a.16.16,0,0,0-.18.15,2.89,2.89,0,0,0,0,.88c0,.14.14.15.26.15s.24,0,.27-.13A2,2,0,0,0,540.09,132.49Z"/><path class="cls-9" d="M548.8,133.06c0-.28.24-.35.35-.55-.2,0-.4,0-.58,0s0-.12,0-.19h.91c.12.31-.21.38-.32.58a.55.55,0,0,1,.39.35.52.52,0,0,1,0,.37.71.71,0,0,1-1,.19.2.2,0,0,1,0-.2,1,1,0,0,0,.45.08.3.3,0,0,0,.31-.31c0-.17-.08-.24-.3-.26Z"/><path class="cls-9" d="M534.67,132.6a.21.21,0,0,1,0-.2l.06-.05a.71.71,0,0,1,.24-.06c.32,0,.51.06.59.28a.51.51,0,0,1-.27.59,1.7,1.7,0,0,0-.3.23c-.06.07-.14.13-.1.26h.61a.16.16,0,0,1,0,.21c-.28,0-.57,0-.89,0a.7.7,0,0,1,.25-.71l.33-.23a.23.23,0,0,0,.1-.31c0-.12-.16-.13-.27-.12A2.12,2.12,0,0,0,534.67,132.6Z"/><path class="cls-9" d="M541,133.87a.72.72,0,0,1,.34-.77,1.85,1.85,0,0,0,.27-.19.23.23,0,0,0-.16-.41,2,2,0,0,0-.4.1c-.06-.14,0-.23.12-.28a.86.86,0,0,1,.45,0,.37.37,0,0,1,.31.3.45.45,0,0,1-.15.46,2.16,2.16,0,0,1-.29.21.53.53,0,0,0-.27.37h.63a.18.18,0,0,1,0,.22C541.64,133.89,541.34,133.86,541,133.87Z"/><path class="cls-9" d="M536.52,132.5a.5.5,0,0,0,0,.27.72.72,0,0,1,.58.26.53.53,0,0,1,.06.37c-.07.34-.43.52-.87.44,0,0,0-.09,0-.15s.19,0,.29,0a.35.35,0,0,0,.35-.36.25.25,0,0,0-.25-.28,1.39,1.39,0,0,1-.4,0c0-.22,0-.44,0-.68a4.82,4.82,0,0,1,.76,0,.15.15,0,0,1,0,.18C536.89,132.52,536.71,132.46,536.52,132.5Z"/><path class="cls-9" d="M550.48,132.5a.41.41,0,0,0,0,.27.7.7,0,0,1,.58.27.48.48,0,0,1,.06.37c-.06.32-.39.49-.85.44a.12.12,0,0,1,0-.18,2,2,0,0,0,.42-.06.33.33,0,0,0,.19-.38c0-.17-.15-.23-.31-.23a.76.76,0,0,1-.3,0,1.63,1.63,0,0,1,0-.7H551c.06.05,0,.11,0,.17A4.73,4.73,0,0,1,550.48,132.5Z"/><path class="cls-9" d="M546,133h.17c.06.08,0,.18,0,.28s.17,0,.18.12-.12.09-.17.14,0,.2,0,.3a.21.21,0,0,1-.19,0c-.06-.09,0-.21-.06-.3s-.35,0-.52,0a.19.19,0,0,1,0-.2c.13-.32.28-.63.43-.94,0-.1.13-.09.24,0l-.44,1a.52.52,0,0,0,.3,0C546,133.21,545.88,133.09,546,133Z"/><path class="cls-9" d="M544.44,132.5h-.71c0-.13,0-.21.11-.21h.87a.29.29,0,0,1,0,.3.62.62,0,0,1-.11.17,1.24,1.24,0,0,0-.4,1.07.28.28,0,0,1-.22,0,1.51,1.51,0,0,1,.51-1.29Z"/><path class="cls-9" d="M547.49,132.65l-.3.23a.48.48,0,0,1,.57-.54v1.51a.17.17,0,0,1-.22,0v-1.17Z"/><path class="cls-9" d="M554.17,133.08a1,1,0,0,1,0-.24c0-.23.1-.3.32-.3s.3,0,.35.29a1.35,1.35,0,0,1,0,.53c0,.21-.1.26-.33.26s-.3-.06-.33-.27A2.45,2.45,0,0,1,554.17,133.08Zm.19-.36a2.06,2.06,0,0,0,0,.7.32.32,0,0,0,.33,0,1.65,1.65,0,0,0,0-.7A.42.42,0,0,0,554.36,132.72Z"/><rect class="cls-9" x="557.27" y="120.95" width="27.47" height="0.56"/><rect class="cls-9" x="557.27" y="124.85" width="27.47" height="0.56"/><rect class="cls-9" x="557.27" y="128.75" width="27.47" height="0.56"/><rect class="cls-9" x="557.27" y="132.65" width="27.47" height="0.56"/><rect class="cls-11" x="567.14" y="195.25" width="157.49" height="123.6"/><rect class="cls-12" x="724.63" y="195.25" width="34.51" height="123.6"/><rect class="cls-13" x="630.72" y="276.48" width="31.07" height="42.38"/><rect class="cls-14" x="629.98" y="276.48" width="31.07" height="42.38"/><rect class="cls-13" x="630.72" y="195.25" width="31.07" height="42.38"/><rect class="cls-14" x="629.98" y="195.25" width="31.07" height="42.38"/><rect class="cls-13" x="737.68" y="276.48" width="11.36" height="42.38"/><rect class="cls-14" x="737.41" y="276.48" width="11.36" height="42.38"/><rect class="cls-13" x="737.68" y="195.25" width="11.36" height="42.38"/><rect class="cls-14" x="737.41" y="195.25" width="11.36" height="42.38"/><path class="cls-10" d="M693,312Zm-.2-2.21h0S692.79,309.84,692.78,309.82Zm-3.12,1.46Zm1.72,1.35h.22a1.06,1.06,0,0,0,.73-.27l.36-.54h0a1.11,1.11,0,0,0,.18-.32.37.37,0,0,0,0-.31l-.5-1-.08-.14.14-.09.23-.15-2-.38-.64,1.88.23-.15.15-.1.1.16Zm-2.51,0H691l-.67-1.05-.28.19h0a.29.29,0,0,1-.13,0,.25.25,0,0,1-.17-.08.35.35,0,0,1-.06-.18.73.73,0,0,1,0-.26l.71-2.1,0-.14.16,0,2.16.41c.26,0,.37.15.39.26a.31.31,0,0,1-.16.32h0l-.19.12.43.83a.76.76,0,0,1,0,.59,1.4,1.4,0,0,1-.24.42l-1.66,2.64a.94.94,0,0,1-.93.59h-1.91v-2.2C688.49,312.71,688.62,312.64,688.87,312.63Z"/><path class="cls-7" d="M686.61,306.56Zm-1.75,1.37h0S684.88,307.91,684.86,307.93Zm2.91,1.83Zm.56-2.06-.64,1.37.31.14h0a.39.39,0,0,1,.08.1.25.25,0,0,1,0,.19.33.33,0,0,1-.12.15.55.55,0,0,1-.25.09l-2.14.54-.15,0-.06-.14-.82-2.05c-.09-.24-.07-.38,0-.47a.32.32,0,0,1,.35,0h0l.21.1.46-.81a.72.72,0,0,1,.49-.34,1.53,1.53,0,0,1,.47,0h2.92l-1.34.38-1.59,0h0a1.15,1.15,0,0,0-.37,0,.38.38,0,0,0-.26.17l-.55.95-.08.14-.14-.07-.26-.12.76,1.9,1.94-.48-.25-.11-.17-.07.08-.17.72-1.54Z"/><path class="cls-10" d="M689.35,309.7l-1.48-2.29a1,1,0,0,0-.69-.49l1-.32,1.57-.06a1,1,0,0,1,1,.46l1,1.61-1.85,1.19c-.29.18-.42.11-.56-.1Z"/><path class="cls-10" d="M685,314.74Zm2,.95h0S687,315.68,687,315.69Zm.33-3.43Zm-2,.79-.11.19a1.07,1.07,0,0,0-.14.77l.28.58h0a1.26,1.26,0,0,0,.18.32.42.42,0,0,0,.28.16l1.09.05h.16v.17l0,.28,1.34-1.54-1.29-1.51V313H687Zm1.27-2.17-1.06,1.8,1.24,0v-.39a.31.31,0,0,1,0-.12.29.29,0,0,1,.16-.1.34.34,0,0,1,.19,0,1,1,0,0,1,.2.18l1.44,1.67.1.12-.1.12-1.46,1.66c-.17.19-.31.23-.42.2a.32.32,0,0,1-.19-.3v-.25l-.93-.05a.78.78,0,0,1-.52-.27,2,2,0,0,1-.24-.42L683.59,312a1,1,0,0,1,0-1.11l1-1.64,1.9,1.12C686.71,310.52,686.71,310.66,686.59,310.88Z"/><path class="cls-7" d="M693.42,304.68H683.26A1.3,1.3,0,0,0,682,306v10.57a1.3,1.3,0,0,0,1.28,1.32h10.16a1.29,1.29,0,0,0,1.26-1.32V306a1.29,1.29,0,0,0-1.26-1.32Zm.5,11.72a.69.69,0,0,1-.67.7h-9.83a.69.69,0,0,1-.67-.7V306.17a.68.68,0,0,1,.67-.7h9.83a.68.68,0,0,1,.67.7Z"/><path class="cls-7" d="M678.42,316.35H671.8a.24.24,0,0,1,0-.47h6.62a.24.24,0,0,1,0,.47Z"/><polygon class="cls-10" points="674.1 308 674.1 314.9 672.7 314.9 672.7 307.99 672.01 307.99 673.42 306.22 674.83 308 674.1 308"/><polygon class="cls-10" points="677.53 308 677.53 314.91 676.13 314.91 676.13 308 675.44 308 676.86 306.23 678.26 308 677.53 308"/><path class="cls-7" d="M680.19,304.68H670a1.3,1.3,0,0,0-1.27,1.32v10.57a1.3,1.3,0,0,0,1.27,1.32h10.16a1.3,1.3,0,0,0,1.27-1.32V306a1.3,1.3,0,0,0-1.27-1.32Zm.51,11.72a.7.7,0,0,1-.67.7H670.2a.69.69,0,0,1-.68-.7V306.17a.69.69,0,0,1,.68-.7H680a.69.69,0,0,1,.67.7Z"/><path class="cls-7" d="M706.64,304.68H696.49a1.3,1.3,0,0,0-1.28,1.32v10.57a1.3,1.3,0,0,0,1.28,1.32h10.15a1.3,1.3,0,0,0,1.27-1.32V306a1.3,1.3,0,0,0-1.27-1.32Zm.51,11.72a.69.69,0,0,1-.67.7h-9.83a.69.69,0,0,1-.67-.7V306.17a.68.68,0,0,1,.67-.7h9.83a.68.68,0,0,1,.67.7Z"/><path class="cls-10" d="M701.5,308.11a4.59,4.59,0,0,0-4.46,3.53,1.11,1.11,0,0,1,.79-.28c.48,0,.89.24.92.55,0-.3.45-.54.93-.54s.89.24.93.55c0-.3.44-.54.93-.54s.89.24.92.55c0-.3.45-.54.93-.54s.9.25.93.56c0-.31.44-.56.93-.56a1.2,1.2,0,0,1,.71.21,4.59,4.59,0,0,0-4.46-3.49Z"/><path class="cls-7" d="M701.78,307.88a.22.22,0,1,0-.43,0v7.7a.21.21,0,0,0,.21.21.21.21,0,0,0,.22-.21Z"/><path class="cls-7" d="M700.2,315.06a.21.21,0,0,0-.3-.3,1.1,1.1,0,0,0,.76,1.88,1.12,1.12,0,0,0,.78-.31,1.15,1.15,0,0,0,.25-.37,1.22,1.22,0,0,0,.08-.43.22.22,0,0,0-.21-.21.21.21,0,0,0-.21.22.58.58,0,0,1-.06.26.54.54,0,0,1-.15.22.66.66,0,0,1-.95,0,.65.65,0,0,1-.19-.48.67.67,0,0,1,.2-.48Z"/><path class="cls-7" d="M719.93,304.61H709.72a1.31,1.31,0,0,0-1.28,1.33v10.62a1.31,1.31,0,0,0,1.28,1.33h10.21a1.3,1.3,0,0,0,1.27-1.33V305.94a1.3,1.3,0,0,0-1.27-1.33Zm.51,11.78a.7.7,0,0,1-.68.71h-9.88a.7.7,0,0,1-.68-.71V306.11a.69.69,0,0,1,.68-.7h9.88a.69.69,0,0,1,.68.7Z"/><path class="cls-10" d="M717.54,310.27v.1h0v.06a2.54,2.54,0,0,1-5.08,0v-.06h0V307h5.08Z"/><rect class="cls-7" x="714.79" y="309.39" width="0.44" height="6.78"/><path class="cls-10" d="M717.22,316.5a4,4,0,0,0-4.46,0Z"/><rect class="cls-7" x="622.6" y="299.01" width="5.48" height="0.95"/><rect class="cls-7" x="627.12" y="299.01" width="0.95" height="5.48"/><rect class="cls-7" x="627.12" y="311.72" width="0.95" height="5.48"/><rect class="cls-7" x="622.6" y="316.25" width="5.48" height="0.95"/><rect class="cls-7" x="571.59" y="316.25" width="5.48" height="0.95"/><rect class="cls-7" x="571.59" y="311.72" width="0.95" height="5.48"/><rect class="cls-7" x="571.59" y="299.01" width="0.95" height="5.48"/><rect class="cls-7" x="571.59" y="299.01" width="5.48" height="0.95"/><rect class="cls-8" x="572.85" y="300.15" width="53.96" height="15.92"/><path class="cls-9" d="M593,301a2.91,2.91,0,0,1,.66,0v13.33a2.43,2.43,0,0,1-.66,0Z"/><path class="cls-9" d="M587.06,313.35v-12.3a2.9,2.9,0,0,1,.66,0v12.31A2.07,2.07,0,0,1,587.06,313.35Z"/><path class="cls-9" d="M592.09,301a4.35,4.35,0,0,1,.5,0,.22.22,0,0,1,.16.05v12.27a2.9,2.9,0,0,1-.66,0Z"/><path class="cls-9" d="M581.79,313.33a.52.52,0,0,1-.27,0,.2.2,0,0,1-.16,0V301.06a.77.77,0,0,1,.43,0Z"/><path class="cls-9" d="M575.17,314.38a1.55,1.55,0,0,1-.43,0V301.05a1,1,0,0,1,.43,0Z"/><path class="cls-9" d="M579.76,301a1.55,1.55,0,0,1,.43,0v12.29a.87.87,0,0,1-.43,0Z"/><path class="cls-9" d="M577.46,313.35a1,1,0,0,1-.43,0V301.06a.87.87,0,0,1,.43,0Z"/><path class="cls-9" d="M577.73,301a1,1,0,0,1,.43,0v12.27a.69.69,0,0,1-.43,0Z"/><path class="cls-9" d="M583.42,301.05a.82.82,0,0,1,.44,0v12.28a.81.81,0,0,1-.44,0Z"/><path class="cls-9" d="M588.66,313.37a1.55,1.55,0,0,1-.43,0V301.09c.06-.06.14,0,.22,0h.21Z"/><path class="cls-9" d="M589.58,313.38h-.43V301.07a1.52,1.52,0,0,1,.43,0Z"/><path class="cls-9" d="M573.59,301.07a.18.18,0,0,1,.21,0v13.31a.18.18,0,0,1-.21,0Z"/><path class="cls-9" d="M574.05,301.06a.22.22,0,0,1,.21,0v13.31a.2.2,0,0,1-.21,0Z"/><path class="cls-9" d="M594.14,301.07c.06-.06.13,0,.21,0v13.32a.2.2,0,0,1-.21,0Z"/><path class="cls-9" d="M575.65,301.05a.22.22,0,0,1,.21,0v13.3a.2.2,0,0,1-.21,0Z"/><path class="cls-9" d="M594.59,301.06a.22.22,0,0,1,.21,0v13.31a.2.2,0,0,1-.21,0Z"/><path class="cls-9" d="M584.09,301.06a.22.22,0,0,1,.21,0v13.31a.18.18,0,0,1-.21,0Z"/><path class="cls-9" d="M584.55,301.06a.22.22,0,0,1,.21,0v13.31a.2.2,0,0,1-.21,0Z"/><path class="cls-9" d="M595.05,301.06a.22.22,0,0,1,.21,0v13.31a.2.2,0,0,1-.21,0Z"/><path class="cls-9" d="M589.8,301.05a.26.26,0,0,1,.21,0v12.27a.18.18,0,0,1-.21,0Z"/><path class="cls-9" d="M585.21,313.34a.18.18,0,0,1-.21,0V301.08c.07-.07.13-.05.21,0Z"/><path class="cls-9" d="M591.61,313.34a.22.22,0,0,1-.21,0V301.07a.1.1,0,0,1,.1,0h.11Z"/><path class="cls-9" d="M590.94,301.07a.18.18,0,0,1,.21,0v12.28c-.06.05-.12,0-.21,0Z"/><path class="cls-9" d="M580.44,301.07c.08-.06.13,0,.21,0v12.29l-.06,0a.16.16,0,0,1-.15-.05Z"/><path class="cls-9" d="M582.25,313.32a.2.2,0,0,1-.21,0V301.06a.15.15,0,0,1,.21,0Z"/><path class="cls-9" d="M586.13,313.34a.22.22,0,0,1-.21,0V301.07a.1.1,0,0,1,.1,0h.11Z"/><path class="cls-9" d="M586.82,313.33a.22.22,0,0,1-.21,0V301.06l.06,0a.14.14,0,0,1,.15.05Z"/><path class="cls-9" d="M578.86,301.07c.06-.06.12-.05.21,0v12.27a.12.12,0,0,1-.09,0h-.12Z"/><path class="cls-9" d="M576.55,313.33a.18.18,0,0,1-.2,0V301.06a.2.2,0,0,1,.2,0Z"/><path class="cls-9" d="M582.94,313.33a.18.18,0,0,1-.2,0V301.06a.2.2,0,0,1,.2,0Z"/><path class="cls-9" d="M579.34,314.38a1.51,1.51,0,0,1,0-.52.33.33,0,0,1,.34-.28H580a.29.29,0,0,1,.3.22,2,2,0,0,1,0,1.15c0,.19-.2.25-.49.24s-.37-.08-.43-.28A1.87,1.87,0,0,1,579.34,314.38Zm.71-.58h-.14c-.28,0-.3,0-.34.3a3.11,3.11,0,0,0,0,.68c0,.16.11.2.26.2s.27,0,.29-.2,0-.37,0-.56A.56.56,0,0,0,580.05,313.8Z"/><path class="cls-9" d="M582,314.37a1.57,1.57,0,0,1-.05.53c-.06.21-.17.28-.44.29s-.43-.06-.49-.26a2.05,2.05,0,0,1,0-1.1.32.32,0,0,1,.33-.25c.52,0,.63.09.65.62A1,1,0,0,1,582,314.37Zm-.31-.57h-.3a.17.17,0,0,0-.18.14,2.6,2.6,0,0,0,0,.88c0,.14.14.16.25.15s.24,0,.27-.13A1.85,1.85,0,0,0,581.67,313.8Z"/><path class="cls-9" d="M590.35,314.36c0-.28.25-.34.35-.55-.19-.05-.39,0-.58,0s0-.11,0-.18H591c.12.31-.2.37-.32.58a.55.55,0,0,1,.4.34.53.53,0,0,1,0,.37.7.7,0,0,1-.94.19.2.2,0,0,1,0-.2.88.88,0,0,0,.45.08c.2,0,.3-.13.3-.3s-.08-.24-.29-.27Z"/><path class="cls-9" d="M576.27,313.9a.2.2,0,0,1,0-.2l.06,0a.73.73,0,0,1,.24-.07c.32,0,.51.06.58.28s0,.42-.26.6a1.6,1.6,0,0,0-.31.22c-.06.07-.13.13-.09.26h.61a.16.16,0,0,1,0,.21c-.28,0-.58,0-.9,0a.7.7,0,0,1,.26-.7l.33-.23a.24.24,0,0,0,.1-.31c0-.12-.16-.13-.28-.13S576.39,313.88,576.27,313.9Z"/><path class="cls-9" d="M582.61,315.17a.72.72,0,0,1,.34-.77,2.61,2.61,0,0,0,.27-.19.22.22,0,0,0,.08-.27.23.23,0,0,0-.25-.14,1.43,1.43,0,0,0-.39.11c-.06-.15,0-.24.12-.28a1,1,0,0,1,.45,0,.4.4,0,0,1,.31.31.47.47,0,0,1-.15.46l-.29.2a.51.51,0,0,0-.27.37h.62a.17.17,0,0,1,.06.22A8.94,8.94,0,0,1,582.61,315.17Z"/><path class="cls-9" d="M578.11,313.81a.61.61,0,0,0,0,.27.67.67,0,0,1,.58.26.45.45,0,0,1,.06.36c-.07.34-.43.52-.87.44,0,0,0-.09,0-.14s.2,0,.29,0a.36.36,0,0,0,.35-.37.25.25,0,0,0-.25-.28,1.4,1.4,0,0,1-.4,0c0-.22,0-.45,0-.68a4.87,4.87,0,0,1,.76,0,.15.15,0,0,1,0,.18C578.48,313.82,578.3,313.77,578.11,313.81Z"/><path class="cls-9" d="M592,313.81a.38.38,0,0,0,0,.26c.21,0,.45.05.58.27a.49.49,0,0,1,.06.37c-.06.32-.39.49-.85.44-.06-.06,0-.11,0-.18a2,2,0,0,0,.42-.06.33.33,0,0,0,.19-.38c0-.17-.14-.23-.31-.22a1,1,0,0,1-.3,0,1.81,1.81,0,0,1,0-.7h.73c.05.05,0,.11,0,.18C592.4,313.83,592.21,313.76,592,313.81Z"/><path class="cls-9" d="M587.51,314.31l.07,0h.1c.07.08,0,.18.06.28s.16,0,.17.12-.11.1-.17.14,0,.2,0,.3a.21.21,0,0,1-.19,0c-.06-.09,0-.2-.07-.3s-.34,0-.51,0a.21.21,0,0,1,0-.2c.14-.31.28-.63.43-.94,0-.1.13-.08.25,0-.15.32-.3.64-.44,1a.58.58,0,0,0,.29,0C587.52,314.51,587.44,314.39,587.51,314.31Z"/><path class="cls-9" d="M586,313.8h-.71c0-.12,0-.21.11-.21h.87a.31.31,0,0,1,0,.31.62.62,0,0,1-.11.17,1.22,1.22,0,0,0-.4,1.06.25.25,0,0,1-.22,0,1.48,1.48,0,0,1,.51-1.28Z"/><path class="cls-9" d="M589.05,314l-.3.24a.48.48,0,0,1,.57-.54v1.5a.17.17,0,0,1-.22,0V314Z"/><path class="cls-9" d="M595.71,314.38c0-.08,0-.16,0-.23,0-.24.1-.3.31-.31s.31.05.36.3a1.51,1.51,0,0,1,0,.52c0,.21-.1.26-.33.26s-.3-.06-.33-.27S595.72,314.47,595.71,314.38Zm.19-.35a2,2,0,0,0,0,.69.32.32,0,0,0,.33,0,1.65,1.65,0,0,0,0-.7A.42.42,0,0,0,595.9,314Z"/><rect class="cls-9" x="598.8" y="302.29" width="27.39" height="0.56"/><rect class="cls-9" x="598.8" y="306.18" width="27.39" height="0.56"/><rect class="cls-9" x="598.8" y="310.07" width="27.39" height="0.56"/><rect class="cls-9" x="598.8" y="313.96" width="27.39" height="0.56"/><polygon class="cls-2" points="567.14 195.25 683.47 216.44 718.08 195.26 567.14 195.25"/><rect class="cls-21" x="868.91" y="106.16" width="98.19" height="77.06"/><rect class="cls-22" x="967.1" y="106.16" width="21.52" height="77.06"/><polygon class="cls-23" points="967.1 106.16 960.06 130.81 868.91 130.81 868.91 115.91 872.04 109.29 967.1 106.16"/><polygon class="cls-24" points="956.92 127.68 858.74 127.68 868.91 106.16 967.1 106.16 956.92 127.68"/><polygon class="cls-23" points="988.61 111.5 988.61 129.24 971.21 129.24 967.1 106.16 987.05 107.73 988.61 111.5"/><polygon class="cls-24" points="997.55 127.67 976.04 127.67 967.1 106.16 988.61 106.16 997.55 127.67"/><rect class="cls-23" x="908.55" y="156.81" width="19.37" height="26.42"/><rect class="cls-25" x="908.09" y="156.81" width="19.37" height="26.42"/><rect class="cls-23" x="975.24" y="156.81" width="7.09" height="26.42"/><rect class="cls-25" x="975.07" y="156.81" width="7.09" height="26.42"/><path class="cls-26" d="M947.37,179Zm-.13-1.38Zm-1.94.91Zm1.07.85h.13a.7.7,0,0,0,.46-.17l.23-.34h0a.88.88,0,0,0,.12-.19.28.28,0,0,0,0-.2l-.31-.6,0-.09.09-.06.15-.09-1.26-.24-.4,1.17.15-.09.09-.06.06.09Zm-1.57,0h1.31l-.42-.66-.18.12h-.1a.11.11,0,0,1-.1-.06.12.12,0,0,1,0-.11.36.36,0,0,1,0-.16l.44-1.3,0-.1.1,0,1.35.26c.16,0,.23.09.24.16a.19.19,0,0,1-.1.2h0l-.12.08.26.51a.48.48,0,0,1,0,.37,1.27,1.27,0,0,1-.15.26l-1,1.65a.59.59,0,0,1-.58.36h-1.19v-1.37C944.57,179.4,944.65,179.35,944.8,179.35Z"/><path class="cls-27" d="M943.4,175.56Zm-1.09.85h0S942.32,176.4,942.31,176.41Zm1.81,1.15Zm.35-1.29-.4.85.2.09h0a.1.1,0,0,1,.05.06.14.14,0,0,1,0,.11.17.17,0,0,1-.07.1l-.16.06-1.34.33-.09,0,0-.09-.51-1.27c-.06-.15,0-.24,0-.3a.19.19,0,0,1,.22,0h0l.13.06.29-.5a.46.46,0,0,1,.3-.21,1.06,1.06,0,0,1,.3,0h1.82l-.84.25-1,0h-.24a.29.29,0,0,0-.16.11l-.34.59,0,.09-.09,0-.16-.07.47,1.18,1.21-.3-.16-.07-.1,0,.05-.11.45-1Z"/><path class="cls-26" d="M945.1,177.52l-.92-1.43a.64.64,0,0,0-.43-.3l.61-.2,1-.05a.61.61,0,0,1,.63.3l.64,1-1.16.74c-.18.11-.26.07-.35-.06Z"/><path class="cls-26" d="M942.41,180.66Zm1.25.59Zm.2-2.14Zm-1.27.5-.07.11a.65.65,0,0,0-.08.48l.17.37h0a1,1,0,0,0,.11.2.29.29,0,0,0,.18.1l.67,0h.1v.28l.84-1-.81-.94v.28h-.11Zm.79-1.35-.66,1.12.78,0v-.24h0a.11.11,0,0,1,0-.07.17.17,0,0,1,.1-.06.18.18,0,0,1,.12,0l.12.11.9,1,.06.07-.06.07-.91,1c-.11.12-.19.14-.26.12a.2.2,0,0,1-.12-.18h0v-.15l-.58,0a.48.48,0,0,1-.33-.17,1.1,1.1,0,0,1-.14-.26l-.9-1.73a.62.62,0,0,1,0-.69l.6-1,1.19.7C943.46,178,943.46,178.12,943.38,178.26Z"/><path class="cls-27" d="M947.64,174.39h-6.33a.81.81,0,0,0-.8.82v6.59a.81.81,0,0,0,.8.82h6.33a.8.8,0,0,0,.79-.82v-6.59a.81.81,0,0,0-.79-.82Zm.32,7.31a.43.43,0,0,1-.42.43h-6.13a.43.43,0,0,1-.42-.43v-6.38a.43.43,0,0,1,.42-.44h6.13a.43.43,0,0,1,.42.44Z"/><path class="cls-27" d="M938.29,181.66h-4.13a.14.14,0,0,1-.14-.14.15.15,0,0,1,.14-.15h4.13a.15.15,0,0,1,.14.15A.14.14,0,0,1,938.29,181.66Z"/><polygon class="cls-26" points="935.59 176.46 935.59 180.76 934.72 180.76 934.72 176.45 934.29 176.45 935.17 175.35 936.05 176.46 935.59 176.46"/><polygon class="cls-26" points="937.74 176.46 937.74 180.76 936.86 180.76 936.86 176.46 936.43 176.45 937.32 175.35 938.19 176.46 937.74 176.46"/><path class="cls-27" d="M939.39,174.39h-6.33a.81.81,0,0,0-.79.82v6.59a.8.8,0,0,0,.79.82h6.33a.8.8,0,0,0,.79-.82v-6.59a.8.8,0,0,0-.79-.82Zm.32,7.31a.43.43,0,0,1-.42.43h-6.13a.43.43,0,0,1-.42-.43v-6.38a.43.43,0,0,1,.42-.44h6.13a.43.43,0,0,1,.42.44Z"/><path class="cls-27" d="M955.89,174.39h-6.34a.81.81,0,0,0-.79.82v6.59a.8.8,0,0,0,.79.82h6.34a.8.8,0,0,0,.79-.82v-6.59a.81.81,0,0,0-.79-.82Zm.31,7.31a.43.43,0,0,1-.42.43h-6.12a.42.42,0,0,1-.42-.43v-6.38a.43.43,0,0,1,.42-.44h6.12a.43.43,0,0,1,.42.44Z"/><path class="cls-26" d="M952.68,176.53a2.86,2.86,0,0,0-2.78,2.2.66.66,0,0,1,.49-.18c.3,0,.55.15.58.35,0-.19.27-.34.58-.34s.55.15.57.34c0-.19.28-.33.58-.33s.56.15.58.34c0-.19.28-.34.58-.34s.56.16.58.35c0-.19.27-.35.58-.35a.76.76,0,0,1,.44.13,2.86,2.86,0,0,0-2.78-2.17Z"/><path class="cls-27" d="M952.85,176.38a.13.13,0,0,0-.26,0v4.8a.13.13,0,0,0,.13.14.14.14,0,0,0,.14-.14Z"/><path class="cls-27" d="M951.87,180.86a.13.13,0,1,0-.19-.19.7.7,0,0,0,0,1,.73.73,0,0,0,.49.21.69.69,0,0,0,.48-.2.73.73,0,0,0,.16-.23.76.76,0,0,0,.05-.27.14.14,0,1,0-.27,0,.45.45,0,0,1,0,.16.42.42,0,0,1-.09.14.44.44,0,0,1-.3.12.42.42,0,0,1-.3-.12.46.46,0,0,1-.12-.3.39.39,0,0,1,.13-.3Z"/><path class="cls-27" d="M964.17,174.34H957.8a.82.82,0,0,0-.8.83v6.63a.81.81,0,0,0,.8.82h6.37a.81.81,0,0,0,.79-.82v-6.63a.82.82,0,0,0-.79-.83Zm.32,7.35a.44.44,0,0,1-.42.44H957.9a.43.43,0,0,1-.42-.44v-6.41a.43.43,0,0,1,.42-.44h6.17a.44.44,0,0,1,.42.44Z"/><path class="cls-26" d="M962.68,177.88h0v.05h0v0a1.59,1.59,0,1,1-3.17,0v0h0v0h0v-2.08h3.16Z"/><rect class="cls-27" x="960.97" y="177.32" width="0.28" height="4.23"/><path class="cls-26" d="M962.48,181.76a2.51,2.51,0,0,0-2.78,0Z"/><rect class="cls-28" x="858.89" y="202.64" width="149.37" height="116.22"/><rect class="cls-29" x="858.89" y="184.58" width="149.37" height="27.84"/><rect class="cls-30" x="856.25" y="183.23" width="154.66" height="26.5"/><path class="cls-26" d="M963.69,227.43Zm-.3-3.29h0S963.4,224.17,963.39,224.14Zm-4.63,2.17Zm2.55,2h.32a1.6,1.6,0,0,0,1.09-.4l.54-.8h0a1.64,1.64,0,0,0,.28-.48.59.59,0,0,0,0-.47l-.74-1.43-.11-.21.2-.13.35-.23-3-.57-1,2.8.34-.22.23-.15.14.23Zm-3.74,0h3.11l-1-1.56-.43.28,0,0h0a.41.41,0,0,1-.19,0,.38.38,0,0,1-.25-.13.41.41,0,0,1-.09-.26,1.12,1.12,0,0,1,.08-.39l1-3.11.08-.22.22.05,3.22.61c.38.08.54.22.58.39a.47.47,0,0,1-.24.47h0l-.29.19.64,1.23a1.13,1.13,0,0,1,0,.88,2.18,2.18,0,0,1-.35.62l-2.47,3.92a1.43,1.43,0,0,1-1.38.88H957V229C957,228.45,957.2,228.34,957.57,228.32Z"/><path class="cls-27" d="M954.23,219.31Zm-2.6,2h0S951.65,221.31,951.63,221.34Zm4.32,2.72Zm.83-3.07-1,2,.47.21,0,0h0a.44.44,0,0,1,.12.15.38.38,0,0,1,0,.28.39.39,0,0,1-.17.22.87.87,0,0,1-.37.14l-3.19.79-.22.06-.09-.22-1.22-3c-.13-.35-.1-.57,0-.69a.47.47,0,0,1,.53-.06h0l.31.14.69-1.2a1.09,1.09,0,0,1,.72-.5,2.18,2.18,0,0,1,.71,0h4.33l-2,.58-2.37,0h0a2,2,0,0,0-.55,0,.64.64,0,0,0-.39.26l-.8,1.4-.12.21-.22-.1-.38-.17,1.13,2.82,2.87-.71-.37-.16-.25-.11.12-.25,1.07-2.29Z"/><path class="cls-26" d="M958.29,224l-2.19-3.41a1.64,1.64,0,0,0-1-.72l1.45-.47,2.34-.1a1.43,1.43,0,0,1,1.49.69l1.53,2.38-2.76,1.77c-.43.27-.62.17-.83-.14Z"/><path class="cls-26" d="M951.86,231.45Zm3,1.41h0S954.82,232.85,954.85,232.86Zm.48-5.09Zm-3,1.17-.16.28a1.67,1.67,0,0,0-.21,1.15l.42.87h0a1.74,1.74,0,0,0,.26.48.63.63,0,0,0,.41.23l1.62.08h.24v.66l2-2.28L955,228.19l0,.4v.27h-.27Zm1.89-3.22-1.57,2.68,1.84-.05,0-.52v-.06a.48.48,0,0,1,.08-.18.36.36,0,0,1,.24-.14.46.46,0,0,1,.27.05,1,1,0,0,1,.3.27l2.14,2.48.15.18-.15.17-2.16,2.47c-.26.28-.47.35-.63.29s-.26-.24-.29-.44v-.36l-1.38-.07a1.12,1.12,0,0,1-.78-.42,2.21,2.21,0,0,1-.36-.62l-2.13-4.12a1.43,1.43,0,0,1-.05-1.63l1.44-2.44,2.82,1.66C954.37,225.18,954.37,225.4,954.19,225.72Z"/><path class="cls-27" d="M964.33,216.51H949.24a1.94,1.94,0,0,0-1.89,2v15.7a1.94,1.94,0,0,0,1.89,2h15.09a1.92,1.92,0,0,0,1.88-2v-15.7a1.92,1.92,0,0,0-1.88-2Zm.76,17.41a1,1,0,0,1-1,1h-14.6a1,1,0,0,1-1-1V218.73a1,1,0,0,1,1-1h14.6a1,1,0,0,1,1,1Z"/><path class="cls-27" d="M942.05,233.84h-9.83a.34.34,0,0,1-.34-.34.35.35,0,0,1,.34-.35h9.83a.35.35,0,0,1,.35.35A.35.35,0,0,1,942.05,233.84Z"/><polygon class="cls-26" points="935.63 221.44 935.63 231.7 933.55 231.7 933.55 221.43 932.53 221.43 934.63 218.8 936.72 221.44 935.63 221.44"/><polygon class="cls-26" points="940.73 221.44 940.73 231.71 938.65 231.71 938.65 221.44 937.63 221.44 939.74 218.81 941.83 221.45 940.73 221.44"/><path class="cls-27" d="M944.69,216.51H929.6a1.93,1.93,0,0,0-1.89,2v15.7a1.93,1.93,0,0,0,1.89,2h15.09a1.93,1.93,0,0,0,1.88-2v-15.7a1.93,1.93,0,0,0-1.88-2Zm.75,17.41a1,1,0,0,1-1,1H929.84a1,1,0,0,1-1-1V218.73a1,1,0,0,1,1-1h14.61a1,1,0,0,1,1,1Z"/><path class="cls-27" d="M984,216.51H968.89a1.94,1.94,0,0,0-1.9,2v15.7a1.94,1.94,0,0,0,1.9,2H984a1.93,1.93,0,0,0,1.88-2v-15.7a1.93,1.93,0,0,0-1.88-2Zm.75,17.41a1,1,0,0,1-1,1h-14.6a1,1,0,0,1-1-1V218.73a1,1,0,0,1,1-1h14.6a1,1,0,0,1,1,1Z"/><path class="cls-26" d="M976.34,221.61a6.81,6.81,0,0,0-6.63,5.24,1.65,1.65,0,0,1,1.17-.41c.72,0,1.32.36,1.38.81.07-.45.66-.8,1.37-.8s1.32.36,1.38.82c.07-.45.66-.8,1.38-.8s1.32.36,1.38.81c.07-.45.66-.8,1.37-.8s1.34.37,1.39.83c0-.46.64-.83,1.38-.83a1.79,1.79,0,0,1,1.05.31,6.82,6.82,0,0,0-6.62-5.18Z"/><path class="cls-27" d="M976.75,221.26a.32.32,0,1,0-.63,0l0,11.44a.32.32,0,1,0,.63,0Z"/><path class="cls-27" d="M974.4,231.93a.31.31,0,0,0-.44-.45,1.63,1.63,0,0,0,0,2.31,1.61,1.61,0,0,0,1.15.49,1.63,1.63,0,0,0,1.16-.47,1.65,1.65,0,0,0,.36-.54,1.55,1.55,0,0,0,.12-.64.31.31,0,0,0-.31-.31.32.32,0,0,0-.32.32.87.87,0,0,1-.07.39.94.94,0,0,1-.23.33,1,1,0,0,1-.71.29,1,1,0,0,1-.7-.3,1,1,0,0,1,0-1.42Z"/><path class="cls-27" d="M1003.71,216.41H988.54a2,2,0,0,0-1.9,2v15.78a2,2,0,0,0,1.9,2h15.17a1.94,1.94,0,0,0,1.89-2V218.38a1.94,1.94,0,0,0-1.89-2Zm.75,17.5a1,1,0,0,1-1,1.05H988.78a1,1,0,0,1-1-1.05V218.64a1,1,0,0,1,1-1h14.68a1,1,0,0,1,1,1Z"/><path class="cls-26" d="M1000.16,224.82V225h0v.09a3.78,3.78,0,0,1-7.55,0v-5.17h7.54Z"/><rect class="cls-27" x="996.08" y="223.51" width="0.66" height="10.07"/><path class="cls-26" d="M999.68,234.07a6,6,0,0,0-6.61,0Z"/><rect class="cls-23" x="974.35" y="209.73" width="8.02" height="109.13"/><rect class="cls-31" x="976.07" y="183.23" width="4.59" height="135.63"/><rect class="cls-23" x="884.78" y="209.73" width="8.02" height="109.13"/><rect class="cls-31" x="886.5" y="183.23" width="4.59" height="135.63"/></g></g></g></svg>